<?xml version="1.0" encoding="UTF-8" standalone="no"?>
<!-- Created with Inkscape (http://www.inkscape.org/) -->

<svg
   width="512"
   height="512"
   viewBox="0 0 135.46666 135.46667"
   version="1.1"
   id="svg1"
   xml:space="preserve"
   xmlns="http://www.w3.org/2000/svg"
   xmlns:svg="http://www.w3.org/2000/svg"><defs
     id="defs1" /><g
     id="layer3"
     transform="translate(-290.93334)"><path
       d="m 326.18733,2.5486816 c -3.56938,0 -6.58944,2.3599008 -7.74217,5.5609009 a 4.0004,4.0004 0 0 0 -1.36684,-0.7152018 c -1.36726,-0.1629808 -2.77606,-0.2509152 -4.20129,-0.2480469 -4.98257,0.010021 -10.25629,1.0319823 -14.457,4.2581382 -4.20071,3.226155 -6.74153,8.945239 -5.88698,15.85743 1.33042,10.76116 6.85305,18.485644 12.94133,23.478153 6.08828,4.99251 12.62802,7.431707 16.99638,8.359697 a 4.0004,4.0004 0 0 0 2.67012,-0.890902 c 2.90887,5.218866 6.85902,9.998571 12.36307,13.896826 3.57542,2.532305 6.06624,4.367488 7.44709,6.079733 1.38086,1.712245 2.04299,3.291819 2.08204,6.820255 a 4.0004,4.0004 0 0 0 2.41639,3.306775 4.0004,4.0004 0 0 0 -2.17971,1.697571 c -0.90559,3.595357 -2.29681,5.792168 -4.18372,7.230049 -1.88691,1.437882 -4.53603,2.298986 -8.59586,2.277381 -2.66908,-0.0152 -5.20692,2.26207 -5.20692,5.1232 v 9.11521 h -4.59403 c -2.94951,0 -5.56607,2.46774 -5.56607,5.52162 v 9.28316 c 0,3.05393 2.61478,5.52163 5.56607,5.52163 h 33.9788 28.78274 l -6.24923,-4.00079 H 358.667 324.69026 c -0.86892,0 -1.56786,-0.6785 -1.56786,-1.52136 v -9.28264 c 0,-0.84289 0.69894,-1.52083 1.56786,-1.52083 h 8.59276 v -3.77755 -9.33897 c 0,-0.63525 0.53014,-1.12692 1.18494,-1.12292 9.32219,0.0496 14.56456,-4.126253 16.68115,-12.529472 h 7.51789 7.51788 c 1.2333,4.896488 3.52777,8.357631 7.07244,10.383862 l 0.90279,-1.08469 a 4.230558,4.230558 0 0 1 3.04736,-1.519285 c -1.16763,-0.382374 -2.13609,-0.90008 -2.95951,-1.527556 -1.88691,-1.437881 -3.27815,-3.634703 -4.18373,-7.230049 a 4.0004,4.0004 0 0 0 -2.17971,-1.697571 4.0004,4.0004 0 0 0 2.41639,-3.306775 c 0.039,-3.528425 0.70118,-5.108012 2.08204,-6.820255 1.38086,-1.712244 3.87167,-3.547426 7.4471,-6.079733 5.50405,-3.898255 9.4542,-8.67796 12.36307,-13.896826 a 4.0004,4.0004 0 0 0 2.67012,0.890902 c 4.36836,-0.927992 10.90811,-3.367188 16.99638,-8.359697 6.08828,-4.992508 11.61091,-12.716993 12.94132,-23.478153 0.85456,-6.912192 -1.68627,-12.631265 -5.88698,-15.85743 -4.20071,-3.2261655 -9.4744,-4.2481436 -14.45699,-4.2581382 -1.42593,-0.00307 -2.83435,0.085085 -4.2013,0.2480469 a 4.0004,4.0004 0 0 0 -1.36684,0.7152018 C 397.7361,4.908566 394.71603,2.5486816 391.14667,2.5486816 h -32.47864 z m -5.2e-4,4.0007894 h 32.48019 32.48018 c 2.38006,0 4.2716,1.8721482 4.3093,4.180623 0.34502,21.088036 1.0095,44.693029 -17.9374,58.112216 -7.13339,5.052237 -11.12686,7.794088 -11.21896,16.119946 h -7.63312 -7.63313 c -0.0922,-8.325858 -4.08558,-11.067709 -11.21895,-16.119946 -18.9469,-13.419187 -18.28245,-37.02418 -17.93741,-58.112216 0.0378,-2.3084748 1.92925,-4.180623 4.3093,-4.180623 z m -13.30203,4.597135 c 1.25513,-0.0025 2.50585,0.075 3.71915,0.219625 v 8.857858 c -0.50872,-0.112639 -1.00219,-0.205933 -1.47898,-0.279053 -7.15155,-1.097124 -10.64865,2.236061 -8.65632,9.655224 2.48091,9.238655 7.9284,12.625747 13.20385,15.473475 l 3.62975,10.112044 c -7.43863,-1.58022 -24.40559,-9.053301 -26.7994,-28.415837 -1.44679,-11.702635 7.59594,-15.605666 16.38195,-15.623336 z m 91.56443,0 c 8.78601,0.01762 17.82876,3.920701 16.38195,15.623336 -2.39381,19.362536 -19.36078,26.835613 -26.7994,28.415837 l 1.81488,-5.056022 1.81488,-5.056022 c 5.27547,-2.84773 10.7229,-6.234817 13.20384,-15.473475 2.12515,-7.913768 -1.99593,-11.178115 -10.1353,-9.376171 v -8.857858 c 1.21328,-0.144642 2.46402,-0.222325 3.71915,-0.219625 z m -86.58179,12.48606 c 0.0786,5.528121 0.41444,11.061276 1.31827,16.558679 -3.94014,-2.291207 -7.04695,-4.90049 -8.85373,-11.628747 -0.80522,-2.998532 -0.28211,-3.994182 -0.0429,-4.24987 0.23925,-0.255688 1.34961,-0.856124 4.22868,-0.414445 a 4.0004,4.0004 0 0 0 0.002,0 c 0.38239,0.05864 0.79097,0.135235 1.22112,0.230477 a 4.0004,4.0004 0 0 0 2.127,-0.496094 z m 81.60174,5.17e-4 a 4.0004,4.0004 0 0 0 2.12442,0.495577 c 3.43287,-0.759989 5.09103,-0.139936 5.39863,0.132808 0.3076,0.272744 0.86847,1.102649 0.01,4.30103 -1.8068,6.728271 -4.91307,9.337541 -8.85321,11.628747 0.90382,-5.497359 1.24178,-11.030086 1.32034,-16.558162 z m -20.0055,75.659981 a 4.230558,4.230558 0 0 1 0.71985,0.503845 l 7.86722,6.822841 v -1.97921 c 0,-2.86182 -2.53924,-5.138315 -5.20691,-5.1232 -1.25527,0.0067 -2.37545,-0.07122 -3.38016,-0.224276 z m 18.74718,29.253516 -3.99201,5.25032 a 4.230558,4.230558 0 0 1 -0.0491,0.0631 c 2.27102,-0.6712 4.0411,-2.78693 4.0411,-5.29942 z"
       style="baseline-shift:baseline;display:inline;overflow:visible;vector-effect:none;fill-rule:evenodd;stroke:none;stroke-linecap:round;stroke-linejoin:round;stroke-miterlimit:2;paint-order:stroke fill markers;enable-background:accumulate;stop-color:#000000;stop-opacity:1"
       id="path189" /><path
       d="m 326.18681,6.549471 c -2.38005,0 -4.27155,1.8721482 -4.3093,4.180623 -0.34504,21.088036 -1.00949,44.693029 17.93741,58.112216 7.13337,5.052237 11.1268,7.794088 11.21895,16.119946 h 7.63313 7.63312 c 0.0921,-8.325858 4.08557,-11.067709 11.21896,-16.119946 18.9469,-13.419187 18.28242,-37.02418 17.9374,-58.112216 -0.0377,-2.3084748 -1.92924,-4.180623 -4.3093,-4.180623 H 358.667 Z m -13.30203,4.597135 c -8.78601,0.01767 -17.82874,3.920701 -16.38195,15.623336 2.39381,19.362536 19.36077,26.835617 26.7994,28.415837 l -3.62975,-10.112044 c -5.27545,-2.847728 -10.72294,-6.23482 -13.20385,-15.473475 -1.99233,-7.419163 1.50477,-10.752348 8.65632,-9.655224 0.47679,0.07312 0.97026,0.166414 1.47898,0.279053 v -8.857858 c -1.2133,-0.144628 -2.46402,-0.222151 -3.71915,-0.219625 z m 91.56443,0 c -1.25513,-0.0027 -2.50587,0.07498 -3.71915,0.219625 v 8.857858 c 8.13937,-1.801944 12.26045,1.462403 10.1353,9.376171 -2.48094,9.238658 -7.92837,12.625745 -13.20384,15.473475 l -1.81488,5.056022 -1.81488,5.056022 c 7.43862,-1.580224 24.40559,-9.053301 26.7994,-28.415837 1.44681,-11.702635 -7.59594,-15.605712 -16.38195,-15.623336 z m -53.3001,79.841122 c -2.11659,8.403219 -7.35896,12.579082 -16.68115,12.529472 -0.6548,-0.004 -1.18494,0.48767 -1.18494,1.12292 v 9.33897 3.77755 h -8.59276 c -0.86892,0 -1.56786,0.67794 -1.56786,1.52083 v 9.28264 c 0,0.84286 0.69894,1.52136 1.56786,1.52136 h 33.97674 22.53454 l -16.73283,-10.71253 a 4.230558,4.230558 0 0 1 -0.97048,-6.26938 l 9.75909,-11.72797 c -3.54467,-2.026231 -5.83914,-5.487374 -7.07244,-10.383862 H 358.667 Z"
       style="baseline-shift:baseline;display:inline;overflow:visible;vector-effect:none;fill:#ffffff;fill-rule:evenodd;stroke:none;stroke-linecap:round;stroke-linejoin:round;stroke-miterlimit:2;paint-order:stroke fill markers;enable-background:accumulate;stop-color:#000000;stop-opacity:1"
       id="path188" /><path
       d="m 411.49633,73.217236 a 4.230558,4.230558 0 0 0 -0.56844,0.0093 4.230558,4.230558 0 0 0 -3.26388,2.021582 l -19.24017,31.695222 -8.24033,-7.146333 a 4.230558,4.230558 0 0 0 -6.0234,0.489893 l -10.66188,12.81266 a 4.230558,4.230558 0 0 0 0.97048,6.26938 l 24.10137,15.43007 a 4.230558,4.230558 0 0 0 5.64875,-1.00201 l 31.3185,-41.191285 a 4.230558,4.230558 0 0 0 -0.16639,-5.32629 l -10.8903,-12.603882 a 4.230558,4.230558 0 0 0 -2.98431,-1.458309 z m -0.21601,4.225065 10.88978,12.602849 -31.31902,41.19128 -24.10189,-15.43058 10.6624,-12.81265 12.02717,10.43088 z"
       style="baseline-shift:baseline;display:inline;overflow:visible;vector-effect:none;fill-rule:evenodd;stroke:none;stroke-linecap:round;stroke-linejoin:round;stroke-miterlimit:2;paint-order:stroke fill markers;enable-background:accumulate;stop-color:#000000;stop-opacity:1"
       id="path175" /><path
       d="m 411.28032,77.442301 -21.84156,35.981779 -12.02717,-10.43088 -10.6624,12.81265 24.10189,15.43058 31.31902,-41.19128 z"
       style="baseline-shift:baseline;display:inline;overflow:visible;vector-effect:none;fill:#08af50;fill-rule:evenodd;stroke:none;stroke-linecap:round;stroke-linejoin:round;stroke-miterlimit:2;paint-order:stroke fill markers;enable-background:accumulate;stop-color:#000000;stop-opacity:1"
       id="path174" /></g></svg>
