<?xml version="1.0" encoding="UTF-8" standalone="no"?>
<!-- Created with Inkscape (http://www.inkscape.org/) -->

<svg
   width="512"
   height="512"
   viewBox="0 0 135.46666 135.46667"
   version="1.1"
   id="svg1"
   xml:space="preserve"
   xmlns="http://www.w3.org/2000/svg"
   xmlns:svg="http://www.w3.org/2000/svg"><defs
     id="defs1" /><g
     id="layer3"
     transform="translate(-290.93334,-144.92314)"><path
       d="m 326.18733,147.47265 c -3.56923,0 -6.58727,2.3596 -7.7401,5.56039 a 4.0004,4.0004 0 0 0 -1.36891,-0.71469 c -1.36727,-0.16298 -2.77608,-0.25091 -4.20129,-0.24805 -4.98256,0.01 -10.25629,1.03149 -14.457,4.25763 -4.20071,3.22615 -6.74153,8.94369 -5.88698,15.85588 1.33042,10.76116 6.85305,18.48564 12.94133,23.47815 6.08828,4.99251 12.62802,7.43171 16.99638,8.3597 a 4.0004,4.0004 0 0 0 2.66805,-0.88884 c 2.9089,5.21916 6.86083,9.99787 12.36514,13.89631 3.57542,2.5323 6.06624,4.36801 7.44709,6.08025 1.38086,1.71225 2.04299,3.29181 2.08204,6.82025 a 4.0004,4.0004 0 0 0 2.41639,3.30471 4.0004,4.0004 0 0 0 -2.17971,1.69912 c -0.90559,3.59536 -2.29681,5.79269 -4.18372,7.23057 -1.88691,1.43788 -4.53603,2.29898 -8.59586,2.27738 -2.66908,-0.0152 -5.20692,2.26001 -5.20692,5.12113 v 9.11728 h -4.59403 c -2.94951,0 -5.56607,2.46723 -5.56607,5.52111 v 9.2816 c 0,3.05394 2.61478,5.52163 5.56607,5.52163 h 33.9788 33.47444 l -4.28397,-3.99924 H 358.667 324.69026 c -0.86892,0 -1.56786,-0.67901 -1.56786,-1.52187 v -9.28264 c 0,-0.84289 0.69894,-1.52084 1.56786,-1.52084 h 8.59276 v -3.77703 -9.33948 c 0,-0.63525 0.53014,-1.12641 1.18494,-1.12241 9.32219,0.0496 14.56456,-4.12677 16.68115,-12.52999 h 7.51789 7.51788 c 0.62013,2.46207 1.50845,4.56142 2.68925,6.29781 l 2.88044,-2.90783 c -0.68179,-1.1681 -1.24483,-2.5984 -1.69034,-4.36718 a 4.0004,4.0004 0 0 0 -2.17971,-1.69912 4.0004,4.0004 0 0 0 2.41639,-3.30471 c 0.039,-3.52843 0.70118,-5.108 2.08204,-6.82025 1.38086,-1.71224 3.87167,-3.54795 7.4471,-6.08025 5.5043,-3.89844 9.45623,-8.67715 12.36513,-13.89631 a 4.0004,4.0004 0 0 0 2.66806,0.88884 c 4.36835,-0.92799 10.90811,-3.36719 16.99638,-8.3597 6.08828,-4.99251 11.61091,-12.71698 12.94132,-23.47815 0.85456,-6.91219 -1.68627,-12.63126 -5.88698,-15.85743 -4.20071,-3.22616 -9.4744,-4.24609 -14.45699,-4.25608 -1.42652,-0.003 -2.83564,0.0852 -4.2013,0.24805 a 4.0004,4.0004 0 0 0 -1.36684,0.71469 c -1.15273,-3.20101 -4.1728,-5.56039 -7.74216,-5.56039 h -32.47864 z m -5.2e-4,3.99976 h 32.48019 32.48018 c 2.38006,0 4.2716,1.87215 4.3093,4.18062 0.34502,21.08804 1.0095,44.69303 -17.9374,58.11222 -7.13339,5.05223 -11.12686,7.7946 -11.21896,16.12046 h -7.63312 -7.63313 c -0.0922,-8.32586 -4.08558,-11.06823 -11.21895,-16.12046 -18.9469,-13.41919 -18.28245,-37.02418 -17.93741,-58.11222 0.0378,-2.30847 1.92925,-4.18062 4.3093,-4.18062 z m -13.30203,4.59713 c 1.25513,-0.003 2.50585,0.075 3.71915,0.21963 v 8.85786 c -0.50872,-0.11264 -1.00219,-0.20544 -1.47898,-0.27854 -7.15155,-1.09712 -10.64865,2.23605 -8.65632,9.65522 2.48091,9.23865 7.9284,12.62523 13.20385,15.47296 l 3.62975,10.11256 c -7.43863,-1.58022 -24.40559,-9.05382 -26.7994,-28.41635 -1.44679,-11.70264 7.59594,-15.60564 16.38195,-15.62334 z m 91.56443,0 c 8.78601,0.0176 17.82876,3.9207 16.38195,15.62334 -2.39381,19.36254 -19.36078,26.83612 -26.7994,28.41635 l 1.81488,-5.05654 1.81488,-5.05602 c 5.27547,-2.84773 10.7229,-6.23431 13.20384,-15.47296 2.12515,-7.91377 -1.99593,-11.17863 -10.1353,-9.37668 v -8.85786 c 1.21328,-0.14464 2.46402,-0.22263 3.71915,-0.21963 z m -86.58231,12.4871 h 5.2e-4 c 0.0786,5.52812 0.41444,11.06128 1.31827,16.55868 -3.94014,-2.2912 -7.04695,-4.9005 -8.85373,-11.62875 -0.80522,-2.99854 -0.28211,-3.99677 -0.0429,-4.25246 0.23925,-0.25568 1.35116,-0.85354 4.23023,-0.41186 0.38216,0.0586 0.79087,0.13522 1.22112,0.23048 a 4.0004,4.0004 0 0 0 2.12648,-0.49609 z m 81.60226,0 a 4.0004,4.0004 0 0 0 2.12442,0.49609 c 3.43287,-0.75999 5.09103,-0.13994 5.39863,0.13281 0.3076,0.27274 0.86847,1.10265 0.01,4.30103 -1.8068,6.72826 -4.91307,9.33755 -8.85321,11.62875 0.90382,-5.49736 1.24178,-11.03061 1.32034,-16.55868 z"
       style="baseline-shift:baseline;display:inline;overflow:visible;vector-effect:none;fill-rule:evenodd;stroke:none;stroke-linecap:round;stroke-linejoin:round;stroke-miterlimit:2;paint-order:stroke fill markers;enable-background:accumulate;stop-color:#000000;stop-opacity:1"
       id="path187" /><path
       d="m 326.18681,151.47241 c -2.38005,0 -4.27155,1.87215 -4.3093,4.18062 -0.34504,21.08804 -1.00949,44.69303 17.93741,58.11222 7.13337,5.05223 11.1268,7.7946 11.21895,16.12046 h 7.63313 7.63312 c 0.0921,-8.32586 4.08557,-11.06823 11.21896,-16.12046 18.9469,-13.41919 18.28242,-37.02418 17.9374,-58.11222 -0.0377,-2.30847 -1.92924,-4.18062 -4.3093,-4.18062 H 358.667 Z m -13.30203,4.59713 c -8.78601,0.0177 -17.82874,3.9207 -16.38195,15.62334 2.39381,19.36253 19.36077,26.83613 26.7994,28.41635 l -3.62975,-10.11256 c -5.27545,-2.84773 -10.72294,-6.23431 -13.20385,-15.47296 -1.99233,-7.41917 1.50477,-10.75234 8.65632,-9.65522 0.47679,0.0731 0.97026,0.1659 1.47898,0.27854 v -8.85786 c -1.2133,-0.14463 -2.46402,-0.22215 -3.71915,-0.21963 z m 91.56443,0 c -1.25513,-0.003 -2.50587,0.075 -3.71915,0.21963 v 8.85786 c 8.13937,-1.80195 12.26045,1.46291 10.1353,9.37668 -2.48094,9.23865 -7.92837,12.62523 -13.20384,15.47296 l -1.81488,5.05602 -1.81488,5.05654 c 7.43862,-1.58023 24.40559,-9.05381 26.7994,-28.41635 1.44681,-11.70264 -7.59594,-15.60572 -16.38195,-15.62334 z m -53.3001,79.84112 c -2.11659,8.40322 -7.35896,12.5796 -16.68115,12.52999 -0.6548,-0.004 -1.18494,0.48716 -1.18494,1.12241 v 9.33948 3.77703 h -8.59276 c -0.86892,0 -1.56786,0.67795 -1.56786,1.52084 v 9.28264 c 0,0.84286 0.69894,1.52187 1.56786,1.52187 h 33.97674 29.1915 l -23.72982,-22.15317 a 4.0004,4.0004 0 0 1 -0.11317,-5.73867 l 4.85862,-4.90461 c -1.1808,-1.73639 -2.06912,-3.83574 -2.68925,-6.29781 H 358.667 Z"
       style="baseline-shift:baseline;display:inline;overflow:visible;vector-effect:none;fill:#ffffff;fill-rule:evenodd;stroke:none;stroke-linecap:round;stroke-linejoin:round;stroke-miterlimit:2;paint-order:stroke fill markers;enable-background:accumulate;stop-color:#000000;stop-opacity:1"
       id="path186" /><path
       d="m 393.9744,218.47452 a 4.0004,4.0004 0 0 0 -2.76159,1.18391 l -27.1973,27.45465 a 4.0004,4.0004 0 0 0 0.11317,5.73867 l 28.34607,26.46247 a 4.0004,4.0004 0 0 0 5.5702,-0.10904 l 27.19731,-27.45517 a 4.0004,4.0004 0 0 0 -0.11317,-5.73815 l -28.34607,-26.46299 a 4.0004,4.0004 0 0 0 -2.80862,-1.07435 z m 0.0796,3.99924 28.34608,26.46143 -27.19628,27.45466 -28.34607,-26.46144 z"
       style="baseline-shift:baseline;display:inline;overflow:visible;vector-effect:none;fill-rule:evenodd;stroke:none;stroke-linecap:round;stroke-linejoin:round;stroke-miterlimit:2;paint-order:stroke fill markers;enable-background:accumulate;stop-color:#000000;stop-opacity:1"
       id="path177" /><path
       d="m 394.05398,222.47376 -27.19627,27.45465 28.34607,26.46144 27.19628,-27.45466 z"
       style="baseline-shift:baseline;display:inline;overflow:visible;vector-effect:none;fill:#f4900c;fill-rule:evenodd;stroke:none;stroke-linecap:round;stroke-linejoin:round;stroke-miterlimit:2;paint-order:stroke fill markers;enable-background:accumulate;stop-color:#000000;stop-opacity:1"
       id="path176" /></g></svg>
