<?xml version="1.0" encoding="UTF-8" standalone="no"?>
<!-- Created with Inkscape (http://www.inkscape.org/) -->

<svg
   width="512"
   height="512"
   viewBox="0 0 135.46666 135.46667"
   version="1.1"
   id="svg1"
   xml:space="preserve"
   xmlns="http://www.w3.org/2000/svg"
   xmlns:svg="http://www.w3.org/2000/svg"><defs
     id="defs1" /><g
     id="layer3"
     transform="translate(-290.93334)"><path
       id="path11"
       style="display:inline;fill:#ffffff;fill-rule:evenodd;stroke:#000000;stroke-width:8;stroke-linecap:round;stroke-linejoin:round;stroke-miterlimit:2;stroke-dasharray:none;stroke-opacity:1;paint-order:stroke fill markers"
       d="m 326.18704,6.5493504 c -2.38005,0 -4.27189,1.8721074 -4.30964,4.1805826 -0.34504,21.088036 -1.00928,44.693018 17.93762,58.112205 7.13337,5.052237 11.12647,7.794373 11.21862,16.120231 h 7.63336 7.63334 c 0.0921,-8.325858 4.08525,-11.067994 11.21864,-16.120231 18.9469,-13.419187 18.28266,-37.024169 17.93764,-58.112205 -0.0377,-2.3084752 -1.92961,-4.1805826 -4.30967,-4.1805826 H 358.667 Z m -13.30219,4.5971466 c -8.78601,0.01767 -17.82901,3.920835 -16.38222,15.62347 2.39381,19.362536 19.36074,26.835778 26.79937,28.415998 l -3.62972,-10.112407 c -5.27545,-2.847728 -10.72257,-6.234586 -13.20348,-15.473241 -1.99233,-7.419163 1.50475,-10.75227 8.6563,-9.655146 0.47679,0.07312 0.97021,0.166267 1.47893,0.278906 v -8.85793 c -1.2133,-0.144628 -2.46405,-0.22217 -3.71918,-0.219644 z m 91.56432,0 c -1.25513,-0.0027 -2.5059,0.075 -3.71918,0.219642 v 8.857931 c 8.13937,-1.801944 12.26036,1.46247 10.13521,9.376238 -2.48094,9.238658 -7.92803,12.625514 -13.2035,15.473244 l -1.81485,5.056203 -1.81484,5.056205 c 7.43862,-1.580224 24.40555,-9.053463 26.79936,-28.415999 1.44681,-11.702635 -7.59619,-15.605846 -16.3822,-15.62347 z m -53.30013,79.841064 c -2.11659,8.403219 -7.35864,12.579369 -16.68083,12.529759 -0.6548,-0.004 -1.18521,0.48757 -1.18521,1.12282 v 9.3391 3.77721 h -8.59275 c -0.86892,0 -1.56778,0.67795 -1.56778,1.52084 v 9.28286 c 0,0.84286 0.69886,1.52139 1.56778,1.52139 h 33.97675 33.97675 c 0.86894,0 1.56778,-0.67853 1.56778,-1.52139 v -9.28286 c 0,-0.84289 -0.69884,-1.52084 -1.56778,-1.52084 H 384.051 v -3.77721 -9.3391 c 0,-0.63525 -0.53041,-1.12653 -1.18521,-1.12282 -9.32217,0.0496 -14.56426,-4.12654 -16.68081,-12.529759 H 358.667 Z" /><path
       id="path15-4-4"
       style="display:inline;fill:#08af50;fill-opacity:1;fill-rule:evenodd;stroke:#000000;stroke-width:8.46027;stroke-linecap:round;stroke-linejoin:round;stroke-miterlimit:2;stroke-dasharray:none;stroke-opacity:1;paint-order:stroke fill markers"
       d="m 389.43888,113.42429 21.84155,-35.98199 10.88954,12.60268 -31.31903,41.1917 -24.1016,-15.43073 10.66233,-12.81275 z" /></g></svg>
