<?xml version="1.0" encoding="UTF-8" standalone="no"?>
<!-- Created with Inkscape (http://www.inkscape.org/) -->

<svg
   width="512"
   height="512"
   viewBox="0 0 135.46666 135.46667"
   version="1.1"
   id="svg1"
   xml:space="preserve"
   xmlns="http://www.w3.org/2000/svg"
   xmlns:svg="http://www.w3.org/2000/svg"><defs
     id="defs1" /><g
     id="layer5"
     transform="translate(-436.40005)"><path
       d="m 523.95303,2.5486816 c -19.41777,0 -15.35354,0.3711046 -34.65835,0.1896525 a 4.4386638,4.4386638 0 0 0 -4.07572,2.5900228 L 453.16407,75.302897 a 4.4386638,4.4386638 0 0 0 4.61936,6.247681 l 23.95461,-3.17345 -23.81405,48.948952 a 4.4386638,4.4386638 0 0 0 2.37091,6.07456 l 1.08004,0.42375 a 4.4386638,4.4386638 0 0 0 4.94905,-1.19734 l 71.42975,-80.994026 a 4.4386638,4.4386638 0 0 0 -3.8964,-7.338053 l -27.94145,3.60133 21.90047,-38.724251 a 4.4386638,4.4386638 0 0 0 -3.86333,-6.6233684 z m 5.2e-4,4.4390056 -26.26868,46.4457438 36.73936,-4.736662 -71.42975,80.995061 -1.07901,-0.42323 L 489.34171,72.891158 457.2,77.15188 489.25282,7.1768229 c 19.35579,0.1819314 15.3397,-0.1891357 34.70073,-0.1891357 z"
       style="baseline-shift:baseline;display:inline;overflow:visible;vector-effect:none;fill-rule:evenodd;stroke:none;stroke-linecap:round;stroke-linejoin:round;paint-order:stroke fill markers;enable-background:accumulate;stop-color:#000000;stop-opacity:1"
       id="path171" /><path
       d="m 523.95355,6.9876872 c -19.36103,0 -15.34494,0.3710671 -34.70073,0.1891357 L 457.2,77.15188 l 32.14171,-4.260722 -27.42624,56.377442 1.07901,0.42323 71.42975,-80.995061 -36.73936,4.736662 z"
       style="baseline-shift:baseline;display:inline;overflow:visible;vector-effect:none;fill:#a2beff;fill-rule:evenodd;stroke:none;stroke-linecap:round;stroke-linejoin:round;paint-order:stroke fill markers;enable-background:accumulate;stop-color:#000000;stop-opacity:1"
       id="path170" /><path
       d="m 535.65258,73.824434 a 4.230558,4.230558 0 0 0 -0.56845,0.0093 4.230558,4.230558 0 0 0 -3.26388,2.020032 l -19.2381,31.696774 -8.24239,-7.14633 a 4.230558,4.230558 0 0 0 -6.02341,0.49041 l -10.66188,12.81265 a 4.230558,4.230558 0 0 0 0.97049,6.26732 l 24.10137,15.43162 a 4.230558,4.230558 0 0 0 5.64875,-1.00408 l 31.3185,-41.191284 a 4.230558,4.230558 0 0 0 -0.1664,-5.32629 L 538.63844,75.28326 a 4.230558,4.230558 0 0 0 -2.98586,-1.458826 z m -0.2155,4.224032 10.88978,12.602848 -31.31902,41.191806 -24.10189,-15.4311 10.6624,-12.81266 12.02717,10.43141 z"
       style="baseline-shift:baseline;display:inline;overflow:visible;vector-effect:none;fill-rule:evenodd;stroke:none;stroke-linecap:round;stroke-linejoin:round;stroke-miterlimit:2;paint-order:stroke fill markers;enable-background:accumulate;stop-color:#000000;stop-opacity:1"
       id="path165" /><path
       d="m 535.43708,78.048466 -21.84156,35.982304 -12.02717,-10.43141 -10.6624,12.81266 24.10189,15.4311 31.31902,-41.191806 z"
       style="baseline-shift:baseline;display:inline;overflow:visible;vector-effect:none;fill:#ffffff;fill-rule:evenodd;stroke:none;stroke-linecap:round;stroke-linejoin:round;stroke-miterlimit:2;paint-order:stroke fill markers;enable-background:accumulate;stop-color:#000000;stop-opacity:1"
       id="path164" /></g></svg>
