<?xml version="1.0" encoding="UTF-8" standalone="no"?>
<!-- Created with Inkscape (http://www.inkscape.org/) -->

<svg
   width="512"
   height="512"
   viewBox="0 0 135.46666 135.46667"
   version="1.1"
   id="svg1"
   xml:space="preserve"
   xmlns="http://www.w3.org/2000/svg"
   xmlns:svg="http://www.w3.org/2000/svg"><defs
     id="defs1" /><path
     d="m 67.689497,28.91274 c -20.06493,0.28212 -41.2674,9.32466 -61.93524,36.39312 a 3.9999971,3.9999974 0 0 0 -0.19689,0.47801 3.9999971,3.9999974 0 0 0 -0.38705,0.94155 3.9999971,3.9999974 0 0 0 -0.13488,1.00769 3.9999971,3.9999974 0 0 0 0.13488,1.00769 3.9999971,3.9999974 0 0 0 0.38705,0.94154 3.9999971,3.9999974 0 0 0 0.19689,0.47801 c 20.66637,27.06653 41.73142,35.95009 61.77401,36.23189 a 4.0003971,4.0003974 0 0 0 0.002,0 c 20.67892,0.2819 41.955203,-8.65989 62.228773,-36.29287 a 4.0003971,4.0003974 0 0 0 -0.006,-4.74028 C 109.39199,37.74586 88.298457,28.63038 67.691047,28.91274 a 4.0003971,4.0003974 0 0 0 -0.002,0 z m 0.0558,3.99975 c 19.45111,-0.26651 38.939563,7.90285 58.787633,34.82062 -19.74883,26.91776 -39.398003,34.92641 -58.948353,34.6599 -18.95491,-0.26652 -38.5054,-8.27516 -58.6512,-34.6599 20.1458,-26.38474 39.85701,-34.5541 58.81192,-34.82062 z m 0,10.66033 c -13.89365,0.17768 -28.34494,4.79371 -43.03252,24.16029 14.68758,19.36657 28.97815,23.82189 42.8718,23.99956 14.29062,0.17768 28.63078,-4.27764 43.020643,-23.99956 C 96.116117,48.01118 81.936667,43.39515 67.745297,43.57282 Z m 0.0506,3.99976 C 80.506157,47.41345 92.374887,50.86055 105.5688,67.73982 92.466787,84.57785 80.472127,87.89201 67.634147,87.7324 l 0.002,5.2e-4 c -12.47827,-0.15959 -24.48372,-3.51904 -37.82043,-19.9993 13.35108,-16.49246 25.53148,-20.00166 37.98063,-20.16104 z m -0.17622,4.58835 c -8.4233,0 -15.7949,6.75464 -15.7949,15.43885 0,8.65355 7.0445,15.49673 15.6807,15.49673 8.97572,0 16.137,-6.91253 16.137,-15.23008 0,-9.32028 -7.97461,-15.7055 -16.0228,-15.7055 z m -5.1e-4,4.00027 c 5.93456,0 12.02304,4.70378 12.02304,11.70523 0,6.06234 -5.12697,11.23032 -12.13673,11.23032 -6.72193,0 -11.68094,-4.82514 -11.68094,-11.49645 0,-6.36936 5.52877,-11.4391 11.79463,-11.4391 z"
     style="baseline-shift:baseline;display:inline;overflow:visible;vector-effect:none;fill-rule:evenodd;stroke:none;enable-background:accumulate;stop-color:#000000;stop-opacity:1"
     id="path163" /><path
     d="m 67.745307,32.91249 c -18.95491,0.26652 -38.66612,8.43588 -58.81192,34.82062 20.1458,26.38474 39.69629,34.39338 58.6512,34.6599 19.55035,0.26651 39.199523,-7.74214 58.948353,-34.6599 C 106.68487,40.81534 87.196417,32.64598 67.745307,32.91249 Z m 0,10.66033 c 14.19137,-0.17767 28.37082,4.43836 42.859923,24.16029 C 96.215367,87.45503 81.875207,91.91035 67.584587,91.73267 53.690937,91.555 39.400367,87.09968 24.712787,67.73311 39.400367,48.36653 53.851657,43.7505 67.745307,43.57282 Z m -0.12609,12.58838 c -6.26586,0 -11.79463,5.06974 -11.79463,11.4391 0,6.67131 4.95901,11.49645 11.68094,11.49645 7.00976,0 12.13673,-5.16798 12.13673,-11.23032 0,-7.00145 -6.08848,-11.70523 -12.02304,-11.70523 z"
     style="baseline-shift:baseline;display:inline;overflow:visible;vector-effect:none;fill:#ffffa2;fill-rule:evenodd;stroke:none;enable-background:accumulate;stop-color:#000000;stop-opacity:1"
     id="path162" /></svg>
