<?xml version="1.0" encoding="UTF-8" standalone="no"?>
<!-- Created with Inkscape (http://www.inkscape.org/) -->

<svg
   width="512"
   height="512"
   viewBox="0 0 135.46666 135.46667"
   version="1.1"
   id="svg1"
   xml:space="preserve"
   xmlns="http://www.w3.org/2000/svg"
   xmlns:svg="http://www.w3.org/2000/svg"><defs
     id="defs1" /><g
     id="layer1"
     transform="translate(-2.1460765e-6,-442.12975)"><path
       d="m 77.000468,470.94231 0.425297,0.29818 c 0.114713,-0.0855 0.227674,-0.17194 0.338997,-0.25839 -0.254924,-0.0138 -0.509793,-0.0271 -0.764294,-0.0398 z m -19.204513,0.0982 c -0.169132,0.0101 -0.338523,0.0204 -0.507462,0.031 0.07359,0.0565 0.148108,0.11296 0.223242,0.16899 z m 50.367465,4.26124 c -0.76329,1.17148 -1.61259,2.34389 -2.54403,3.52175 5.96889,1.31767 12.05468,2.97602 18.26452,5.00899 -2.16657,12.71688 -5.48738,23.95773 -9.46867,33.78915 0.70225,0.80473 1.17559,1.72243 1.50482,2.6846 l 0.0269,0.0744 0.0238,0.0713 c 0.12279,0.41723 0.0571,0.86361 0.14418,1.28985 0.32316,-0.24886 0.5401,-0.72917 0.88831,-0.92139 0.17186,-0.0949 0.3483,-0.18426 0.52969,-0.26769 4.35108,-10.43598 7.97313,-22.42981 10.29343,-36.04896 a 4.0004,4.0004 0 0 0 -2.69751,-4.4726 c -5.7527,-1.88331 -11.40659,-3.4511 -16.96538,-4.72942 z m -81.252918,0.20619 c -5.698695,1.29371 -11.28264,2.81129 -16.75815,4.5036 a 4.0004,4.0004 0 0 0 -2.8065471,4.12533 c 1.2460751,16.33836 5.2747161,30.50306 10.7078731,42.48164 0.434961,-1.74972 1.124826,-3.53063 2.040703,-5.34282 -4.436228,-10.7633 -7.678043,-23.2407 -8.761223,-37.4432 5.506172,-1.70178 11.111392,-3.22306 16.826363,-4.5129 0.17386,-0.0539 0.345854,-0.0931 0.512114,-0.11472 0.269398,-0.0601 0.53885,-0.11976 0.808736,-0.1788 -0.939677,-1.17698 -1.797413,-2.34816 -2.569869,-3.51813 z m 82.492118,10.07897 c -0.0978,0.16968 -0.19018,0.30031 -0.2775,0.42685 -0.35683,0.5171 -0.67901,0.87046 -1.0511,1.26555 -0.51149,0.5431 -1.10455,1.11657 -1.76061,1.71514 0.72028,0.15451 1.40402,0.30721 2.05,0.45682 1.98184,0.45902 3.28616,0.83714 4.49792,1.18959 -0.86343,5.0854 -2.82038,10.5337 -6.12573,19.37298 1.18414,1.03305 2.24,2.00807 3.13676,3.08767 4.4453,-11.72075 6.901,-18.06477 7.4812,-25.13645 0.015,-0.18263 -2.84235,-1.18884 -7.95094,-2.37815 z m -83.800565,0.11265 c -2.518659,0.57407 -5.055961,1.21033 -7.607288,1.9141 0.967053,6.58367 2.757417,16.82905 6.0818,26.82937 0.843334,-1.30763 1.894166,-2.41075 3.111438,-3.52589 -2.225668,-7.27245 -3.683945,-14.60244 -4.623491,-20.30573 2.090758,-0.52837 4.171264,-1.01251 6.238379,-1.45521 -0.727241,-0.65715 -1.381918,-1.28494 -1.939416,-1.87689 -0.372089,-0.39509 -0.694273,-0.74845 -1.051099,-1.26555 -0.06702,-0.0971 -0.137114,-0.19643 -0.210323,-0.3142 z m 75.695635,38.62193 c -0.20132,0.45801 -0.40902,0.91506 -0.6227,1.37098 0.0522,0.23392 0.10435,0.45219 0.15658,0.63304 0.16865,-0.70297 0.31951,-1.36721 0.46612,-2.00402 z m -68.623199,0.44597 c -1.418108,0.7236 -2.507719,1.47177 -3.340881,2.24483 0.492906,0.93126 1.005202,1.84209 1.537891,2.728 1.082965,1.80106 2.482989,3.42468 3.691247,5.17849 -0.23043,-0.51146 -0.389312,-0.98764 -0.527616,-1.51257 -0.517284,-1.96332 -0.497328,-4.0855 0.07855,-6.03684 -0.497773,-0.84205 -0.977503,-1.71092 -1.439189,-2.60191 z m -6.446635,9.13381 -0.153479,1.12396 a 4.0004,4.0004 0 0 1 -2.08256,2.99155 c 3.233712,5.45378 6.720927,10.3165 10.268107,14.58671 6.342238,7.63498 12.868232,13.38902 18.576127,17.32039 5.707896,3.93137 10.126262,6.23411 14.488005,6.36343 a 4.0004,4.0004 0 0 0 0.257865,0 c 4.151644,-0.14385 8.10684,-2.34169 13.33407,-6.11177 1.848811,-1.33343 3.797832,-2.889 5.812565,-4.67361 -0.04545,-0.38623 -0.111331,-0.79349 -0.205155,-1.15652 l -5.17e-4,5.1e-4 v 5.2e-4 l -5.17e-4,5.2e-4 v 5.2e-4 h -5.16e-4 l -5.17e-4,5.1e-4 h -5.17e-4 -5.17e-4 -5.16e-4 -5.17e-4 -5.17e-4 c -0.0423,-0.0199 -0.312724,-0.54671 -0.806669,-1.10174 -0.319306,-0.35879 -0.712117,-0.75997 -1.1467,-1.17667 -7.560428,6.80782 -14.0238,10.1127 -17.121952,10.22005 -6.555633,-0.19438 -26.832851,-12.91864 -41.215573,-38.38836 z m 60.295545,30.44414 c 0.0032,-0.009 -0.0036,-0.0405 -0.02015,-0.0997 0.0086,0.0309 0.01197,0.0681 0.02015,0.0997 z M 36.051546,537.00753 c 11.532764,15.96765 26.720288,29.19876 31.262175,30.15888 2.02023,-0.13339 7.089661,-3.36228 13.037964,-8.66407 -0.75718,-0.58801 -1.395971,-1.06718 -1.805575,-1.38544 -0.316512,-0.24025 -0.656579,-0.4916 -1.010274,-0.75861 -0.535312,0.51629 -1.031126,1.01625 -1.481047,1.49345 -2.000635,2.12193 -3.176428,3.45115 -5.388818,4.02921 -0.58516,0.15287 -1.193231,0.28069 -1.81436,0.36535 -0.22185,0.12982 -0.430663,0.24713 -0.625285,0.3514 -0.523376,0.2804 -0.409826,0.23494 -0.638203,0.31419 -0.133135,-0.0789 -0.521531,-0.25973 -1.112077,-0.58601 -0.753629,-0.0611 -1.508689,-0.21382 -2.249475,-0.48782 -2.155082,-0.7971 -3.684686,-2.22829 -5.349545,-3.99407 -1.875147,-1.98883 -4.565382,-4.38318 -7.566463,-6.69572 l -0.611332,-0.47077 a 4.0004,4.0004 0 0 1 -1.540474,-3.53725 c -2.853554,-3.08787 -5.723987,-6.46982 -8.416024,-10.01335 -0.999301,0.51787 -2.480677,0.76075 -3.455603,0.43357 -0.525598,-0.17639 -0.915566,-0.36344 -1.235584,-0.55294 z"
       style="baseline-shift:baseline;display:inline;overflow:visible;vector-effect:none;stroke:none;stroke-linecap:round;stroke-linejoin:round;paint-order:stroke fill markers;enable-background:accumulate;stop-color:#000000;stop-opacity:1"
       id="path231" /><path
       d="m 105.61939,478.82349 c -0.13702,0.17327 -0.27594,0.34685 -0.41651,0.52038 0.34095,-0.0582 0.48873,-0.2026 1.01389,-0.1447 1.17867,0.12989 2.65886,1.17983 3.16415,1.98438 1.11016,1.76756 0.56872,3.1145 0.34572,3.7052 -0.11386,0.3016 -0.22193,0.52113 -0.32402,0.69815 5.10859,1.18931 7.96591,2.19552 7.95094,2.37815 -0.5802,7.07168 -3.0359,13.4157 -7.4812,25.13645 0.59897,0.72108 1.12712,1.48895 1.5751,2.35179 -0.007,-0.0127 0.0527,0.0883 0.15761,0.26665 0.72142,0.25485 1.38745,0.619 1.93374,1.05937 0.32635,0.26308 0.61693,0.54496 0.87643,0.84232 3.98129,-9.83142 7.3021,-21.07227 9.46867,-33.78915 -6.20984,-2.03297 -12.29563,-3.69132 -18.26452,-5.00899 z m -76.139019,0.20257 c -0.269886,0.059 -0.539338,0.11872 -0.808736,0.1788 0.0157,-0.002 0.03142,-0.004 0.04703,-0.006 0.526693,-0.058 0.675992,0.0861 1.017509,0.1447 -0.08584,-0.10597 -0.171277,-0.21195 -0.255798,-0.31781 z m -1.32085,0.29352 c -5.714971,1.28984 -11.320191,2.81112 -16.826363,4.5129 1.08318,14.2025 4.324995,26.6799 8.761223,37.4432 0.500382,-0.99008 1.068044,-1.98935 1.698604,-2.99827 0.767501,-1.22803 1.722484,-2.87312 1.697054,-2.82412 0.182487,-0.35148 0.37809,-0.68708 0.586528,-1.01027 -3.324383,-10.00032 -5.114747,-20.2457 -6.0818,-26.82937 2.551327,-0.70377 5.088629,-1.34003 7.607288,-1.9141 -0.121671,-0.19572 -0.251966,-0.44201 -0.391191,-0.8108 -0.222996,-0.59069 -0.764429,-1.93762 0.345716,-3.7052 0.427798,-0.68113 1.552634,-1.53827 2.602941,-1.86397 z m 1.174089,47.6927 c -0.144882,0.13443 -0.282119,0.26972 -0.411861,0.40566 -1.47184,1.54209 -2.257726,3.26377 -2.652035,6.17585 l -0.04186,0.30747 c 14.382722,25.46972 34.65994,38.19398 41.215573,38.38836 3.098152,-0.10735 9.561524,-3.41223 17.121952,-10.22005 -0.417405,-0.40023 -0.873351,-0.81477 -1.339453,-1.22008 -1.003059,-0.87224 -2.014913,-1.67981 -2.874243,-2.34715 -5.948303,5.30179 -11.017734,8.53068 -13.037964,8.66407 -4.541887,-0.96012 -19.729411,-14.19123 -31.262175,-30.15888 -1.162957,-0.68863 -1.178638,-1.4202 -1.405082,-1.88619 -0.0341,-0.0702 -0.05286,-0.13407 -0.08372,-0.20257 -1.208258,-1.75381 -2.608282,-3.37743 -3.691247,-5.17849 -0.532689,-0.88591 -1.044985,-1.79674 -1.537891,-2.728 z"
       style="baseline-shift:baseline;display:inline;overflow:visible;vector-effect:none;fill:#ffffff;stroke:none;stroke-linecap:round;stroke-linejoin:round;paint-order:stroke fill markers;enable-background:accumulate;stop-color:#000000;stop-opacity:1"
       id="path230" /><path
       d="m 44.543018,444.6018 c -1.124981,-0.0126 -1.736538,0.31716 -2.181779,0.56431 -1.780965,0.98858 -2.088376,1.83118 -2.693376,3.00602 -3.699753,7.18454 -3.474755,15.87747 -0.117306,24.15408 -0.01346,-0.009 -0.0531,-0.0203 -0.06614,-0.0295 -2.107896,-1.48467 -2.836967,-2.09514 -3.818372,-3.59926 -0.981406,-1.50413 -2.198338,-4.1762 -4.216797,-9.10384 -0.624604,-1.52484 -1.21427,-2.89175 -1.689302,-3.92379 -0.237516,-0.51602 -0.439347,-0.93741 -0.646473,-1.32602 -0.103563,-0.1943 -0.19079,-0.36255 -0.394808,-0.66197 -0.102009,-0.14971 -0.1905,-0.31988 -0.587561,-0.70125 -0.19853,-0.19069 -0.452607,-0.46579 -1.158585,-0.78135 -0.705977,-0.31556 -2.378702,-0.58585 -3.724321,0.23255 -2.155709,1.31099 -1.820837,2.24957 -1.941483,2.75177 -0.120646,0.50221 -0.149858,0.84951 -0.1757,1.20716 -0.05168,0.71532 -0.04259,1.42268 -0.0062,2.17971 0.07287,1.51407 0.183466,2.991 0.671793,4.58163 0.247072,0.8048 0.67445,2.32857 0.883151,3.15433 1.117861,4.42288 3.531875,8.68664 7.056416,13.03745 -0.341517,-0.0586 -0.490816,-0.20274 -1.017509,-0.1447 -1.178656,0.12988 -2.656778,1.17985 -3.16208,1.98438 -1.110145,1.76758 -0.568712,3.11451 -0.345716,3.7052 0.222997,0.5907 0.423101,0.86645 0.601514,1.125 0.356826,0.5171 0.67901,0.87046 1.051099,1.26555 0.744179,0.79017 1.661254,1.644 2.693375,2.54662 2.064241,1.80525 4.428128,3.69369 6.487976,4.92218 0.530753,0.31654 1.974058,1.78452 2.949174,3.00756 -0.08644,0.10255 -0.174766,0.18019 -0.261482,0.28733 -0.526175,0.65011 -1.876719,2.10069 -2.560568,2.74195 -0.507642,0.47602 -0.931513,0.8827 -1.353405,1.36374 -0.421891,0.48104 -0.969661,0.95336 -1.318783,2.36316 -0.106275,0.42915 0.08657,1.00218 0.189653,1.54099 -1.723536,1.12309 -3.48751,2.23207 -5.019332,3.55482 -2.188147,1.8895 -3.974141,3.52299 -5.180046,5.84564 0.02543,-0.049 -0.929553,1.59609 -1.697054,2.82412 -3.628366,5.80551 -5.179847,11.29802 -3.753776,16.48995 l 0.214457,0.78135 a 4.0004,4.0004 0 0 0 7.820711,-0.52349 l 0.195337,-1.43143 c 0.394309,-2.91208 1.180195,-4.63376 2.652035,-6.17585 1.47184,-1.5421 3.89357,-2.9872 7.816577,-4.33772 0.0211,-0.007 0.05875,-0.0262 0.0801,-0.0336 -0.610874,0.66397 -1.278893,1.28513 -1.734261,2.06447 -1.443138,2.46987 -1.775159,5.53913 -1.049031,8.2951 0.156827,0.59523 0.322577,1.12092 0.611332,1.71514 0.288756,0.59422 0.205024,1.62172 2.640666,2.43913 1.217821,0.4087 3.225834,-0.0718 4.097424,-0.86713 0.871589,-0.79526 1.06123,-1.44415 1.211296,-1.90841 0.300133,-0.92854 0.283186,-1.45601 0.283186,-2.07016 0,-0.43677 1.21034,-2.62771 3.109371,-3.8592 0.949516,-0.61575 1.958834,-0.98669 2.529045,-1.07021 0.152775,-0.0224 0.253837,-0.0305 0.315226,-0.0341 0.59932,0.72622 1.778569,3.18536 2.157491,6.20582 0.409112,3.26111 0.117794,7.0891 -0.843876,9.92549 l -0.792716,2.34198 a 4.0004,4.0004 0 0 0 1.345654,4.45296 l 0.611332,0.47077 c 3.001081,2.31254 5.691316,4.70689 7.566463,6.69572 1.664859,1.76578 3.194463,3.19697 5.349545,3.99407 2.155083,0.79711 4.431526,0.56745 6.4394,0.0429 2.21239,-0.57806 3.388183,-1.90728 5.388818,-4.02921 0.449921,-0.4772 0.945735,-0.97716 1.481047,-1.49345 -0.970359,-0.73256 -2.044199,-1.58272 -3.022555,-2.64273 -0.484878,0.47366 -0.942502,0.93832 -1.369425,1.39113 -1.91836,2.03466 -2.721749,2.70344 -3.488159,2.90369 -3.31833,0.86697 -4.836304,0.30533 -7.868254,-2.91041 -2.07873,-2.20476 -4.896102,-4.70099 -8.034652,-7.11946 l -0.611849,-0.47129 0.794267,-2.34198 c 2.42539,-7.15355 1.16212,-17.2216 -2.57762,-20.545 -3.48314,-3.09536 -12.479342,2.73842 -12.479342,8.09253 0,1.54822 -0.527137,1.37128 -0.974617,-0.32711 -1.01036,-3.83476 0.828072,-6.98111 5.619812,-9.61802 3.71075,-2.04203 4.958305,-3.88725 4.351155,-6.43527 -0.49511,-2.0778 -0.600098,-2.13523 -2.336808,-1.27589 -2.42939,1.20207 -7.678546,3.40519 -10.100676,4.23902 -8.52656,2.93533 -12.185555,6.76898 -13.132015,13.75885 l -0.194303,1.43247 -0.214457,-0.78135 c -1.06048,-3.86091 -0.04288,-7.98019 3.288688,-13.31081 0.79715,-1.27547 1.632024,-2.67077 1.855184,-3.10059 1.25136,-2.4102 6.489847,-6.93322 10.726477,-9.26196 1.36373,-0.74961 2.132266,-1.3095 1.899626,-1.3839 -0.21491,-0.0687 -0.837378,-0.26004 -1.383378,-0.4253 -1.34594,-0.40741 -1.260179,-0.75423 0.624251,-2.52129 0.88936,-0.83397 2.209954,-2.24905 2.934704,-3.14451 0.72476,-0.89546 1.489725,-1.62781 1.700155,-1.62781 1.74437,0 -2.406059,-5.80358 -5.447729,-7.61762 -3.18802,-1.90132 -9.508783,-7.42975 -9.149313,-8.0021 0.19653,-0.31291 0.649479,-0.14032 2.480469,0.94465 2.83264,1.67849 6.7776,2.66874 9.20564,2.31045 1.45707,-0.21501 1.801437,0.29893 -2.907833,-4.33927 -6.22736,-6.13338 -9.818654,-11.56844 -11.166244,-16.90026 -0.23537,-0.93128 -0.65632,-2.4386 -0.93586,-3.34915 -0.5191,-1.69087 -0.720362,-5.86915 -0.295072,-6.12779 0.11733,-0.0714 1.206851,2.29544 2.421041,5.25963 4.06632,9.92706 4.972086,11.3155 9.433016,14.45751 3.62034,2.54996 11.589068,4.7785 10.242268,2.86443 -6.69763,-9.51861 -8.311467,-20.44373 -4.199227,-28.42927 0.445,-0.86415 1.001897,-1.40452 1.274341,-1.40147 0.163467,0.002 0.224933,0.19935 0.09767,0.64027 -2.87794,9.97116 0.04803,18.24977 8.313704,23.52001 1.52862,0.97465 3.535466,2.48489 4.459676,3.35587 l 1.680518,1.58337 -0.181901,-1.19735 -0.182418,-1.19786 1.757516,-1.23403 c 3.81017,-2.67548 6.388618,-7.5618 6.711218,-12.71705 0.14156,-2.26222 0.488375,-2.26222 0.629935,0 0.32259,5.15525 2.901555,10.04157 6.711735,12.71705 l 1.757516,1.23403 -0.182418,1.19786 -0.181901,1.19735 1.680001,-1.58337 c 0.9242,-0.87098 2.931056,-2.38122 4.459676,-3.35587 8.26566,-5.27024 11.192172,-13.54885 8.314221,-23.52001 -0.33936,-1.17579 0.66002,-0.62143 1.37201,0.7612 4.112241,7.98554 2.498394,18.91066 -4.199227,28.42927 -1.34681,1.91407 6.621412,-0.31447 10.241752,-2.86443 4.460937,-3.14201 5.367217,-4.53045 9.433537,-14.45751 1.21419,-2.96419 2.30371,-5.33103 2.42104,-5.25963 0.42529,0.25864 0.22402,4.43692 -0.29508,6.12779 -0.27954,0.91055 -0.701,2.41787 -0.93637,3.34915 -1.34759,5.33182 -4.93835,10.76688 -11.16573,16.90026 -4.709271,4.6382 -4.364903,4.12426 -2.907833,4.33927 2.42803,0.35829 6.373013,-0.63196 9.205643,-2.31045 1.831,-1.08497 2.28395,-1.25756 2.48047,-0.94465 0.35948,0.57235 -5.9618,6.10078 -9.149833,8.0021 -3.04168,1.81404 -7.1921,7.61762 -5.44773,7.61762 0.21043,0 0.975921,0.73235 1.700672,1.62781 0.72476,0.89546 2.045344,2.31054 2.934704,3.14451 1.88443,1.76706 1.970191,2.11388 0.624251,2.52129 -0.546,0.16526 -1.168458,0.3566 -1.383378,0.4253 -0.23264,0.0743 0.535896,0.63429 1.899626,1.3839 3.454558,1.89885 7.575258,5.25689 9.657288,7.73854 0.61224,-0.23055 1.28398,-0.38371 2.019,-0.43976 0.21069,-0.0161 0.42334,-0.021 0.63614,-0.015 0.72072,0.0203 1.44561,0.16316 2.12183,0.40204 -0.10491,-0.17834 -0.1642,-0.27935 -0.15761,-0.26665 -1.20591,-2.32266 -2.99189,-3.95614 -5.18004,-5.84564 -1.53183,-1.32275 -3.29581,-2.43173 -5.01934,-3.55482 0.10306,-0.53878 0.29386,-1.11187 0.18759,-1.54099 -0.34913,-1.40979 -0.89483,-1.88212 -1.31672,-2.36316 -0.421888,-0.48104 -0.845762,-0.88772 -1.353403,-1.36374 -0.683838,-0.64125 -2.034353,-2.0918 -2.560568,-2.74195 -0.08672,-0.10714 -0.175039,-0.18478 -0.261482,-0.28733 0.975115,-1.22304 2.418419,-2.69102 2.949174,-3.00756 2.059859,-1.22849 4.423739,-3.11642 6.487979,-4.92167 1.03212,-0.90262 1.94919,-1.75696 2.69337,-2.54713 0.37209,-0.39509 0.69427,-0.74845 1.0511,-1.26555 0.17841,-0.25855 0.37853,-0.5343 0.60152,-1.125 0.223,-0.5907 0.76444,-1.93764 -0.34572,-3.7052 -0.50529,-0.80455 -1.98548,-1.85449 -3.16415,-1.98438 -0.52516,-0.0579 -0.67294,0.0865 -1.01389,0.1447 3.52412,-4.35049 5.93709,-8.61489 7.05487,-13.03745 0.2087,-0.82576 0.63555,-2.34901 0.88263,-3.15381 0.48832,-1.59063 0.59944,-3.06808 0.67231,-4.58215 0.0364,-0.75703 0.0456,-1.46439 -0.006,-2.17971 -0.0258,-0.35765 -0.055,-0.70495 -0.1757,-1.20716 -0.12058,-0.50191 0.21221,-1.4404 -1.93942,-2.75022 -1.3452,-0.8186 -3.02067,-0.54963 -3.7269,-0.2341 -0.70622,0.31553 -0.95948,0.59063 -1.15807,0.78135 -0.39718,0.38144 -0.48761,0.55152 -0.58963,0.70125 -0.20406,0.29946 -0.28917,0.46766 -0.39274,0.66197 -0.20714,0.38862 -0.40895,0.81 -0.64647,1.32602 -0.47503,1.03205 -1.0647,2.39896 -1.6893,3.92379 -2.01846,4.92764 -3.23539,7.59971 -4.216801,9.10384 -0.981405,1.50412 -1.710474,2.11459 -3.818372,3.59926 -0.01304,0.009 -0.05319,0.0202 -0.06666,0.0295 3.357445,-8.27661 3.582965,-16.96954 -0.116789,-24.15408 -0.604995,-1.17485 -0.912403,-2.01744 -2.693376,-3.00602 -0.445243,-0.24715 -1.056804,-0.57692 -2.181779,-0.56431 -1.124975,0.0126 -2.804099,0.87021 -3.478857,1.95492 -1.349517,2.16942 -0.622618,3.07716 -0.415995,3.79305 2.514028,8.71028 0.402577,14.55969 -6.622852,19.03915 -0.858523,0.5474 -1.600609,1.2176 -2.451013,1.85157 L 76.79294,470.7971 c -2.630395,-1.84704 -4.767818,-5.70504 -5.017265,-9.6914 -0.04175,-0.66719 -0.09026,-1.19945 -0.203089,-1.78335 -0.05641,-0.29196 -0.102232,-0.57592 -0.326595,-1.10949 -0.112182,-0.26678 -0.245137,-0.60839 -0.695048,-1.13275 -0.44991,-0.52437 -1.522941,-1.42213 -3.081982,-1.42213 -1.559041,0 -2.632072,0.89776 -3.081982,1.42213 -0.449911,0.52436 -0.583383,0.86597 -0.695565,1.13275 -0.224363,0.53357 -0.269664,0.81753 -0.326078,1.10949 -0.112827,0.5839 -0.161339,1.11616 -0.203089,1.78335 -0.249455,3.98637 -2.389462,7.84436 -5.019849,9.6914 l -0.630452,0.44339 c -0.850451,-0.63416 -1.592275,-1.30404 -2.451013,-1.85157 -7.025437,-4.47946 -9.137387,-10.32886 -6.623368,-19.03915 0.206628,-0.71589 0.931441,-1.62361 -0.418063,-3.79305 -0.674752,-1.08472 -2.351292,-1.9423 -3.476273,-1.95492 z m -3.790983,3.53105 c -0.079,0.27373 -0.103424,0.54137 -0.17415,0.81442 -0.0015,-0.48359 0.153967,-0.74449 0.17415,-0.81442 z m 53.43343,0 c 0.02018,0.0699 0.175692,0.33086 0.17415,0.81442 -0.07073,-0.27305 -0.09514,-0.54069 -0.17415,-0.81442 z m -6.157763,66.4037 c -0.498275,-0.0104 -0.655355,0.4992 -0.964799,1.79782 -0.258914,1.08659 -0.180686,2.04534 0.282153,2.94608 0.448846,-0.48676 0.984331,-0.9244 1.613338,-1.29966 1.35368,-0.8076 3.255798,-1.17831 4.983675,-0.77618 1.708377,0.39758 3.057252,1.43449 3.98632,2.62309 0.656131,0.79547 1.587001,2.09964 2.287721,3.96668 0.006,0.0156 0.0117,0.0314 0.0176,0.0481 0.37282,0.15266 0.72854,0.30651 1.06815,0.46147 0.29468,-1.27964 0.57223,-2.44977 0.94051,-3.60753 l 0.0543,-0.17001 0.0574,-0.13333 c -0.88407,-0.38055 -1.83398,-0.74454 -2.853573,-1.09554 -2.42213,-0.83383 -7.671286,-3.03695 -10.100676,-4.23902 -0.651266,-0.32225 -1.073044,-0.51571 -1.372009,-0.52193 z m -2.575037,9.67745 c -1.354647,0.29329 -2.514947,1.07639 -3.225643,2.46031 -2.440936,4.75316 -3.176259,9.63461 -2.212785,14.75827 1.235998,0.22187 2.437401,0.68335 3.570325,1.28106 0.353417,0.17933 0.688036,0.36534 1.00614,0.55604 -1.677151,-5.34398 -1.298076,-9.86868 1.148767,-14.67921 -0.10152,-1.1113 -0.193269,-2.23002 -0.268717,-3.3569 -0.02288,-0.34172 -0.02927,-0.68235 -0.01809,-1.01957 z"
       style="baseline-shift:baseline;display:inline;overflow:visible;vector-effect:none;stroke:none;stroke-linecap:round;stroke-linejoin:round;paint-order:stroke fill markers;enable-background:accumulate;stop-color:#000000;stop-opacity:1"
       id="path221" /><path
       d="m 44.497542,448.60104 c -0.272444,-0.003 -0.829341,0.53732 -1.274341,1.40147 -4.11224,7.98554 -2.498403,18.91066 4.199227,28.42927 1.3468,1.91407 -6.621928,-0.31447 -10.242268,-2.86443 -4.46093,-3.14201 -5.366696,-4.53045 -9.433016,-14.45751 -1.21419,-2.96419 -2.303711,-5.33099 -2.421041,-5.25963 -0.42529,0.25864 -0.224028,4.43692 0.295072,6.12779 0.27954,0.91055 0.70049,2.41787 0.93586,3.34915 1.34759,5.33182 4.938884,10.76688 11.166244,16.90026 4.70927,4.6382 4.364903,4.12426 2.907833,4.33927 -2.42804,0.35829 -6.373,-0.63196 -9.20564,-2.31045 -1.83099,-1.08497 -2.283939,-1.25756 -2.480469,-0.94465 -0.35947,0.57235 5.961293,6.10078 9.149313,8.0021 3.04167,1.81404 7.192099,7.61762 5.447729,7.61762 -0.21043,0 -0.975395,0.73235 -1.700155,1.62781 -0.72475,0.89546 -2.045344,2.31054 -2.934704,3.14451 -1.88443,1.76706 -1.970191,2.11388 -0.624251,2.52129 0.546,0.16526 1.168468,0.35661 1.383378,0.4253 0.23264,0.0744 -0.535896,0.63429 -1.899626,1.3839 -4.23663,2.32874 -9.475117,6.85176 -10.726477,9.26196 -0.22316,0.42982 -1.058034,1.82512 -1.855184,3.10059 -3.33157,5.33062 -4.349168,9.4499 -3.288688,13.31081 l 0.214457,0.78135 0.194303,-1.43247 c 0.94646,-6.98987 4.605455,-10.82352 13.132015,-13.75885 2.42213,-0.83383 7.671286,-3.03695 10.100676,-4.23902 1.73671,-0.85934 1.841698,-0.80191 2.336808,1.27589 0.60715,2.54802 -0.640405,4.39324 -4.351155,6.43527 -4.79174,2.63691 -6.630172,5.78326 -5.619812,9.61802 0.44748,1.69839 0.974617,1.87533 0.974617,0.32711 0,-5.35411 8.996202,-11.18789 12.479342,-8.09253 3.73974,3.3234 5.00301,13.39145 2.57762,20.545 l -0.794267,2.34198 0.611849,0.47129 c 3.13855,2.41847 5.955922,4.9147 8.034652,7.11946 3.03195,3.21574 4.549924,3.77738 7.868254,2.91041 0.76641,-0.20025 1.569799,-0.86903 3.488159,-2.90369 0.426923,-0.45281 0.884547,-0.91747 1.369425,-1.39113 -0.943407,-1.02216 -1.797883,-2.23955 -2.384867,-3.73466 -0.554754,-1.35321 -0.795222,-2.86739 -0.319877,-4.39198 0.47919,-1.53692 1.786901,-2.89846 3.257682,-3.56981 1.659241,-0.75737 3.33324,-0.87638 4.948018,-0.58653 -0.963474,-5.12366 -0.228151,-10.00511 2.212785,-14.75827 0.710696,-1.38392 1.870996,-2.16702 3.225643,-2.46031 0.06081,-1.83421 0.639643,-3.57499 1.892391,-4.93355 -0.462839,-0.90074 -0.541067,-1.85949 -0.282153,-2.94608 0.49511,-2.0778 0.600098,-2.13523 2.336808,-1.27589 2.42939,1.20207 7.678546,3.40519 10.100676,4.23902 1.019593,0.351 1.969503,0.71499 2.853573,1.09554 l 0.0129,-0.03 c 0.83553,-1.93826 2.26553,-3.76356 4.46122,-4.59042 -2.08203,-2.48165 -6.20273,-5.83969 -9.657287,-7.73854 -1.36373,-0.74961 -2.132266,-1.30955 -1.899626,-1.3839 0.21492,-0.0687 0.837378,-0.26004 1.383378,-0.4253 1.34594,-0.40741 1.260179,-0.75423 -0.624251,-2.52129 -0.88936,-0.83397 -2.209944,-2.24905 -2.934704,-3.14451 -0.724751,-0.89546 -1.490242,-1.62781 -1.700672,-1.62781 -1.74437,0 2.40605,-5.80358 5.44773,-7.61762 3.188032,-1.90132 9.509312,-7.42975 9.149832,-8.0021 -0.19652,-0.31291 -0.64947,-0.14032 -2.48047,0.94465 -2.83263,1.67849 -6.777612,2.66874 -9.205642,2.31045 -1.45707,-0.21501 -1.801438,0.29893 2.907833,-4.33927 6.227379,-6.13338 9.818139,-11.56844 11.165729,-16.90026 0.23537,-0.93128 0.65683,-2.4386 0.93637,-3.34915 0.5191,-1.69087 0.72037,-5.86915 0.29508,-6.12779 -0.11733,-0.0714 -1.20685,2.29544 -2.42104,5.25963 -4.06632,9.92706 -4.9726,11.3155 -9.433536,14.45751 -3.62034,2.54996 -11.588562,4.7785 -10.241752,2.86443 6.697621,-9.51861 8.311468,-20.44373 4.199227,-28.42927 -0.71199,-1.38263 -1.71137,-1.93699 -1.37201,-0.7612 2.877951,9.97116 -0.04856,18.24977 -8.314221,23.52001 -1.52862,0.97465 -3.535476,2.48489 -4.459676,3.35587 l -1.680001,1.58337 0.181901,-1.19735 0.182418,-1.19786 -1.757516,-1.23403 c -3.81018,-2.67548 -6.389145,-7.5618 -6.711735,-12.71705 -0.14156,-2.26222 -0.488375,-2.26222 -0.629935,0 -0.3226,5.15525 -2.901048,10.04157 -6.711218,12.71705 l -1.757516,1.23403 0.182418,1.19786 0.181901,1.19735 -1.680518,-1.58337 c -0.92421,-0.87098 -2.931056,-2.38122 -4.459676,-3.35587 -8.26567,-5.27024 -11.191644,-13.54885 -8.313704,-23.52001 0.127264,-0.44092 0.0658,-0.63844 -0.09767,-0.64027 z m 22.971208,36.00297 c 1.58679,0.007 2.298145,1.18363 2.356445,1.93994 0.05832,0.75632 -0.691615,2.2197 -2.356445,2.2257 -1.66484,0.006 -2.232167,-1.41436 -2.209167,-2.17713 0.02297,-0.76277 0.622367,-1.99551 2.209167,-1.98851 z m 0,8.58552 c 1.34352,0.01 1.693512,0.90641 2.056722,1.91048 0.36321,1.00407 -0.397492,2.06361 -2.056722,2.00401 -1.65924,-0.0596 -2.095466,-1.33263 -2.024166,-1.99677 0.07132,-0.66413 0.680636,-1.92772 2.024166,-1.91772 z m 0.14366,8.96948 c 0.94146,0.0259 1.844197,1.00985 1.833997,1.8371 -0.01021,0.82726 -1.132747,1.43846 -1.977657,1.44746 -0.84492,0.009 -1.906423,-0.4608 -1.884123,-1.30948 0.02234,-0.84867 1.086323,-2.00098 2.027783,-1.97508 z m -16.72301,3.58376 c 0.2764,-0.0145 0.808288,0.4614 1.678968,1.30225 2.93515,2.83457 4.649278,5.5953 6.573758,10.58643 1.6006,4.15114 1.389195,4.10717 -3.345015,-0.69298 l -4.169255,-4.22765 -0.572574,-3.3631 c -0.42792,-2.51393 -0.569852,-3.58375 -0.165882,-3.60495 z m 33.131828,0 c 0.0091,-5e-4 0.01823,-4.4e-4 0.02687,0 0.40403,0.0209 0.262185,1.0896 -0.165365,3.60133 l -0.572058,3.36001 -4.12688,4.19302 c -4.73586,4.81177 -4.981935,4.86599 -3.394625,0.74931 1.93074,-5.00735 3.64186,-7.764 6.57996,-10.60142 0.843385,-0.81449 1.368746,-1.28653 1.652096,-1.30225 z m -23.599076,40.80216 c 0.27192,-0.01 0.517305,0.0758 0.752925,0.22945 0.69348,0.45229 2.006503,2.20248 1.832963,2.38331 -1.26618,-0.36541 -2.424834,-1.47502 -3.496944,-2.26807 0.34116,-0.22867 0.639146,-0.33469 0.911056,-0.34469 z"
       style="baseline-shift:baseline;display:inline;overflow:visible;vector-effect:none;fill:#ffffff;stroke:none;stroke-linecap:round;stroke-linejoin:round;paint-order:stroke fill markers;enable-background:accumulate;stop-color:#000000;stop-opacity:1"
       id="path220" /><path
       d="m 67.46875,484.60401 c -1.5868,-0.007 -2.186197,1.22574 -2.209167,1.98851 -0.023,0.76277 0.544327,2.18314 2.209167,2.17713 1.66483,-0.006 2.414765,-1.46938 2.356445,-2.2257 -0.0583,-0.75631 -0.769655,-1.93334 -2.356445,-1.93994 z m 0,8.58552 c -1.34353,-0.01 -1.952846,1.25359 -2.024166,1.91772 -0.0713,0.66414 0.364926,1.9372 2.024166,1.99677 1.65923,0.0596 2.419932,-0.99994 2.056722,-2.00401 -0.36321,-1.00407 -0.713202,-1.90064 -2.056722,-1.91048 z m 0.14366,8.96948 c -0.94146,-0.0259 -2.005443,1.12641 -2.027783,1.97508 -0.0223,0.84868 1.039203,1.31864 1.884123,1.30948 0.84491,-0.009 1.967447,-0.6202 1.977657,-1.44746 0.0102,-0.82725 -0.892537,-1.81117 -1.833997,-1.8371 z m -16.72301,3.58376 c -0.40397,0.0212 -0.262038,1.09102 0.165882,3.60495 l 0.572574,3.3631 4.169255,4.22765 c 4.73421,4.80015 4.945615,4.84412 3.345015,0.69298 -1.92448,-4.99113 -3.638608,-7.75186 -6.573758,-10.58643 -0.87068,-0.84085 -1.402568,-1.31673 -1.678968,-1.30225 z m 33.131828,0 c -0.28335,0.0157 -0.808711,0.48776 -1.652096,1.30225 -2.9381,2.83742 -4.64922,5.59407 -6.57996,10.60142 -1.58731,4.11668 -1.341235,4.06246 3.394625,-0.74931 l 4.12688,-4.19302 0.572058,-3.36001 c 0.42755,-2.51173 0.569395,-3.58047 0.165365,-3.60133 -0.0086,-4.4e-4 -0.01773,-5e-4 -0.02687,0 z m -23.599076,40.80216 c -0.27191,0.01 -0.569896,0.11602 -0.911056,0.34469 1.07211,0.79305 2.230764,1.90266 3.496944,2.26807 0.17354,-0.18083 -1.139483,-1.93102 -1.832963,-2.38331 -0.23562,-0.15368 -0.481005,-0.2395 -0.752925,-0.22945 z"
       style="display:inline;stroke:none;stroke-width:8.83336;stroke-linecap:round;stroke-linejoin:round;paint-order:stroke fill markers"
       id="path214" /><path
       d="m 109.48324,515.3179 c -0.2128,-0.006 -0.42545,-10e-4 -0.63614,0.015 -3.37106,0.25707 -5.41172,2.55146 -6.48022,5.03018 l -0.0703,0.1633 -0.0543,0.17001 c -0.5531,1.73879 -0.90141,3.50595 -1.41077,5.62912 -0.2027,-0.70188 -0.40325,-1.96567 -0.61546,-2.53112 -0.70072,-1.86704 -1.63159,-3.17121 -2.287721,-3.96668 -0.929068,-1.1886 -2.277943,-2.22551 -3.98632,-2.62309 -1.727877,-0.40213 -3.629995,-0.0314 -4.983675,0.77618 -2.707358,1.61519 -3.679555,4.3864 -3.487642,7.25278 0.231068,3.4512 0.616872,6.82798 0.958598,10.13892 0.327034,3.17605 0.769103,6.12782 0.818038,8.8868 -0.01994,0.44778 -0.03378,0.54969 -0.03876,0.93224 -0.96919,-0.84266 -2.130779,-1.72016 -3.624068,-2.47789 -2.613041,-1.3786 -5.589072,-2.03161 -8.518343,-0.69453 -1.470781,0.67135 -2.778492,2.03289 -3.257682,3.56981 -0.475345,1.52459 -0.234877,3.03877 0.319877,4.39198 1.417593,3.61077 4.395507,5.60103 6.417696,7.136 0.874468,0.67947 2.792936,2.0918 4.679818,3.73259 0.951386,0.8273 1.860162,1.69335 2.486153,2.39675 0.493945,0.55503 0.764368,1.08184 0.806669,1.10174 h 5.17e-4 5.17e-4 5.16e-4 5.17e-4 5.17e-4 l 5.17e-4,-5.1e-4 h 5.16e-4 v -5.2e-4 l 5.17e-4,-5.2e-4 v -5.2e-4 l 5.17e-4,-5.1e-4 c -0.0082,-0.0317 -0.01153,-0.0688 -0.02015,-0.0997 0.01653,0.0593 0.02333,0.091 0.02015,0.0997 0.290206,1.12288 0.311592,2.66863 0.295589,2.70784 -0.280284,0.68672 -0.90913,1.52884 -0.962732,3.39256 -0.0268,0.93186 0.288266,2.23276 1.110527,3.22564 0.82226,0.99289 1.905025,1.5601 2.891813,1.90376 5.000053,1.74136 10.990234,2.11706 16.296164,2.03864 2.65297,-0.0392 5.10895,-0.21356 7.16597,-0.48938 2.05702,-0.27582 3.35131,-0.24199 5.44773,-1.50326 0.94635,-0.56936 1.84818,-1.31277 2.54455,-2.42466 0.69637,-1.1119 1.11424,-2.75118 0.64285,-4.33204 l -0.0584,-0.19482 -0.078,-0.18758 c -0.59969,-1.40712 -0.90057,-2.51689 -0.85318,-3.26492 v -0.007 -0.004 c 0.0757,-1.25168 1.11344,-2.96064 2.7125,-4.97489 -0.0196,0.0229 -0.0393,0.0458 -0.0589,0.0687 l 0.0713,-0.0863 c -0.003,0.004 -0.006,0.009 -0.009,0.0139 0.008,-0.0101 0.0157,-0.0204 0.0238,-0.0305 l -0.0124,0.0145 c 1.90042,-2.23052 3.70883,-4.56891 5.31595,-7.05848 2.13741,-3.20883 4.23607,-6.35621 5.06584,-9.55343 0.57682,-2.22258 1.7119,-5.26924 1.35599,-8.79843 -0.22738,-2.25459 -2.25736,-4.36374 -4.34495,-4.91339 -1.14713,-0.30203 -2.32018,-0.28772 -3.45664,0.0248 0.011,-1.80882 -0.13662,-3.25738 -0.33486,-4.35994 -0.27124,-1.50852 -0.94519,-2.97907 -2.20194,-4.07675 -1.25674,-1.09768 -2.99308,-1.61009 -4.43022,-1.6061 -1.43714,0.004 -2.63028,0.38232 -3.65921,0.95033 -0.34821,0.19222 -0.56515,0.67253 -0.88831,0.92139 -0.0871,-0.42624 -0.0214,-0.87262 -0.14418,-1.28985 l -0.0238,-0.0713 -0.0269,-0.0744 c -0.45089,-1.31772 -1.1717,-2.55189 -2.38125,-3.52692 -1.05836,-0.85316 -2.56598,-1.41938 -4.05557,-1.46141 z m -0.0796,3.80907 c 1.01999,0.0184 1.98408,0.76418 2.51406,2.31304 0.81079,2.7549 0.48019,7.24376 0.0884,10.62777 -0.0319,3.5408 -2.11067,9.42951 -0.78806,12.65194 1.77635,-0.39936 3.58866,-8.66449 4.18062,-10.64431 0.94377,-3.03998 1.57404,-6.16969 2.87063,-9.11107 0.56952,-1.29199 4.21498,-2.52113 4.88497,1.20509 0.33844,1.8823 0.60038,4.51503 -0.26975,9.27282 -0.67732,3.70349 -1.4227,7.39829 -2.08256,11.10423 1.15249,0.27739 3.26229,-4.14414 4.38216,-6.37893 0.92115,-1.83824 2.07121,-5.14053 3.0148,-6.24665 0.70303,-0.7669 2.87026,-0.62002 3.05666,1.22835 0.24511,2.43044 -0.64454,5.19623 -1.26142,7.57318 -0.52255,2.01345 -2.52196,5.37579 -4.59145,8.48268 -1.51476,2.3486 -3.24571,4.59032 -5.09529,6.75566 -1.67992,2.11139 -3.3704,4.41367 -3.52899,7.03523 -0.10618,1.67605 0.46626,3.30927 1.12965,4.86586 0.30404,1.01963 -0.45997,1.9802 -1.45211,2.5771 -2.29095,1.37831 -16.993032,2.39472 -25.097692,-0.42788 -2.020003,-0.7035 -1.272106,-1.99787 -0.606681,-3.6282 0.665238,-1.62988 0.179665,-3.76936 -0.184485,-5.07566 -0.78601,-2.81961 -7.949502,-8.04359 -9.333281,-9.12089 -2.063074,-1.566 -4.282755,-3.20463 -5.176428,-5.51543 -1.33781,-3.22647 1.896566,-4.53828 5.45083,-2.65255 2.175291,1.092 3.683995,2.86064 5.449797,4.35116 1.584802,1.2369 3.370269,1.76821 4.18424,-1.03818 0.454888,-1.66684 0.211441,-3.38794 0.301274,-5.08083 -0.05019,-3.08849 -0.523562,-6.15892 -0.840259,-9.23458 -0.344278,-3.33567 -0.724429,-6.66916 -0.948262,-10.01231 -0.247785,-3.70087 2.897514,-5.53488 4.884973,-2.95692 1.139743,1.36698 2.213957,2.94995 3.605465,10.88512 0.593173,3.46081 1.16046,6.95038 2.552299,10.25209 2.36612,-2.49203 2.28064,-7.76157 2.95796,-10.98434 0.36287,-1.71058 1.67109,-7.47595 2.61483,-10.44278 0.74894,-1.7374 1.97715,-2.65069 3.13314,-2.62981 z"
       style="baseline-shift:baseline;display:inline;overflow:visible;vector-effect:none;fill-rule:evenodd;stroke:none;stroke-linecap:round;paint-order:stroke markers fill;enable-background:accumulate;stop-color:#000000;stop-opacity:1"
       id="path213" /><path
       d="m 109.40366,519.12697 c -1.15599,-0.0209 -2.3842,0.89241 -3.13314,2.62981 -0.94374,2.96683 -2.25196,8.7322 -2.61483,10.44278 -0.67732,3.22277 -0.59184,8.49231 -2.95796,10.98434 -1.391839,-3.30171 -1.959126,-6.79128 -2.552299,-10.25209 -1.391508,-7.93517 -2.465722,-9.51814 -3.605465,-10.88512 -1.987459,-2.57796 -5.132758,-0.74395 -4.884973,2.95692 0.223833,3.34315 0.603984,6.67664 0.948262,10.01231 0.316697,3.07566 0.790065,6.14609 0.840259,9.23458 -0.08983,1.69289 0.153614,3.41399 -0.301274,5.08083 -0.813971,2.80639 -2.599438,2.27508 -4.18424,1.03818 -1.765802,-1.49052 -3.274506,-3.25916 -5.449797,-4.35116 -3.554264,-1.88573 -6.78864,-0.57392 -5.45083,2.65255 0.893673,2.3108 3.113354,3.94943 5.176428,5.51543 1.383779,1.0773 8.547271,6.30128 9.333281,9.12089 0.36415,1.3063 0.849723,3.44578 0.184485,5.07566 -0.665425,1.63033 -1.413322,2.9247 0.606681,3.6282 8.10466,2.8226 22.806742,1.80619 25.097692,0.42788 0.99214,-0.5969 1.75615,-1.55747 1.45211,-2.5771 -0.66339,-1.55659 -1.23583,-3.18981 -1.12965,-4.86586 0.15859,-2.62156 1.84907,-4.92384 3.52899,-7.03523 1.84958,-2.16534 3.58053,-4.40706 5.09529,-6.75566 2.06949,-3.10689 4.0689,-6.46923 4.59145,-8.48268 0.61688,-2.37695 1.50653,-5.14274 1.26142,-7.57318 -0.1864,-1.84837 -2.35363,-1.99525 -3.05666,-1.22835 -0.94359,1.10612 -2.09365,4.40841 -3.0148,6.24665 -1.11987,2.23479 -3.22967,6.65632 -4.38216,6.37893 0.65986,-3.70594 1.40524,-7.40074 2.08256,-11.10423 0.87013,-4.75779 0.60819,-7.39052 0.26975,-9.27282 -0.66999,-3.72622 -4.31545,-2.49708 -4.88497,-1.20509 -1.29659,2.94138 -1.92686,6.07109 -2.87063,9.11107 -0.59196,1.97982 -2.40427,10.24495 -4.18062,10.64431 -1.32261,-3.22243 0.75618,-9.11114 0.78806,-12.65194 0.39183,-3.38401 0.72243,-7.87287 -0.0884,-10.62777 -0.52998,-1.54886 -1.49407,-2.29462 -2.51406,-2.31304 z"
       style="baseline-shift:baseline;display:inline;overflow:visible;vector-effect:none;fill:#f7caaa;fill-rule:evenodd;stroke:none;stroke-linecap:round;paint-order:stroke markers fill;enable-background:accumulate;stop-color:#000000;stop-opacity:1"
       id="path212" /></g></svg>
