<?xml version="1.0" encoding="UTF-8" standalone="no"?>
<!-- Created with Inkscape (http://www.inkscape.org/) -->

<svg
   width="512"
   height="512"
   viewBox="0 0 135.46666 135.46667"
   version="1.1"
   id="svg1"
   xml:space="preserve"
   xmlns="http://www.w3.org/2000/svg"
   xmlns:svg="http://www.w3.org/2000/svg"><defs
     id="defs1" /><g
     id="layer2"
     transform="translate(-145.46666,-144.92314)"><path
       d="m 211.66822,147.4432 c -8.54316,0.10162 -14.93416,4.601 -18.68775,10.05468 -3.7536,5.45367 -5.2834,11.73112 -5.2834,16.8615 a 4.0004,4.0004 0 0 0 0.15038,0.36122 h -18.70274 a 4.0004,4.0004 0 0 0 -4.00027,3.97082 l -0.0641,8.70489 a 4.0004,4.0004 0 0 0 0.35347,0.86713 h -12.10572 a 4.0004,4.0004 0 0 0 -3.99976,3.94963 l -0.17983,13.96659 a 4.0004,4.0004 0 0 0 3.99975,4.05299 h 6.50193 a 4.0004,4.0004 0 0 0 -0.26148,0.61288 l -0.0977,7.15253 a 4.0004,4.0004 0 0 0 0.19947,0.49403 h -6.34173 a 4.0004,4.0004 0 0 0 -4.00027,4.00027 v 6.80476 a 4.0004,4.0004 0 0 0 2.74608,3.4804 4.0004,4.0004 0 0 0 -0.51159,1.21853 l -0.10542,16.83412 a 4.0004,4.0004 0 0 0 0.67954,1.66398 4.0004,4.0004 0 0 0 -1.58595,2.99982 v 5.74641 a 4.0004,4.0004 0 0 0 3.98426,3.99976 l 26.69759,0.10542 v 9.6914 a 4.0004,4.0004 0 0 0 3.99976,4.00027 h 6.78511 a 4.0004,4.0004 0 0 0 4.00028,-4.00027 v -19.42 a 4.0004,4.0004 0 0 0 -3.98839,-3.99976 l -0.86351,-0.002 a 4.0004,4.0004 0 0 0 0.25786,-0.6134 l 0.10749,-16.83204 a 4.0004,4.0004 0 0 0 -0.3576,-0.87282 h 40.49055 a 4.0004,4.0004 0 0 0 -0.29507,0.69918 l -0.002,0.35915 5.01158,-5.05912 h -83.05126 v -6.8032 h 89.79038 l 2.8081,-2.83445 a 4.0004,4.0004 0 0 1 2.76366,-1.18391 4.0004,4.0004 0 0 1 2.80654,1.07435 l 3.1533,2.94401 h 15.09365 v 6.8032 h -7.80624 l 5.06222,4.72633 h 1.23869 l -0.007,1.14928 3.97754,3.71347 0.0305,-4.83846 a 4.0004,4.0004 0 0 0 -0.62529,-1.52549 4.0004,4.0004 0 0 0 2.12907,-3.22461 v -6.80424 a 4.0004,4.0004 0 0 0 -4.00027,-4.00027 h -6.99389 a 4.0004,4.0004 0 0 0 0.31264,-0.73019 l 0.0977,-7.15047 a 4.0004,4.0004 0 0 0 -0.15245,-0.3793 h 6.73654 a 4.0004,4.0004 0 0 0 3.99976,-3.94911 l 0.1819,-13.96659 a 4.0004,4.0004 0 0 0 -4.00027,-4.05299 h -13.66583 a 4.0004,4.0004 0 0 0 0.33951,-0.80822 l 0.0646,-8.70334 a 4.0004,4.0004 0 0 0 -4.00028,-4.03128 h -18.17925 a 4.0004,4.0004 0 0 0 0.15038,-0.36122 c 0,-4.93012 -1.11929,-11.25662 -4.52944,-16.81447 -3.41016,-5.55785 -9.67013,-10.20384 -18.25573,-10.10171 z m 0.047,3.99872 c 14.48142,-0.17226 18.73839,14.38745 18.73839,22.91695 h -38.75732 c 0,-8.5295 5.53752,-22.74469 20.01893,-22.91695 z m -42.57104,27.27947 h 83.33858 l -0.0646,8.70438 H 169.0796 Z m -15.81661,13.54284 h 116.41667 l -0.18087,13.96763 H 153.14776 Z m 22.86992,17.96842 h 69.79678 a 4.0004,4.0004 0 0 0 -0.11524,0.26923 l -0.0977,7.15047 a 4.0004,4.0004 0 0 0 0.33796,0.83974 H 176.2264 a 4.0004,4.0004 0 0 0 0.16433,-0.38654 l 0.0977,-7.15047 a 4.0004,4.0004 0 0 0 -0.29094,-0.72243 z m 73.68129,0.32349 h 9.09919 l -0.0971,7.1515 h -9.09919 z m -86.49032,0.34468 h 9.09918 l -0.0971,7.15099 h -9.09919 z m 4.7873,22.39605 h 6.42183 a 4.0004,4.0004 0 0 0 -0.34571,0.82217 l -0.10542,16.83205 a 4.0004,4.0004 0 0 0 0.24804,0.60927 l -6.29315,-0.0212 a 4.0004,4.0004 0 0 0 0.27543,-0.65836 l 0.10542,-16.83411 a 4.0004,4.0004 0 0 0 -0.30644,-0.74983 z m -12.79353,0.72554 h 9.0997 l -0.1049,16.83256 h -9.10074 z m 22.86889,0.12144 h 9.0997 l -0.10594,16.83308 h -9.09815 z m -23.87917,21.35012 37.4649,0.12247 v 19.42 h -6.7846 v -13.6741 l -30.6803,-0.12144 z m 119.19066,2.52749 -7.16287,7.23057 3.17862,-0.0119 a 4.0004,4.0004 0 0 0 3.98425,-3.99976 z m -47.07051,2.13992 v 1.20199 13.67359 a 4.0004,4.0004 0 0 0 4.00027,4.00027 h 6.53294 a 4.0004,4.0004 0 0 0 4.00027,-4.00027 v -1.30741 l -4.00079,-3.73518 v 5.04207 h -6.53242 v -11.1404 z"
       style="baseline-shift:baseline;display:inline;overflow:visible;vector-effect:none;stroke:none;stroke-linecap:round;stroke-linejoin:round;paint-order:stroke fill markers;enable-background:accumulate;stop-color:#000000;stop-opacity:1"
       id="path203" /><path
       d="m 211.71524,151.44192 c -14.48141,0.17226 -20.01893,14.38745 -20.01893,22.91695 h 38.75732 c 0,-8.5295 -4.25697,-23.08921 -18.73839,-22.91695 z m -42.57104,27.27947 -0.0646,8.70438 h 83.33858 l 0.0646,-8.70438 z m -15.81661,13.54284 -0.17983,13.96763 h 116.41563 l 0.18087,-13.96763 z m 96.55121,18.29191 -0.0971,7.1515 h 9.09919 l 0.0971,-7.1515 z m -86.49032,0.34468 -0.0972,7.15099 h 9.09919 l 0.0971,-7.15099 z m -10.24072,11.59206 v 6.8032 h 83.05126 l 6.73912,-6.8032 z m 101.32198,0 7.28741,6.8032 h 7.80624 v -6.8032 z m -99.08749,11.52953 -0.10594,16.83256 h 9.10074 l 0.1049,-16.83256 z m 111.43712,0 1.23145,1.14928 0.007,-1.14928 z m -88.56823,0.12144 -0.10439,16.83308 h 9.09815 l 0.10594,-16.83308 z m -23.87917,21.35012 v 5.74693 l 30.6803,0.12144 v 13.6741 h 6.7846 v -19.42 z m 76.12042,8.40207 v 11.1404 h 6.53242 v -5.04207 z"
       style="baseline-shift:baseline;display:inline;overflow:visible;vector-effect:none;fill:#ffffff;stroke:none;stroke-linecap:round;stroke-linejoin:round;paint-order:stroke fill markers;enable-background:accumulate;stop-color:#000000;stop-opacity:1"
       id="path202" /><path
       d="m 248.5099,218.47452 a 4.0004,4.0004 0 0 0 -2.76366,1.18391 l -27.19731,27.45465 a 4.0004,4.0004 0 0 0 0.11318,5.73867 l 28.34555,26.46247 a 4.0004,4.0004 0 0 0 5.5702,-0.10904 l 27.19731,-27.45517 a 4.0004,4.0004 0 0 0 -0.11317,-5.73815 l -28.34556,-26.46299 a 4.0004,4.0004 0 0 0 -2.80654,-1.07435 z m 0.077,3.99924 28.34659,26.46143 -27.19627,27.45466 -28.34659,-26.46144 z"
       style="baseline-shift:baseline;display:inline;overflow:visible;vector-effect:none;fill-rule:evenodd;stroke:none;stroke-linecap:round;stroke-linejoin:round;stroke-miterlimit:2;paint-order:stroke fill markers;enable-background:accumulate;stop-color:#000000;stop-opacity:1"
       id="path193" /><path
       d="m 248.58689,222.47376 -27.19627,27.45465 28.34659,26.46144 27.19627,-27.45466 z"
       style="baseline-shift:baseline;display:inline;overflow:visible;vector-effect:none;fill:#f4900c;fill-rule:evenodd;stroke:none;stroke-linecap:round;stroke-linejoin:round;stroke-miterlimit:2;paint-order:stroke fill markers;enable-background:accumulate;stop-color:#000000;stop-opacity:1"
       id="path192" /></g></svg>
