<?xml version="1.0" encoding="UTF-8" standalone="no"?>
<!-- Created with Inkscape (http://www.inkscape.org/) -->

<svg
   width="512"
   height="512"
   viewBox="0 0 135.46666 135.46667"
   version="1.1"
   id="svg1"
   xml:space="preserve"
   inkscape:version="1.4.3 (0d15f75, 2025-12-25)"
   sodipodi:docname="quicklooticons.svg"
   inkscape:export-batch-name=""
   inkscape:export-batch-path="Completionist Addons Dev\docs"
   xmlns:inkscape="http://www.inkscape.org/namespaces/inkscape"
   xmlns:sodipodi="http://sodipodi.sourceforge.net/DTD/sodipodi-0.dtd"
   xmlns="http://www.w3.org/2000/svg"
   xmlns:svg="http://www.w3.org/2000/svg"><sodipodi:namedview
     id="namedview1"
     pagecolor="#818181"
     bordercolor="#000000"
     borderopacity="0.25"
     inkscape:showpageshadow="2"
     inkscape:pageopacity="0.0"
     inkscape:pagecheckerboard="0"
     inkscape:deskcolor="#d1d1d1"
     inkscape:document-units="mm"
     inkscape:zoom="0.29028319"
     inkscape:cx="887.06479"
     inkscape:cy="456.45081"
     inkscape:window-width="2560"
     inkscape:window-height="1369"
     inkscape:window-x="1912"
     inkscape:window-y="-8"
     inkscape:window-maximized="1"
     inkscape:current-layer="layer5"
     inkscape:clip-to-page="true"
     showguides="true"><inkscape:page
       x="0"
       y="0"
       width="135.46666"
       height="135.46667"
       id="page11"
       margin="0"
       bleed="0" /><sodipodi:guide
       position="105.16148,132.96556"
       orientation="0,-1"
       id="guide12"
       inkscape:locked="false" /><sodipodi:guide
       position="74.687128,1.3368269"
       orientation="0,-1"
       id="guide13"
       inkscape:locked="false" /><sodipodi:guide
       position="280.93332,135.46667"
       orientation="0,-1"
       id="guide14"
       inkscape:locked="false" /><sodipodi:guide
       position="280.93332,-4.8046875e-06"
       orientation="0,-1"
       id="guide15"
       inkscape:locked="false" /><sodipodi:guide
       position="135.46666,135.46667"
       orientation="1,0"
       id="guide16"
       inkscape:locked="false" /><sodipodi:guide
       position="145.46666,135.46667"
       orientation="1,0"
       id="guide17"
       inkscape:locked="false" /><sodipodi:guide
       position="280.93331,135.46668"
       orientation="1,0"
       id="guide18"
       inkscape:locked="false" /><sodipodi:guide
       position="0,135.46667"
       orientation="1,0"
       id="guide19"
       inkscape:locked="false" /><sodipodi:guide
       position="290.93332,135.46667"
       orientation="1,0"
       id="guide20"
       inkscape:locked="false" /><sodipodi:guide
       position="426.39998,135.46667"
       orientation="1,0"
       id="guide21"
       inkscape:locked="false" /><sodipodi:guide
       position="69.271432,-9.4564672"
       orientation="0,-1"
       id="guide22"
       inkscape:locked="false" /><sodipodi:guide
       position="145.46664,-144.92315"
       orientation="0,-1"
       id="guide25"
       inkscape:locked="false" /><sodipodi:guide
       position="145.46665,-155.7468"
       orientation="0,-1"
       id="guide26"
       inkscape:locked="false" /><sodipodi:guide
       position="436.39999,-4.8046875e-06"
       orientation="1,0"
       id="guide28"
       inkscape:locked="false" /><sodipodi:guide
       position="71.586102,-240.6014"
       orientation="1,0"
       id="guide29"
       inkscape:locked="false" /><sodipodi:guide
       position="119.55548,-228.95925"
       orientation="0,-1"
       id="guide30"
       inkscape:locked="false" /><sodipodi:guide
       position="0,-291.21348"
       orientation="0,-1"
       id="guide31"
       inkscape:locked="false" /><sodipodi:guide
       position="0,-291.21349"
       orientation="0,-1"
       id="guide32"
       inkscape:locked="false" /><sodipodi:guide
       position="-61.227874,-306.66306"
       orientation="0,-1"
       id="guide33"
       inkscape:locked="false" /><sodipodi:guide
       position="102.9595,-379.87551"
       orientation="0,-1"
       id="guide35"
       inkscape:locked="false" /><sodipodi:guide
       position="538.86186,81.650588"
       orientation="1,0"
       id="guide37"
       inkscape:locked="false" /><sodipodi:guide
       position="467.66728,43.947105"
       orientation="1,0"
       id="guide38"
       inkscape:locked="false" /><sodipodi:guide
       position="389.60263,132.91732"
       orientation="0,-1"
       id="guide39"
       inkscape:locked="false" /><sodipodi:guide
       position="323.86323,1.3851267"
       orientation="0,-1"
       id="guide40"
       inkscape:locked="false" /><sodipodi:guide
       position="386.38011,-12.005834"
       orientation="0,-1"
       id="guide41"
       inkscape:locked="false" /><sodipodi:guide
       position="321.92972,-143.53802"
       orientation="0,-1"
       id="guide42"
       inkscape:locked="false" /><sodipodi:guide
       position="392.84193,-158.29616"
       orientation="0,-1"
       id="guide43"
       inkscape:locked="false" /><sodipodi:guide
       position="581.86664,135.46667"
       orientation="1,0"
       id="guide45"
       inkscape:locked="false" /><sodipodi:guide
       position="394.11416,-309.21242"
       orientation="0,-1"
       id="guide46"
       inkscape:locked="false" /><sodipodi:guide
       position="321.28521,-440.7446"
       orientation="0,-1"
       id="guide47"
       inkscape:locked="false" /></sodipodi:namedview><defs
     id="defs1" /><g
     inkscape:label="Legacy of the Dragonborn"
     inkscape:groupmode="layer"
     id="layer1"><path
       style="fill:#ffffff;fill-opacity:1;stroke:#000000;stroke-width:8;stroke-linecap:round;stroke-linejoin:round;stroke-dasharray:none;stroke-opacity:1;paint-order:stroke fill markers"
       d="m 11.333193,41.702804 c 33.169523,-10.251643 69.942465,-13.949005 112.550507,0 C 113.47049,102.82389 76.398524,129.84949 67.443187,130.15979 57.480512,129.8644 15.827471,100.63118 11.333193,41.702804 Z m 106.020397,4.132415 c 0.0604,-0.737046 -46.658006,-14.888227 -99.358701,-0.351154 1.486505,10.120052 4.91879,28.891466 12.876803,42.12629 11.526025,19.168725 31.21042,36.320315 36.44214,37.426265 5.166117,-0.34112 30.270932,-20.92513 39.026128,-44.648444 6.69608,-18.143928 10.29466,-25.789864 11.01363,-34.552957 z"
       id="path10"
       sodipodi:nodetypes="ccscscscss"
       inkscape:label="Shield Stroke" /><path
       style="display:inline;fill:#ffffff;fill-opacity:1;stroke:#000000;stroke-width:8;stroke-linecap:round;stroke-linejoin:round;stroke-dasharray:none;stroke-opacity:1;paint-order:stroke fill markers"
       d="m 69.655696,115.88082 c 0.766413,-0.20025 1.569816,-0.86902 3.488172,-2.90368 2.084034,-2.21038 4.900192,-4.70625 8.040604,-7.12615 l 0.611948,-0.47156 -0.794085,-2.34209 c -2.205945,-6.5063 -1.802552,-12.598395 1.224526,-18.492937 2.975336,-5.79379 13.832032,-1.052564 13.832032,6.040585 0,1.548215 0.52737,1.371226 0.974854,-0.327169 1.010359,-3.834755 -0.827996,-6.981018 -5.619735,-9.617922 -3.710752,-2.042036 -4.958319,-3.887115 -4.351168,-6.435131 0.495107,-2.077807 0.600123,-2.13514 2.336834,-1.275805 2.429387,1.202076 7.678499,3.404833 10.10063,4.238667 8.526552,2.935322 12.185652,6.769084 13.132132,13.758957 l 0.19399,1.432735 0.21465,-0.781491 c 1.06049,-3.860915 0.0426,-7.980188 -3.28888,-13.310809 -0.79716,-1.275464 -1.63195,-2.670699 -1.85511,-3.10052 -1.25135,-2.410197 -6.48958,-6.933478 -10.726202,-9.26222 -1.363736,-0.749605 -2.132478,-1.309603 -1.899838,-1.383956 0.214916,-0.06869 0.837478,-0.260106 1.383473,-0.425373 1.345941,-0.407404 1.260127,-0.753925 -0.624304,-2.520987 -0.88936,-0.833968 -2.210002,-2.248954 -2.934759,-3.144413 -0.724758,-0.895459 -1.489912,-1.628108 -1.700344,-1.628108 -1.744371,0 2.406094,-5.803661 5.447769,-7.617701 3.188025,-1.90132 9.509175,-7.429381 9.149695,-8.001726 -0.19652,-0.31291 -0.64954,-0.140408 -2.48054,0.944555 -2.83263,1.678492 -6.77751,2.668484 -9.205545,2.310192 -1.457071,-0.215013 -1.801634,0.299175 2.907634,-4.339028 6.227361,-6.13338 9.818361,-11.568622 11.165951,-16.90044 0.23537,-0.931277 0.65667,-2.438228 0.93621,-3.34878 0.5191,-1.690869 0.72021,-5.869475 0.29492,-6.128115 -0.11733,-0.07136 -1.20676,2.295504 -2.42095,5.259695 -4.06632,9.927058 -4.9723,11.315596 -9.433226,14.457612 -3.620342,2.549957 -11.588714,4.778643 -10.241908,2.864573 6.697625,-9.518611 8.311275,-20.4437 4.199035,-28.4292376 -0.711998,-1.382626 -1.711145,-1.9372354 -1.371782,-0.7614538 2.877944,9.9711604 -0.04849,18.2497864 -8.314163,23.5200204 -1.528621,0.974657 -3.535477,2.484725 -4.459679,3.355706 l -1.680368,1.583601 0.182207,-1.197641 0.182209,-1.19764 -1.757377,-1.234014 c -3.810177,-2.675473 -6.388928,-7.561659 -6.711522,-12.716909 -0.141561,-2.262216 -0.488458,-2.262216 -0.630018,0 -0.322594,5.15525 -2.901346,10.041436 -6.711523,12.716909 l -1.757376,1.234014 0.182208,1.19764 0.182208,1.197641 -1.680368,-1.583601 C 56.444614,33.116334 54.437758,31.606266 52.909137,30.631609 44.643467,25.361375 41.71703,17.082749 44.594974,7.1115886 44.934336,5.935807 43.935191,6.4904164 43.223193,7.8730424 39.110952,15.85858 40.724602,26.783669 47.422228,36.30228 48.769034,38.21635 40.800662,35.987664 37.18032,33.437707 32.719392,30.295691 31.813411,28.907153 27.747086,18.980095 26.532901,16.015904 25.44347,13.649041 25.326138,13.7204 c -0.425287,0.25864 -0.224179,4.437246 0.294926,6.128115 0.27954,0.910552 0.700834,2.417503 0.936209,3.34878 1.347587,5.331818 4.938589,10.76706 11.16595,16.90044 4.709269,4.638203 4.364706,4.124015 2.907636,4.339028 -2.428036,0.358292 -6.372918,-0.6317 -9.205555,-2.310192 -1.830994,-1.084963 -2.284016,-1.257465 -2.48054,-0.944555 -0.359471,0.572345 5.961682,6.100406 9.149704,8.001726 3.041675,1.81404 7.19214,7.617701 5.447769,7.617701 -0.210431,0 -0.975585,0.732649 -1.700343,1.628108 -0.724758,0.895459 -2.0454,2.310445 -2.93476,3.144413 -1.884431,1.767062 -1.970244,2.113583 -0.624302,2.520987 0.545993,0.165267 1.168554,0.356685 1.383471,0.425373 0.232641,0.07436 -0.536101,0.634351 -1.899837,1.383956 -4.236622,2.328742 -9.474849,6.852023 -10.726206,9.26222 -0.223159,0.429821 -1.057953,1.825056 -1.855097,3.10052 -3.331573,5.330621 -4.349374,9.449894 -3.288891,13.310809 l 0.214655,0.781491 0.194003,-1.432735 c 0.946464,-6.989873 4.605561,-10.823635 13.132116,-13.758957 2.42213,-0.833834 7.671241,-3.036591 10.100629,-4.238667 1.736711,-0.859335 1.841727,-0.802002 2.336834,1.275805 0.60715,2.548016 -0.640416,4.393095 -4.351167,6.435131 -4.79174,2.636904 -6.630095,5.783167 -5.619736,9.617922 0.447485,1.698395 0.974854,1.875384 0.974854,0.327169 0,-5.35411 8.996033,-11.187886 12.479165,-8.092529 3.739744,3.323403 5.002786,13.391334 2.577393,20.544881 l -0.794085,2.34209 0.611948,0.47156 c 3.138553,2.41847 5.955605,4.91475 8.034343,7.11951 3.031947,3.21574 4.550148,3.77729 7.868472,2.91032 z"
       id="path9"
       inkscape:label="Dragon Stroke" /><path
       id="path8"
       style="display:inline;fill:#000000;fill-opacity:1;stroke:none;stroke-width:8.83336;stroke-linecap:round;stroke-linejoin:round;stroke-dasharray:none;stroke-opacity:1;paint-order:stroke fill markers"
       d="m 67.468676,42.474095 c -1.586796,-0.0066 -2.186338,1.226065 -2.20931,1.988837 -0.02297,0.76277 0.544475,2.18309 2.20931,2.177084 1.664835,-0.0061 2.414987,-1.469611 2.356666,-2.225928 -0.05832,-0.756318 -0.769871,-1.933396 -2.356666,-1.939993 z m 0,8.585726 c -1.343529,-0.0098 -1.952882,1.253473 -2.02421,1.917607 -0.07133,0.664135 0.364973,1.93741 2.02421,1.996976 1.659236,0.05956 2.419991,-1.000027 2.056782,-2.0041 -0.363207,-1.004071 -0.713254,-1.900637 -2.056782,-1.910483 z m 0.143736,8.969349 c -0.941457,-0.02593 -2.005487,1.126423 -2.027828,1.975098 -0.02234,0.848676 1.039181,1.318766 1.884092,1.30961 0.84491,-0.0091 1.96746,-0.620232 1.977676,-1.44749 0.01021,-0.827258 -0.892483,-1.811285 -1.83394,-1.837218 z m -16.723125,3.583873 c -0.403967,0.02116 -0.261948,1.090802 0.16597,3.604733 l 0.572363,3.363569 4.169406,4.227484 c 4.734215,4.800156 4.945845,4.844106 3.345246,0.692964 -1.924484,-4.991134 -3.638489,-7.751686 -6.57364,-10.586263 -0.870679,-0.840845 -1.402946,-1.316971 -1.679345,-1.302487 z m 33.158777,0 c -0.276445,-0.01427 -0.808242,0.461731 -1.678827,1.302487 -2.938101,2.837425 -4.649106,5.593661 -6.579845,10.601018 -1.587311,4.116677 -1.341495,4.062832 3.394364,-0.74893 l 4.12701,-4.193395 0.571845,-3.360008 c 0.427541,-2.511727 0.569488,-3.580315 0.165453,-3.601172 z m -23.62612,40.802427 c -0.271913,0.01 -0.569861,0.11577 -0.911023,0.34444 1.072111,0.79305 2.231078,1.90274 3.497254,2.26815 0.17354,-0.18083 -1.139427,-1.93135 -1.832903,-2.38364 -0.235625,-0.15368 -0.481415,-0.239 -0.753328,-0.22895 z m 14.202041,0.0351 c -0.159104,-0.006 -0.3273,0.0366 -0.521692,0.15315 -0.9249,0.47535 -2.146833,1.78303 -2.133305,2.24882 1.164933,0.15663 2.94348,-1.36486 3.45434,-2.09466 -0.293885,-0.1548 -0.534169,-0.29769 -0.799343,-0.30731 z"
       inkscape:label="Detail Stroke" /><path
       id="path15-4"
       style="display:inline;fill:#08af50;fill-opacity:1;fill-rule:evenodd;stroke:#000000;stroke-width:8.46027;stroke-linecap:round;stroke-linejoin:round;stroke-miterlimit:2;stroke-dasharray:none;stroke-opacity:1;paint-order:stroke fill markers"
       d="M 98.505558,113.42429 120.34711,77.442306 131.23665,90.044986 99.917618,131.23668 75.816017,115.80595 86.478347,102.9932 Z"
       sodipodi:nodetypes="ccccccc"
       inkscape:label="Check Icon" /></g></svg>
