<?xml version="1.0" encoding="UTF-8" standalone="no"?>
<!-- Created with Inkscape (http://www.inkscape.org/) -->

<svg
   width="512"
   height="512"
   viewBox="0 0 135.46666 135.46667"
   version="1.1"
   id="svg1"
   xml:space="preserve"
   xmlns="http://www.w3.org/2000/svg"
   xmlns:svg="http://www.w3.org/2000/svg"><defs
     id="defs1" /><g
     id="layer2"
     transform="translate(-145.46666,-291.21346)"><path
       d="m 211.66822,293.73246 c -8.54316,0.10162 -14.93416,4.60308 -18.68775,10.05675 -3.7536,5.45368 -5.2834,11.72905 -5.2834,16.85944 a 4.0004,4.0004 0 0 0 0.15038,0.36328 h -18.70274 a 4.0004,4.0004 0 0 0 -4.00027,3.9703 l -0.0641,8.70541 a 4.0004,4.0004 0 0 0 0.35347,0.86713 h -12.10572 a 4.0004,4.0004 0 0 0 -3.99976,3.94912 l -0.17983,13.96659 a 4.0004,4.0004 0 0 0 3.99975,4.05091 h 6.50193 a 4.0004,4.0004 0 0 0 -0.26148,0.61547 l -0.0977,7.15047 a 4.0004,4.0004 0 0 0 0.19947,0.49609 h -6.34173 a 4.0004,4.0004 0 0 0 -4.00027,3.99975 v 6.80269 a 4.0004,4.0004 0 0 0 2.74608,3.48041 4.0004,4.0004 0 0 0 -0.51159,1.2206 l -0.10542,16.83411 a 4.0004,4.0004 0 0 0 0.67954,1.66243 4.0004,4.0004 0 0 0 -1.58595,3.00188 v 5.74591 a 4.0004,4.0004 0 0 0 3.98426,4.00027 l 26.69759,0.10542 v 9.68933 a 4.0004,4.0004 0 0 0 3.99976,3.99976 h 6.78511 a 4.0004,4.0004 0 0 0 4.00028,-3.99976 v -19.42 a 4.0004,4.0004 0 0 0 -3.98839,-3.99976 l -0.86145,-0.002 a 4.0004,4.0004 0 0 0 0.2558,-0.61133 l 0.10749,-16.83411 a 4.0004,4.0004 0 0 0 -0.3576,-0.87282 h 40.49055 a 4.0004,4.0004 0 0 0 -0.29507,0.70074 l -0.009,1.45159 h 3.70262 v -6.15208 h -81.73506 v -6.80321 h 81.73506 v -0.3576 a 4.0004,4.0004 0 0 1 2.34714,-3.64215 h -61.00351 a 4.0004,4.0004 0 0 0 0.16433,-0.38706 l 0.0977,-7.15047 a 4.0004,4.0004 0 0 0 -0.29094,-0.7245 h 69.79678 a 4.0004,4.0004 0 0 0 -0.11524,0.27182 l -0.0977,7.14995 a 4.0004,4.0004 0 0 0 0.16692,0.48266 h 13.15526 a 4.0004,4.0004 0 0 1 3.99976,3.99975 v 0.3576 h 6.46007 v 6.80321 h -6.46007 v 4.72632 h 4.95474 l -0.009,1.42576 h 4.00079 l 0.009,-1.40044 a 4.0004,4.0004 0 0 0 -0.62529,-1.52755 4.0004,4.0004 0 0 0 2.12907,-3.22461 v -6.80269 a 4.0004,4.0004 0 0 0 -4.00027,-4.00027 h -6.99389 a 4.0004,4.0004 0 0 0 0.31264,-0.73019 l 0.0977,-7.15253 a 4.0004,4.0004 0 0 0 -0.15245,-0.37879 h 6.73654 a 4.0004,4.0004 0 0 0 3.99976,-3.94705 l 0.1819,-13.96917 a 4.0004,4.0004 0 0 0 -4.00027,-4.0504 h -13.66583 a 4.0004,4.0004 0 0 0 0.33951,-0.80873 l 0.0646,-8.7049 a 4.0004,4.0004 0 0 0 -4.00028,-4.02973 H 234.3033 a 4.0004,4.0004 0 0 0 0.15038,-0.36276 c 0,-4.93013 -1.11929,-11.25508 -4.52944,-16.81293 -3.41016,-5.55785 -9.67013,-10.20539 -18.25573,-10.10326 z m 0.047,3.99975 c 14.48142,-0.17226 18.73839,14.38745 18.73839,22.91695 h -38.75732 c 0,-8.5295 5.53752,-22.74469 20.01893,-22.91695 z m -42.57104,27.27948 h 83.33858 l -0.0646,8.70437 H 169.0796 Z m -15.81661,13.54284 h 116.41667 l -0.18087,13.96762 H 153.14776 Z m 96.55121,18.29191 h 9.09919 l -0.0971,7.1515 h -9.09919 z m -86.49032,0.34468 h 9.09918 l -0.0971,7.1515 h -9.09919 z m 4.7873,22.39501 h 6.42183 a 4.0004,4.0004 0 0 0 -0.34571,0.82424 l -0.10542,16.83205 a 4.0004,4.0004 0 0 0 0.24804,0.6072 l -6.2947,-0.0196 a 4.0004,4.0004 0 0 0 0.27698,-0.65991 l 0.10542,-16.83205 a 4.0004,4.0004 0 0 0 -0.30644,-0.75189 z m -12.79353,0.72657 h 9.0997 l -0.1049,16.83257 h -9.10074 z m 22.86889,0.12144 h 9.0997 l -0.10594,16.83308 h -9.09815 z m -23.87917,21.35012 37.4649,0.12247 v 19.42001 h -6.7846 v -13.6741 l -30.6803,-0.12144 z m 72.12015,7.58507 v 11.95689 a 4.0004,4.0004 0 0 0 4.00027,3.99976 h 5.39089 a 4.0004,4.0004 0 0 1 -1.00046,-2.64635 v -1.35289 h -4.39043 v -11.95741 z m 36.6112,0 v 2.18591 l 6.47506,-0.0243 a 4.0004,4.0004 0 0 0 3.53673,-2.16162 z"
       style="baseline-shift:baseline;display:inline;overflow:visible;vector-effect:none;stroke:none;stroke-linecap:round;stroke-linejoin:round;paint-order:stroke fill markers;enable-background:accumulate;stop-color:#000000;stop-opacity:1"
       id="path199" /><path
       d="m 211.71524,297.73221 c -14.48141,0.17226 -20.01893,14.38745 -20.01893,22.91695 h 38.75732 c 0,-8.5295 -4.25697,-23.08921 -18.73839,-22.91695 z m -42.57104,27.27948 -0.0646,8.70437 h 83.33858 l 0.0646,-8.70437 z m -15.81661,13.54284 -0.17983,13.96762 h 116.41563 l 0.18087,-13.96762 z m 96.55121,18.29191 -0.0971,7.1515 h 9.09919 l 0.0971,-7.1515 z m -86.49032,0.34468 -0.0972,7.1515 h 9.09919 l 0.0971,-7.1515 z m -10.24072,11.59205 v 6.80321 h 81.73506 v -6.80321 z m 109.95556,0 v 6.80321 h 6.46007 v -6.80321 z m -107.72107,11.52953 -0.10594,16.83257 h 9.10074 l 0.1049,-16.83257 z m 107.72107,0 v 1.42576 h 4.94595 l 0.009,-1.42576 z m -84.85218,0.12144 -0.10439,16.83308 h 9.09815 l 0.10594,-16.83308 z m -23.87917,21.35012 v 5.74694 l 30.6803,0.12144 v 13.6741 h 6.7846 v -19.42001 z m 76.12042,7.58507 v 11.95741 h 4.39043 v -11.95741 z"
       style="baseline-shift:baseline;display:inline;overflow:visible;vector-effect:none;fill:#ffffff;stroke:none;stroke-linecap:round;stroke-linejoin:round;paint-order:stroke fill markers;enable-background:accumulate;stop-color:#000000;stop-opacity:1"
       id="path198" /><path
       d="m 238.88258,364.42582 a 4.0004,4.0004 0 0 0 -3.99976,3.99975 v 13.31289 h -13.83016 a 4.0004,4.0004 0 0 0 -3.99976,3.99975 v 19.63085 a 4.0004,4.0004 0 0 0 3.99976,4.00027 h 13.83016 v 13.3103 a 4.0004,4.0004 0 0 0 3.99976,4.00027 h 20.22098 a 4.0004,4.0004 0 0 0 3.99976,-4.00027 v -13.3103 h 13.83016 a 4.0004,4.0004 0 0 0 4.00028,-4.00027 v -19.63085 a 4.0004,4.0004 0 0 0 -4.00028,-3.99975 h -13.83016 v -13.31289 a 4.0004,4.0004 0 0 0 -3.99976,-3.99975 z m 5.1e-4,4.00027 h 20.21996 v 17.31109 h 17.83043 v 19.63136 h -17.83043 v 17.3116 h -20.21996 v -17.3116 h -17.83043 v -19.63136 h 17.83043 z"
       style="baseline-shift:baseline;display:inline;overflow:visible;vector-effect:none;fill-rule:evenodd;stroke:none;stroke-linecap:round;stroke-linejoin:round;stroke-miterlimit:2;paint-order:stroke fill markers;enable-background:accumulate;stop-color:#000000;stop-opacity:1"
       id="path195" /><path
       d="m 238.88309,368.42609 v 17.31109 h -17.83043 v 19.63136 h 17.83043 v 17.3116 h 20.21996 v -17.3116 h 17.83043 v -19.63136 h -17.83043 v -17.31109 z"
       style="baseline-shift:baseline;display:inline;overflow:visible;vector-effect:none;fill:#6ac5fe;fill-rule:evenodd;stroke:none;stroke-linecap:round;stroke-linejoin:round;stroke-miterlimit:2;paint-order:stroke fill markers;enable-background:accumulate;stop-color:#000000;stop-opacity:1"
       id="path194" /></g></svg>
