<?xml version="1.0" encoding="UTF-8" standalone="no"?>
<!-- Created with Inkscape (http://www.inkscape.org/) -->

<svg
   width="512"
   height="512"
   viewBox="0 0 135.46666 135.46667"
   version="1.1"
   id="svg1"
   xml:space="preserve"
   inkscape:version="1.4.3 (0d15f75, 2025-12-25)"
   sodipodi:docname="quicklooticons.svg"
   inkscape:export-batch-name=""
   inkscape:export-batch-path="Completionist Addons Dev\docs"
   xmlns:inkscape="http://www.inkscape.org/namespaces/inkscape"
   xmlns:sodipodi="http://sodipodi.sourceforge.net/DTD/sodipodi-0.dtd"
   xmlns="http://www.w3.org/2000/svg"
   xmlns:svg="http://www.w3.org/2000/svg"><sodipodi:namedview
     id="namedview1"
     pagecolor="#818181"
     bordercolor="#000000"
     borderopacity="0.25"
     inkscape:showpageshadow="2"
     inkscape:pageopacity="0.0"
     inkscape:pagecheckerboard="0"
     inkscape:deskcolor="#d1d1d1"
     inkscape:document-units="mm"
     inkscape:zoom="0.29028319"
     inkscape:cx="887.06479"
     inkscape:cy="456.45081"
     inkscape:window-width="2560"
     inkscape:window-height="1369"
     inkscape:window-x="1912"
     inkscape:window-y="-8"
     inkscape:window-maximized="1"
     inkscape:current-layer="layer5"
     inkscape:clip-to-page="true"
     showguides="true"><sodipodi:guide
       position="105.16148,575.0953"
       orientation="0,-1"
       id="guide12"
       inkscape:locked="false" /><sodipodi:guide
       position="74.687131,443.46656"
       orientation="0,-1"
       id="guide13"
       inkscape:locked="false" /><sodipodi:guide
       position="280.93332,577.59641"
       orientation="0,-1"
       id="guide14"
       inkscape:locked="false" /><sodipodi:guide
       position="280.93332,442.12973"
       orientation="0,-1"
       id="guide15"
       inkscape:locked="false" /><sodipodi:guide
       position="135.46666,577.59641"
       orientation="1,0"
       id="guide16"
       inkscape:locked="false" /><sodipodi:guide
       position="145.46666,577.59641"
       orientation="1,0"
       id="guide17"
       inkscape:locked="false" /><sodipodi:guide
       position="280.93331,577.59642"
       orientation="1,0"
       id="guide18"
       inkscape:locked="false" /><sodipodi:guide
       position="1.0695129e-05,577.59641"
       orientation="1,0"
       id="guide19"
       inkscape:locked="false" /><sodipodi:guide
       position="290.93332,577.59641"
       orientation="1,0"
       id="guide20"
       inkscape:locked="false" /><sodipodi:guide
       position="426.39999,577.59641"
       orientation="1,0"
       id="guide21"
       inkscape:locked="false" /><sodipodi:guide
       position="69.271431,432.67327"
       orientation="0,-1"
       id="guide22"
       inkscape:locked="false" /><sodipodi:guide
       position="145.46664,297.20659"
       orientation="0,-1"
       id="guide25"
       inkscape:locked="false" /><sodipodi:guide
       position="145.46665,286.38294"
       orientation="0,-1"
       id="guide26"
       inkscape:locked="false" /><sodipodi:guide
       position="436.4,442.12973"
       orientation="1,0"
       id="guide28"
       inkscape:locked="false" /><sodipodi:guide
       position="71.586101,201.52834"
       orientation="1,0"
       id="guide29"
       inkscape:locked="false" /><sodipodi:guide
       position="119.55548,213.17049"
       orientation="0,-1"
       id="guide30"
       inkscape:locked="false" /><sodipodi:guide
       position="1.0695129e-05,150.91626"
       orientation="0,-1"
       id="guide31"
       inkscape:locked="false" /><sodipodi:guide
       position="1.0695129e-05,150.91625"
       orientation="0,-1"
       id="guide32"
       inkscape:locked="false" /><sodipodi:guide
       position="-61.227869,135.46668"
       orientation="0,-1"
       id="guide33"
       inkscape:locked="false" /><inkscape:page
       x="0"
       y="0"
       width="135.46666"
       height="135.46667"
       id="page33"
       margin="0"
       bleed="0" /><sodipodi:guide
       position="102.9595,62.254234"
       orientation="0,-1"
       id="guide35"
       inkscape:locked="false" /><sodipodi:guide
       position="538.86187,523.78032"
       orientation="1,0"
       id="guide37"
       inkscape:locked="false" /><sodipodi:guide
       position="467.66729,486.07684"
       orientation="1,0"
       id="guide38"
       inkscape:locked="false" /><sodipodi:guide
       position="389.60263,575.04706"
       orientation="0,-1"
       id="guide39"
       inkscape:locked="false" /><sodipodi:guide
       position="323.86323,443.51486"
       orientation="0,-1"
       id="guide40"
       inkscape:locked="false" /><sodipodi:guide
       position="386.38011,430.1239"
       orientation="0,-1"
       id="guide41"
       inkscape:locked="false" /><sodipodi:guide
       position="321.92972,298.59172"
       orientation="0,-1"
       id="guide42"
       inkscape:locked="false" /><sodipodi:guide
       position="392.84194,283.83358"
       orientation="0,-1"
       id="guide43"
       inkscape:locked="false" /><sodipodi:guide
       position="581.86665,577.59641"
       orientation="1,0"
       id="guide45"
       inkscape:locked="false" /><sodipodi:guide
       position="394.11417,132.91732"
       orientation="0,-1"
       id="guide46"
       inkscape:locked="false" /><sodipodi:guide
       position="321.28521,1.3851444"
       orientation="0,-1"
       id="guide47"
       inkscape:locked="false" /></sodipodi:namedview><defs
     id="defs1" /><g
     inkscape:label="Legacy of the Dragonborn"
     inkscape:groupmode="layer"
     id="layer1"
     transform="translate(-2.1460765e-6,-442.12975)"><path
       style="fill:#ffffff;fill-opacity:1;stroke:#000000;stroke-width:8;stroke-linecap:round;stroke-linejoin:round;stroke-dasharray:none;stroke-opacity:1;paint-order:stroke fill markers"
       d="m 11.333185,483.83252 c 33.16953,-10.25164 69.94247,-13.949 112.550515,0 -10.41321,61.12109 -47.485175,88.14669 -56.440515,88.45699 -9.96268,-0.29539 -51.61572,-29.52861 -56.11,-88.45699 z m 106.020405,4.13242 c 0.0604,-0.73705 -46.658015,-14.88823 -99.358705,-0.35116 1.4865,10.12005 4.91879,28.89147 12.8768,42.12629 11.52603,19.16873 31.21042,36.32032 36.44214,37.42627 5.16612,-0.34112 30.270941,-20.92513 39.026135,-44.64845 6.69608,-18.14393 10.29466,-25.78986 11.01363,-34.55295 z"
       id="path10-4-6-7"
       sodipodi:nodetypes="ccscscscss"
       inkscape:label="Shield Stroke" /><path
       style="display:inline;fill:#ffffff;fill-opacity:1;stroke:#000000;stroke-width:8;stroke-linecap:round;stroke-linejoin:round;stroke-dasharray:none;stroke-opacity:1;paint-order:stroke fill markers"
       d="m 69.655695,558.01054 c 0.76641,-0.20025 1.56981,-0.86902 3.48817,-2.90368 2.08404,-2.21038 4.90019,-4.70625 8.04061,-7.12615 l 0.61194,-0.47156 -0.79408,-2.34209 c -2.20595,-6.5063 -1.80255,-12.5984 1.22453,-18.49294 2.97533,-5.79379 13.832031,-1.05256 13.832031,6.04058 0,1.54822 0.52737,1.37123 0.97485,-0.32716 1.01036,-3.83476 -0.82799,-6.98102 -5.619731,-9.61793 -3.71076,-2.04203 -4.95832,-3.88711 -4.35117,-6.43513 0.49511,-2.0778 0.60012,-2.13514 2.33683,-1.2758 2.42939,1.20207 7.678501,3.40483 10.100631,4.23866 8.526564,2.93533 12.185664,6.76909 13.132144,13.75896 l 0.19399,1.43274 0.21465,-0.78149 c 1.06049,-3.86092 0.0426,-7.98019 -3.28888,-13.31081 -0.79716,-1.27547 -1.63195,-2.6707 -1.85511,-3.10052 -1.25135,-2.4102 -6.48958,-6.93348 -10.726214,-9.26222 -1.36373,-0.74961 -2.13248,-1.30961 -1.89984,-1.38396 0.21492,-0.0687 0.83748,-0.26011 1.38348,-0.42537 1.34594,-0.40741 1.26012,-0.75393 -0.62431,-2.52099 -0.88936,-0.83397 -2.21,-2.24895 -2.93476,-3.14441 -0.724751,-0.89546 -1.489911,-1.62811 -1.700341,-1.62811 -1.74437,0 2.406091,-5.80366 5.447771,-7.6177 3.188034,-1.90132 9.509184,-7.42938 9.149704,-8.00173 -0.19652,-0.31291 -0.64954,-0.14041 -2.48054,0.94456 -2.83263,1.67849 -6.777524,2.66848 -9.205554,2.31019 -1.45707,-0.21501 -1.801641,0.29917 2.90763,-4.33903 6.227374,-6.13338 9.818374,-11.56862 11.165964,-16.90044 0.23537,-0.93128 0.65667,-2.43823 0.93621,-3.34878 0.5191,-1.69087 0.72021,-5.86947 0.29492,-6.12811 -0.11733,-0.0714 -1.20676,2.2955 -2.42095,5.25969 -4.06632,9.92706 -4.9723,11.3156 -9.433234,14.45761 -3.62034,2.54996 -11.588721,4.77865 -10.241911,2.86458 6.697621,-9.51861 8.311271,-20.4437 4.19903,-28.42924 -0.71199,-1.38263 -1.71114,-1.93724 -1.37178,-0.76145 2.877951,9.97116 -0.0485,18.24978 -8.31416,23.52002 -1.52862,0.97465 -3.53548,2.48472 -4.45968,3.3557 l -1.68037,1.5836 0.18221,-1.19764 0.18221,-1.19764 -1.75738,-1.23401 c -3.81018,-2.67548 -6.38893,-7.56166 -6.71152,-12.71691 -0.14156,-2.26222 -0.48846,-2.26222 -0.63002,0 -0.3226,5.15525 -2.90135,10.04143 -6.71152,12.71691 l -1.75738,1.23401 0.18221,1.19764 0.18221,1.19764 -1.68037,-1.5836 c -0.92421,-0.87098 -2.93106,-2.38105 -4.45968,-3.3557 -8.26567,-5.27024 -11.19211,-13.54886 -8.31417,-23.52002 0.33937,-1.17579 -0.65978,-0.62118 -1.37178,0.76145 -4.11224,7.98554 -2.49859,18.91063 4.19904,28.42924 1.3468,1.91407 -6.62157,-0.31462 -10.24191,-2.86458 -4.46093,-3.14201 -5.36691,-4.53055 -9.43323,-14.45761 -1.21419,-2.96419 -2.30362,-5.33105 -2.42095,-5.25969 -0.42529,0.25864 -0.22418,4.43724 0.29492,6.12811 0.27954,0.91055 0.70084,2.4175 0.93621,3.34878 1.34759,5.33182 4.93859,10.76706 11.16595,16.90044 4.70927,4.6382 4.36471,4.12402 2.90764,4.33903 -2.42804,0.35829 -6.37292,-0.6317 -9.20556,-2.31019 -1.83099,-1.08497 -2.28401,-1.25747 -2.48054,-0.94456 -0.35947,0.57235 5.96169,6.10041 9.14971,8.00173 3.04167,1.81404 7.19214,7.6177 5.44777,7.6177 -0.21043,0 -0.97559,0.73265 -1.70035,1.62811 -0.72475,0.89546 -2.0454,2.31044 -2.93476,3.14441 -1.88443,1.76706 -1.97024,2.11358 -0.6243,2.52099 0.546,0.16526 1.16856,0.35668 1.38347,0.42537 0.23264,0.0744 -0.5361,0.63435 -1.89983,1.38396 -4.23663,2.32874 -9.47485,6.85202 -10.72621,9.26222 -0.22316,0.42982 -1.05795,1.82505 -1.8551,3.10052 -3.33157,5.33062 -4.34937,9.44989 -3.28889,13.3108 l 0.21466,0.7815 0.194,-1.43274 c 0.94646,-6.98987 4.60556,-10.82363 13.13212,-13.75896 2.42213,-0.83383 7.67124,-3.03659 10.10063,-4.23866 1.73671,-0.85934 1.84172,-0.802 2.33683,1.2758 0.60715,2.54802 -0.64042,4.3931 -4.35117,6.43513 -4.79174,2.63691 -6.63009,5.78317 -5.61973,9.61793 0.44748,1.69839 0.97485,1.87538 0.97485,0.32716 0,-5.35411 8.99603,-11.18788 12.47917,-8.09252 3.73974,3.3234 5.00278,13.39133 2.57739,20.54488 l -0.79409,2.34209 0.61195,0.47156 c 3.13855,2.41847 5.95561,4.91475 8.03434,7.11951 3.03195,3.21574 4.55015,3.77729 7.86848,2.91032 z"
       id="path9-3-0-3"
       inkscape:label="Dragon Stroke" /><path
       id="path8-1-6-3"
       style="display:inline;fill:#000000;fill-opacity:1;stroke:none;stroke-width:8.83336;stroke-linecap:round;stroke-linejoin:round;stroke-dasharray:none;stroke-opacity:1;paint-order:stroke fill markers"
       d="m 67.468675,484.60381 c -1.5868,-0.007 -2.18634,1.22607 -2.20931,1.98884 -0.023,0.76277 0.54447,2.18309 2.20931,2.17708 1.66483,-0.006 2.41498,-1.46961 2.35666,-2.22593 -0.0583,-0.75631 -0.76987,-1.93339 -2.35666,-1.93999 z m 0,8.58573 c -1.34353,-0.01 -1.95289,1.25347 -2.02421,1.9176 -0.0713,0.66414 0.36497,1.93741 2.02421,1.99698 1.65923,0.0596 2.41999,-1.00003 2.05678,-2.0041 -0.36321,-1.00407 -0.71326,-1.90064 -2.05678,-1.91048 z m 0.14373,8.96935 c -0.94146,-0.0259 -2.00549,1.12642 -2.02783,1.97509 -0.0223,0.84868 1.03918,1.31877 1.8841,1.30961 0.84491,-0.009 1.96746,-0.62023 1.97767,-1.44749 0.0102,-0.82725 -0.89248,-1.81128 -1.83394,-1.83721 z m -16.72312,3.58387 c -0.40397,0.0212 -0.26195,1.0908 0.16597,3.60473 l 0.57236,3.36357 4.16941,4.22749 c 4.73421,4.80015 4.94584,4.8441 3.34524,0.69296 -1.92448,-4.99113 -3.63849,-7.75169 -6.57364,-10.58626 -0.87068,-0.84085 -1.40294,-1.31697 -1.67934,-1.30249 z m 33.15878,0 c -0.27645,-0.0143 -0.80824,0.46173 -1.67883,1.30249 -2.9381,2.83742 -4.6491,5.59366 -6.57984,10.60101 -1.58731,4.11668 -1.3415,4.06284 3.39436,-0.74893 l 4.12701,-4.19339 0.57184,-3.36001 c 0.42755,-2.51173 0.56949,-3.58031 0.16546,-3.60117 z m -23.62613,40.80243 c -0.27191,0.01 -0.56986,0.11577 -0.91102,0.34444 1.07211,0.79305 2.23108,1.90274 3.49726,2.26815 0.17354,-0.18083 -1.13943,-1.93135 -1.83291,-2.38364 -0.23562,-0.15368 -0.48141,-0.239 -0.75333,-0.22895 z m 14.20205,0.0351 c -0.1591,-0.006 -0.3273,0.0366 -0.52169,0.15315 -0.92491,0.47535 -2.14684,1.78303 -2.13331,2.24882 1.16493,0.15663 2.94348,-1.36486 3.45434,-2.09466 -0.29388,-0.1548 -0.53417,-0.29769 -0.79934,-0.30731 z"
       inkscape:label="Detail Stroke" /><path
       d="m 23.741374,4.8144095 c 0.169635,1.0370774 0.300694,2.487663 -0.135432,5.1090336 -0.339483,2.0404869 -0.712892,4.0759669 -1.043629,6.1178069 0.577653,0.152829 1.635133,-2.283135 2.196433,-3.514424 0.461698,-1.012799 1.03797,-2.8324075 1.510915,-3.4418416 0.35237,-0.422535 1.438727,-0.3415269 1.532158,0.6768551 0.122851,1.3390855 -0.32314,2.8629275 -0.632333,4.1725405 -0.261912,1.109341 -1.263936,2.961848 -2.301204,4.673637 -0.759229,1.293993 -1.626827,2.529171 -2.553875,3.722195 -0.842007,1.163298 -1.689273,2.431763 -1.768758,3.876148 -0.05322,0.923441 0.233524,1.823427 0.566026,2.681051 0.15239,0.561781 -0.230373,1.090945 -0.727652,1.419816 C 19.235754,31.066625 11.866652,31.626553 7.8044414,30.071405 6.7919776,29.683802 7.1669305,28.970558 7.5004538,28.072305 7.8338839,27.1743 7.5903385,25.995606 7.4078193,25.275883 7.0138563,23.722379 3.4236254,20.844299 2.7300489,20.250747 1.6959967,19.387938 0.58342063,18.485085 0.13549486,17.211921 -0.53504116,15.43425 1.0860535,14.711496 2.8675183,15.750463 3.9578157,16.352115 4.7138923,17.326408 5.598946,18.14763 6.3932794,18.829119 7.288231,19.121928 7.696209,17.575707 7.9242074,16.65734 7.8022911,15.709172 7.8473171,14.776451 7.8221588,13.074805 7.5848007,11.382981 7.4260663,9.6884045 7.2535077,7.8505692 7.0629486,6.0138621 6.950759,4.171912 6.8265647,2.1328639 8.4030417,1.1224304 9.3991938,2.5427892 c 0.5712611,0.7531594 1.1096402,1.6254415 1.8070902,5.9974321 0.29731,1.9067777 0.581762,3.8294807 1.279378,5.6486027 1.185945,-1.373019 1.142973,-4.2765435 1.482457,-6.0521766 0.181878,-0.9424634 0.837775,-4.1188542 1.310795,-5.75347 0.706606,-1.80187031 2.263579,-1.99507468 2.830266,-0.1745686 0.406386,1.5178506 0.240679,3.9909129 0.04429,5.8553799 -0.01598,1.9508543 -1.057684,5.1953213 -0.394767,6.9707643 0.89034,-0.220034 1.798682,-4.773656 2.095382,-5.8644668 0.473036,-1.6749185 0.788787,-3.3993578 1.438661,-5.019952 0.285454,-0.7118396 2.112815,-1.3889387 2.448628,0.6640753 z"
       fill="#feb4b4"
       fill-rule="evenodd"
       stroke="none"
       id="path1-8"
       sodipodi:nodetypes="ssssssssssssssssssssssssssssssssss"
       style="fill:#f7caaa;fill-opacity:1;stroke:#000000;stroke-width:4.20403;stroke-linecap:round;stroke-dasharray:none;stroke-opacity:1;paint-order:stroke markers fill"
       transform="matrix(1.9951355,0,0,1.8150013,75.787237,517.43142)"
       inkscape:label="Grab Icon" /></g></svg>
