<?xml version="1.0" encoding="UTF-8" standalone="no"?>
<!-- Created with Inkscape (http://www.inkscape.org/) -->

<svg
   width="512"
   height="512"
   viewBox="0 0 135.46666 135.46667"
   version="1.1"
   id="svg1"
   xml:space="preserve"
   xmlns="http://www.w3.org/2000/svg"
   xmlns:svg="http://www.w3.org/2000/svg"><defs
     id="defs1" /><g
     id="layer1"><path
       d="m 76.999951,28.813228 0.425814,0.298173 c 0.114803,-0.08558 0.22759,-0.171868 0.338997,-0.258382 -0.255112,-0.01384 -0.510123,-0.0271 -0.764811,-0.03979 z m -19.203996,0.09819 c -0.169278,0.0101 -0.338377,0.02043 -0.507462,0.03101 0.07363,0.05649 0.14807,0.11294 0.223242,0.168982 z m 50.367465,4.260205 c -0.76358,1.171702 -1.61333,2.344082 -2.54506,3.522265 5.96923,1.317714 12.05535,2.975903 18.26555,5.008997 -2.28783,13.428598 -5.86247,25.211493 -10.14305,35.426778 0.31274,0.532195 0.60738,1.061657 0.88315,1.588534 l 2.10633,-3.470073 a 4.230558,4.230558 0 0 1 2.83652,-1.963704 c 3.44501,-9.18357 6.31109,-19.473179 8.25945,-30.909225 a 4.0004,4.0004 0 0 0 -2.69751,-4.474662 c -5.75274,-1.883329 -11.40655,-3.450744 -16.96538,-4.72891 z m -81.253951,0.206189 c -5.698422,1.29345 -11.281862,2.810857 -16.757117,4.503084 a 4.0004,4.0004 0 0 0 -2.8065471,4.12688 c 1.246049,16.338029 5.2743681,30.502181 10.7073571,42.480611 0.434862,-1.74981 1.124843,-3.530522 2.040702,-5.342826 -4.436052,-10.763105 -7.677555,-23.240548 -8.760706,-37.442676 5.502699,-1.700709 11.104799,-3.220996 16.816028,-4.510319 0.181324,-0.05689 0.360239,-0.09819 0.533301,-0.119889 0.265571,-0.05921 0.531322,-0.118014 0.797367,-0.176217 -0.9398,-1.177166 -1.797868,-2.348545 -2.570385,-3.518648 z M 109.40262,43.4573 c -0.0978,0.16998 -0.19025,0.30093 -0.2775,0.427364 -0.35683,0.5171 -0.67901,0.86892 -1.0511,1.264005 -0.51191,0.543556 -1.10545,1.117215 -1.76216,1.716175 0.72089,0.154683 1.40508,0.307606 2.05155,0.457336 1.98179,0.459006 3.28617,0.835078 4.49792,1.187525 -0.86339,5.085153 -2.82015,10.534364 -6.12521,19.373494 1.18395,1.033078 2.23959,2.008694 3.13624,3.0887 4.44528,-11.720687 6.901,-18.064779 7.4812,-25.13645 0.015,-0.182632 -2.8422,-1.18881 -7.95094,-2.378149 z m -83.800565,0.112138 c -2.518684,0.574068 -5.055935,1.210841 -7.607288,1.914611 0.967073,6.583782 2.757828,16.829048 6.082316,26.829371 0.843281,-1.307804 1.893879,-2.41147 3.110922,-3.526917 -2.225553,-7.271687 -3.683915,-14.601071 -4.623491,-20.304187 2.091209,-0.528481 4.171865,-1.012909 6.239413,-1.455725 -0.727772,-0.657589 -1.382614,-1.28561 -1.94045,-1.877922 -0.372088,-0.395084 -0.694273,-0.746909 -1.051099,-1.264005 -0.067,-0.09709 -0.137142,-0.197148 -0.210323,-0.315226 z m 75.703385,38.605395 c -0.28369,0.64591 -0.57978,1.290047 -0.8878,1.931665 0.95376,2.240444 1.10422,4.819379 0.48473,7.170622 -0.0736,0.279303 -0.14892,0.543206 -0.23823,0.806152 1.5285,-2.557399 2.92105,-5.195113 4.12223,-7.886857 -0.90895,-0.69442 -2.05089,-1.368422 -3.48093,-2.021582 z M 32.675008,82.63682 C 31.25677,83.361 30.16682,84.11 29.33361,84.883195 c 0.492799,0.931033 1.005327,1.841269 1.537891,2.726965 1.082719,1.800652 2.482254,3.424032 3.690214,5.177462 -0.229866,-0.510626 -0.388473,-0.986314 -0.526583,-1.510502 -0.51743,-1.963875 -0.497806,-4.086749 0.07855,-6.038391 -0.497827,-0.842106 -0.976936,-1.710864 -1.438672,-2.601909 z m 75.466712,6.306075 C 104.58121,95.62536 100.75999,101.4496 96.920182,106.4488 l 0.569991,0.49454 10.740947,-17.693487 c -0.0288,-0.104141 -0.0587,-0.206376 -0.0894,-0.306958 z m -81.913864,2.828768 -0.153479,1.124996 a 4.0004,4.0004 0 0 1 -2.08256,2.990515 c 3.233809,5.454006 6.7208,10.316856 10.268107,14.587216 6.342238,7.63498 12.868233,13.38902 18.576127,17.32039 5.707895,3.93137 10.126263,6.23412 14.488005,6.36344 a 4.0004,4.0004 0 0 0 0.257865,0 c 4.151644,-0.14385 8.10684,-2.34117 13.33407,-6.11126 0.916522,-0.66103 1.857415,-1.3765 2.81895,-2.14767 l -3.567225,-2.2841 c -5.619729,4.32938 -10.24738,6.459 -12.724287,6.54482 C 60.887782,129.96564 40.610585,117.2415 26.227856,91.771659 Z m 72.702023,3.092318 c -0.32374,0.194726 -0.739894,0.386308 -1.279509,0.567407 -1.021047,0.342672 -2.5976,0.06044 -3.594096,-0.508496 -1.310708,1.891037 -2.685598,3.726517 -4.095874,5.490098 l 3.03134,2.6293 c 2.074832,-2.5818 4.082267,-5.32123 5.938139,-8.178309 z m -62.876782,0.01602 c 11.532571,15.966629 26.718969,29.196739 31.260624,30.156809 1.419858,-0.0937 4.345608,-1.71656 8.024316,-4.51342 l -1.802991,-1.15445 a 4.230558,4.230558 0 0 1 -0.723986,-0.58549 c -0.634903,0.4286 -1.317533,0.75012 -2.145089,0.96635 -0.585431,0.15296 -1.193447,0.28095 -1.814876,0.36587 -0.221528,0.12958 -0.4304,0.24674 -0.624769,0.35088 -0.523375,0.2804 -0.409826,0.23546 -0.638203,0.31471 -0.133222,-0.0789 -0.520866,-0.25955 -1.11001,-0.58498 -0.75433,-0.0606 -1.510065,-0.21305 -2.251542,-0.48731 -2.155082,-0.7971 -3.684687,-2.22829 -5.349545,-3.99407 -1.875163,-1.98884 -4.565382,-4.38266 -7.566463,-6.6952 l -0.611332,-0.47284 a 4.0004,4.0004 0 0 1 -1.539958,-3.53725 c -2.853295,-3.08755 -5.723661,-6.469147 -8.415507,-10.012304 -0.999318,0.518401 -2.481341,0.761915 -3.456636,0.434599 -0.524766,-0.176115 -0.914244,-0.362682 -1.234033,-0.551904 z"
       style="baseline-shift:baseline;display:inline;overflow:visible;vector-effect:none;stroke:none;stroke-linecap:round;stroke-linejoin:round;paint-order:stroke fill markers;enable-background:accumulate;stop-color:#000000;stop-opacity:1"
       id="path233" /><path
       d="m 105.61836,36.693884 c -0.13668,0.172832 -0.27527,0.345739 -0.41548,0.518832 0.34093,-0.05824 0.48879,-0.202038 1.01389,-0.144178 1.17821,0.129838 2.65622,1.181494 3.16208,1.985926 1.11017,1.76756 0.57079,3.112431 0.34779,3.703133 -0.11395,0.301844 -0.22186,0.522077 -0.32402,0.699699 5.10874,1.189339 7.96591,2.195517 7.95094,2.378149 -0.5802,7.071671 -3.03592,13.415763 -7.4812,25.13645 0.59896,0.721428 1.12713,1.489483 1.5751,2.352312 -0.0254,-0.04897 0.92955,1.594048 1.69705,2.82205 0.20547,0.328764 0.40433,0.656625 0.59635,0.983402 4.28058,-10.215285 7.85522,-21.99818 10.14305,-35.426778 -6.2102,-2.033094 -12.29632,-3.691283 -18.26555,-5.008997 z m -76.138506,0.202572 c -0.266045,0.0582 -0.531796,0.117005 -0.797367,0.176217 0.01208,-0.0015 0.02416,-0.0028 0.03617,-0.0041 0.525642,-0.05792 0.67431,0.08581 1.015442,0.144178 -0.08537,-0.105398 -0.170182,-0.210961 -0.254248,-0.31626 z m -1.330668,0.296106 c -5.711229,1.289323 -11.313329,2.80961 -16.816028,4.510319 1.083151,14.202128 4.324654,26.679571 8.760706,37.442676 0.500466,-0.990324 1.068417,-1.990154 1.699121,-2.9993 0.767498,-1.228029 1.722494,-2.87105 1.697054,-2.82205 0.182535,-0.351575 0.378544,-0.687439 0.587044,-1.010791 -3.324488,-10.000323 -5.115243,-20.245589 -6.082316,-26.829371 2.551353,-0.70377 5.088604,-1.340543 7.607288,-1.914611 -0.121692,-0.19635 -0.251936,-0.442968 -0.391191,-0.811837 -0.222997,-0.590694 -0.764444,-1.935551 0.345716,-3.703133 0.426327,-0.678809 1.545396,-1.533351 2.592606,-1.861902 z m 76.637184,47.003849 c -1.20118,2.691744 -2.59373,5.329458 -4.12223,7.886857 -0.10102,0.297424 -0.21985,0.593599 -0.3731,0.908989 -0.22479,0.462569 -0.22366,1.187524 -1.361161,1.87172 -1.855872,2.857079 -3.863307,5.596513 -5.938139,8.178313 l 3.928442,3.40651 c 3.839808,-4.9992 7.661028,-10.823444 11.221538,-17.505909 -0.45887,-1.502803 -1.13769,-2.618586 -2.12597,-3.65404 -0.35273,-0.369571 -0.75994,-0.733797 -1.22938,-1.09244 z m -75.45276,0.68678 c -0.14501,0.134565 -0.282015,0.269616 -0.411861,0.40566 -1.471839,1.542096 -2.257724,3.261702 -2.652035,6.173783 l -0.04186,0.308509 c 7.4e-5,1.29e-4 -7.3e-5,3.87e-4 0,5.16e-4 14.382729,25.469841 34.659926,38.193981 41.215573,38.388351 2.476907,-0.0858 7.104558,-2.21544 12.724287,-6.54482 l -4.829679,-3.0918 c -3.678708,2.79686 -6.604458,4.41967 -8.024316,4.51342 -4.541655,-0.96007 -19.728053,-14.19018 -31.260624,-30.156813 -1.16447,-0.689027 -1.180091,-1.421547 -1.406633,-1.88774 -0.03446,-0.07092 -0.0536,-0.135436 -0.08475,-0.204639 -1.20796,-1.75343 -2.607495,-3.37681 -3.690214,-5.177462 -0.532564,-0.885696 -1.045092,-1.795932 -1.537891,-2.726965 z"
       style="baseline-shift:baseline;display:inline;overflow:visible;vector-effect:none;fill:#ffffff;stroke:none;stroke-linecap:round;stroke-linejoin:round;paint-order:stroke fill markers;enable-background:accumulate;stop-color:#000000;stop-opacity:1"
       id="path232" /><path
       d="m 44.543018,2.4706502 c -1.124972,-0.012606 -1.73654,0.3171616 -2.181779,0.5643067 -1.780956,0.98858 -2.088378,1.8311751 -2.693376,3.006018 -3.699771,7.1845641 -3.474797,15.8794981 -0.117306,24.1561481 -0.01347,-0.0093 -0.0531,-0.01976 -0.06614,-0.02894 -2.107896,-1.484678 -2.836966,-2.09565 -3.818372,-3.59978 -0.981403,-1.504126 -2.198336,-4.175681 -4.216797,-9.10332 -0.624602,-1.524841 -1.21427,-2.893816 -1.689302,-3.925859 -0.237517,-0.516022 -0.439346,-0.937925 -0.646473,-1.326534 -0.103563,-0.194305 -0.190789,-0.360487 -0.394808,-0.659908 -0.10201,-0.14971 -0.1905,-0.321944 -0.587561,-0.703316 -0.19853,-0.190685 -0.452616,-0.465793 -1.158585,-0.781348 -0.705969,-0.315554 -2.378698,-0.5837696 -3.724321,0.234611 -2.155714,1.311006 -1.820839,2.24957 -1.941483,2.75177 -0.120645,0.502199 -0.149858,0.849504 -0.1757,1.207162 -0.05168,0.715315 -0.04259,1.420613 -0.0062,2.177645 0.07287,1.514065 0.183458,2.991507 0.671793,4.582149 0.247068,0.804781 0.674435,2.330596 0.883151,3.156396 1.117672,4.422141 3.530796,8.684811 7.054349,13.034864 -0.341132,-0.05837 -0.4898,-0.202102 -1.015442,-0.144178 -1.178662,0.129887 -2.656782,1.181379 -3.16208,1.985926 -1.11016,1.767582 -0.568713,3.112439 -0.345716,3.703133 0.222998,0.590695 0.423101,0.868515 0.601514,1.127063 0.356826,0.517096 0.679011,0.868921 1.051099,1.264005 0.744178,0.79017 1.661255,1.643992 2.693375,2.546615 2.06424,1.805248 4.428126,3.695245 6.487976,4.92373 0.530582,0.316436 1.971987,1.785333 2.947107,3.008086 -0.08589,0.101918 -0.173255,0.1788 -0.259415,0.285253 -0.526214,0.650153 -1.876739,2.102781 -2.560568,2.744019 -0.507642,0.476024 -0.931513,0.882183 -1.353405,1.363224 -0.421891,0.481041 -0.969658,0.953368 -1.318783,2.363164 -0.106224,0.428943 0.08671,1.000386 0.189653,1.538924 -1.723533,1.123082 -3.48751,2.232073 -5.019332,3.554821 -2.188147,1.889495 -3.97414,3.525051 -5.180046,5.847706 0.02544,-0.049 -0.929556,1.594021 -1.697054,2.82205 -3.628369,5.805504 -5.17985,11.298536 -3.753776,16.490466 l 0.214457,0.781347 a 4.0004,4.0004 0 0 0 7.820711,-0.521415 l 0.195337,-1.434021 c 0.394311,-2.912081 1.180196,-4.631687 2.652035,-6.173783 1.471839,-1.542095 3.893573,-2.989268 7.816577,-4.339787 0.02153,-0.0074 0.06037,-0.02552 0.08217,-0.03307 -0.611381,0.664339 -1.280655,1.286676 -1.736329,2.066541 -1.44314,2.469868 -1.775159,5.538609 -1.049031,8.294584 0.156828,0.595229 0.322577,1.120922 0.611332,1.715141 0.288756,0.59422 0.205041,1.622229 2.640666,2.439644 1.217813,0.408707 3.225826,-0.07238 4.097424,-0.867647 0.871597,-0.795265 1.061229,-1.443626 1.211296,-1.907894 0.300135,-0.928535 0.283186,-1.456534 0.283186,-2.070675 0,-0.436774 1.210339,-2.627705 3.109371,-3.859196 0.949516,-0.615745 1.958835,-0.986693 2.529045,-1.070219 0.152783,-0.02238 0.253838,-0.03053 0.315226,-0.03411 0.599325,0.725994 1.778571,3.183308 2.157491,6.203756 0.409112,3.261106 0.117795,7.091684 -0.843876,9.928082 l -0.792716,2.34145 a 4.0004,4.0004 0 0 0 1.345654,4.45141 l 0.611332,0.47284 c 3.001081,2.31254 5.6913,4.70636 7.566463,6.6952 1.664858,1.76578 3.194463,3.19697 5.349545,3.99407 2.155083,0.79711 4.431529,0.56544 6.4394,0.0408 0.827556,-0.21623 1.510186,-0.53775 2.145089,-0.96635 a 4.230558,4.230558 0 0 1 -0.945162,-4.4912 c -1.051372,1.03293 -1.641062,1.43983 -2.210201,1.58853 -3.318324,0.86697 -4.836307,0.30533 -7.868254,-2.91041 -2.078738,-2.20476 -4.896099,-4.701 -8.034652,-7.11947 l -0.611849,-0.47129 0.794267,-2.34249 c 2.425393,-7.153547 1.162124,-17.22108 -2.57762,-20.544483 -3.483132,-3.095357 -12.479342,2.738419 -12.479342,8.092529 0,1.548215 -0.527132,1.371284 -0.974617,-0.327111 -1.010359,-3.834755 0.828072,-6.981114 5.619812,-9.618018 3.710751,-2.042036 4.958305,-3.88725 4.351155,-6.435266 -0.495107,-2.077807 -0.600097,-2.135226 -2.336808,-1.275891 -2.429388,1.202076 -7.678546,3.404667 -10.100676,4.238501 -8.526555,2.935322 -12.185551,6.769494 -13.132015,13.759367 l -0.194303,1.43247 -0.214457,-0.781347 c -1.060483,-3.860915 -0.04289,-7.980195 3.288688,-13.310816 0.797144,-1.275464 1.632025,-2.670765 1.855184,-3.100586 1.251357,-2.410197 6.489855,-6.933225 10.726477,-9.261967 1.363736,-0.749605 2.132267,-1.310051 1.899626,-1.384411 -0.214917,-0.06869 -0.837385,-0.26003 -1.383378,-0.425297 -1.345942,-0.407404 -1.26018,-0.753715 0.624251,-2.520777 0.88936,-0.833968 2.209946,-2.249052 2.934704,-3.144511 0.724758,-0.895459 1.489724,-1.627807 1.700155,-1.627807 1.744371,0 -2.406054,-5.8041 -5.447729,-7.61814 -3.188022,-1.90132 -9.508784,-7.429234 -9.149313,-8.001579 0.196524,-0.31291 0.649475,-0.140317 2.480469,0.944646 2.832637,1.678492 6.777604,2.668228 9.20564,2.309936 1.45707,-0.215013 1.801436,0.29945 -2.907833,-4.338753 C 31.495918,33.964431 27.904622,28.529368 26.557035,23.19755 26.32166,22.266273 25.900715,20.758953 25.621175,19.848401 25.10207,18.157532 24.900816,13.97925 25.326103,13.72061 c 0.117332,-0.07136 1.206856,2.295436 2.421041,5.259627 4.066325,9.927058 4.972088,11.315499 9.433016,14.457515 3.620342,2.549957 11.589074,4.778495 10.242268,2.864425 C 40.724802,26.783566 39.11096,15.858442 43.223201,7.8729045 43.6682,7.0087632 44.225615,6.4683866 44.498059,6.4714396 c 0.163467,0.00183 0.224413,0.1993529 0.09715,0.640271 -2.877944,9.9711604 0.04803,18.2497774 8.313704,23.5200114 1.528621,0.974657 3.535473,2.48437 4.459676,3.355351 l 1.680518,1.583882 -0.181901,-1.197859 -0.182418,-1.197343 1.757516,-1.234033 c 3.810177,-2.675473 6.388624,-7.561804 6.711218,-12.717054 0.14156,-2.262216 0.488374,-2.262216 0.629935,0 0.322594,5.15525 2.901558,10.041581 6.711735,12.717054 l 1.757516,1.234033 -0.182418,1.197343 -0.181901,1.197859 1.680001,-1.583882 c 0.924202,-0.870981 2.931055,-2.380694 4.459676,-3.355351 8.265673,-5.270234 11.192165,-13.548851 8.314221,-23.5200114 -0.339363,-1.1757816 0.660012,-0.6214321 1.37201,0.7611939 4.11224,7.9855375 2.498398,18.9106615 -4.199227,28.4292725 -1.346806,1.91407 6.62141,-0.314468 10.241752,-2.864425 4.460928,-3.142016 5.367218,-4.530457 9.433538,-14.457515 1.21419,-2.964191 2.30371,-5.330987 2.42104,-5.259627 0.42529,0.25864 0.22402,4.436922 -0.29508,6.127791 -0.27954,0.910552 -0.701,2.417872 -0.93637,3.349149 -1.34759,5.331818 -4.93837,10.766881 -11.165731,16.900261 -4.709268,4.638203 -4.364904,4.12374 -2.907833,4.338753 2.428035,0.358292 6.373014,-0.631444 9.205644,-2.309936 1.831,-1.084963 2.28395,-1.257556 2.48047,-0.944646 0.35948,0.572345 -5.96181,6.100259 -9.149834,8.001579 -3.041675,1.81404 -7.192101,7.61814 -5.44773,7.61814 0.210432,0 0.975914,0.732348 1.700672,1.627807 0.724757,0.895459 2.045344,2.310543 2.934704,3.144511 1.884431,1.767062 1.970192,2.113373 0.624251,2.520777 -0.545995,0.165267 -1.168462,0.356607 -1.383378,0.425297 -0.23264,0.07435 0.53589,0.634806 1.899626,1.384411 4.236619,2.328742 9.475129,6.85177 10.726479,9.261967 0.22316,0.429821 1.05751,1.825122 1.85467,3.100586 1.00784,1.61262 1.80376,3.114223 2.39468,4.531507 l 2.47737,-4.080371 c -0.44509,-0.850388 -0.9394,-1.70774 -1.4795,-2.571936 -0.7675,-1.228002 -1.72248,-2.87102 -1.69705,-2.82205 -1.20591,-2.322665 -2.99189,-3.958211 -5.18004,-5.847706 -1.53182,-1.322748 -3.29581,-2.431739 -5.01934,-3.554821 0.10292,-0.538504 0.29381,-1.110007 0.18759,-1.538924 -0.34913,-1.409794 -0.89483,-1.882123 -1.31672,-2.363164 -0.42189,-0.48104 -0.845762,-0.8872 -1.353404,-1.363224 -0.683829,-0.641238 -2.034357,-2.094385 -2.560568,-2.744535 -0.08616,-0.106453 -0.173526,-0.182819 -0.259415,-0.284737 0.975121,-1.222753 2.416525,-2.69165 2.947107,-3.008086 2.05985,-1.228485 4.42374,-3.118481 6.48798,-4.92373 1.03212,-0.902624 1.94919,-1.756443 2.69337,-2.546615 0.37209,-0.395085 0.69427,-0.746905 1.0511,-1.264005 0.17841,-0.258551 0.37853,-0.53636 0.60152,-1.127063 0.223,-0.590702 0.76238,-1.935573 -0.34779,-3.703133 -0.50586,-0.804432 -1.98387,-1.856088 -3.16208,-1.985926 -0.5251,-0.05786 -0.67296,0.08594 -1.01389,0.144178 3.52355,-4.350053 5.9372,-8.612725 7.05487,-13.034864 0.20871,-0.825763 0.63555,-2.3516 0.88263,-3.156396 0.48832,-1.590634 0.59944,-3.068085 0.67231,-4.582149 0.0364,-0.757032 0.0456,-1.462329 -0.006,-2.177645 -0.0258,-0.357659 -0.055,-0.704961 -0.1757,-1.207162 -0.12065,-0.502202 0.21423,-1.440774 -1.94148,-2.75177 -1.34562,-0.818405 -3.01886,-0.5501686 -3.72484,-0.234611 -0.70597,0.315559 -0.95954,0.590662 -1.15807,0.781348 -0.39706,0.381373 -0.48762,0.553607 -0.58963,0.703316 -0.20402,0.29942 -0.28918,0.465604 -0.39274,0.659908 -0.20713,0.388608 -0.40895,0.810513 -0.64647,1.326534 -0.47503,1.032041 -1.0647,2.400503 -1.6893,3.925342 -2.01846,4.927639 -3.23539,7.599708 -4.216802,9.103837 -0.981405,1.50413 -1.710477,2.115102 -3.818372,3.59978 -0.01304,0.0092 -0.05319,0.01965 -0.06666,0.02894 C 98.744058,21.92049 98.969407,13.225539 95.269637,6.0409749 94.664639,4.8661306 94.357216,4.0235356 92.576261,3.0349569 92.131022,2.7878122 91.519453,2.458044 90.394482,2.4706502 c -1.12497,0.012606 -2.803575,0.8722683 -3.47834,1.9569865 -1.349531,2.1694363 -0.622621,3.0771612 -0.415996,3.7930501 2.514023,8.7102892 0.402069,14.5596942 -6.623368,19.0391482 -0.858519,0.547396 -1.60061,1.217596 -2.451013,1.851566 l -0.633036,-0.443383 c -2.630386,-1.847034 -4.767815,-5.7071 -5.017265,-9.693466 -0.04175,-0.667185 -0.09026,-1.197381 -0.203089,-1.781286 -0.05641,-0.291952 -0.101716,-0.575925 -0.326078,-1.109493 C 71.134116,15.81699 71.000642,15.47384 70.550732,14.949475 70.100823,14.425109 69.027797,13.52734 67.46875,13.52734 c -1.559047,0 -2.632073,0.897769 -3.081982,1.422135 -0.44991,0.524366 -0.583384,0.867514 -0.695565,1.134298 -0.224362,0.533568 -0.269664,0.817541 -0.326078,1.109493 -0.112826,0.583905 -0.161339,1.114101 -0.203089,1.781286 -0.24945,3.986366 -2.388946,7.846432 -5.019332,9.693466 l -0.630969,0.443383 C 56.661146,28.477266 55.919452,27.807366 55.060722,27.259835 48.035288,22.780381 45.923331,16.930975 48.437354,8.2206868 48.643979,7.5047983 49.36882,6.5970717 48.019291,4.4276367 47.344527,3.3429192 45.667989,2.4832565 44.543018,2.4706502 Z m -3.790983,3.5310506 c -0.07915,0.2742308 -0.103309,0.5429405 -0.17415,0.8164877 -0.0016,-0.4836685 0.153965,-0.7465517 0.17415,-0.8164877 z m 53.43343,0 c 0.02018,0.069935 0.175723,0.3328458 0.17415,0.8164877 -0.07084,-0.2735472 -0.095,-0.5422569 -0.17415,-0.8164877 z M 88.027702,72.40695 c -0.498276,-0.01036 -0.655357,0.499194 -0.964799,1.797823 -0.607151,2.548016 0.640403,4.39323 4.351155,6.435266 4.791739,2.636904 6.630171,5.783263 5.619812,9.618018 -0.447484,1.698395 -0.975134,1.875326 -0.975134,0.327111 0,-7.093149 -10.856378,-11.834764 -13.831714,-6.040974 -3.01854,5.877916 -3.428379,11.952013 -1.243335,18.437636 l 2.242757,-2.69493 a 4.230558,4.230558 0 0 1 0.902271,-0.811835 c -1.119561,-4.668663 -0.570305,-8.768444 1.65623,-13.10411 0.190973,-0.371877 0.134893,-0.310293 0.56844,-0.388606 0.433546,-0.07831 1.351377,-3.6e-4 2.304769,0.415995 1.906784,0.832712 3.40031,2.681552 3.40031,4.187341 0,0.614142 -0.01695,1.142139 0.283186,2.070675 0.150068,0.464268 0.339699,1.11263 1.211296,1.907894 0.871598,0.795264 2.879612,1.275837 4.097424,0.86713 2.43562,-0.817415 2.35191,-1.844907 2.64067,-2.439127 0.28875,-0.594219 0.45451,-1.119912 0.61133,-1.715141 0.72613,-2.755975 0.39411,-5.824716 -1.049033,-8.294584 -0.455674,-0.779865 -1.124947,-1.402202 -1.736329,-2.066541 0.0218,0.0075 0.06064,0.02566 0.08217,0.03307 3.922992,1.350519 6.344722,2.79769 7.816572,4.339787 1.05442,1.104756 1.75681,2.300861 2.21537,3.960998 l 2.55178,-4.203877 C 108.80154,81.545067 105.26226,79.150947 99.500387,77.167383 97.078256,76.333549 91.829098,74.130958 89.399711,72.928882 88.748444,72.606631 88.326667,72.413164 88.027702,72.40695 Z"
       style="baseline-shift:baseline;display:inline;overflow:visible;vector-effect:none;stroke:none;stroke-linecap:round;stroke-linejoin:round;paint-order:stroke fill markers;enable-background:accumulate;stop-color:#000000;stop-opacity:1"
       id="path223" /><path
       d="M 44.498059,6.4714396 C 44.225615,6.4683866 43.6682,7.0087632 43.223201,7.8729045 39.11096,15.858442 40.724802,26.783566 47.422428,36.302177 48.769234,38.216247 40.800502,35.987709 37.18016,33.437752 32.719232,30.295736 31.813469,28.907295 27.747144,18.980237 26.532959,16.016046 25.443435,13.649251 25.326103,13.72061 c -0.425287,0.25864 -0.224033,4.436922 0.295072,6.127791 0.27954,0.910552 0.700485,2.417872 0.93586,3.349149 1.347587,5.331818 4.938883,10.766881 11.166244,16.900261 4.709269,4.638203 4.364903,4.12374 2.907833,4.338753 -2.428036,0.358292 -6.373003,-0.631444 -9.20564,-2.309936 -1.830994,-1.084963 -2.283945,-1.257556 -2.480469,-0.944646 -0.359471,0.572345 5.961291,6.100259 9.149313,8.001579 3.041675,1.81404 7.1921,7.61814 5.447729,7.61814 -0.210431,0 -0.975397,0.732348 -1.700155,1.627807 -0.724758,0.895459 -2.045344,2.310543 -2.934704,3.144511 -1.884431,1.767062 -1.970193,2.113373 -0.624251,2.520777 0.545993,0.165267 1.168461,0.356609 1.383378,0.425297 0.232641,0.07436 -0.53589,0.634806 -1.899626,1.384411 -4.236622,2.328742 -9.47512,6.85177 -10.726477,9.261967 -0.223159,0.429821 -1.05804,1.825122 -1.855184,3.100586 -3.331573,5.330621 -4.349171,9.449901 -3.288688,13.310816 l 0.214457,0.781347 0.194303,-1.43247 c 0.946464,-6.989873 4.60546,-10.824045 13.132015,-13.759367 2.42213,-0.833834 7.671288,-3.036425 10.100676,-4.238501 1.736711,-0.859335 1.841701,-0.801916 2.336808,1.275891 0.60715,2.548016 -0.640404,4.39323 -4.351155,6.435266 -4.79174,2.636904 -6.630171,5.783263 -5.619812,9.618018 0.447485,1.698395 0.974617,1.875326 0.974617,0.327111 0,-5.35411 8.99621,-11.187886 12.479342,-8.092529 3.739744,3.323403 5.003013,13.390936 2.57762,20.544481 l -0.794267,2.34249 0.611849,0.47129 c 3.138553,2.41847 5.955914,4.91471 8.034652,7.11947 3.031947,3.21574 4.54993,3.77738 7.868254,2.91041 0.569139,-0.1487 1.158829,-0.5556 2.210201,-1.58853 a 4.230558,4.230558 0 0 1 0.698665,-1.19269 l 8.419124,-10.11773 c -2.185044,-6.485623 -1.775205,-12.55972 1.243335,-18.437636 2.975336,-5.79379 13.831714,-1.052175 13.831714,6.040974 0,1.548215 0.52765,1.371284 0.975134,-0.327111 1.010359,-3.834755 -0.828073,-6.981114 -5.619812,-9.618018 -3.710752,-2.042036 -4.958306,-3.88725 -4.351155,-6.435266 0.495107,-2.077807 0.600097,-2.135226 2.336808,-1.275891 2.429387,1.202076 7.678545,3.404667 10.100676,4.238501 5.761873,1.983564 9.301153,4.377684 11.282513,7.878589 l 1.36374,-2.246892 c -6e-5,-1.59e-4 7e-5,-3.57e-4 0,-5.16e-4 -0.59092,-1.417284 -1.38684,-2.918887 -2.39468,-4.531507 -0.79716,-1.275464 -1.63151,-2.670765 -1.85467,-3.100586 -1.25135,-2.410197 -6.48986,-6.933225 -10.726477,-9.261967 -1.363736,-0.749605 -2.132266,-1.310058 -1.899626,-1.384411 0.214916,-0.06869 0.837383,-0.26003 1.383378,-0.425297 1.345941,-0.407404 1.26018,-0.753715 -0.624251,-2.520777 -0.88936,-0.833968 -2.209947,-2.249052 -2.934704,-3.144511 -0.724758,-0.895459 -1.49024,-1.627807 -1.700672,-1.627807 -1.744371,0 2.406055,-5.8041 5.44773,-7.61814 3.188022,-1.90132 9.509312,-7.429234 9.149832,-8.001579 -0.19652,-0.31291 -0.64947,-0.140317 -2.48047,0.944646 -2.83263,1.678492 -6.777607,2.668228 -9.205642,2.309936 -1.457071,-0.215013 -1.801435,0.29945 2.907833,-4.338753 6.227359,-6.13338 9.818139,-11.568443 11.165729,-16.900261 0.23537,-0.931277 0.65683,-2.438597 0.93637,-3.349149 0.5191,-1.690869 0.72037,-5.869151 0.29508,-6.127791 -0.11733,-0.07136 -1.20685,2.295436 -2.42104,5.259627 -4.06632,9.927058 -4.97261,11.315499 -9.433536,14.457515 -3.620342,2.549957 -11.588558,4.778495 -10.241752,2.864425 6.697625,-9.518611 8.311467,-20.443735 4.199227,-28.4292725 -0.711998,-1.382626 -1.711373,-1.9369755 -1.37201,-0.7611939 2.877944,9.9711604 -0.04855,18.2497774 -8.314221,23.5200114 -1.528621,0.974657 -3.535474,2.48437 -4.459676,3.355351 l -1.680001,1.583882 0.181901,-1.197859 0.182418,-1.197343 -1.757516,-1.234033 c -3.810177,-2.675473 -6.389141,-7.561804 -6.711735,-12.717054 -0.141561,-2.262216 -0.488375,-2.262216 -0.629935,0 -0.322594,5.15525 -2.901041,10.041581 -6.711218,12.717054 l -1.757516,1.234033 0.182418,1.197343 0.181901,1.197859 -1.680518,-1.583882 C 56.444388,33.116092 54.437536,31.606379 52.908915,30.631722 44.643245,25.361488 41.717267,17.082871 44.595211,7.1117106 44.722472,6.6707925 44.661526,6.4732714 44.498059,6.4714396 Z M 67.46875,42.473893 c 1.586795,0.0066 2.298125,1.184132 2.356445,1.94045 0.05832,0.756317 -0.69161,2.219604 -2.356445,2.225704 -1.664835,0.006 -2.232137,-1.414358 -2.209167,-2.177128 0.02297,-0.762772 0.622371,-1.995626 2.209167,-1.989026 z m 0,8.586039 c 1.343528,0.0098 1.693515,0.906407 2.056722,1.910478 0.363209,1.004073 -0.397486,2.063572 -2.056722,2.004012 -1.659237,-0.05957 -2.095496,-1.332642 -2.024166,-1.996777 0.07133,-0.664134 0.680637,-1.927513 2.024166,-1.917713 z m 0.14366,8.969479 c 0.941457,0.02593 1.844207,1.009839 1.833997,1.837097 -0.01022,0.827258 -1.132747,1.438357 -1.977657,1.447457 -0.844911,0.0092 -1.906463,-0.460805 -1.884123,-1.309481 0.02234,-0.848675 1.086326,-2.001003 2.027783,-1.975073 z m -16.72301,3.58376 c 0.276399,-0.01448 0.808805,0.461401 1.679484,1.302246 2.935151,2.834577 4.648758,5.5953 6.573242,10.586434 1.600599,4.151142 1.3892,4.107175 -3.345015,-0.692981 L 51.627856,70.581222 51.055282,67.217603 C 50.627364,64.703672 50.485433,63.634331 50.8894,63.613171 Z m 33.131828,0 c 0.0091,-5.07e-4 0.01823,-4.46e-4 0.02687,0 0.404035,0.02086 0.262176,1.089087 -0.165365,3.600814 l -0.572058,3.360002 -4.12688,4.193542 c -4.735859,4.811762 -4.981936,4.865469 -3.394625,0.748792 1.930739,-5.007357 3.641859,-7.763479 6.57996,-10.600904 0.84338,-0.814482 1.36875,-1.286504 1.652096,-1.302246 z M 60.422152,104.41533 c 0.271913,-0.01 0.5173,0.0752 0.752925,0.22893 0.693476,0.45229 2.006503,2.203 1.832963,2.38383 -1.266176,-0.36541 -2.424833,-1.47503 -3.496944,-2.26808 0.341162,-0.22867 0.639143,-0.33468 0.911056,-0.34468 z m 14.141772,0.0351 c 0.02021,-8.2e-4 0.04006,-7.5e-4 0.05994,0 0.265174,0.01 0.505549,0.15268 0.799434,0.30748 -0.51086,0.7298 -2.289636,2.25107 -3.454569,2.09444 -0.01353,-0.46579 1.20882,-1.77309 2.13372,-2.24844 0.170093,-0.10198 0.320031,-0.14775 0.46147,-0.15348 z"
       style="baseline-shift:baseline;display:inline;overflow:visible;vector-effect:none;fill:#ffffff;stroke:none;stroke-linecap:round;stroke-linejoin:round;paint-order:stroke fill markers;enable-background:accumulate;stop-color:#000000;stop-opacity:1"
       id="path222" /><path
       d="m 67.46875,42.473893 c -1.586796,-0.0066 -2.186195,1.226254 -2.209167,1.989026 -0.02297,0.76277 0.544332,2.183134 2.209167,2.177128 1.664835,-0.0061 2.414766,-1.469387 2.356445,-2.225704 -0.05832,-0.756318 -0.76965,-1.933853 -2.356445,-1.94045 z m 0,8.586039 c -1.343529,-0.0098 -1.952838,1.253579 -2.024166,1.917713 -0.07133,0.664135 0.364929,1.937211 2.024166,1.996777 1.659236,0.05956 2.419931,-0.999939 2.056722,-2.004012 -0.363207,-1.004071 -0.713194,-1.900632 -2.056722,-1.910478 z m 0.14366,8.969479 c -0.941457,-0.02593 -2.005442,1.126398 -2.027783,1.975073 -0.02234,0.848676 1.039212,1.318637 1.884123,1.309481 0.84491,-0.0091 1.967441,-0.620199 1.977657,-1.447457 0.01021,-0.827258 -0.89254,-1.811164 -1.833997,-1.837097 z m -16.72301,3.58376 c -0.403967,0.02116 -0.262036,1.090501 0.165882,3.604432 l 0.572574,3.363619 4.169255,4.227648 c 4.734215,4.800156 4.945614,4.844123 3.345015,0.692981 -1.924484,-4.991134 -3.638091,-7.751857 -6.573242,-10.586434 -0.870679,-0.840845 -1.403085,-1.31673 -1.679484,-1.302246 z m 33.131828,0 c -0.283346,0.01574 -0.808716,0.487764 -1.652096,1.302246 -2.938101,2.837425 -4.649221,5.593547 -6.57996,10.600904 -1.587311,4.116677 -1.341234,4.06297 3.394625,-0.748792 l 4.12688,-4.193542 0.572058,-3.360002 c 0.427541,-2.511727 0.5694,-3.579957 0.165365,-3.600814 -0.0086,-4.46e-4 -0.01773,-5.07e-4 -0.02687,0 z M 60.422152,104.41533 c -0.271913,0.01 -0.569894,0.11601 -0.911056,0.34468 1.072111,0.79305 2.230768,1.90267 3.496944,2.26808 0.17354,-0.18083 -1.139487,-1.93154 -1.832963,-2.38383 -0.235625,-0.15368 -0.481012,-0.23898 -0.752925,-0.22893 z m 14.141772,0.0351 c -0.141439,0.006 -0.291377,0.0515 -0.46147,0.15348 -0.9249,0.47535 -2.147248,1.78265 -2.13372,2.24844 1.164933,0.15663 2.943709,-1.36464 3.454569,-2.09444 -0.293885,-0.1548 -0.53426,-0.29786 -0.799434,-0.30748 -0.01989,-7.5e-4 -0.03974,-8.2e-4 -0.05994,0 z"
       style="display:inline;stroke:none;stroke-width:8.83336;stroke-linecap:round;stroke-linejoin:round;paint-order:stroke fill markers"
       id="path217" /><path
       d="m 120.56267,73.217236 a 4.230558,4.230558 0 0 0 -0.56844,0.0093 4.230558,4.230558 0 0 0 -3.26389,2.021582 L 97.490173,106.94334 89.249849,99.797007 a 4.230558,4.230558 0 0 0 -6.023405,0.489893 l -10.661881,12.81266 a 4.230558,4.230558 0 0 0 0.970483,6.26938 l 24.101888,15.43007 a 4.230558,4.230558 0 0 0 5.648236,-1.00201 l 31.3185,-41.191285 a 4.230558,4.230558 0 0 0 -0.1664,-5.32629 l -10.88822,-12.60388 a 4.230558,4.230558 0 0 0 -2.98638,-1.458309 z m -0.21549,4.225065 10.88925,12.602849 -31.319015,41.19128 -24.101371,-15.43058 10.662398,-12.81265 12.027173,10.43088 z"
       style="baseline-shift:baseline;display:inline;overflow:visible;vector-effect:none;fill-rule:evenodd;stroke:none;stroke-linecap:round;stroke-linejoin:round;stroke-miterlimit:2;paint-order:stroke fill markers;enable-background:accumulate;stop-color:#000000;stop-opacity:1"
       id="path207" /><path
       d="M 120.34718,77.442301 98.505615,113.42408 86.478442,102.9932 75.816044,115.80585 99.917415,131.23643 131.23643,90.04515 Z"
       style="baseline-shift:baseline;display:inline;overflow:visible;vector-effect:none;fill:#08af50;fill-rule:evenodd;stroke:none;stroke-linecap:round;stroke-linejoin:round;stroke-miterlimit:2;paint-order:stroke fill markers;enable-background:accumulate;stop-color:#000000;stop-opacity:1"
       id="path206" /></g></svg>
