<?xml version="1.0" encoding="UTF-8" standalone="no"?>
<!-- Created with Inkscape (http://www.inkscape.org/) -->

<svg
   width="512"
   height="512"
   viewBox="0 0 135.46666 135.46667"
   version="1.1"
   id="svg1"
   xml:space="preserve"
   xmlns="http://www.w3.org/2000/svg"
   xmlns:svg="http://www.w3.org/2000/svg"><defs
     id="defs1" /><g
     id="layer2"
     transform="translate(-145.46665,-442.12975)"><path
       d="m 211.66822,444.64831 c -8.54316,0.10162 -14.93415,4.60307 -18.68775,10.05675 -3.7536,5.45367 -5.2834,11.72906 -5.2834,16.85944 a 4.0004,4.0004 0 0 0 0.15038,0.36328 h -18.70274 a 4.0004,4.0004 0 0 0 -4.00027,3.97082 l -0.0641,8.7049 a 4.0004,4.0004 0 0 0 0.35347,0.86713 h -12.10572 a 4.0004,4.0004 0 0 0 -3.99976,3.94911 l -0.17983,13.9671 a 4.0004,4.0004 0 0 0 3.99975,4.0504 h 6.50193 a 4.0004,4.0004 0 0 0 -0.26148,0.61547 l -0.0977,7.15253 a 4.0004,4.0004 0 0 0 0.19947,0.49403 h -6.34173 a 4.0004,4.0004 0 0 0 -4.00027,3.99976 v 6.80268 a 4.0004,4.0004 0 0 0 2.74608,3.48093 4.0004,4.0004 0 0 0 -0.51159,1.22059 l -0.10542,16.83412 a 4.0004,4.0004 0 0 0 0.67954,1.66191 4.0004,4.0004 0 0 0 -1.58595,3.00189 v 5.7459 a 4.0004,4.0004 0 0 0 3.98426,4.00027 l 26.69759,0.10542 v 9.68933 a 4.0004,4.0004 0 0 0 3.99976,4.00028 h 6.78511 a 4.0004,4.0004 0 0 0 4.00028,-4.00028 v -19.42 a 4.0004,4.0004 0 0 0 -3.98839,-3.99976 l -0.86145,-0.002 a 4.0004,4.0004 0 0 0 0.2558,-0.61133 l 0.10749,-16.83412 a 4.0004,4.0004 0 0 0 -0.3576,-0.87281 h 40.36549 c -0.13233,-1.32216 -0.25673,-2.65505 -0.36122,-3.99924 h -77.85054 v -6.80321 h 79.25304 c 0.51641,-0.66788 1.17501,-1.25979 1.99109,-1.74666 1.35368,-0.8076 3.25632,-1.17882 4.9842,-0.7767 1.66041,0.38643 2.9814,1.37679 3.90725,2.52336 h 4.81521 c 1.13194,-2.22368 3.10181,-4.16014 6.18257,-4.39508 0.21069,-0.0161 0.42282,-0.0205 0.63562,-0.0145 1.48959,0.042 2.99772,0.60774 4.05608,1.4609 1.03062,0.83079 1.70594,1.8501 2.16215,2.94865 h 8.42842 v 1.06609 c 0.3411,0.19517 0.66564,0.42219 0.96325,0.68213 1.25675,1.09768 1.93018,2.56823 2.20142,4.07675 0.13264,0.73772 0.24305,1.63058 0.29817,2.68253 a 4.0004,4.0004 0 0 0 0.5364,-1.70533 v -6.80268 a 4.0004,4.0004 0 0 0 -4.00027,-3.99976 h -6.99389 a 4.0004,4.0004 0 0 0 0.31264,-0.7307 l 0.0977,-7.15202 a 4.0004,4.0004 0 0 0 -0.15245,-0.37931 h 6.73654 a 4.0004,4.0004 0 0 0 3.99976,-3.94704 l 0.1819,-13.96659 a 4.0004,4.0004 0 0 0 -4.00027,-4.05298 h -13.66583 a 4.0004,4.0004 0 0 0 0.33951,-0.80874 l 0.0646,-8.7049 a 4.0004,4.0004 0 0 0 -4.00028,-4.02921 h -18.17925 a 4.0004,4.0004 0 0 0 0.15038,-0.36328 c 0,-4.93012 -1.11928,-11.25456 -4.52944,-16.81241 -3.41016,-5.55785 -9.67012,-10.20591 -18.25573,-10.10378 z m 0.047,4.00027 c 14.48143,-0.17226 18.73839,14.38745 18.73839,22.91695 h -38.75732 c 0,-8.5295 5.53753,-22.74469 20.01893,-22.91695 z m -42.57104,27.27948 h 83.33858 l -0.0646,8.70437 H 169.0796 Z m -15.81661,13.54284 h 116.41667 l -0.18087,13.96762 H 153.14776 Z m 22.86992,17.96634 h 69.79678 a 4.0004,4.0004 0 0 0 -0.11524,0.27182 l -0.0977,7.15047 a 4.0004,4.0004 0 0 0 0.33796,0.83974 H 176.2264 a 4.0004,4.0004 0 0 0 0.16433,-0.38654 l 0.0977,-7.15047 a 4.0004,4.0004 0 0 0 -0.29094,-0.72502 z m 73.68129,0.32557 h 9.09919 l -0.0971,7.1515 h -9.09919 z m -86.49032,0.34468 h 9.09918 l -0.0971,7.15098 h -9.09919 z m 4.78523,22.3945 h 6.4239 a 4.0004,4.0004 0 0 0 -0.34571,0.82423 l -0.10542,16.83205 a 4.0004,4.0004 0 0 0 0.24804,0.6072 l -6.2947,-0.0191 a 4.0004,4.0004 0 0 0 0.27698,-0.66042 l 0.10542,-16.83205 a 4.0004,4.0004 0 0 0 -0.30851,-0.75189 z m 63.20648,0.20773 a 4.0004,4.0004 0 0 0 -0.19068,0.49351 l -0.0796,12.74806 c 0.56459,0.40088 1.07009,0.81054 1.53221,1.21233 0.005,-0.38254 0.0193,-0.48446 0.0393,-0.93224 -0.0489,-2.75897 -0.49152,-5.71126 -0.81855,-8.88731 -0.15796,-1.53043 -0.32551,-3.07505 -0.48266,-4.63435 z m -75.99794,0.51884 h 9.0997 l -0.1049,16.83308 h -9.10074 z m 22.86889,0.12195 h 9.0997 l -0.10594,16.83308 h -9.09815 z m -23.87917,21.35012 37.4649,0.12247 v 19.42001 h -6.7846 v -13.6741 l -30.6803,-0.12144 z m 119.19066,1.74511 c -1.3762,2.00142 -2.87501,3.90563 -4.4359,5.73764 l 0.0124,-0.0145 c -0.008,0.0101 -0.0158,0.0204 -0.0238,0.0305 0.003,-0.004 0.006,-0.01 0.009,-0.014 l -0.0713,0.0863 c 0.0196,-0.0229 0.0394,-0.0458 0.0589,-0.0687 -0.63698,0.80236 -1.185,1.55618 -1.61851,2.25205 l 2.08463,-0.008 a 4.0004,4.0004 0 0 0 3.98425,-4.00027 z m -47.07051,4.58267 v 13.21366 a 4.0004,4.0004 0 0 0 4.00027,4.00028 h 6.53294 a 4.0004,4.0004 0 0 0 0.47335,-0.0279 c -0.75261,-0.1962 -1.48974,-0.418 -2.20658,-0.66766 -0.98679,-0.34366 -2.06904,-0.91036 -2.8913,-1.90324 -0.35415,-0.42764 -0.61405,-0.91251 -0.79323,-1.40043 h -1.11518 v -9.71724 c -0.53758,-0.54221 -1.17483,-1.13244 -1.83245,-1.70429 -0.73926,-0.64284 -1.48345,-1.2507 -2.16782,-1.79317 z"
       style="baseline-shift:baseline;display:inline;overflow:visible;vector-effect:none;stroke:none;stroke-linecap:round;stroke-linejoin:round;paint-order:stroke fill markers;enable-background:accumulate;stop-color:#000000;stop-opacity:1"
       id="path201" /><path
       d="m 211.71524,448.64858 c -14.4814,0.17226 -20.01893,14.38745 -20.01893,22.91695 h 38.75732 c 0,-8.5295 -4.25696,-23.08921 -18.73839,-22.91695 z m -42.57104,27.27948 -0.0646,8.70437 h 83.33858 l 0.0646,-8.70437 z m -15.81661,13.54284 -0.17983,13.96762 h 116.41563 l 0.18087,-13.96762 z m 96.55121,18.29191 -0.0971,7.1515 h 9.09919 l 0.0971,-7.1515 z m -86.49032,0.34468 -0.0972,7.15098 h 9.09919 l 0.0971,-7.15098 z m -10.24072,11.59205 v 6.80321 h 77.85054 c -0.0335,-0.43119 -0.065,-0.86355 -0.0941,-1.29708 -0.13406,-2.00237 0.29978,-3.95829 1.49655,-5.50613 z m 90.13558,0 c 0.0267,0.0331 0.053,0.0664 0.0791,0.0997 0.65613,0.79547 1.58648,2.10015 2.2872,3.9672 0.21221,0.56545 0.41328,1.82923 0.61598,2.53111 0.50936,-2.12317 0.85714,-3.89085 1.41025,-5.62963 l 0.0548,-0.17001 0.0703,-0.1633 c 0.092,-0.21347 0.19099,-0.42556 0.29765,-0.63511 z m 17.85163,0 c 0.0792,0.19073 0.15189,0.38385 0.21859,0.57878 l 0.0274,0.0744 0.0233,0.0708 c 0.12279,0.41723 0.0571,0.86412 0.14418,1.29036 0.32316,-0.24885 0.5401,-0.72968 0.88831,-0.92191 1.02893,-0.568 2.22207,-0.94583 3.65921,-0.94981 1.09681,-0.003 2.36819,0.29447 3.46749,0.92346 v -1.06609 z m -105.75272,11.52902 -0.10594,16.83308 h 9.10074 l 0.1049,-16.83308 z m 22.86889,0.12195 -0.10439,16.83308 h 9.09815 l 0.10594,-16.83308 z m -23.87917,21.35012 v 5.74694 l 30.6803,0.12144 v 13.6741 h 6.7846 V 552.8231 Z m 76.12042,9.82524 v 9.71724 h 1.11518 c -0.23685,-0.64494 -0.33255,-1.29522 -0.31729,-1.82573 0.0536,-1.86372 0.68193,-2.70585 0.96221,-3.39256 0.016,-0.0392 -0.005,-1.58497 -0.29507,-2.70784 l -5.2e-4,5.1e-4 v 5.2e-4 l -5.2e-4,5.2e-4 v 5.1e-4 h -5.1e-4 l -5.2e-4,5.2e-4 h -5.2e-4 -5.1e-4 -5.2e-4 -5.2e-4 -5.1e-4 -5.2e-4 c -0.0423,-0.0199 -0.31221,-0.54672 -0.80615,-1.10174 -0.1933,-0.2172 -0.41356,-0.44973 -0.65371,-0.69195 z m 1.44487,1.69137 c 0.009,0.0306 0.012,0.0674 0.0202,0.0987 0.002,-0.0104 -0.004,-0.0422 -0.0202,-0.0987 z"
       style="baseline-shift:baseline;display:inline;overflow:visible;vector-effect:none;fill:#ffffff;stroke:none;stroke-linecap:round;stroke-linejoin:round;paint-order:stroke fill markers;enable-background:accumulate;stop-color:#000000;stop-opacity:1"
       id="path200" /><path
       d="m 254.91674,515.28999 c -0.2128,-0.006 -0.42493,-0.002 -0.63562,0.0145 -3.37107,0.25708 -5.41172,2.55146 -6.48022,5.03019 l -0.0703,0.1633 -0.0548,0.17001 c -0.55311,1.73878 -0.90089,3.50646 -1.41025,5.62963 -0.2027,-0.70188 -0.40377,-1.96566 -0.61598,-2.53111 -0.70072,-1.86705 -1.63107,-3.17173 -2.2872,-3.9672 -0.92907,-1.1886 -2.27795,-2.22551 -3.98632,-2.6231 -1.72788,-0.40212 -3.63052,-0.0309 -4.9842,0.7767 -2.70736,1.6152 -3.67955,4.3864 -3.48764,7.25279 0.23107,3.45119 0.61687,6.82745 0.9586,10.1384 0.32703,3.17605 0.76962,6.12834 0.81855,8.88731 -0.0199,0.44778 -0.0343,0.5497 -0.0393,0.93224 -0.96919,-0.84266 -2.13026,-1.72016 -3.62355,-2.47788 -2.61304,-1.37861 -5.58907,-2.03213 -8.51834,-0.69505 -1.47079,0.67135 -2.7785,2.03289 -3.25769,3.56981 -0.47534,1.52459 -0.23539,3.03877 0.31936,4.39198 1.4176,3.61077 4.39551,5.60103 6.4177,7.136 0.87447,0.67946 2.79345,2.09231 4.68033,3.7331 0.95139,0.82731 1.86017,1.69284 2.48616,2.39624 0.49394,0.55502 0.76385,1.08184 0.80615,1.10174 0,0 5.2e-4,0 5.2e-4,0 0,0 5.1e-4,0 5.1e-4,0 0,0 5.2e-4,0 5.2e-4,0 h 5.2e-4 5.1e-4 5.2e-4 l 5.2e-4,-5.2e-4 h 5.1e-4 v -5.1e-4 l 5.2e-4,-5.2e-4 v -5.2e-4 c 0,0 5.2e-4,-5.1e-4 5.2e-4,-5.1e-4 0.2902,1.12287 0.31107,2.66863 0.29507,2.70784 -0.28028,0.68671 -0.90861,1.52884 -0.96221,3.39256 -0.0268,0.93186 0.28826,2.23328 1.11052,3.22616 0.82226,0.99288 1.90451,1.55958 2.8913,1.90324 5.00005,1.74136 10.99023,2.11706 16.29616,2.03864 2.65297,-0.0392 5.10895,-0.21356 7.16597,-0.48938 2.05702,-0.27582 3.35131,-0.24148 5.44773,-1.50275 0.94635,-0.56935 1.84818,-1.31328 2.54455,-2.42517 0.69637,-1.1119 1.11476,-2.75066 0.64337,-4.33152 l -0.0589,-0.19534 -0.0775,-0.18759 c -0.59968,-1.40711 -0.90108,-2.51688 -0.85369,-3.26491 v -0.007 -0.004 c 0.0757,-1.25168 1.11344,-2.96065 2.7125,-4.97489 -0.0196,0.0229 -0.0393,0.0458 -0.0589,0.0687 l 0.0713,-0.0863 c -0.003,0.004 -0.006,0.009 -0.009,0.014 0.008,-0.0101 0.0157,-0.0204 0.0238,-0.0305 l -0.0124,0.0145 c 1.90042,-2.23052 3.70883,-4.5684 5.31595,-7.05797 2.13741,-3.20882 4.23607,-6.35672 5.06584,-9.55394 0.57682,-2.22258 1.7119,-5.26924 1.35599,-8.79843 -0.22738,-2.25459 -2.25736,-4.36323 -4.34495,-4.91288 -1.14713,-0.30203 -2.31966,-0.28772 -3.45612,0.0248 0.011,-1.80883 -0.13714,-3.2579 -0.33538,-4.36046 -0.27124,-1.50852 -0.94467,-2.97907 -2.20142,-4.07675 -1.25675,-1.09768 -2.9936,-1.60957 -4.43074,-1.60559 -1.43714,0.004 -2.63028,0.38181 -3.65921,0.94981 -0.34821,0.19223 -0.56515,0.67306 -0.88831,0.92191 -0.0871,-0.42624 -0.0214,-0.87313 -0.14418,-1.29036 l -0.0233,-0.0708 -0.0274,-0.0744 c -0.45089,-1.31771 -1.17118,-2.5524 -2.38074,-3.52743 -1.05836,-0.85316 -2.56649,-1.41886 -4.05608,-1.4609 z m -0.0796,3.80856 c 1.01999,0.0184 1.98408,0.76418 2.51406,2.31303 0.81079,2.75491 0.48019,7.24377 0.0884,10.62778 -0.0319,3.5408 -2.11015,9.42951 -0.78755,12.65194 1.77635,-0.39936 3.58867,-8.66449 4.18063,-10.64431 0.94377,-3.03998 1.57352,-6.16969 2.87011,-9.11107 0.56952,-1.29199 4.21549,-2.52061 4.88549,1.20561 0.33844,1.8823 0.59986,4.51503 -0.27027,9.27282 -0.67732,3.70348 -1.42218,7.39777 -2.08204,11.10371 1.15249,0.27739 3.26229,-4.14415 4.38216,-6.37894 0.92115,-1.83823 2.07069,-5.14052 3.01428,-6.24664 0.70303,-0.76691 2.87077,-0.62002 3.05718,1.22835 0.24511,2.43044 -0.64506,5.19623 -1.26194,7.57318 -0.52255,2.01345 -2.52144,5.37578 -4.59093,8.48268 -1.51477,2.3486 -3.24571,4.59032 -5.0953,6.75566 -1.67992,2.11139 -3.3704,4.41367 -3.52898,7.03523 -0.10618,1.67605 0.46574,3.30978 1.12913,4.86637 0.30404,1.01964 -0.45945,1.9802 -1.45159,2.57711 -2.29095,1.3783 -16.99355,2.39419 -25.09821,-0.4284 -2.02,-0.7035 -1.27159,-1.99787 -0.60617,-3.6282 0.66524,-1.62988 0.17915,-3.76937 -0.185,-5.07566 -0.78601,-2.81962 -7.94898,-8.04308 -9.33276,-9.12038 -2.06308,-1.566 -4.28276,-3.20463 -5.17643,-5.51542 -1.33781,-3.22648 1.89657,-4.53828 5.45083,-2.65255 2.17529,1.092 3.68348,2.86012 5.44928,4.35063 1.5848,1.23691 3.37027,1.76822 4.18424,-1.03817 0.45489,-1.66684 0.21196,-3.38742 0.30179,-5.08031 -0.0502,-3.08849 -0.52408,-6.15944 -0.84077,-9.2351 -0.34428,-3.33567 -0.72443,-6.66917 -0.94827,-10.01231 -0.24778,-3.70087 2.89752,-5.53488 4.88498,-2.95692 1.13974,1.36698 2.21395,2.95047 3.60546,10.88564 0.59317,3.4608 1.16098,6.95037 2.55282,10.25208 2.36612,-2.49203 2.28012,-7.76208 2.95744,-10.98486 0.36287,-1.71057 1.6716,-7.47542 2.61534,-10.44225 0.74895,-1.7374 1.97664,-2.65121 3.13263,-2.63033 z m -22.8999,45.11869 c 0.0157,0.0565 0.0223,0.0883 0.0202,0.0987 -0.008,-0.0313 -0.0116,-0.0681 -0.0202,-0.0987 z"
       style="baseline-shift:baseline;display:inline;overflow:visible;vector-effect:none;fill-rule:evenodd;stroke:none;stroke-linecap:round;paint-order:stroke markers fill;enable-background:accumulate;stop-color:#000000;stop-opacity:1"
       id="path197" /><path
       d="m 254.83716,519.09855 c -1.15599,-0.0209 -2.38368,0.89293 -3.13263,2.63033 -0.94374,2.96683 -2.25247,8.73168 -2.61534,10.44225 -0.67732,3.22278 -0.59132,8.49283 -2.95744,10.98486 -1.39184,-3.30171 -1.95965,-6.79128 -2.55282,-10.25208 -1.39151,-7.93517 -2.46572,-9.51866 -3.60546,-10.88564 -1.98746,-2.57796 -5.13276,-0.74395 -4.88498,2.95692 0.22384,3.34314 0.60399,6.67664 0.94827,10.01231 0.31669,3.07566 0.79058,6.14661 0.84077,9.2351 -0.0898,1.69289 0.1531,3.41347 -0.30179,5.08031 -0.81397,2.80639 -2.59944,2.27508 -4.18424,1.03817 -1.7658,-1.49051 -3.27399,-3.25863 -5.44928,-4.35063 -3.55426,-1.88573 -6.78864,-0.57393 -5.45083,2.65255 0.89367,2.31079 3.11335,3.94942 5.17643,5.51542 1.38378,1.0773 8.54675,6.30076 9.33276,9.12038 0.36415,1.30629 0.85024,3.44578 0.185,5.07566 -0.66542,1.63033 -1.41383,2.9247 0.60617,3.6282 8.10466,2.82259 22.80726,1.8067 25.09821,0.4284 0.99214,-0.59691 1.75563,-1.55747 1.45159,-2.57711 -0.66339,-1.55659 -1.23531,-3.19032 -1.12913,-4.86637 0.15858,-2.62156 1.84906,-4.92384 3.52898,-7.03523 1.84959,-2.16534 3.58053,-4.40706 5.0953,-6.75566 2.06949,-3.1069 4.06838,-6.46923 4.59093,-8.48268 0.61688,-2.37695 1.50705,-5.14274 1.26194,-7.57318 -0.18641,-1.84837 -2.35415,-1.99526 -3.05718,-1.22835 -0.94359,1.10612 -2.09313,4.40841 -3.01428,6.24664 -1.11987,2.23479 -3.22967,6.65633 -4.38216,6.37894 0.65986,-3.70594 1.40472,-7.40023 2.08204,-11.10371 0.87013,-4.75779 0.60871,-7.39052 0.27027,-9.27282 -0.67,-3.72622 -4.31597,-2.4976 -4.88549,-1.20561 -1.29659,2.94138 -1.92634,6.07109 -2.87011,9.11107 -0.59196,1.97982 -2.40428,10.24495 -4.18063,10.64431 -1.3226,-3.22243 0.75567,-9.11114 0.78755,-12.65194 0.39183,-3.38401 0.72243,-7.87287 -0.0884,-10.62778 -0.52998,-1.54885 -1.49407,-2.29461 -2.51406,-2.31303 z"
       style="baseline-shift:baseline;display:inline;overflow:visible;vector-effect:none;fill:#f7caaa;fill-rule:evenodd;stroke:none;stroke-linecap:round;paint-order:stroke markers fill;enable-background:accumulate;stop-color:#000000;stop-opacity:1"
       id="path196" /></g></svg>
