<?xml version="1.0" encoding="UTF-8" standalone="no"?>
<!-- Created with Inkscape (http://www.inkscape.org/) -->

<svg
   width="512"
   height="512"
   viewBox="0 0 135.46666 135.46667"
   version="1.1"
   id="svg1"
   xml:space="preserve"
   xmlns="http://www.w3.org/2000/svg"
   xmlns:svg="http://www.w3.org/2000/svg"><defs
     id="defs1" /><g
     id="layer1"
     transform="translate(-4.1095574e-6,-291.21346)"><path
       d="m 77.000985,320.02646 0.42478,0.29766 c 0.11468,-0.0855 0.227189,-0.17145 0.338481,-0.25787 -0.254685,-0.0138 -0.509,-0.0271 -0.763261,-0.0398 z m -19.20503,0.0977 c -0.169282,0.0101 -0.338373,0.0204 -0.507462,0.031 0.07363,0.0565 0.148071,0.11293 0.223242,0.16898 z m 50.367985,4.26175 c -0.76323,1.1715 -1.61263,2.34391 -2.54403,3.52175 5.96866,1.31759 12.05441,2.97559 18.264,5.00848 -2.02368,11.87817 -5.05408,22.4685 -8.68939,31.82545 a 4.0004,4.0004 0 0 1 2.44223,3.68401 v 0.96119 c 4.30485,-10.37746 7.88775,-22.28822 10.18956,-35.79885 a 4.0004,4.0004 0 0 0 -2.69751,-4.4726 c -5.75257,-1.88327 -11.40619,-3.45107 -16.96486,-4.72943 z m -81.253955,0.20464 c -5.698564,1.29347 -11.282246,2.81082 -16.757633,4.50309 a 4.0004,4.0004 0 0 0 -2.8065471,4.12688 c 1.2460753,16.33838 5.2747111,30.50291 10.7078731,42.48164 0.434964,-1.74964 1.12483,-3.53016 2.040703,-5.34231 -4.436288,-10.76336 -7.678035,-23.24109 -8.761223,-37.44371 5.50765,-1.70224 11.114449,-3.22394 16.831014,-4.51393 0.170865,-0.0528 0.339809,-0.0911 0.503329,-0.11266 0.270793,-0.0604 0.542101,-0.12049 0.813387,-0.17983 -0.940008,-1.17738 -1.798186,-2.34887 -2.570903,-3.51917 z m 82.492635,10.08001 c -0.0978,0.16998 -0.19025,0.30093 -0.2775,0.42736 -0.35683,0.5171 -0.67901,0.8684 -1.0511,1.26349 -0.51203,0.54368 -1.10579,1.11759 -1.76268,1.71669 0.72105,0.15473 1.40547,0.30758 2.05207,0.45734 1.98184,0.45901 3.28616,0.83662 4.49792,1.18907 -0.86362,5.08492 -2.82064,10.53408 -6.12573,19.37298 1.18416,1.03306 2.23998,2.00806 3.13676,3.08767 4.4453,-11.72074 6.901,-18.06477 7.4812,-25.13645 0.015,-0.18264 -2.8422,-1.18881 -7.95094,-2.37815 z m -83.800565,0.11214 c -2.518684,0.57406 -5.055935,1.21084 -7.607288,1.91461 0.967057,6.58367 2.757419,16.82905 6.0818,26.82937 0.8434,-1.30774 1.894046,-2.41066 3.111438,-3.52589 -2.225773,-7.27195 -3.683883,-14.60176 -4.623491,-20.30522 2.091382,-0.52852 4.172213,-1.01291 6.239929,-1.45572 -0.727977,-0.65776 -1.382999,-1.28599 -1.940966,-1.87844 -0.372089,-0.39509 -0.694273,-0.7464 -1.051099,-1.26349 -0.067,-0.0971 -0.137141,-0.19715 -0.210323,-0.31522 z m 7.07347,39.06841 c -1.418543,0.72388 -2.50858,1.47213 -3.341915,2.24534 0.492851,0.93115 1.005267,1.84169 1.537891,2.72749 1.082965,1.80106 2.48299,3.42468 3.691247,5.17849 -0.230402,-0.51132 -0.38932,-0.98716 -0.527616,-1.51205 -0.517436,-1.9639 -0.497308,-4.0871 0.07906,-6.03891 -0.497622,-0.84175 -0.977113,-1.70972 -1.438672,-2.60036 z m -6.447669,9.13381 -0.153479,1.12448 a 4.0004,4.0004 0 0 1 -2.08256,2.99155 c 3.2337,5.4538 6.720942,10.31652 10.268107,14.58671 6.342238,7.63499 12.868233,13.38902 18.576127,17.32039 5.707895,3.93137 10.126263,6.2336 14.488005,6.36292 a 4.0004,4.0004 0 0 0 0.257865,0 c 4.151644,-0.14385 8.10684,-2.34118 13.33407,-6.11126 2.660216,-1.91866 5.527582,-4.29719 8.500257,-7.15615 v -2.7342 h -2.930054 c -8.375353,8.01592 -15.6852,11.88758 -19.042765,12.00392 -6.555622,-0.19438 -26.832854,-12.91871 -41.215573,-38.38836 z m 9.824207,3.10731 c 11.532689,15.96722 26.719859,29.19774 31.261658,30.15784 1.782558,-0.1177 5.939138,-2.64548 10.978658,-6.88071 h -2.706295 a 4.0004,4.0004 0 0 1 -1.586466,-0.32815 c -1.007587,0.93091 -1.975383,1.56903 -3.333647,1.92392 -0.585239,0.15289 -1.193143,0.28075 -1.81436,0.36535 -0.221755,0.12989 -0.430737,0.24717 -0.625285,0.3514 -0.523086,0.28025 -0.409686,0.23283 -0.638203,0.31212 -0.133281,-0.079 -0.5207,-0.25938 -1.11001,-0.58446 -0.754214,-0.0611 -1.510178,-0.21361 -2.251542,-0.48782 -2.155082,-0.7971 -3.684687,-2.22829 -5.349545,-3.99407 -1.875163,-1.98884 -4.565382,-4.38266 -7.566463,-6.6952 l -0.611332,-0.47077 a 4.0004,4.0004 0 0 1 -1.540474,-3.53777 c -2.853192,-3.08778 -5.723247,-6.46993 -8.414991,-10.01335 -0.999314,0.51825 -2.481357,0.76139 -3.456636,0.43409 -0.525284,-0.17629 -0.915135,-0.36301 -1.235067,-0.55242 z"
       style="baseline-shift:baseline;display:inline;overflow:visible;vector-effect:none;stroke:none;stroke-linecap:round;stroke-linejoin:round;paint-order:stroke fill markers;enable-background:accumulate;stop-color:#000000;stop-opacity:1"
       id="path227" /><path
       d="m 105.61991,327.90763 c -0.13708,0.17336 -0.27588,0.34677 -0.41651,0.52039 0.34095,-0.0582 0.48821,-0.2026 1.01337,-0.1447 1.17821,0.12984 2.65622,1.17995 3.16208,1.98438 1.11016,1.76755 0.57079,3.11243 0.34779,3.70313 -0.11395,0.30185 -0.22186,0.52208 -0.32402,0.6997 5.10874,1.18934 7.96591,2.19551 7.95094,2.37815 -0.5802,7.07168 -3.0359,13.41571 -7.4812,25.13645 0.57314,0.68998 1.08145,1.42281 1.51671,2.24069 h 2.2474 a 4.0004,4.0004 0 0 1 1.55805,0.31574 c 3.63531,-9.35695 6.66571,-19.94728 8.68939,-31.82545 -6.20959,-2.03289 -12.29534,-3.69089 -18.264,-5.00848 z m -76.139022,0.20206 c -0.271286,0.0593 -0.542594,0.11944 -0.813387,0.17983 0.01708,-0.002 0.0342,-0.004 0.05116,-0.006 0.526697,-0.058 0.675992,0.0856 1.017509,0.14418 -0.08581,-0.10592 -0.170794,-0.21199 -0.255281,-0.31781 z m -1.316716,0.29249 c -5.716565,1.28999 -11.323364,2.81169 -16.831014,4.51393 1.083188,14.20262 4.324935,26.68035 8.761223,37.44371 0.500354,-0.99 1.068093,-1.98943 1.698604,-2.99826 0.767504,-1.22805 1.722494,-2.87364 1.697054,-2.82464 0.182486,-0.35148 0.37809,-0.68708 0.586528,-1.01027 -3.324381,-10.00032 -5.114743,-20.2457 -6.0818,-26.82937 2.551353,-0.70377 5.088604,-1.34055 7.607288,-1.91461 -0.121692,-0.19635 -0.251937,-0.44297 -0.391191,-0.81184 -0.222996,-0.59069 -0.764429,-1.93556 0.345716,-3.70313 0.428419,-0.68215 1.555966,-1.5409 2.607592,-1.86552 z m 1.169438,47.69424 c -0.144948,0.13449 -0.282065,0.26967 -0.411861,0.40566 -1.47184,1.5421 -2.257724,3.26378 -2.652035,6.17585 l -0.04186,0.30696 c 14.382719,25.46965 34.659951,38.19398 41.215573,38.38836 3.357565,-0.11634 10.667412,-3.988 19.042765,-12.00392 h -8.193815 c -5.03952,4.23523 -9.1961,6.76301 -10.978658,6.88071 -4.541799,-0.9601 -19.728969,-14.19062 -31.261658,-30.15784 -1.163529,-0.68887 -1.179117,-1.42116 -1.405599,-1.88723 -0.03412,-0.0702 -0.05284,-0.13405 -0.08372,-0.20257 -1.208257,-1.75381 -2.608282,-3.37743 -3.691247,-5.17849 -0.532624,-0.8858 -1.04504,-1.79634 -1.537891,-2.72749 z"
       style="baseline-shift:baseline;display:inline;overflow:visible;vector-effect:none;fill:#ffffff;stroke:none;stroke-linecap:round;stroke-linejoin:round;paint-order:stroke fill markers;enable-background:accumulate;stop-color:#000000;stop-opacity:1"
       id="path226" /><path
       d="m 44.543018,293.68543 c -1.12498,-0.0126 -1.736537,0.31768 -2.181779,0.56483 -1.780968,0.98858 -2.088379,1.83065 -2.693376,3.0055 -3.699754,7.18453 -3.474753,15.87798 -0.117306,24.1546 -0.01346,-0.009 -0.0531,-0.0203 -0.06614,-0.0295 -2.107895,-1.48468 -2.836966,-2.09565 -3.818372,-3.59978 -0.981407,-1.50413 -2.198336,-4.17568 -4.216797,-9.10332 -0.624602,-1.52484 -1.21427,-2.89381 -1.689302,-3.92586 -0.237517,-0.51602 -0.439345,-0.93586 -0.646473,-1.32447 -0.103564,-0.1943 -0.190788,-0.36254 -0.394808,-0.66197 -0.10201,-0.14971 -0.190496,-0.31987 -0.587561,-0.70125 -0.198532,-0.19068 -0.452609,-0.46527 -1.158585,-0.78083 -0.705975,-0.31555 -2.378711,-0.58635 -3.724321,0.23203 -2.155711,1.31101 -1.820839,2.25008 -1.941483,2.75228 -0.120645,0.5022 -0.149858,0.84899 -0.1757,1.20665 -0.05168,0.71531 -0.04259,1.42113 -0.0062,2.17816 0.07287,1.51407 0.183459,2.99306 0.671793,4.5837 0.247067,0.80477 0.674436,2.32853 0.883151,3.15433 1.117859,4.42289 3.531874,8.68612 7.056416,13.03693 -0.341517,-0.0586 -0.490812,-0.20222 -1.017509,-0.14418 -1.178663,0.12989 -2.656783,1.17983 -3.16208,1.98438 -1.110145,1.76757 -0.568712,3.11244 -0.345716,3.70313 0.222997,0.5907 0.423101,0.86851 0.601514,1.12706 0.356826,0.51709 0.67901,0.8684 1.051099,1.26349 0.744178,0.79017 1.661254,1.644 2.693375,2.54662 2.06424,1.80525 4.428126,3.69576 6.487976,4.92424 0.530754,0.31654 1.974059,1.78454 2.949174,3.00757 -0.08644,0.10255 -0.174766,0.18018 -0.261482,0.28732 -0.526207,0.65015 -1.876728,2.1007 -2.560568,2.74195 -0.507642,0.47602 -0.931513,0.88219 -1.353405,1.36323 -0.421891,0.48104 -0.969659,0.95337 -1.318783,2.36316 -0.106357,0.42948 0.08637,1.00173 0.189653,1.54099 -1.723533,1.12308 -3.48751,2.23207 -5.019332,3.55482 -2.188147,1.88949 -3.97414,3.52298 -5.180046,5.84564 0.02544,-0.049 -0.92955,1.59659 -1.697054,2.82464 -3.628369,5.8055 -5.179851,11.29803 -3.753776,16.48995 l 0.214457,0.78134 a 4.0004,4.0004 0 0 0 7.820711,-0.52348 l 0.195337,-1.43144 c 0.394311,-2.91207 1.180195,-4.63375 2.652035,-6.17585 1.47184,-1.54209 3.893572,-2.9877 7.816577,-4.33823 0.02066,-0.007 0.05712,-0.0259 0.07803,-0.0331 -0.610257,0.66351 -1.277197,1.28578 -1.732194,2.06448 -1.443139,2.46987 -1.775158,5.53913 -1.049031,8.2951 0.156828,0.59523 0.322576,1.1204 0.611332,1.71462 0.288757,0.59422 0.205028,1.62224 2.640666,2.43965 1.217819,0.4087 3.225833,-0.0718 4.097424,-0.86713 0.87159,-0.79526 1.06123,-1.44414 1.211296,-1.90841 0.300133,-0.92853 0.283186,-1.45602 0.283186,-2.07016 0,-0.43678 1.21034,-2.62823 3.109371,-3.85972 0.949516,-0.61574 1.958835,-0.98668 2.529045,-1.07021 0.152795,-0.0224 0.253839,-0.03 0.315226,-0.0336 0.599328,0.72601 1.778574,3.18333 2.157491,6.20375 0.409112,3.26111 0.117795,7.09117 -0.843876,9.92756 l -0.792716,2.34198 a 4.0004,4.0004 0 0 0 1.345654,4.45296 l 0.611332,0.47077 c 3.001081,2.31254 5.6913,4.70636 7.566463,6.6952 1.664858,1.76578 3.194463,3.19697 5.349545,3.99407 2.155083,0.79711 4.431529,0.56798 6.4394,0.0434 1.358264,-0.35489 2.32606,-0.99301 3.333647,-1.92392 a 4.0004,4.0004 0 0 1 -2.394686,-3.283 c -0.891546,0.84844 -1.428973,1.20042 -1.949235,1.33635 -3.318324,0.86697 -4.836307,0.30532 -7.868254,-2.91042 -2.078738,-2.20476 -4.896099,-4.70099 -8.034652,-7.11946 l -0.611849,-0.4718 0.794267,-2.34198 c 2.425393,-7.15355 1.162124,-17.2216 -2.57762,-20.545 -3.483132,-3.09536 -12.479342,2.73842 -12.479342,8.09253 0,1.54822 -0.527132,1.37128 -0.974617,-0.32711 -1.010359,-3.83476 0.828072,-6.98111 5.619812,-9.61802 3.710751,-2.04203 4.958305,-3.88724 4.351155,-6.43526 -0.495107,-2.0778 -0.600097,-2.13472 -2.336808,-1.27538 -2.429388,1.20207 -7.678546,3.40467 -10.100676,4.2385 -8.526555,2.93533 -12.185551,6.76898 -13.132015,13.75885 l -0.194303,1.43299 -0.214457,-0.78186 c -1.060483,-3.86091 -0.04289,-7.9802 3.288688,-13.31082 0.797144,-1.27547 1.632025,-2.67077 1.855184,-3.10059 1.251357,-2.4102 6.489855,-6.93322 10.726477,-9.26196 1.363736,-0.74961 2.132267,-1.3095 1.899626,-1.3839 -0.214917,-0.0687 -0.837385,-0.26004 -1.383378,-0.4253 -1.345942,-0.40741 -1.26018,-0.75423 0.624251,-2.52129 0.88936,-0.83397 2.209946,-2.24853 2.934704,-3.14399 0.724758,-0.89546 1.489724,-1.62833 1.700155,-1.62833 1.744371,0 -2.406054,-5.80358 -5.447729,-7.61762 -3.188022,-1.90132 -9.508784,-7.42975 -9.149313,-8.0021 0.196524,-0.31291 0.649475,-0.14032 2.480469,0.94465 2.832637,1.67849 6.777604,2.66874 9.20564,2.31045 1.45707,-0.21501 1.801436,0.29893 -2.907833,-4.33927 -6.227361,-6.13338 -9.818657,-11.56844 -11.166244,-16.90026 -0.235375,-0.93128 -0.65632,-2.43808 -0.93586,-3.34863 -0.519105,-1.69087 -0.720359,-5.86967 -0.295072,-6.12831 0.117332,-0.0714 1.206856,2.29544 2.421041,5.25963 4.066325,9.92706 4.972088,11.3155 9.433016,14.45751 3.620342,2.54996 11.589074,4.77902 10.242268,2.86495 -6.697626,-9.51861 -8.311468,-20.44374 -4.199227,-28.42928 0.444999,-0.86414 1.001897,-1.40503 1.274341,-1.40198 0.163467,0.002 0.22493,0.19935 0.09767,0.64027 -2.877944,9.97116 0.04803,18.24977 8.313704,23.52001 1.528621,0.97465 3.535473,2.48489 4.459676,3.35587 l 1.680518,1.58337 -0.181901,-1.19735 -0.182418,-1.19785 1.757516,-1.23404 c 3.810177,-2.67548 6.388624,-7.56128 6.711218,-12.71653 0.14156,-2.26222 0.488374,-2.26222 0.629935,0 0.322594,5.15525 2.90156,10.04105 6.711735,12.71653 l 1.757516,1.23404 -0.182418,1.19785 -0.181901,1.19735 1.680001,-1.58337 c 0.9242,-0.87098 2.931056,-2.38122 4.459676,-3.35587 8.26566,-5.27024 11.192171,-13.54885 8.314221,-23.52001 -0.33936,-1.17579 0.66002,-0.62092 1.37201,0.76171 4.11224,7.98554 2.498393,18.91067 -4.199227,28.42928 -1.34681,1.91407 6.621412,-0.31499 10.241752,-2.86495 4.46093,-3.14201 5.36722,-4.53045 9.43354,-14.45751 1.21419,-2.96419 2.30371,-5.33103 2.42104,-5.25963 0.42529,0.25864 0.22402,4.43744 -0.29508,6.12831 -0.27954,0.91055 -0.701,2.41735 -0.93637,3.34863 -1.34759,5.33182 -4.93836,10.76688 -11.165733,16.90026 -4.70927,4.6382 -4.364903,4.12426 -2.907833,4.33927 2.42803,0.35829 6.373016,-0.63196 9.205646,-2.31045 1.831,-1.08497 2.28395,-1.25756 2.48047,-0.94465 0.35948,0.57235 -5.9618,6.10078 -9.149836,8.0021 -3.04168,1.81404 -7.1921,7.61762 -5.44773,7.61762 0.21043,0 0.975922,0.73287 1.700672,1.62833 0.72476,0.89546 2.045344,2.31002 2.934704,3.14399 1.88443,1.76706 1.970191,2.11388 0.624251,2.52129 -0.546,0.16526 -1.168458,0.3566 -1.383378,0.4253 -0.23264,0.0744 0.535896,0.63429 1.899626,1.3839 3.258651,1.79117 7.109811,4.8805 9.283671,7.30808 h 4.93459 c -1.20484,-2.26397 -2.96856,-3.87532 -5.12165,-5.73454 -1.53183,-1.32275 -3.29581,-2.43122 -5.01934,-3.5543 0.10326,-0.53922 0.29394,-1.11154 0.18759,-1.54099 -0.34913,-1.40978 -0.89483,-1.88264 -1.31672,-2.36368 -0.421891,-0.48104 -0.845765,-0.88721 -1.353406,-1.36323 -0.683838,-0.64125 -2.034353,-2.09179 -2.560568,-2.74195 -0.08672,-0.10714 -0.175039,-0.18477 -0.261482,-0.28732 0.975114,-1.22303 2.418419,-2.69103 2.949174,-3.00757 2.059852,-1.22848 4.423742,-3.11899 6.487982,-4.92424 1.03212,-0.90262 1.94919,-1.75645 2.69337,-2.54662 0.37209,-0.39509 0.69427,-0.74639 1.0511,-1.26349 0.17841,-0.25855 0.37853,-0.53635 0.60152,-1.12706 0.223,-0.5907 0.76237,-1.93558 -0.34779,-3.70313 -0.50586,-0.80443 -1.98387,-1.85454 -3.16208,-1.98438 -0.52516,-0.0579 -0.67242,0.0865 -1.01337,0.1447 3.52411,-4.35048 5.93657,-8.61488 7.05435,-13.03745 0.2087,-0.82576 0.63607,-2.34954 0.88315,-3.15433 0.48832,-1.59063 0.59892,-3.06963 0.67179,-4.5837 0.0364,-0.75703 0.0456,-1.46233 -0.006,-2.17765 -0.0258,-0.35766 -0.055,-0.70496 -0.1757,-1.20716 -0.12058,-0.50192 0.21221,-1.4404 -1.93942,-2.75022 -1.3452,-0.81861 -3.02067,-0.55169 -3.7269,-0.23616 -0.70622,0.31553 -0.95948,0.59218 -1.15807,0.7829 -0.39718,0.38144 -0.48761,0.55153 -0.58963,0.70125 -0.20406,0.29946 -0.28917,0.46818 -0.39274,0.66249 -0.20714,0.38863 -0.40895,0.80793 -0.64647,1.32395 -0.47503,1.03205 -1.0647,2.40103 -1.6893,3.92586 -2.01846,4.92764 -3.23539,7.59919 -4.216804,9.10332 -0.981405,1.50413 -1.710476,2.1151 -3.818372,3.59978 -0.01304,0.009 -0.05319,0.0202 -0.06666,0.0295 3.357445,-8.27662 3.582964,-16.97007 -0.116789,-24.1546 -0.604995,-1.17485 -0.912403,-2.01691 -2.693376,-3.0055 -0.445243,-0.24715 -1.056804,-0.57745 -2.181779,-0.56483 -1.124975,0.0126 -2.803582,0.87074 -3.47834,1.95544 -1.349517,2.16942 -0.623135,3.07664 -0.416512,3.79253 2.514027,8.71029 0.402577,14.55969 -6.622852,19.03915 -0.858523,0.54739 -1.600609,1.2176 -2.451013,1.85157 l -0.633036,-0.44339 c -2.630392,-1.84704 -4.767815,-5.70658 -5.017265,-9.69295 -0.04175,-0.66719 -0.09026,-1.19738 -0.203089,-1.78128 -0.05641,-0.29195 -0.102234,-0.57592 -0.326595,-1.10949 -0.112181,-0.26678 -0.245139,-0.60838 -0.695048,-1.13275 -0.449909,-0.52436 -1.522933,-1.42214 -3.081982,-1.42214 -1.559049,0 -2.632073,0.89778 -3.081982,1.42214 -0.449909,0.52437 -0.583384,0.86597 -0.695565,1.13275 -0.224361,0.53357 -0.269664,0.81754 -0.326078,1.10949 -0.112826,0.5839 -0.161339,1.11409 -0.203089,1.78128 -0.24945,3.98637 -2.388939,7.84591 -5.019332,9.69295 l -0.630969,0.44339 c -0.85059,-0.63414 -1.592793,-1.30404 -2.45153,-1.85157 -7.025437,-4.47946 -9.136874,-10.32886 -6.622851,-19.03915 0.206623,-0.71588 0.931445,-1.6231 -0.418063,-3.79253 -0.674753,-1.08471 -2.351293,-1.94283 -3.476273,-1.95544 z m -3.790983,3.53157 c -0.079,0.27372 -0.103424,0.54138 -0.17415,0.81442 -0.0016,-0.48358 0.153967,-0.74449 0.17415,-0.81442 z m 53.43343,0.002 c 0.02115,0.0704 0.175688,0.33051 0.17415,0.81287 -0.07052,-0.2723 -0.0954,-0.5399 -0.17415,-0.81287 z m -6.157763,66.40215 c -0.498275,-0.0105 -0.655355,0.49868 -0.964799,1.79731 -0.481122,2.01911 0.202394,3.59695 2.353345,5.18107 v -2.17351 a 4.0004,4.0004 0 0 1 1.883089,-3.39359 c -0.725956,-0.327 -1.377862,-0.63118 -1.899626,-0.88935 -0.651266,-0.32225 -1.073044,-0.51563 -1.372009,-0.52193 z m -1.527556,9.54722 c -1.794459,0.0695 -3.384898,0.8604 -4.273124,2.59002 -1.011044,1.96878 -1.72919,3.95959 -2.155424,5.98052 h 4.080888 c 0.369471,-1.37761 0.913535,-2.75278 1.632459,-4.15272 0.190972,-0.37188 0.134894,-0.31184 0.56844,-0.39016 0.433545,-0.0783 1.351377,-3.6e-4 2.304769,0.416 0.261392,0.11415 0.515017,0.24751 0.758094,0.39635 v -4.38681 c -0.712844,-0.23855 -1.43388,-0.38895 -2.135787,-0.43925 -0.263215,-0.0189 -0.523963,-0.0239 -0.780315,-0.014 z"
       style="baseline-shift:baseline;display:inline;overflow:visible;vector-effect:none;stroke:none;stroke-linecap:round;stroke-linejoin:round;paint-order:stroke fill markers;enable-background:accumulate;stop-color:#000000;stop-opacity:1"
       id="path225" /><path
       d="m 44.497542,297.68467 c -0.272444,-0.003 -0.829342,0.53784 -1.274341,1.40198 -4.112241,7.98554 -2.498399,18.91067 4.199227,28.42928 1.346806,1.91407 -6.621926,-0.31499 -10.242268,-2.86495 -4.460928,-3.14201 -5.366691,-4.53045 -9.433016,-14.45751 -1.214185,-2.96419 -2.303709,-5.33099 -2.421041,-5.25963 -0.425287,0.25864 -0.224033,4.43744 0.295072,6.12831 0.27954,0.91055 0.700485,2.41735 0.93586,3.34863 1.347587,5.33182 4.938883,10.76688 11.166244,16.90026 4.709269,4.6382 4.364903,4.12426 2.907833,4.33927 -2.428036,0.35829 -6.373003,-0.63196 -9.20564,-2.31045 -1.830994,-1.08497 -2.283945,-1.25756 -2.480469,-0.94465 -0.359471,0.57235 5.961291,6.10078 9.149313,8.0021 3.041675,1.81404 7.1921,7.61762 5.447729,7.61762 -0.210431,0 -0.975397,0.73287 -1.700155,1.62833 -0.724758,0.89546 -2.045344,2.31002 -2.934704,3.14399 -1.884431,1.76706 -1.970193,2.11388 -0.624251,2.52129 0.545993,0.16526 1.168461,0.35661 1.383378,0.4253 0.232641,0.0744 -0.53589,0.63429 -1.899626,1.3839 -4.236622,2.32874 -9.47512,6.85176 -10.726477,9.26196 -0.223159,0.42982 -1.05804,1.82512 -1.855184,3.10059 -3.331573,5.33062 -4.349171,9.44991 -3.288688,13.31082 l 0.214457,0.78186 0.194303,-1.43299 c 0.946464,-6.98987 4.60546,-10.82352 13.132015,-13.75885 2.42213,-0.83383 7.671288,-3.03643 10.100676,-4.2385 1.736711,-0.85934 1.841701,-0.80242 2.336808,1.27538 0.60715,2.54802 -0.640404,4.39323 -4.351155,6.43526 -4.79174,2.63691 -6.630171,5.78326 -5.619812,9.61802 0.447485,1.69839 0.974617,1.87533 0.974617,0.32711 0,-5.35411 8.99621,-11.18789 12.479342,-8.09253 3.739744,3.3234 5.003013,13.39145 2.57762,20.545 l -0.794267,2.34198 0.611849,0.4718 c 3.138553,2.41847 5.955914,4.9147 8.034652,7.11946 3.031947,3.21574 4.54993,3.77739 7.868254,2.91042 0.520262,-0.13593 1.057689,-0.48791 1.949235,-1.33635 a 4.0004,4.0004 0 0 1 -0.01912,-0.38912 v -19.63085 a 4.0004,4.0004 0 0 1 4.000273,-3.99975 h 4.485514 c 0.426234,-2.02093 1.14438,-4.01174 2.155424,-5.98052 1.353486,-2.63561 4.337851,-3.09102 7.189226,-2.13682 v -3.02204 c -2.150951,-1.58412 -2.834467,-3.16196 -2.353345,-5.18107 0.49511,-2.0778 0.600098,-2.13472 2.336808,-1.27538 0.521764,0.25817 1.17367,0.56235 1.899626,0.88935 a 4.0004,4.0004 0 0 1 2.116666,-0.60616 h 13.038476 c -2.17386,-2.42758 -6.02502,-5.51691 -9.283666,-7.30808 -1.36373,-0.74961 -2.132266,-1.30955 -1.899626,-1.3839 0.21492,-0.0687 0.837378,-0.26004 1.383378,-0.4253 1.34594,-0.40741 1.260179,-0.75423 -0.624251,-2.52129 -0.88936,-0.83397 -2.209944,-2.24853 -2.934704,-3.14399 -0.72475,-0.89546 -1.490242,-1.62833 -1.700672,-1.62833 -1.74437,0 2.40605,-5.80358 5.44773,-7.61762 3.188031,-1.90132 9.509311,-7.42975 9.149831,-8.0021 -0.19652,-0.31291 -0.64947,-0.14032 -2.48047,0.94465 -2.83263,1.67849 -6.777611,2.66874 -9.205641,2.31045 -1.45707,-0.21501 -1.801437,0.29893 2.907833,-4.33927 6.227368,-6.13338 9.818138,-11.56844 11.165728,-16.90026 0.23537,-0.93128 0.65683,-2.43808 0.93637,-3.34863 0.5191,-1.69087 0.72037,-5.86967 0.29508,-6.12831 -0.11733,-0.0714 -1.20685,2.29544 -2.42104,5.25963 -4.06632,9.92706 -4.97261,11.3155 -9.433535,14.45751 -3.62034,2.54996 -11.588562,4.77902 -10.241752,2.86495 6.69762,-9.51861 8.311467,-20.44374 4.199227,-28.42928 -0.71199,-1.38263 -1.71137,-1.9375 -1.37201,-0.76171 2.87795,9.97116 -0.04856,18.24977 -8.314221,23.52001 -1.52862,0.97465 -3.535476,2.48489 -4.459676,3.35587 l -1.680001,1.58337 0.181901,-1.19735 0.182418,-1.19785 -1.757516,-1.23404 c -3.810175,-2.67548 -6.389141,-7.56128 -6.711735,-12.71653 -0.141561,-2.26222 -0.488375,-2.26222 -0.629935,0 -0.322594,5.15525 -2.901041,10.04105 -6.711218,12.71653 l -1.757516,1.23404 0.182418,1.19785 0.181901,1.19735 -1.680518,-1.58337 c -0.924203,-0.87098 -2.931055,-2.38122 -4.459676,-3.35587 -8.26567,-5.27024 -11.191648,-13.54885 -8.313704,-23.52001 0.127261,-0.44092 0.0658,-0.63844 -0.09767,-0.64027 z m 22.971208,36.00297 c 1.586795,0.007 2.298125,1.18363 2.356445,1.93994 0.05832,0.75632 -0.69161,2.2197 -2.356445,2.2257 -1.664835,0.006 -2.232137,-1.41436 -2.209167,-2.17713 0.02297,-0.76277 0.622371,-1.99551 2.209167,-1.98851 z m 0,8.58552 c 1.343528,0.01 1.693515,0.90641 2.056722,1.91048 0.363209,1.00407 -0.397486,2.06361 -2.056722,2.00401 -1.659237,-0.0596 -2.095496,-1.33263 -2.024166,-1.99677 0.07133,-0.66413 0.680637,-1.92772 2.024166,-1.91772 z m 0.14366,8.96948 c 0.941457,0.0259 1.844207,1.00985 1.833997,1.8371 -0.01022,0.82726 -1.132747,1.43846 -1.977657,1.44746 -0.844911,0.009 -1.906463,-0.4608 -1.884123,-1.30948 0.02234,-0.84867 1.086326,-2.00098 2.027783,-1.97508 z M 50.8894,354.8264 c 0.276399,-0.0145 0.808805,0.46192 1.679484,1.30277 2.935151,2.83457 4.648758,5.59478 6.573242,10.58591 1.600599,4.15114 1.3892,4.10717 -3.345015,-0.69298 l -4.169255,-4.22713 -0.572574,-3.36362 C 50.627364,355.91742 50.485433,354.8476 50.8894,354.8264 Z m 33.131828,0 c 0.0091,-5e-4 0.01823,-4.4e-4 0.02687,0 0.40403,0.0209 0.262185,1.0896 -0.165365,3.60133 l -0.572058,3.36001 -4.12688,4.19354 c -4.73586,4.81177 -4.981935,4.86547 -3.394625,0.74879 1.93074,-5.00735 3.64186,-7.76348 6.57996,-10.6009 0.843385,-0.81449 1.368746,-1.28705 1.652096,-1.30277 z m -23.599076,40.80268 c 0.271913,-0.01 0.5173,0.0753 0.752925,0.22893 0.693476,0.45229 2.006503,2.20248 1.832963,2.38331 -1.266176,-0.36541 -2.424833,-1.47502 -3.496944,-2.26807 0.341162,-0.22867 0.639143,-0.33417 0.911056,-0.34417 z"
       style="baseline-shift:baseline;display:inline;overflow:visible;vector-effect:none;fill:#ffffff;stroke:none;stroke-linecap:round;stroke-linejoin:round;paint-order:stroke fill markers;enable-background:accumulate;stop-color:#000000;stop-opacity:1"
       id="path224" /><path
       d="m 67.46875,333.68764 c -1.586796,-0.007 -2.186195,1.22574 -2.209167,1.98851 -0.02297,0.76277 0.544332,2.18314 2.209167,2.17713 1.664835,-0.006 2.414766,-1.46938 2.356445,-2.2257 -0.05832,-0.75631 -0.76965,-1.93334 -2.356445,-1.93994 z m 0,8.58552 c -1.343529,-0.01 -1.952838,1.25359 -2.024166,1.91772 -0.07133,0.66414 0.364929,1.9372 2.024166,1.99677 1.659236,0.0596 2.419931,-0.99994 2.056722,-2.00401 -0.363207,-1.00407 -0.713194,-1.90064 -2.056722,-1.91048 z m 0.14366,8.96948 c -0.941457,-0.0259 -2.005442,1.12641 -2.027783,1.97508 -0.02234,0.84868 1.039212,1.31864 1.884123,1.30948 0.84491,-0.009 1.967441,-0.6202 1.977657,-1.44746 0.01021,-0.82725 -0.89254,-1.81117 -1.833997,-1.8371 z M 50.8894,354.8264 c -0.403967,0.0212 -0.262036,1.09102 0.165882,3.60495 l 0.572574,3.36362 4.169255,4.22713 c 4.734215,4.80015 4.945614,4.84412 3.345015,0.69298 -1.924484,-4.99113 -3.638091,-7.75134 -6.573242,-10.58591 -0.870679,-0.84085 -1.403085,-1.31725 -1.679484,-1.30277 z m 33.131828,0 c -0.28335,0.0157 -0.808711,0.48828 -1.652096,1.30277 -2.9381,2.83742 -4.64922,5.59355 -6.57996,10.6009 -1.58731,4.11668 -1.341235,4.06298 3.394625,-0.74879 l 4.12688,-4.19354 0.572058,-3.36001 c 0.42755,-2.51173 0.569395,-3.58047 0.165365,-3.60133 -0.0086,-4.4e-4 -0.01773,-5e-4 -0.02687,0 z m -23.599076,40.80268 c -0.271913,0.01 -0.569894,0.1155 -0.911056,0.34417 1.072111,0.79305 2.230768,1.90266 3.496944,2.26807 0.17354,-0.18083 -1.139487,-1.93102 -1.832963,-2.38331 -0.235625,-0.15368 -0.481012,-0.23898 -0.752925,-0.22893 z"
       style="display:inline;stroke:none;stroke-width:8.83336;stroke-linecap:round;stroke-linejoin:round;paint-order:stroke fill markers"
       id="path215" /><path
       d="m 93.416003,364.42582 a 4.0004,4.0004 0 0 0 -3.999755,3.99975 v 13.31289 H 75.586084 a 4.0004,4.0004 0 0 0 -4.000273,3.99975 v 19.63085 a 4.0004,4.0004 0 0 0 4.000273,4.00027 h 13.830164 v 13.3103 a 4.0004,4.0004 0 0 0 3.999755,4.00027 h 20.220467 a 4.0004,4.0004 0 0 0 4.00028,-4.00027 v -13.3103 h 13.83016 a 4.0004,4.0004 0 0 0 3.99976,-4.00027 v -19.63085 a 4.0004,4.0004 0 0 0 -3.99976,-3.99975 h -13.83016 v -13.31289 a 4.0004,4.0004 0 0 0 -4.00028,-3.99975 z m 5.17e-4,4.00027 h 20.21995 v 17.31109 h 17.83044 v 19.63136 h -17.83044 v 17.3116 H 93.41652 v -17.3116 H 75.586084 V 385.73718 H 93.41652 Z"
       style="baseline-shift:baseline;display:inline;overflow:visible;vector-effect:none;fill-rule:evenodd;stroke:none;stroke-linecap:round;stroke-linejoin:round;stroke-miterlimit:2;paint-order:stroke fill markers;enable-background:accumulate;stop-color:#000000;stop-opacity:1"
       id="path211" /><path
       d="m 93.41652,368.42609 v 17.31109 H 75.586084 v 19.63136 H 93.41652 v 17.3116 h 20.21995 v -17.3116 h 17.83044 v -19.63136 h -17.83044 v -17.31109 z"
       style="baseline-shift:baseline;display:inline;overflow:visible;vector-effect:none;fill:#6ac5fe;fill-rule:evenodd;stroke:none;stroke-linecap:round;stroke-linejoin:round;stroke-miterlimit:2;paint-order:stroke fill markers;enable-background:accumulate;stop-color:#000000;stop-opacity:1"
       id="path210" /></g></svg>
