<?xml version="1.0" encoding="UTF-8" standalone="no"?>
<!-- Created with Inkscape (http://www.inkscape.org/) -->

<svg
   width="512"
   height="512"
   viewBox="0 0 135.46666 135.46667"
   version="1.1"
   id="svg1"
   xml:space="preserve"
   xmlns="http://www.w3.org/2000/svg"
   xmlns:svg="http://www.w3.org/2000/svg"><defs
     id="defs1" /><g
     id="layer5"
     transform="translate(-436.39998,-291.21346)"><path
       d="m 532.27552,293.15627 c -19.41778,0 -15.35561,0.3711 -34.66042,0.18965 a 4.4386638,4.4386638 0 0 0 -4.07623,2.5895 l -32.05231,69.97455 a 4.4386638,4.4386638 0 0 0 4.61677,6.24819 l 23.95513,-3.17396 -23.8125,48.94946 a 4.4386638,4.4386638 0 0 0 2.37143,6.07405 l 1.07797,0.42375 a 4.4386638,4.4386638 0 0 0 4.94905,-1.19735 l 71.42975,-80.99402 a 4.4386638,4.4386638 0 0 0 -3.8964,-7.33753 l -27.94145,3.60133 21.90254,-38.72477 a 4.4386638,4.4386638 0 0 0 -3.86333,-6.62285 z m -5.2e-4,4.43849 -26.26868,46.44626 36.73936,-4.73667 -71.42975,80.99454 -1.079,-0.42323 27.42623,-56.37743 -32.1417,4.26072 32.05282,-69.97454 c 19.35579,0.18193 15.33969,-0.18965 34.70072,-0.18965 z"
       style="baseline-shift:baseline;display:inline;overflow:visible;vector-effect:none;fill-rule:evenodd;stroke:none;stroke-linecap:round;stroke-linejoin:round;paint-order:stroke fill markers;enable-background:accumulate;stop-color:#000000;stop-opacity:1"
       id="path167" /><path
       d="m 532.275,297.59476 c -19.36103,0 -15.34493,0.37158 -34.70072,0.18965 l -32.05282,69.97454 32.1417,-4.26072 -27.42623,56.37743 1.079,0.42323 71.42975,-80.99454 -36.73936,4.73667 z"
       style="baseline-shift:baseline;display:inline;overflow:visible;vector-effect:none;fill:#ff0035;fill-rule:evenodd;stroke:none;stroke-linecap:round;stroke-linejoin:round;paint-order:stroke fill markers;enable-background:accumulate;stop-color:#000000;stop-opacity:1"
       id="path166" /></g></svg>
