<?xml version="1.0" encoding="UTF-8" standalone="no"?>
<!-- Created with Inkscape (http://www.inkscape.org/) -->

<svg
   width="512"
   height="512"
   viewBox="0 0 135.46666 135.46667"
   version="1.1"
   id="svg1"
   xml:space="preserve"
   xmlns="http://www.w3.org/2000/svg"
   xmlns:svg="http://www.w3.org/2000/svg"><defs
     id="defs1" /><g
     id="layer5"
     transform="translate(-436.39998,-144.92315)"><path
       d="m 532.27552,146.867 c -19.41778,0 -15.35561,0.37111 -34.66042,0.18966 a 4.4386638,4.4386638 0 0 0 -4.07623,2.59002 l -32.05231,69.97454 a 4.4386638,4.4386638 0 0 0 4.61677,6.24768 l 23.95513,-3.17552 -23.8125,48.95102 a 4.4386638,4.4386638 0 0 0 2.37143,6.0725 l 1.07797,0.42375 a 4.4386638,4.4386638 0 0 0 4.94905,-1.19735 l 71.42975,-80.99402 a 4.4386638,4.4386638 0 0 0 -3.8964,-7.33805 l -27.94145,3.60339 21.90254,-38.72425 a 4.4386638,4.4386638 0 0 0 -3.86333,-6.62337 z m -5.2e-4,4.43746 -26.26868,46.44574 36.73936,-4.73614 -71.42975,80.99454 -1.079,-0.42323 27.42623,-56.37744 -32.1417,4.26072 32.05282,-69.97505 c 19.35579,0.18193 15.33969,-0.18914 34.70072,-0.18914 z"
       style="baseline-shift:baseline;display:inline;overflow:visible;vector-effect:none;fill-rule:evenodd;stroke:none;stroke-linecap:round;stroke-linejoin:round;paint-order:stroke fill markers;enable-background:accumulate;stop-color:#000000;stop-opacity:1"
       id="path169" /><path
       d="m 532.275,151.30446 c -19.36103,0 -15.34493,0.37107 -34.70072,0.18914 l -32.05282,69.97505 32.1417,-4.26072 -27.42623,56.37744 1.079,0.42323 71.42975,-80.99454 -36.73936,4.73614 z"
       style="baseline-shift:baseline;display:inline;overflow:visible;vector-effect:none;fill:#a2beff;fill-rule:evenodd;stroke:none;stroke-linecap:round;stroke-linejoin:round;paint-order:stroke fill markers;enable-background:accumulate;stop-color:#000000;stop-opacity:1"
       id="path168" /></g></svg>
