<?xml version="1.0" encoding="UTF-8" standalone="no"?>
<!-- Created with Inkscape (http://www.inkscape.org/) -->

<svg
   width="512"
   height="512"
   viewBox="0 0 135.46666 135.46667"
   version="1.1"
   id="svg1"
   xml:space="preserve"
   inkscape:version="1.4.3 (0d15f75, 2025-12-25)"
   sodipodi:docname="quicklooticons.svg"
   inkscape:export-batch-name=""
   inkscape:export-batch-path="Completionist Addons Dev\docs"
   xmlns:inkscape="http://www.inkscape.org/namespaces/inkscape"
   xmlns:sodipodi="http://sodipodi.sourceforge.net/DTD/sodipodi-0.dtd"
   xmlns="http://www.w3.org/2000/svg"
   xmlns:svg="http://www.w3.org/2000/svg"><sodipodi:namedview
     id="namedview1"
     pagecolor="#818181"
     bordercolor="#000000"
     borderopacity="0.25"
     inkscape:showpageshadow="2"
     inkscape:pageopacity="0.0"
     inkscape:pagecheckerboard="0"
     inkscape:deskcolor="#d1d1d1"
     inkscape:document-units="mm"
     inkscape:zoom="0.29028319"
     inkscape:cx="887.06479"
     inkscape:cy="456.45081"
     inkscape:window-width="2560"
     inkscape:window-height="1369"
     inkscape:window-x="1912"
     inkscape:window-y="-8"
     inkscape:window-maximized="1"
     inkscape:current-layer="layer5"
     inkscape:clip-to-page="true"
     showguides="true"><sodipodi:guide
       position="105.16148,424.17902"
       orientation="0,-1"
       id="guide12"
       inkscape:locked="false" /><sodipodi:guide
       position="74.687131,292.55028"
       orientation="0,-1"
       id="guide13"
       inkscape:locked="false" /><sodipodi:guide
       position="280.93332,426.68013"
       orientation="0,-1"
       id="guide14"
       inkscape:locked="false" /><sodipodi:guide
       position="280.93332,291.21345"
       orientation="0,-1"
       id="guide15"
       inkscape:locked="false" /><sodipodi:guide
       position="135.46666,426.68013"
       orientation="1,0"
       id="guide16"
       inkscape:locked="false" /><sodipodi:guide
       position="145.46666,426.68013"
       orientation="1,0"
       id="guide17"
       inkscape:locked="false" /><sodipodi:guide
       position="280.93331,426.68014"
       orientation="1,0"
       id="guide18"
       inkscape:locked="false" /><sodipodi:guide
       position="1.0521347e-05,426.68013"
       orientation="1,0"
       id="guide19"
       inkscape:locked="false" /><sodipodi:guide
       position="290.93332,426.68013"
       orientation="1,0"
       id="guide20"
       inkscape:locked="false" /><sodipodi:guide
       position="426.39999,426.68013"
       orientation="1,0"
       id="guide21"
       inkscape:locked="false" /><sodipodi:guide
       position="69.271431,281.75699"
       orientation="0,-1"
       id="guide22"
       inkscape:locked="false" /><sodipodi:guide
       position="145.46664,146.29031"
       orientation="0,-1"
       id="guide25"
       inkscape:locked="false" /><sodipodi:guide
       position="145.46665,135.46666"
       orientation="0,-1"
       id="guide26"
       inkscape:locked="false" /><inkscape:page
       x="0"
       y="0"
       width="135.46666"
       height="135.46667"
       id="page26"
       margin="0"
       bleed="0" /><sodipodi:guide
       position="436.4,291.21345"
       orientation="1,0"
       id="guide28"
       inkscape:locked="false" /><sodipodi:guide
       position="71.586101,50.61206"
       orientation="1,0"
       id="guide29"
       inkscape:locked="false" /><sodipodi:guide
       position="119.55548,62.25421"
       orientation="0,-1"
       id="guide30"
       inkscape:locked="false" /><sodipodi:guide
       position="1.0521347e-05,-2.0289544e-05"
       orientation="0,-1"
       id="guide31"
       inkscape:locked="false" /><sodipodi:guide
       position="1.0521347e-05,-3.0289544e-05"
       orientation="0,-1"
       id="guide32"
       inkscape:locked="false" /><sodipodi:guide
       position="-61.227869,-15.4496"
       orientation="0,-1"
       id="guide33"
       inkscape:locked="false" /><sodipodi:guide
       position="102.9595,-88.66205"
       orientation="0,-1"
       id="guide35"
       inkscape:locked="false" /><sodipodi:guide
       position="538.86187,372.86404"
       orientation="1,0"
       id="guide37"
       inkscape:locked="false" /><sodipodi:guide
       position="467.66729,335.16056"
       orientation="1,0"
       id="guide38"
       inkscape:locked="false" /><sodipodi:guide
       position="389.60263,424.13078"
       orientation="0,-1"
       id="guide39"
       inkscape:locked="false" /><sodipodi:guide
       position="323.86323,292.59858"
       orientation="0,-1"
       id="guide40"
       inkscape:locked="false" /><sodipodi:guide
       position="386.38011,279.20762"
       orientation="0,-1"
       id="guide41"
       inkscape:locked="false" /><sodipodi:guide
       position="321.92972,147.67544"
       orientation="0,-1"
       id="guide42"
       inkscape:locked="false" /><sodipodi:guide
       position="392.84194,132.9173"
       orientation="0,-1"
       id="guide43"
       inkscape:locked="false" /><sodipodi:guide
       position="581.86665,426.68013"
       orientation="1,0"
       id="guide45"
       inkscape:locked="false" /><sodipodi:guide
       position="394.11417,-17.99896"
       orientation="0,-1"
       id="guide46"
       inkscape:locked="false" /><sodipodi:guide
       position="321.28521,-149.53114"
       orientation="0,-1"
       id="guide47"
       inkscape:locked="false" /></sodipodi:namedview><defs
     id="defs1" /><g
     inkscape:label="Legacy of the Dragonborn"
     inkscape:groupmode="layer"
     id="layer1"
     transform="translate(-4.1095574e-6,-291.21346)"><path
       style="fill:#ffffff;fill-opacity:1;stroke:#000000;stroke-width:8;stroke-linecap:round;stroke-linejoin:round;stroke-dasharray:none;stroke-opacity:1;paint-order:stroke fill markers"
       d="m 11.333188,332.91626 c 33.169523,-10.25164 69.942463,-13.949 112.550512,0 -10.41321,61.12109 -47.485179,88.14669 -56.440518,88.45699 -9.962675,-0.29539 -51.615716,-29.52861 -56.109994,-88.45699 z m 106.020402,4.13242 c 0.0604,-0.73705 -46.658011,-14.88823 -99.358706,-0.35116 1.486505,10.12005 4.91879,28.89147 12.876803,42.12629 11.526025,19.16873 31.21042,36.32032 36.44214,37.42627 5.166117,-0.34112 30.270934,-20.92513 39.026133,-44.64845 6.69608,-18.14393 10.29466,-25.78986 11.01363,-34.55295 z"
       id="path10-4-6"
       sodipodi:nodetypes="ccscscscss"
       inkscape:label="Shield Stroke" /><path
       style="display:inline;fill:#ffffff;fill-opacity:1;stroke:#000000;stroke-width:8;stroke-linecap:round;stroke-linejoin:round;stroke-dasharray:none;stroke-opacity:1;paint-order:stroke fill markers"
       d="m 69.655691,407.09428 c 0.766413,-0.20025 1.569816,-0.86902 3.488172,-2.90368 2.084038,-2.21038 4.900188,-4.70625 8.040608,-7.12615 l 0.61194,-0.47156 -0.79408,-2.34209 c -2.20595,-6.5063 -1.80255,-12.5984 1.22453,-18.49294 2.97533,-5.79379 13.83203,-1.05256 13.83203,6.04058 0,1.54822 0.52737,1.37123 0.97485,-0.32716 1.01036,-3.83476 -0.82799,-6.98102 -5.61973,-9.61793 -3.71076,-2.04203 -4.95832,-3.88711 -4.35117,-6.43513 0.49511,-2.0778 0.60012,-2.13514 2.33683,-1.2758 2.42939,1.20207 7.6785,3.40483 10.10063,4.23866 8.526559,2.93533 12.185659,6.76909 13.132139,13.75896 l 0.19399,1.43274 0.21465,-0.78149 c 1.06049,-3.86092 0.0426,-7.98019 -3.28888,-13.31081 -0.79716,-1.27547 -1.63195,-2.6707 -1.85511,-3.10052 -1.25135,-2.4102 -6.48958,-6.93348 -10.726209,-9.26222 -1.36373,-0.74961 -2.13248,-1.30961 -1.89984,-1.38396 0.21492,-0.0687 0.83748,-0.26011 1.38348,-0.42537 1.34594,-0.40741 1.26012,-0.75393 -0.62431,-2.52099 -0.88936,-0.83397 -2.21,-2.24895 -2.93476,-3.14441 -0.72475,-0.89546 -1.48991,-1.62811 -1.70034,-1.62811 -1.74437,0 2.40609,-5.80366 5.44777,-7.6177 3.188029,-1.90132 9.509179,-7.42938 9.149699,-8.00173 -0.19652,-0.31291 -0.64954,-0.14041 -2.48054,0.94456 -2.83263,1.67849 -6.777519,2.66848 -9.205549,2.31019 -1.45707,-0.21501 -1.80164,0.29917 2.90763,-4.33903 6.227369,-6.13338 9.818369,-11.56862 11.165959,-16.90044 0.23537,-0.93128 0.65667,-2.43823 0.93621,-3.34878 0.5191,-1.69087 0.72021,-5.86947 0.29492,-6.12811 -0.11733,-0.0714 -1.20676,2.2955 -2.42095,5.25969 -4.06632,9.92706 -4.9723,11.3156 -9.433229,14.45761 -3.62034,2.54996 -11.58872,4.77865 -10.24191,2.86458 6.69762,-9.51861 8.31127,-20.4437 4.19903,-28.42924 -0.71199,-1.38263 -1.71114,-1.93724 -1.37178,-0.76145 2.87795,9.97116 -0.0485,18.24978 -8.31416,23.52002 -1.52862,0.97465 -3.53548,2.48472 -4.45968,3.3557 l -1.68037,1.5836 0.18221,-1.19764 0.18221,-1.19764 -1.75738,-1.23401 c -3.810175,-2.67548 -6.388926,-7.56166 -6.71152,-12.71691 -0.141561,-2.26222 -0.488458,-2.26222 -0.630018,0 -0.322594,5.15525 -2.901346,10.04143 -6.711523,12.71691 l -1.757376,1.23401 0.182208,1.19764 0.182208,1.19764 -1.680368,-1.5836 c -0.924203,-0.87098 -2.931059,-2.38105 -4.45968,-3.3557 -8.26567,-5.27024 -11.192107,-13.54886 -8.314163,-23.52002 0.339362,-1.17579 -0.659783,-0.62118 -1.371781,0.76145 -4.112241,7.98554 -2.498591,18.91063 4.199035,28.42924 1.346806,1.91407 -6.621566,-0.31462 -10.241908,-2.86458 -4.460928,-3.14201 -5.366909,-4.53055 -9.433234,-14.45761 -1.214185,-2.96419 -2.303616,-5.33105 -2.420948,-5.25969 -0.425287,0.25864 -0.224179,4.43724 0.294926,6.12811 0.27954,0.91055 0.700834,2.4175 0.936209,3.34878 1.347587,5.33182 4.938589,10.76706 11.16595,16.90044 4.709269,4.6382 4.364706,4.12402 2.907636,4.33903 -2.428036,0.35829 -6.372918,-0.6317 -9.205555,-2.31019 -1.830994,-1.08497 -2.284016,-1.25747 -2.48054,-0.94456 -0.359471,0.57235 5.961682,6.10041 9.149704,8.00173 3.041675,1.81404 7.19214,7.6177 5.447769,7.6177 -0.210431,0 -0.975585,0.73265 -1.700343,1.62811 -0.724758,0.89546 -2.0454,2.31044 -2.93476,3.14441 -1.884431,1.76706 -1.970244,2.11358 -0.624302,2.52099 0.545993,0.16526 1.168554,0.35668 1.383471,0.42537 0.232641,0.0744 -0.536101,0.63435 -1.899837,1.38396 -4.236622,2.32874 -9.474849,6.85202 -10.726206,9.26222 -0.223159,0.42982 -1.057953,1.82505 -1.855097,3.10052 -3.331573,5.33062 -4.349374,9.44989 -3.288891,13.3108 l 0.214655,0.7815 0.194003,-1.43274 c 0.946464,-6.98987 4.605561,-10.82363 13.132116,-13.75896 2.42213,-0.83383 7.671241,-3.03659 10.100629,-4.23866 1.736711,-0.85934 1.841727,-0.802 2.336834,1.2758 0.60715,2.54802 -0.640416,4.3931 -4.351167,6.43513 -4.79174,2.63691 -6.630095,5.78317 -5.619736,9.61793 0.447485,1.69839 0.974854,1.87538 0.974854,0.32716 0,-5.35411 8.996033,-11.18788 12.479165,-8.09252 3.739744,3.3234 5.002786,13.39133 2.577393,20.54488 l -0.794085,2.34209 0.611948,0.47156 c 3.138553,2.41847 5.955605,4.91475 8.034343,7.11951 3.031947,3.21574 4.550148,3.77729 7.868472,2.91032 z"
       id="path9-3-0"
       inkscape:label="Dragon Stroke" /><path
       id="path8-1-6"
       style="display:inline;fill:#000000;fill-opacity:1;stroke:none;stroke-width:8.83336;stroke-linecap:round;stroke-linejoin:round;stroke-dasharray:none;stroke-opacity:1;paint-order:stroke fill markers"
       d="m 67.468671,333.68755 c -1.586796,-0.007 -2.186338,1.22607 -2.20931,1.98884 -0.02297,0.76277 0.544475,2.18309 2.20931,2.17708 1.664835,-0.006 2.414987,-1.46961 2.356666,-2.22593 -0.05832,-0.75631 -0.769871,-1.93339 -2.356666,-1.93999 z m 0,8.58573 c -1.343529,-0.01 -1.952882,1.25347 -2.02421,1.9176 -0.07133,0.66414 0.364973,1.93741 2.02421,1.99698 1.659236,0.0596 2.419991,-1.00003 2.056782,-2.0041 -0.363207,-1.00407 -0.713254,-1.90064 -2.056782,-1.91048 z m 0.143736,8.96935 c -0.941457,-0.0259 -2.005487,1.12642 -2.027828,1.97509 -0.02234,0.84868 1.039181,1.31877 1.884092,1.30961 0.84491,-0.009 1.96746,-0.62023 1.977676,-1.44749 0.01021,-0.82725 -0.892483,-1.81128 -1.83394,-1.83721 z m -16.723125,3.58387 c -0.403967,0.0212 -0.261948,1.0908 0.16597,3.60473 l 0.572363,3.36357 4.169406,4.22749 c 4.734215,4.80015 4.945845,4.8441 3.345246,0.69296 -1.924484,-4.99113 -3.638489,-7.75169 -6.57364,-10.58626 -0.870679,-0.84085 -1.402946,-1.31697 -1.679345,-1.30249 z m 33.158779,0 c -0.27645,-0.0143 -0.80824,0.46173 -1.67883,1.30249 -2.9381,2.83742 -4.6491,5.59366 -6.57984,10.60101 -1.58731,4.11668 -1.3415,4.06284 3.39436,-0.74893 l 4.12701,-4.19339 0.57184,-3.36001 c 0.42755,-2.51173 0.56949,-3.58031 0.16546,-3.60117 z m -23.626122,40.80243 c -0.271913,0.01 -0.569861,0.11577 -0.911023,0.34444 1.072111,0.79305 2.231078,1.90274 3.497254,2.26815 0.17354,-0.18083 -1.139427,-1.93135 -1.832903,-2.38364 -0.235625,-0.15368 -0.481415,-0.239 -0.753328,-0.22895 z m 14.202042,0.0351 c -0.1591,-0.006 -0.3273,0.0366 -0.52169,0.15315 -0.924903,0.47535 -2.146836,1.78303 -2.133308,2.24882 1.164933,0.15663 2.943478,-1.36486 3.454338,-2.09466 -0.29388,-0.1548 -0.53417,-0.29769 -0.79934,-0.30731 z"
       inkscape:label="Detail Stroke" /><path
       id="path17-9"
       style="display:inline;fill:#6ac5fe;fill-opacity:1;fill-rule:evenodd;stroke:#000000;stroke-width:8;stroke-linecap:round;stroke-linejoin:round;stroke-miterlimit:2;stroke-dasharray:none;stroke-opacity:1;paint-order:stroke fill markers"
       d="m 93.416522,368.42591 v 17.31148 h -17.83042 v 19.63125 h 17.83042 v 17.31149 h 20.219718 v -17.31149 h 17.83043 v -19.63125 h -17.83043 v -17.31148 z"
       inkscape:label="Plus Icon"
       sodipodi:nodetypes="ccccccccccccc" /></g></svg>
