<?xml version="1.0" encoding="UTF-8" standalone="no"?>
<!-- Created with Inkscape (http://www.inkscape.org/) -->

<svg
   width="512"
   height="512"
   viewBox="0 0 135.46666 135.46667"
   version="1.1"
   id="svg1"
   xml:space="preserve"
   xmlns="http://www.w3.org/2000/svg"
   xmlns:svg="http://www.w3.org/2000/svg"><defs
     id="defs1" /><g
     id="layer3"
     transform="translate(-290.93333,-442.12975)"><path
       d="m 326.18733,444.67983 c -3.56857,0 -6.58675,2.35845 -7.7401,5.55832 a 4.0004,4.0004 0 0 0 -1.36891,-0.71468 c -1.36727,-0.16299 -2.77609,-0.25091 -4.20129,-0.24805 -4.98256,0.01 -10.25629,1.03147 -14.457,4.25762 -4.20071,3.22615 -6.74152,8.94524 -5.88698,15.85743 1.33042,10.76116 6.85305,18.48616 12.94133,23.47867 6.08828,4.99251 12.62802,7.43119 16.99638,8.35918 a 4.0004,4.0004 0 0 0 2.67012,-0.89038 c 2.90888,5.21894 6.85895,10.00007 12.36307,13.89837 3.57541,2.5323 6.06624,4.36594 7.44709,6.07818 1.38086,1.71225 2.04299,3.29389 2.08204,6.82233 a 4.0004,4.0004 0 0 0 2.41639,3.3047 4.0004,4.0004 0 0 0 -2.17971,1.69913 c -0.90559,3.59536 -2.29681,5.79268 -4.18372,7.23056 -1.88691,1.43789 -4.53604,2.29693 -8.59586,2.27532 -2.66906,-0.0152 -5.20692,2.26212 -5.20692,5.1232 v 9.11675 h -4.59403 c -2.94951,0 -5.56607,2.46564 -5.56607,5.51956 v 9.28316 c 0,3.05397 2.61478,5.52162 5.56607,5.52162 h 33.9788 24.06985 c -0.67377,-0.181 -1.33475,-0.38275 -1.97921,-0.60719 -0.98679,-0.34367 -2.06903,-0.91088 -2.8913,-1.90376 -0.37557,-0.45351 -0.64557,-0.97129 -0.82527,-1.4888 H 358.667 324.69026 c -0.86892,0 -1.56786,-0.6785 -1.56786,-1.52136 v -9.28263 c 0,-0.84289 0.69894,-1.52084 1.56786,-1.52084 h 8.59276 v -3.77703 -9.33948 c 0,-0.63525 0.53064,-1.12693 1.18545,-1.12293 9.32218,0.0496 14.56405,-4.12625 16.68064,-12.52947 h 7.51789 7.51788 c 0.87851,3.48791 2.29533,6.24763 4.31912,8.27908 1.38063,0.18635 2.72308,0.68191 3.98115,1.34566 1.49329,0.75772 2.65488,1.63522 3.62407,2.47788 0.005,-0.38255 0.0188,-0.48446 0.0388,-0.93224 -0.0183,-1.02962 -0.0913,-2.08634 -0.19276,-3.17139 -1.5099,-0.39209 -2.71417,-0.98834 -3.70726,-1.74511 -1.88691,-1.43788 -3.27816,-3.63521 -4.18373,-7.23056 a 4.0004,4.0004 0 0 0 -2.17971,-1.69913 4.0004,4.0004 0 0 0 2.41639,-3.3047 c 0.039,-3.52843 0.70118,-5.11008 2.08204,-6.82233 1.38086,-1.71224 3.87167,-3.54588 7.4471,-6.07818 5.50411,-3.8983 9.45419,-8.67943 12.36307,-13.89837 a 4.0004,4.0004 0 0 0 2.67012,0.89038 c 4.36835,-0.928 10.90811,-3.36667 16.99638,-8.35918 6.08828,-4.99251 11.61091,-12.7175 12.94132,-23.47867 0.85456,-6.91219 -1.68627,-12.63126 -5.88698,-15.85743 -4.20017,-3.22575 -9.4729,-4.24737 -14.45493,-4.25762 h -0.002 c -1.42652,-0.003 -2.83564,0.0852 -4.2013,0.24805 a 4.0004,4.0004 0 0 0 -1.36684,0.71468 c -1.15324,-3.2001 -4.17346,-5.55832 -7.74216,-5.55832 h -32.47864 z m -5.2e-4,3.99924 h 32.48019 32.48018 c 2.38006,0 4.2716,1.87216 4.3093,4.18063 0.34502,21.08804 1.0095,44.69302 -17.9374,58.11221 -7.13339,5.05223 -11.12686,7.79409 -11.21896,16.11995 h -7.63312 -7.63313 c -0.0922,-8.32586 -4.08558,-11.06772 -11.21895,-16.11995 -18.94691,-13.41919 -18.28244,-37.02417 -17.93741,-58.11221 0.0378,-2.30847 1.92925,-4.18063 4.3093,-4.18063 z m -13.30203,4.59714 c 1.25512,-0.003 2.50585,0.075 3.71915,0.21962 v 8.85786 c -0.50872,-0.11264 -1.00219,-0.20544 -1.47898,-0.27854 -7.15155,-1.09712 -10.64866,2.23554 -8.65632,9.65471 2.4809,9.23865 7.9284,12.62575 13.20385,15.47348 l 3.62975,10.11256 c -7.43863,-1.58022 -24.40559,-9.05383 -26.7994,-28.41636 -1.44678,-11.70264 7.59594,-15.60563 16.38195,-15.62333 z m 91.56443,0 c 8.78602,0.0176 17.82876,3.92069 16.38195,15.62333 -2.39381,19.36254 -19.36078,26.83613 -26.7994,28.41636 l 1.81488,-5.05654 1.81488,-5.05602 c 5.27547,-2.84773 10.7229,-6.23483 13.20384,-15.47348 2.12515,-7.91377 -1.99593,-11.17812 -10.1353,-9.37617 v -8.85786 c 1.21327,-0.14464 2.46402,-0.22262 3.71915,-0.21962 z m -86.58231,12.48761 h 5.2e-4 c 0.0786,5.52838 0.41435,11.06103 1.31827,16.55868 -3.94014,-2.29121 -7.04696,-4.90102 -8.85373,-11.62927 -0.80522,-2.99854 -0.28211,-3.99625 -0.0429,-4.25193 0.23925,-0.25569 1.35116,-0.85354 4.23023,-0.41186 0.38216,0.0586 0.79087,0.1352 1.22112,0.23047 a 4.0004,4.0004 0 0 0 2.12648,-0.49609 z m 81.60226,0 a 4.0004,4.0004 0 0 0 2.12442,0.49609 c 3.43287,-0.76 5.09103,-0.142 5.39863,0.13074 0.3076,0.27275 0.86847,1.1042 0.01,4.30258 -1.8068,6.72826 -4.91307,9.33806 -8.85321,11.62927 0.90392,-5.49761 1.24178,-11.03035 1.32034,-16.55868 z"
       style="baseline-shift:baseline;display:inline;overflow:visible;vector-effect:none;fill-rule:evenodd;stroke:none;stroke-linecap:round;stroke-linejoin:round;stroke-miterlimit:2;paint-order:stroke fill markers;enable-background:accumulate;stop-color:#000000;stop-opacity:1"
       id="path183" /><path
       d="m 326.18681,448.67907 c -2.38005,0 -4.27154,1.87216 -4.3093,4.18063 -0.34503,21.08804 -1.0095,44.69302 17.93741,58.11221 7.13337,5.05223 11.12679,7.79409 11.21895,16.11995 h 7.63313 7.63312 c 0.0921,-8.32586 4.08557,-11.06772 11.21896,-16.11995 18.9469,-13.41919 18.28242,-37.02417 17.9374,-58.11221 -0.0377,-2.30847 -1.92924,-4.18063 -4.3093,-4.18063 H 358.667 Z m -13.30203,4.59714 c -8.78601,0.0177 -17.82873,3.92069 -16.38195,15.62333 2.39381,19.36253 19.36077,26.83614 26.7994,28.41636 l -3.62975,-10.11256 c -5.27545,-2.84773 -10.72295,-6.23483 -13.20385,-15.47348 -1.99234,-7.41917 1.50477,-10.75183 8.65632,-9.65471 0.47679,0.0731 0.97026,0.1659 1.47898,0.27854 v -8.85786 c -1.2133,-0.14463 -2.46403,-0.22214 -3.71915,-0.21962 z m 91.56443,0 c -1.25513,-0.003 -2.50588,0.075 -3.71915,0.21962 v 8.85786 c 8.13937,-1.80195 12.26045,1.4624 10.1353,9.37617 -2.48094,9.23865 -7.92837,12.62575 -13.20384,15.47348 l -1.81488,5.05602 -1.81488,5.05654 c 7.43862,-1.58023 24.40559,-9.05382 26.7994,-28.41636 1.44681,-11.70264 -7.59593,-15.60571 -16.38195,-15.62333 z m -53.3001,79.84112 c -2.11659,8.40322 -7.35846,12.57908 -16.68064,12.52947 -0.65481,-0.004 -1.18545,0.48768 -1.18545,1.12293 v 9.33948 3.77703 h -8.59276 c -0.86892,0 -1.56786,0.67795 -1.56786,1.52084 v 9.28263 c 0,0.84286 0.69894,1.52136 1.56786,1.52136 h 33.97674 18.3751 c -0.21372,-0.6155 -0.29981,-1.23062 -0.28525,-1.73685 0.0536,-1.86372 0.68245,-2.70584 0.96273,-3.39255 0.016,-0.0392 -0.005,-1.58545 -0.29559,-2.70837 l -5.2e-4,5.2e-4 v 5.2e-4 l -5.1e-4,5.1e-4 v 5.2e-4 l -5.2e-4,5.2e-4 h -5.2e-4 l -5.1e-4,5.1e-4 h -5.2e-4 -5.2e-4 -5.1e-4 l -5.2e-4,-5.1e-4 c -0.0423,-0.0199 -0.31272,-0.54672 -0.80667,-1.10174 -0.62599,-0.7034 -1.53477,-1.56894 -2.48615,-2.39624 -1.88688,-1.64079 -3.80535,-3.05312 -4.67982,-3.73259 -2.02219,-1.53496 -5.00062,-3.52523 -6.41821,-7.136 -0.55476,-1.3532 -0.79471,-2.86791 -0.31936,-4.39249 0.47919,-1.53693 1.7869,-2.89847 3.25768,-3.56981 1.51894,-0.69333 3.05023,-0.85131 4.53719,-0.65061 -2.02379,-2.03145 -3.44061,-4.79117 -4.31912,-8.27908 H 358.667 Z m 26.25473,31.15675 c 0.008,0.0305 0.0121,0.067 0.0202,0.0982 0.002,-0.0104 -0.004,-0.0417 -0.0202,-0.0982 z"
       style="baseline-shift:baseline;display:inline;overflow:visible;vector-effect:none;fill:#ffffff;fill-rule:evenodd;stroke:none;stroke-linecap:round;stroke-linejoin:round;stroke-miterlimit:2;paint-order:stroke fill markers;enable-background:accumulate;stop-color:#000000;stop-opacity:1"
       id="path182" /><path
       d="m 400.38331,515.34632 c -0.2128,-0.006 -0.42493,-10e-4 -0.63562,0.015 -3.37106,0.25707 -5.41171,2.55146 -6.48022,5.03018 l -0.0703,0.16278 -0.0548,0.17002 c -0.5531,1.73878 -0.90089,3.50646 -1.41025,5.62963 -0.2027,-0.70188 -0.40377,-1.96567 -0.61598,-2.53111 -0.70072,-1.86705 -1.63107,-3.17122 -2.2872,-3.96669 -0.92907,-1.18859 -2.27794,-2.22551 -3.98632,-2.62309 -1.72788,-0.40212 -3.63051,-0.0314 -4.98419,0.77618 -2.70736,1.61519 -3.67956,4.3864 -3.48764,7.25279 0.23106,3.45119 0.61687,6.82745 0.95859,10.13839 0.32704,3.17606 0.76962,6.12834 0.81856,8.88732 -0.0199,0.44778 -0.0338,0.54969 -0.0388,0.93224 -0.96919,-0.84266 -2.13078,-1.72016 -3.62407,-2.47788 -2.61304,-1.37861 -5.58907,-2.03214 -8.51834,-0.69505 -1.47078,0.67134 -2.77849,2.03288 -3.25768,3.56981 -0.47535,1.52458 -0.2354,3.03929 0.31936,4.39249 1.41759,3.61077 4.39602,5.60104 6.41821,7.136 0.87447,0.67947 2.79294,2.0918 4.67982,3.73259 0.95138,0.8273 1.86016,1.69284 2.48615,2.39624 0.49395,0.55502 0.76437,1.08184 0.80667,1.10174 l 5.2e-4,5.1e-4 h 5.1e-4 5.2e-4 5.2e-4 l 5.1e-4,-5.1e-4 h 5.2e-4 l 5.2e-4,-5.2e-4 v -5.2e-4 l 5.1e-4,-5.1e-4 v -5.2e-4 c 0,0 5.2e-4,-5.2e-4 5.2e-4,-5.2e-4 0.29032,1.12292 0.31159,2.66915 0.29559,2.70837 -0.28028,0.68671 -0.90913,1.52883 -0.96273,3.39255 -0.0268,0.93186 0.28826,2.23276 1.11052,3.22565 0.82227,0.99288 1.90451,1.56009 2.8913,1.90376 5.00006,1.74136 10.99023,2.11654 16.29616,2.03811 2.65297,-0.0392 5.10947,-0.21303 7.16649,-0.48886 2.05702,-0.27582 3.35079,-0.24199 5.44721,-1.50326 0.94635,-0.56936 1.8487,-1.31276 2.54507,-2.42466 0.69637,-1.1119 1.11424,-2.75117 0.64285,-4.33204 l -0.0584,-0.19482 -0.078,-0.1881 c -0.59969,-1.40711 -0.90109,-2.51688 -0.8537,-3.26492 v -0.007 -0.004 c 0.0757,-1.25167 1.11344,-2.96116 2.7125,-4.97541 -0.0196,0.0229 -0.0388,0.0463 -0.0584,0.0693 l 0.0662,-0.0796 c -0.002,0.002 -0.003,0.005 -0.005,0.007 0.006,-0.008 0.0123,-0.0159 0.0186,-0.0238 1.89816,-2.22833 3.70386,-4.56386 5.30923,-7.05073 2.13741,-3.20883 4.23607,-6.35621 5.06584,-9.55342 0.57682,-2.22259 1.7119,-5.26925 1.35599,-8.79843 -0.22738,-2.2546 -2.25684,-4.36375 -4.34443,-4.9134 -1.14713,-0.30203 -2.32018,-0.28772 -3.45664,0.0248 0.011,-1.80883 -0.13714,-3.2579 -0.33538,-4.36046 -0.27124,-1.50852 -0.94467,-2.97856 -2.20142,-4.07624 -1.25674,-1.09768 -2.99359,-1.61008 -4.43073,-1.6061 -1.43714,0.004 -2.62977,0.38232 -3.6587,0.95033 -0.34821,0.19223 -0.56567,0.67253 -0.88883,0.92139 -0.0871,-0.42624 -0.0214,-0.87313 -0.14418,-1.29036 l -0.0233,-0.0708 -0.0274,-0.0744 c -0.45089,-1.31771 -1.17118,-2.5524 -2.38073,-3.52744 -1.05836,-0.85315 -2.56649,-1.41886 -4.05609,-1.46089 z m -0.0796,3.80907 c 1.01999,0.0184 1.98408,0.76419 2.51406,2.31304 0.81079,2.7549 0.48019,7.24325 0.0884,10.62726 -0.0319,3.5408 -2.11016,9.42951 -0.78755,12.65194 1.77635,-0.39936 3.58866,-8.66397 4.18062,-10.6438 0.94377,-3.03998 1.57352,-6.16969 2.87011,-9.11107 0.56952,-1.29199 4.2155,-2.52113 4.88549,1.2051 0.33844,1.88229 0.59986,4.51502 -0.27027,9.27281 -0.67731,3.70349 -1.42218,7.39778 -2.08204,11.10372 1.15249,0.27738 3.26229,-4.14363 4.38216,-6.37842 0.92115,-1.83823 2.0707,-5.14104 3.01429,-6.24717 0.70302,-0.7669 2.87077,-0.62001 3.05717,1.22835 0.24511,2.43044 -0.64505,5.19623 -1.26193,7.57318 -0.52255,2.01346 -2.52145,5.37579 -4.59094,8.48269 -1.51476,2.3486 -3.24571,4.59084 -5.09529,6.75618 -1.67992,2.11138 -3.3704,4.41367 -3.52899,7.03523 -0.10618,1.67604 0.46575,3.30926 1.12913,4.86585 0.30404,1.01963 -0.45945,1.9802 -1.45159,2.5771 -2.29095,1.37831 -16.99355,2.39472 -25.09821,-0.42788 -2.02,-0.7035 -1.27159,-1.99839 -0.60616,-3.62872 0.66523,-1.62988 0.17915,-3.76884 -0.18501,-5.07514 -0.786,-2.81961 -7.94898,-8.04359 -9.33276,-9.12089 -2.06307,-1.566 -4.28275,-3.20463 -5.17643,-5.51543 -1.33781,-3.22647 1.89657,-4.53827 5.45083,-2.65255 2.17529,1.092 3.68348,2.86012 5.44928,4.35064 1.58481,1.23691 3.37079,1.76873 4.18476,-1.03766 0.45489,-1.66684 0.21144,-3.38794 0.30127,-5.08083 -0.0502,-3.08849 -0.52356,-6.15892 -0.84025,-9.23458 -0.34428,-3.33567 -0.72443,-6.66968 -0.94827,-10.01282 -0.24778,-3.70088 2.897,-5.53488 4.88446,-2.95693 1.13974,1.36699 2.21396,2.95047 3.60546,10.88564 0.59318,3.46081 1.16098,6.95038 2.55282,10.25209 2.36612,-2.49203 2.28013,-7.76208 2.95744,-10.98486 0.36287,-1.71057 1.67161,-7.47543 2.61535,-10.44225 0.74894,-1.7374 1.97664,-2.6507 3.13262,-2.62982 z m -22.89989,45.11869 c 0.0157,0.0565 0.0223,0.0878 0.0202,0.0982 -0.008,-0.0312 -0.0117,-0.0677 -0.0202,-0.0982 z"
       style="baseline-shift:baseline;display:inline;overflow:visible;vector-effect:none;fill-rule:evenodd;stroke:none;stroke-linecap:round;paint-order:stroke markers fill;enable-background:accumulate;stop-color:#000000;stop-opacity:1"
       id="path181" /><path
       d="m 400.30373,519.15539 c -1.15598,-0.0209 -2.38368,0.89242 -3.13262,2.62982 -0.94374,2.96682 -2.25248,8.73168 -2.61535,10.44225 -0.67731,3.22278 -0.59132,8.49283 -2.95744,10.98486 -1.39184,-3.30171 -1.95964,-6.79128 -2.55282,-10.25209 -1.3915,-7.93517 -2.46572,-9.51865 -3.60546,-10.88564 -1.98746,-2.57795 -5.13224,-0.74395 -4.88446,2.95693 0.22384,3.34314 0.60399,6.67715 0.94827,10.01282 0.31669,3.07566 0.79006,6.14609 0.84025,9.23458 -0.0898,1.69289 0.15362,3.41399 -0.30127,5.08083 -0.81397,2.80639 -2.59995,2.27457 -4.18476,1.03766 -1.7658,-1.49052 -3.27399,-3.25864 -5.44928,-4.35064 -3.55426,-1.88572 -6.78864,-0.57392 -5.45083,2.65255 0.89368,2.3108 3.11336,3.94943 5.17643,5.51543 1.38378,1.0773 8.54676,6.30128 9.33276,9.12089 0.36416,1.3063 0.85024,3.44526 0.18501,5.07514 -0.66543,1.63033 -1.41384,2.92522 0.60616,3.62872 8.10466,2.8226 22.80726,1.80619 25.09821,0.42788 0.99214,-0.5969 1.75563,-1.55747 1.45159,-2.5771 -0.66338,-1.55659 -1.23531,-3.18981 -1.12913,-4.86585 0.15859,-2.62156 1.84907,-4.92385 3.52899,-7.03523 1.84958,-2.16534 3.58053,-4.40758 5.09529,-6.75618 2.06949,-3.1069 4.06839,-6.46923 4.59094,-8.48269 0.61688,-2.37695 1.50704,-5.14274 1.26193,-7.57318 -0.1864,-1.84836 -2.35415,-1.99525 -3.05717,-1.22835 -0.94359,1.10613 -2.09314,4.40894 -3.01429,6.24717 -1.11987,2.23479 -3.22967,6.6558 -4.38216,6.37842 0.65986,-3.70594 1.40473,-7.40023 2.08204,-11.10372 0.87013,-4.75779 0.60871,-7.39052 0.27027,-9.27281 -0.66999,-3.72623 -4.31597,-2.49709 -4.88549,-1.2051 -1.29659,2.94138 -1.92634,6.07109 -2.87011,9.11107 -0.59196,1.97983 -2.40427,10.24444 -4.18062,10.6438 -1.32261,-3.22243 0.75566,-9.11114 0.78755,-12.65194 0.39182,-3.38401 0.72242,-7.87236 -0.0884,-10.62726 -0.52998,-1.54885 -1.49407,-2.29462 -2.51406,-2.31304 z"
       style="baseline-shift:baseline;display:inline;overflow:visible;vector-effect:none;fill:#f7caaa;fill-rule:evenodd;stroke:none;stroke-linecap:round;paint-order:stroke markers fill;enable-background:accumulate;stop-color:#000000;stop-opacity:1"
       id="path180" /></g></svg>
