<?xml version="1.0" encoding="UTF-8" standalone="no"?>
<!-- Created with Inkscape (http://www.inkscape.org/) -->

<svg
   width="512"
   height="512"
   viewBox="0 0 135.46666 135.46667"
   version="1.1"
   id="svg1"
   xml:space="preserve"
   xmlns="http://www.w3.org/2000/svg"
   xmlns:svg="http://www.w3.org/2000/svg"><defs
     id="defs1" /><g
     transform="matrix(0.26458332,0,0,0.26458334,-0.411943,0.03925988)"
     id="g1"
     style="stroke:#000000;stroke-width:30.2362;stroke-linecap:round;stroke-linejoin:round;stroke-dasharray:none;stroke-opacity:1;paint-order:stroke fill markers"><path
       d="m 302.56655,256.35528 c 0,22.91277 -19.37744,42.44472 -45.87103,42.44472 -25.40571,0 -44.14857,-18.23759 -44.14857,-43.45201 0,-24.07317 20.89721,-43.23292 44.57919,-43.23292 22.42986,0 45.44041,17.77804 45.44041,44.24021 M 94.958838,255.85163 c 55.512092,73.19651 109.523852,90.03419 162.035292,90.70572 54.01176,0.67152 108.21106,-16.16616 162.59791,-90.70572 -54.76193,-74.53957 -108.35225,-91.98622 -161.98893,-91.31469 -52.51144,0.67153 -107.13218,18.11818 -162.644272,91.31469 m -59.637989,0 C 111.46243,156.12978 185.9625,125.25258 257.60311,124.24528 331.11912,123.238 404.77632,154.1152 479.79265,255.85163 405.1514,357.58806 330.88522,387.85629 256.99413,386.849 185.35352,385.84171 111.46243,355.57348 35.320849,255.85163"
       fill="#ffffcc"
       fill-rule="evenodd"
       stroke="none"
       id="path1-9"
       style="fill:#ffffa2;fill-opacity:1;stroke:#000000;stroke-width:30.2362;stroke-linecap:round;stroke-linejoin:round;stroke-dasharray:none;stroke-opacity:1;paint-order:stroke fill markers" /></g></svg>
