<?xml version="1.0" encoding="UTF-8" standalone="no"?>
<!-- Created with Inkscape (http://www.inkscape.org/) -->

<svg
   width="512"
   height="512"
   viewBox="0 0 135.46666 135.46667"
   version="1.1"
   id="svg1"
   xml:space="preserve"
   xmlns="http://www.w3.org/2000/svg"
   xmlns:svg="http://www.w3.org/2000/svg"><defs
     id="defs1" /><g
     id="layer3"
     transform="translate(-290.93334,-291.21346)"><path
       d="m 326.18733,293.76346 c -3.56926,0 -6.58935,2.35801 -7.74217,5.55884 a 4.0004,4.0004 0 0 0 -1.36684,-0.71469 c -1.36727,-0.16298 -2.77608,-0.2509 -4.20129,-0.24804 -4.98256,0.01 -10.25629,1.03147 -14.457,4.25762 -4.20071,3.22615 -6.74153,8.94524 -5.88698,15.85743 1.33042,10.76116 6.85305,18.48617 12.94133,23.47867 6.08828,4.99251 12.62802,7.43119 16.99638,8.35918 a 4.0004,4.0004 0 0 0 2.67012,-0.89039 c 2.90887,5.21887 6.85902,10.00013 12.36307,13.89838 3.57542,2.5323 6.06624,4.36593 7.44709,6.07818 1.38086,1.71224 2.04299,3.29338 2.08204,6.82181 a 4.0004,4.0004 0 0 0 2.41639,3.3047 4.0004,4.0004 0 0 0 -2.17971,1.69964 c -0.90559,3.59536 -2.29681,5.79217 -4.18372,7.23005 -1.88691,1.43788 -4.53603,2.29743 -8.59586,2.27583 -2.66908,-0.0152 -5.20692,2.26156 -5.20692,5.12269 v 9.11727 h -4.59403 c -2.94951,0 -5.56607,2.46568 -5.56607,5.51956 v 9.28315 c 0,3.05393 2.61478,5.52163 5.56607,5.52163 h 33.9788 22.65495 a 4.0004,4.0004 0 0 1 -0.97359,-2.61534 v -1.38442 H 358.667 324.69026 c -0.86892,0 -1.56786,-0.67849 -1.56786,-1.52135 v -9.28315 c 0,-0.84289 0.69894,-1.52084 1.56786,-1.52084 h 8.59276 v -3.77703 -9.33948 c 0,-0.63525 0.53014,-1.12642 1.18494,-1.12242 9.32219,0.0496 14.56456,-4.12676 16.68115,-12.52998 h 7.51789 5.98568 a 4.0004,4.0004 0 0 1 1.86707,-0.4625 h 3.67988 c -0.0462,-0.16798 -0.0915,-0.33918 -0.1354,-0.51367 a 4.0004,4.0004 0 0 0 -2.17971,-1.69964 4.0004,4.0004 0 0 0 2.41639,-3.3047 c 0.039,-3.52842 0.70118,-5.10957 2.08204,-6.82181 1.38086,-1.71225 3.87167,-3.54587 7.4471,-6.07818 5.50405,-3.89825 9.4542,-8.67951 12.36307,-13.89838 a 4.0004,4.0004 0 0 0 2.67012,0.89039 c 4.36835,-0.92799 10.90811,-3.36667 16.99638,-8.35918 6.08828,-4.9925 11.61091,-12.71751 12.94132,-23.47867 0.85456,-6.91219 -1.68627,-12.63127 -5.88698,-15.85743 -4.20016,-3.22575 -9.47291,-4.24736 -14.45493,-4.25762 h -0.002 c -1.42652,-0.003 -2.83564,0.0852 -4.2013,0.24804 a 4.0004,4.0004 0 0 0 -1.36684,0.71469 c -1.15283,-3.20085 -4.17293,-5.55884 -7.74216,-5.55884 h -32.47864 z m -5.2e-4,3.99924 h 32.48019 32.48018 c 2.38006,0 4.2716,1.87216 4.3093,4.18063 0.34502,21.08804 1.0095,44.69302 -17.9374,58.11221 -7.13339,5.05223 -11.12686,7.79461 -11.21896,16.12047 h -7.63312 -7.63313 c -0.0922,-8.32586 -4.08558,-11.06824 -11.21895,-16.12047 -18.9469,-13.41919 -18.28245,-37.02417 -17.93741,-58.11221 0.0378,-2.30847 1.92925,-4.18063 4.3093,-4.18063 z m -13.30203,4.59714 c 1.25513,-0.003 2.50585,0.075 3.71915,0.21962 v 8.85786 c -0.50872,-0.11264 -1.00219,-0.20544 -1.47898,-0.27854 -7.15155,-1.09712 -10.64865,2.23606 -8.65632,9.65523 2.48091,9.23865 7.9284,12.62523 13.20385,15.47296 l 3.62975,10.11256 c -7.43863,-1.58022 -24.40559,-9.05331 -26.7994,-28.41584 -1.44679,-11.70264 7.59594,-15.60615 16.38195,-15.62385 z m 91.56443,0 c 8.78601,0.0176 17.82876,3.92069 16.38195,15.62333 -2.39381,19.36254 -19.36078,26.83613 -26.7994,28.41636 l 1.81488,-5.05654 1.81488,-5.05602 c 5.27547,-2.84773 10.7229,-6.23431 13.20384,-15.47296 2.12515,-7.91377 -1.99593,-11.17864 -10.1353,-9.37669 v -8.85786 c 1.21328,-0.14464 2.46402,-0.22262 3.71915,-0.21962 z m -86.58231,12.48761 h 5.2e-4 c 0.0786,5.52837 0.41435,11.06103 1.31827,16.55868 -3.94014,-2.29121 -7.04695,-4.90049 -8.85373,-11.62875 -0.80522,-2.99853 -0.28211,-3.99625 -0.0429,-4.25194 0.23925,-0.25569 1.35116,-0.85405 4.23023,-0.41237 0.38216,0.0586 0.79087,0.1352 1.22112,0.23047 a 4.0004,4.0004 0 0 0 2.12648,-0.49609 z m 81.60226,5.2e-4 a 4.0004,4.0004 0 0 0 2.12442,0.49557 c 3.43287,-0.75999 5.09103,-0.14148 5.39863,0.13126 0.3076,0.27274 0.86847,1.1042 0.01,4.30258 -1.8068,6.72827 -4.91307,9.33754 -8.85321,11.62875 0.90392,-5.49761 1.24178,-11.02984 1.32034,-16.55816 z"
       style="baseline-shift:baseline;display:inline;overflow:visible;vector-effect:none;fill-rule:evenodd;stroke:none;stroke-linecap:round;stroke-linejoin:round;stroke-miterlimit:2;paint-order:stroke fill markers;enable-background:accumulate;stop-color:#000000;stop-opacity:1"
       id="path185" /><path
       d="m 326.18681,297.7627 c -2.38005,0 -4.27155,1.87216 -4.3093,4.18063 -0.34504,21.08804 -1.00949,44.69302 17.93741,58.11221 7.13337,5.05223 11.1268,7.79461 11.21895,16.12047 h 7.63313 7.63312 c 0.0921,-8.32586 4.08557,-11.06824 11.21896,-16.12047 18.9469,-13.41919 18.28242,-37.02417 17.9374,-58.11221 -0.0377,-2.30847 -1.92924,-4.18063 -4.3093,-4.18063 H 358.667 Z m -13.30203,4.59714 c -8.78601,0.0177 -17.82874,3.92121 -16.38195,15.62385 2.39381,19.36253 19.36077,26.83562 26.7994,28.41584 l -3.62975,-10.11256 c -5.27545,-2.84773 -10.72294,-6.23431 -13.20385,-15.47296 -1.99233,-7.41917 1.50477,-10.75235 8.65632,-9.65523 0.47679,0.0731 0.97026,0.1659 1.47898,0.27854 v -8.85786 c -1.2133,-0.14463 -2.46402,-0.22214 -3.71915,-0.21962 z m 91.56443,0 c -1.25513,-0.003 -2.50587,0.075 -3.71915,0.21962 v 8.85786 c 8.13937,-1.80195 12.26045,1.46292 10.1353,9.37669 -2.48094,9.23865 -7.92837,12.62523 -13.20384,15.47296 l -1.81488,5.05602 -1.81488,5.05654 c 7.43862,-1.58023 24.40559,-9.05382 26.7994,-28.41636 1.44681,-11.70264 -7.59594,-15.60571 -16.38195,-15.62333 z m -53.3001,79.84112 c -2.11659,8.40322 -7.35896,12.57959 -16.68115,12.52998 -0.6548,-0.004 -1.18494,0.48717 -1.18494,1.12242 v 9.33948 3.77703 h -8.59276 c -0.86892,0 -1.56786,0.67795 -1.56786,1.52084 v 9.28315 c 0,0.84286 0.69894,1.52135 1.56786,1.52135 h 33.97674 21.68239 v -11.92588 h -13.82964 a 4.0004,4.0004 0 0 1 -4.00028,-4.00027 v -19.63085 a 4.0004,4.0004 0 0 1 2.13321,-3.53725 H 358.667 Z"
       style="baseline-shift:baseline;display:inline;overflow:visible;vector-effect:none;fill:#ffffff;fill-rule:evenodd;stroke:none;stroke-linecap:round;stroke-linejoin:round;stroke-miterlimit:2;paint-order:stroke fill markers;enable-background:accumulate;stop-color:#000000;stop-opacity:1"
       id="path184" /><path
       d="m 384.34967,364.42582 a 4.0004,4.0004 0 0 0 -4.00028,3.99975 v 13.31289 h -13.82964 a 4.0004,4.0004 0 0 0 -4.00028,3.99975 v 19.63085 a 4.0004,4.0004 0 0 0 4.00028,4.00027 h 13.82964 v 13.3103 a 4.0004,4.0004 0 0 0 4.00028,4.00027 h 20.22047 a 4.0004,4.0004 0 0 0 4.00027,-4.00027 v -13.3103 h 13.83016 a 4.0004,4.0004 0 0 0 3.99976,-4.00027 v -19.63085 a 4.0004,4.0004 0 0 0 -3.99976,-3.99975 h -13.83016 v -13.31289 a 4.0004,4.0004 0 0 0 -4.00027,-3.99975 z m 0,4.00027 h 20.21995 v 17.31109 h 17.83044 v 19.63136 h -17.83044 v 17.3116 h -20.21995 v -17.3116 h -17.83044 v -19.63136 h 17.83044 z"
       style="baseline-shift:baseline;display:inline;overflow:visible;vector-effect:none;fill-rule:evenodd;stroke:none;stroke-linecap:round;stroke-linejoin:round;stroke-miterlimit:2;paint-order:stroke fill markers;enable-background:accumulate;stop-color:#000000;stop-opacity:1"
       id="path179" /><path
       d="m 384.34967,368.42609 v 17.31109 h -17.83044 v 19.63136 h 17.83044 v 17.3116 h 20.21995 v -17.3116 h 17.83044 v -19.63136 h -17.83044 v -17.31109 z"
       style="baseline-shift:baseline;display:inline;overflow:visible;vector-effect:none;fill:#6ac5fe;fill-rule:evenodd;stroke:none;stroke-linecap:round;stroke-linejoin:round;stroke-miterlimit:2;paint-order:stroke fill markers;enable-background:accumulate;stop-color:#000000;stop-opacity:1"
       id="path178" /></g></svg>
