<?xml version="1.0" encoding="UTF-8" standalone="no"?>
<!-- Created with Inkscape (http://www.inkscape.org/) -->

<svg
   width="512"
   height="512"
   viewBox="0 0 135.46666 135.46667"
   version="1.1"
   id="svg1"
   xml:space="preserve"
   xmlns="http://www.w3.org/2000/svg"
   xmlns:svg="http://www.w3.org/2000/svg"><defs
     id="defs1" /><g
     id="layer2"
     transform="translate(-145.46666,-291.21346)"><path
       id="path24-5-3-6"
       style="fill:#ffffff;fill-opacity:1;stroke:#000000;stroke-width:8;stroke-linecap:round;stroke-linejoin:round;stroke-dasharray:none;stroke-opacity:1;paint-order:stroke fill markers"
       d="m 211.71547,297.73242 c -14.48141,0.17226 -20.01898,14.3872 -20.01898,22.9167 h 38.7569 c 0,-8.5295 -4.2565,-23.08896 -18.73792,-22.9167 z m -42.5715,27.27948 -0.0644,8.7043 h 83.33877 l 0.0644,-8.7043 z m -15.81646,13.54261 -0.17958,13.96755 h 116.41551 l 0.18081,-13.96755 z m 10.06076,18.63663 -0.0972,7.15123 h 9.09943 l 0.0972,-7.15123 z m 86.49034,-0.34453 -0.0972,7.15123 h 9.09942 l 0.0972,-7.15123 z m -96.73078,11.9367 v 6.80317 h 116.41551 v -6.80317 z m 2.23442,11.52917 -0.10574,16.8329 h 9.10049 l 0.10472,-16.8329 z m 22.86911,0.1218 -0.10472,16.8329 h 9.09839 l 0.10574,-16.8329 z m 56.93863,-0.1218 -0.10575,16.8329 h 9.09947 l 0.10573,-16.8329 z m 23.76984,0 -0.10574,16.8329 h 9.09942 l 0.10473,-16.8329 z m -104.58805,21.4719 v 5.74686 l 30.68062,0.12143 v 13.67413 h 6.78466 v -19.42001 z m 115.19156,0 -32.53876,0.12242 h -6.53208 v 5.74587 13.67414 h 6.53208 v -13.67414 l 32.53876,-0.12142 z" /><path
       id="path17-5"
       style="display:inline;fill:#6ac5fe;fill-opacity:1;fill-rule:evenodd;stroke:#000000;stroke-width:8;stroke-linecap:round;stroke-linejoin:round;stroke-miterlimit:2;stroke-dasharray:none;stroke-opacity:1;paint-order:stroke fill markers"
       d="m 238.88318,368.42591 v 17.31148 h -17.83042 v 19.63125 h 17.83042 v 17.31149 h 20.21971 v -17.31149 h 17.83043 v -19.63125 h -17.83043 v -17.31148 z" /></g></svg>
