<?xml version="1.0" encoding="UTF-8" standalone="no"?>
<!-- Created with Inkscape (http://www.inkscape.org/) -->

<svg
   width="512"
   height="512"
   viewBox="0 0 135.46666 135.46667"
   version="1.1"
   id="svg1"
   xml:space="preserve"
   xmlns="http://www.w3.org/2000/svg"
   xmlns:svg="http://www.w3.org/2000/svg"><defs
     id="defs1" /><g
     id="layer2"
     transform="translate(-145.46667)"><path
       d="m 211.66822,2.5197428 c -8.54316,0.1016233 -14.93416,4.6025571 -18.68775,10.0562342 -3.7536,5.453676 -5.2834,11.729051 -5.2834,16.859436 a 4.0004,4.0004 0 0 0 0.15038,0.363285 h -18.70274 a 4.0004,4.0004 0 0 0 -4.00027,3.970817 l -0.0641,8.703345 a 4.0004,4.0004 0 0 0 0.35347,0.868681 h -12.10572 a 4.0004,4.0004 0 0 0 -3.99976,3.947562 L 149.1485,61.25776 a 4.0004,4.0004 0 0 0 3.99975,4.050915 h 6.50193 a 4.0004,4.0004 0 0 0 -0.26148,0.61495 l -0.0977,7.150468 a 4.0004,4.0004 0 0 0 0.19947,0.496093 h -6.34173 a 4.0004,4.0004 0 0 0 -4.00027,4.000273 v 6.802686 a 4.0004,4.0004 0 0 0 2.74608,3.480407 4.0004,4.0004 0 0 0 -0.51159,1.220598 l -0.10542,16.83205 a 4.0004,4.0004 0 0 0 0.67954,1.66398 4.0004,4.0004 0 0 0 -1.58595,3.00033 v 5.74797 a 4.0004,4.0004 0 0 0 3.98426,3.99976 l 26.69759,0.10542 v 9.68985 a 4.0004,4.0004 0 0 0 3.99976,3.99975 h 6.78511 a 4.0004,4.0004 0 0 0 4.00028,-3.99975 V 110.6935 a 4.0004,4.0004 0 0 0 -3.98839,-4.00027 l -0.86351,-0.002 a 4.0004,4.0004 0 0 0 0.25786,-0.61288 l 0.10749,-16.832048 a 4.0004,4.0004 0 0 0 -0.3576,-0.873332 h 40.49055 a 4.0004,4.0004 0 0 0 -0.29507,0.70125 l -0.061,9.767879 a 4.230558,4.230558 0 0 1 3.58841,0.95498 l 0.40359,0.349851 0.0693,-11.047906 h 9.0997 l -0.0997,15.813506 4.04213,-6.659026 0.0574,-9.128642 A 4.0004,4.0004 0 0 0 247.98228,88.3729 h 6.24768 l 2.42828,-3.999755 H 153.14776 v -6.803203 h 107.64046 l 1.40921,-2.321822 a 4.230558,4.230558 0 0 1 1.91306,-1.677934 h -1.54202 a 4.0004,4.0004 0 0 0 0.31264,-0.732255 l 0.0977,-7.150468 a 4.0004,4.0004 0 0 0 -0.15245,-0.378788 h 6.73654 a 4.0004,4.0004 0 0 0 3.99976,-3.947563 l 0.1819,-13.968656 a 4.0004,4.0004 0 0 0 -4.00027,-4.050915 h -13.66583 a 4.0004,4.0004 0 0 0 0.33951,-0.80822 l 0.0646,-8.705412 a 4.0004,4.0004 0 0 0 -4.00028,-4.029211 h -18.17925 a 4.0004,4.0004 0 0 0 0.15038,-0.363285 c 0,-4.930128 -1.11929,-11.254561 -4.52944,-16.812411 C 226.5137,7.0652015 220.25382,2.4176144 211.66822,2.5197428 Z m 0.047,3.9992391 C 226.19666,6.3467211 230.45363,20.90591 230.45363,29.435413 h -38.75732 c 0,-8.529503 5.53752,-22.7441706 20.01893,-22.9164311 z M 169.1442,33.798454 h 83.33858 l -0.0646,8.704378 H 169.0796 Z m -15.81661,13.542842 h 116.41667 l -0.18087,13.967107 H 153.14776 Z m 22.86992,17.967379 h 69.79678 a 4.0004,4.0004 0 0 0 -0.11524,0.269234 l -0.0977,7.152535 a 4.0004,4.0004 0 0 0 0.33796,0.839742 h -69.89289 a 4.0004,4.0004 0 0 0 0.16433,-0.386539 l 0.0977,-7.152535 a 4.0004,4.0004 0 0 0 -0.29094,-0.722437 z m 73.68129,0.324528 h 9.09919 l -0.0971,7.150985 h -9.09919 z m -86.49032,0.344682 h 9.09918 l -0.0971,7.150985 h -9.09919 z m 104.12904,7.592301 a 4.230558,4.230558 0 0 1 1.49603,1.105359 l 4.54908,5.264795 v -2.369881 a 4.0004,4.0004 0 0 0 -4.00027,-4.000273 z M 168.17578,88.3729 h 6.42183 a 4.0004,4.0004 0 0 0 -0.34571,0.822172 l -0.10542,16.834118 a 4.0004,4.0004 0 0 0 0.24804,0.60771 l -6.29315,-0.0217 a 4.0004,4.0004 0 0 0 0.27543,-0.65836 l 0.10542,-16.833598 A 4.0004,4.0004 0 0 0 168.17578,88.3729 Z m -12.79353,0.726054 h 9.0997 l -0.1049,16.833086 h -9.10074 z m 22.86889,0.121957 h 9.0997 l -0.10594,16.832559 h -9.09815 z m 93.71934,14.037899 -5.56865,7.3241 3.16156,-0.0119 v 5.74693 l -7.54321,0.0279 -3.04994,4.01164 10.60814,-0.0393 a 4.0004,4.0004 0 0 0 3.98425,-3.99976 v -5.74797 a 4.0004,4.0004 0 0 0 -2.18178,-3.24838 4.0004,4.0004 0 0 0 0.57258,-1.36529 z m -30.17955,2.67323 1.16633,1.0113 0.61392,-1.0113 z m -87.41896,4.63899 37.4649,0.12247 v 19.42001 h -6.7846 V 116.4394 l -30.6803,-0.12144 z m 72.12015,13.59297 v 5.94899 a 4.0004,4.0004 0 0 0 4.00027,4.00027 h 6.53294 a 4.0004,4.0004 0 0 0 2.96054,-1.31 l -4.20078,-2.68975 h -5.2927 v -3.38843 z"
       style="baseline-shift:baseline;display:inline;overflow:visible;vector-effect:none;stroke:none;stroke-linecap:round;stroke-linejoin:round;paint-order:stroke fill markers;enable-background:accumulate;stop-color:#000000;stop-opacity:1"
       id="path205" /><path
       d="M 211.71524,6.5189819 C 197.23383,6.6912424 191.69631,20.90591 191.69631,29.435413 h 38.75732 c 0,-8.529503 -4.25697,-23.0886919 -18.73839,-22.9164311 z m -42.57104,27.2794721 -0.0646,8.704378 h 83.33858 l 0.0646,-8.704378 z m -15.81661,13.542842 -0.17983,13.967107 h 116.41563 l 0.18087,-13.967107 z m 96.55121,18.291907 -0.0971,7.150985 h 9.09919 l 0.0971,-7.150985 z m -86.49032,0.344682 -0.0972,7.150985 h 9.09919 l 0.0971,-7.150985 z m -10.24072,11.592057 v 6.803203 h 103.51048 l 4.12998,-6.803203 z m 2.23449,11.529012 -0.10594,16.833086 h 9.10074 l 0.1049,-16.833086 z m 79.80753,0 -0.0693,11.047906 6.6704,5.78518 h 1.78025 l 0.61857,-1.01958 0.0997,-15.813506 z m -56.93864,0.121957 -0.10439,16.832559 h 9.09815 l 0.10594,-16.832559 z m -23.87917,21.350119 v 5.74693 l 30.6803,0.12144 v 13.67411 h 6.7846 V 110.6935 Z m 115.19142,0 -3.16156,0.0119 -4.38165,5.76296 7.54321,-0.0279 z m -39.071,16.15405 v 3.38843 h 5.2927 z"
       style="baseline-shift:baseline;display:inline;overflow:visible;vector-effect:none;fill:#ffffff;stroke:none;stroke-linecap:round;stroke-linejoin:round;paint-order:stroke fill markers;enable-background:accumulate;stop-color:#000000;stop-opacity:1"
       id="path204" /><path
       d="m 266.02924,73.217236 a 4.230558,4.230558 0 0 0 -0.56844,0.0093 4.230558,4.230558 0 0 0 -3.26337,2.021582 l -19.24017,31.695222 -8.24032,-7.146333 a 4.230558,4.230558 0 0 0 -6.02341,0.489893 l -10.66239,12.81266 a 4.230558,4.230558 0 0 0 0.971,6.26938 l 24.10137,15.43007 a 4.230558,4.230558 0 0 0 5.64823,-1.00201 l 31.3185,-41.191285 a 4.230558,4.230558 0 0 0 -0.16588,-5.32629 l -10.89081,-12.60388 a 4.230558,4.230558 0 0 0 -2.98431,-1.458309 z m -0.21549,4.225065 10.88977,12.602849 -31.31901,41.19128 -24.10189,-15.43058 10.6624,-12.81265 12.02717,10.43088 z"
       style="baseline-shift:baseline;display:inline;overflow:visible;vector-effect:none;fill-rule:evenodd;stroke:none;stroke-linecap:round;stroke-linejoin:round;stroke-miterlimit:2;paint-order:stroke fill markers;enable-background:accumulate;stop-color:#000000;stop-opacity:1"
       id="path191" /><path
       d="m 265.81375,77.442301 -21.84156,35.981779 -12.02717,-10.43088 -10.6624,12.81265 24.10189,15.43058 31.31901,-41.19128 z"
       style="baseline-shift:baseline;display:inline;overflow:visible;vector-effect:none;fill:#08af50;fill-rule:evenodd;stroke:none;stroke-linecap:round;stroke-linejoin:round;stroke-miterlimit:2;paint-order:stroke fill markers;enable-background:accumulate;stop-color:#000000;stop-opacity:1"
       id="path190" /></g></svg>
