<?xml version="1.0" encoding="UTF-8" standalone="no"?>
<!-- Created with Inkscape (http://www.inkscape.org/) -->

<svg
   width="512"
   height="512"
   viewBox="0 0 135.46666 135.46667"
   version="1.1"
   id="svg1"
   xml:space="preserve"
   xmlns="http://www.w3.org/2000/svg"
   xmlns:svg="http://www.w3.org/2000/svg"><defs
     id="defs1" /><path
     d="m 66.792387,2.1138701 a 3.8136525,4.1962956 0 0 0 -3.31607,2.12442 L 31.536147,66.070167 a 3.8136525,4.1962956 0 0 0 0,4.146 l 31.86885,61.753343 a 3.8132712,4.1958761 0 0 0 1.32189,1.13326 3.8132712,4.1958761 0 0 0 0.11007,0.44235 3.8132712,4.1958761 0 0 0 0.48472,0.0667 3.8132712,4.1958761 0 0 0 1.39372,0.1943 3.8132712,4.1958761 0 0 0 1.40198,-0.1912 3.8132712,4.1958761 0 0 0 0.48731,-0.0667 3.8132712,4.1958761 0 0 0 0.11317,-0.44545 3.8132712,4.1958761 0 0 0 1.3193,-1.13016 L 101.97475,70.140207 a 3.8136525,4.1962956 0 0 0 0.003,-4.14548 L 70.108877,4.2382901 a 3.8136525,4.1962956 0 0 0 -3.31608,-2.12442 z m -0.001,4.19664 31.86937,61.7548869 -31.93965,61.832923 -31.86937,-61.755413 z"
     style="baseline-shift:baseline;display:inline;overflow:visible;vector-effect:none;fill-rule:evenodd;stroke:none;enable-background:accumulate;stop-color:#000000;stop-opacity:1"
     id="path161" /><path
     d="M 66.791357,6.3105101 34.851707,68.142907 66.721077,129.89832 98.660727,68.065397 Z"
     style="baseline-shift:baseline;display:inline;overflow:visible;vector-effect:none;fill:#cccccc;fill-rule:evenodd;stroke:none;enable-background:accumulate;stop-color:#000000;stop-opacity:1"
     id="path160" /></svg>
