<?xml version="1.0" encoding="UTF-8" standalone="no"?>
<!-- Created with Inkscape (http://www.inkscape.org/) -->

<svg
   width="512"
   height="512"
   viewBox="0 0 135.46666 135.46667"
   version="1.1"
   id="svg1"
   xml:space="preserve"
   xmlns="http://www.w3.org/2000/svg"
   xmlns:svg="http://www.w3.org/2000/svg"><defs
     id="defs1" /><g
     id="layer1"
     transform="translate(-6.5906178e-6,-144.92314)"><path
       d="m 76.996334,173.73513 0.427364,0.30024 c 0.115585,-0.0862 0.229417,-0.17279 0.341581,-0.25993 -0.256392,-0.0139 -0.512982,-0.0275 -0.768945,-0.0403 z m -19.197278,0.0982 c -0.171013,0.0102 -0.341814,0.0208 -0.51263,0.0315 0.07439,0.0571 0.14934,0.11389 0.225309,0.17053 z m 50.364364,4.26124 c -0.7635,1.17152 -1.61281,2.3441 -2.54454,3.52226 5.96902,1.31763 12.05505,2.97598 18.26503,5.009 -2.28788,13.42889 -5.86287,25.21185 -10.14357,35.42729 0.93982,1.59957 1.71629,3.17496 2.30994,4.72685 5.00941,-11.21488 9.19687,-24.34481 11.77603,-39.48338 a 4.0004,4.0004 0 0 0 -2.69751,-4.4726 c -5.75261,-1.88328 -11.40667,-3.45111 -16.96538,-4.72942 z m -81.252918,0.2067 c -5.698775,1.2938 -11.282567,2.81128 -16.75815,4.5036 a 4.0004,4.0004 0 0 0 -2.8065471,4.12482 c 1.246052,16.33806 5.2743481,30.50315 10.7073571,42.48216 0.434868,-1.74972 1.124865,-3.53064 2.040702,-5.34283 -4.436172,-10.76323 -7.677536,-23.24081 -8.760706,-37.44319 5.504235,-1.70119 11.107794,-3.22188 16.820679,-4.51135 0.178334,-0.0557 0.354698,-0.0962 0.525033,-0.11783 0.267243,-0.0596 0.534294,-0.11868 0.802018,-0.17725 -0.939782,-1.17707 -1.797845,-2.34812 -2.570386,-3.51813 z m 82.492118,10.07897 c -0.0978,0.16946 -0.19026,0.29991 -0.2775,0.42633 -0.35683,0.5171 -0.67901,0.87047 -1.0511,1.26556 -0.51149,0.5431 -1.10455,1.11657 -1.76061,1.71514 0.72028,0.1545 1.40402,0.3072 2.05,0.45682 1.98184,0.45902 3.28616,0.83714 4.49792,1.18959 -0.86343,5.0854 -2.82038,10.53369 -6.12573,19.37298 1.18417,1.03316 2.23997,2.00852 3.13676,3.08818 4.44522,-11.72052 6.90101,-18.06483 7.4812,-25.13645 0.015,-0.18263 -2.84219,-1.18881 -7.95094,-2.37815 z m -83.800048,0.11214 c -2.518753,0.57408 -5.056382,1.21082 -7.607805,1.91461 0.967046,6.5836 2.757491,16.82865 6.0818,26.82886 0.843348,-1.3077 1.894155,-2.41076 3.111438,-3.52589 -2.225664,-7.27245 -3.683944,-14.60245 -4.623491,-20.30573 2.090626,-0.52834 4.170877,-1.01254 6.237862,-1.45521 -0.727084,-0.65717 -1.381502,-1.28505 -1.938899,-1.87689 -0.372089,-0.39509 -0.694273,-0.74846 -1.051099,-1.26556 -0.06694,-0.097 -0.1367,-0.19662 -0.209806,-0.31419 z m 7.071919,39.0679 c -1.418385,0.72377 -2.508179,1.47219 -3.341398,2.24534 0.492963,0.93139 1.005653,1.84199 1.538408,2.728 1.083159,1.80138 2.48327,3.42542 3.691764,5.17953 -0.23083,-0.51205 -0.38969,-0.98867 -0.528133,-1.51412 -0.517308,-1.96342 -0.497407,-4.08558 0.07855,-6.03684 -0.497791,-0.84208 -0.977487,-1.7109 -1.439189,-2.60191 z m -6.446635,9.13433 -0.153479,1.12396 a 4.0004,4.0004 0 0 1 -2.083077,2.99155 c 3.233859,5.45436 6.721253,10.31782 10.268624,14.58825 6.342238,7.63498 12.868233,13.38902 18.576127,17.32039 5.707895,3.93137 10.126263,6.23412 14.488005,6.36344 a 4.0004,4.0004 0 0 0 0.257865,-0.002 c 4.151644,-0.14386 8.10684,-2.33961 13.33407,-6.1097 2.313807,-1.66881 4.78455,-3.68613 7.344772,-6.06475 l -2.933155,-2.73782 c -7.886609,7.27818 -14.682377,10.80416 -17.884179,10.9151 -6.555637,-0.19437 -26.832848,-12.91859 -41.215573,-38.38835 z m 9.822657,3.10523 c 11.532853,15.96819 26.721209,29.19977 31.263208,30.15992 2.128701,-0.14056 7.642727,-3.71796 14.003279,-9.53585 l -2.574003,-2.40296 c -1.009049,0.91942 -1.916398,1.80502 -2.688208,2.62362 -2.000633,2.12193 -3.17643,3.45115 -5.388818,4.02921 -0.585155,0.15287 -1.193235,0.28069 -1.81436,0.36535 -0.221854,0.12982 -0.43066,0.24713 -0.625285,0.3514 -0.523375,0.28041 -0.409826,0.23546 -0.638203,0.31471 -0.133464,-0.0791 -0.52216,-0.25998 -1.113111,-0.58653 -0.753261,-0.0611 -1.508018,-0.21396 -2.248441,-0.48782 -2.155082,-0.79711 -3.684687,-2.2283 -5.349545,-3.99408 -1.875163,-1.98884 -4.565382,-4.3811 -7.566463,-6.69364 l -0.611332,-0.47233 a 4.0004,4.0004 0 0 1 -1.540474,-3.53777 c -2.853171,-3.08745 -5.723272,-6.46878 -8.414991,-10.01179 -0.999313,0.51768 -2.481387,0.75931 -3.456636,0.43202 -0.526113,-0.17657 -0.916459,-0.36377 -1.236617,-0.55346 z"
       style="baseline-shift:baseline;display:inline;overflow:visible;vector-effect:none;stroke:none;stroke-linecap:round;stroke-linejoin:round;paint-order:stroke fill markers;enable-background:accumulate;stop-color:#000000;stop-opacity:1"
       id="path229" /><path
       d="m 105.61888,181.61682 c -0.13689,0.17309 -0.27557,0.34651 -0.416,0.51987 0.34095,-0.0582 0.48873,-0.2026 1.01389,-0.1447 1.17821,0.12984 2.65622,1.182 3.16208,1.98644 1.11016,1.76755 0.57079,3.11244 0.34779,3.70314 -0.11396,0.30186 -0.22185,0.52156 -0.32402,0.69866 5.10875,1.18934 7.96591,2.19552 7.95094,2.37815 -0.58019,7.07162 -3.03598,13.41593 -7.4812,25.13645 0.59891,0.72104 1.12715,1.4885 1.5751,2.35128 -0.0254,-0.049 0.92955,1.5961 1.69705,2.82412 0.2054,0.32865 0.40391,0.65623 0.59583,0.98288 4.2807,-10.21544 7.85569,-21.9984 10.14357,-35.42729 -6.20998,-2.03302 -12.29601,-3.69137 -18.26503,-5.009 z m -76.137992,0.20257 c -0.267724,0.0586 -0.534775,0.11767 -0.802018,0.17725 0.01338,-0.002 0.02648,-0.003 0.03979,-0.005 0.526697,-0.058 0.675992,0.0861 1.017509,0.1447 -0.08569,-0.10578 -0.170909,-0.21162 -0.255281,-0.3173 z m -1.327051,0.29508 c -5.712885,1.28947 -11.316444,2.81016 -16.820679,4.51135 1.08317,14.20238 4.324534,26.67996 8.760706,37.44319 0.500409,-0.99017 1.068515,-1.98979 1.699121,-2.99878 0.767504,-1.22804 1.722494,-2.87312 1.697054,-2.82412 0.182453,-0.35142 0.378132,-0.68714 0.586528,-1.01027 -3.324309,-10.00021 -5.114754,-20.24526 -6.0818,-26.82886 2.551423,-0.70379 5.089052,-1.34053 7.607805,-1.91461 -0.121752,-0.1958 -0.252375,-0.44173 -0.391708,-0.8108 -0.222996,-0.59069 -0.764429,-1.93557 0.345716,-3.70314 0.426976,-0.67984 1.548672,-1.5364 2.597257,-1.86396 z m 1.179256,47.69114 c -0.144814,0.13437 -0.281657,0.26927 -0.411344,0.40514 -1.47184,1.54209 -2.257724,3.26377 -2.652035,6.17585 l -0.04186,0.308 c 14.382725,25.46976 34.659936,38.19398 41.215573,38.38835 3.201802,-0.11094 9.99757,-3.63692 17.884179,-10.9151 L 81.317,260.4239 c -6.360552,5.81789 -11.874578,9.39529 -14.003279,9.53585 -4.541999,-0.96015 -19.730355,-14.19173 -31.263208,-30.15992 -1.162013,-0.68846 -1.177665,-1.4198 -1.404049,-1.88567 -0.03385,-0.0697 -0.05255,-0.13302 -0.0832,-0.20102 -1.208494,-1.75411 -2.608605,-3.37815 -3.691764,-5.17953 -0.532755,-0.88601 -1.045445,-1.79661 -1.538408,-2.728 z"
       style="baseline-shift:baseline;display:inline;overflow:visible;vector-effect:none;fill:#ffffff;stroke:none;stroke-linecap:round;stroke-linejoin:round;paint-order:stroke fill markers;enable-background:accumulate;stop-color:#000000;stop-opacity:1"
       id="path228" /><path
       d="m 44.543018,147.39462 c -1.12498,-0.0126 -1.736537,0.31717 -2.181779,0.56431 -1.780968,0.98859 -2.088379,1.83118 -2.693376,3.00602 -3.699754,7.18454 -3.474753,15.87746 -0.117306,24.15408 -0.01346,-0.009 -0.0531,-0.0197 -0.06614,-0.0289 -2.107895,-1.48467 -2.836966,-2.09565 -3.818372,-3.59978 -0.981407,-1.50412 -2.198336,-4.1762 -4.216797,-9.10384 -0.624602,-1.52484 -1.21427,-2.89175 -1.689302,-3.92379 -0.237517,-0.51602 -0.439345,-0.93741 -0.646473,-1.32602 -0.103564,-0.19431 -0.190788,-0.36255 -0.394808,-0.66197 -0.10201,-0.14971 -0.190496,-0.31988 -0.587561,-0.70125 -0.198532,-0.19069 -0.452609,-0.4658 -1.158585,-0.78135 -0.705975,-0.31556 -2.378711,-0.58377 -3.724321,0.23461 -2.155711,1.31101 -1.820839,2.2475 -1.941483,2.7497 -0.120645,0.5022 -0.149858,0.84952 -0.1757,1.20717 -0.05168,0.71532 -0.04259,1.42268 -0.0062,2.17971 0.07287,1.51406 0.183459,2.99151 0.671793,4.58215 0.247067,0.80478 0.674436,2.32853 0.883151,3.15433 1.117859,4.42288 3.531874,8.68612 7.056416,13.03693 -0.341517,-0.0586 -0.490812,-0.20274 -1.017509,-0.1447 -1.178663,0.12989 -2.656783,1.18189 -3.16208,1.98644 -1.110145,1.76757 -0.568712,3.11245 -0.345716,3.70314 0.222997,0.59069 0.423101,0.86644 0.601514,1.12499 0.356826,0.5171 0.67901,0.87047 1.051099,1.26556 0.744178,0.79017 1.661254,1.64451 2.693375,2.54713 2.06424,1.80525 4.428126,3.69524 6.487976,4.92373 0.530735,0.31653 1.974058,1.78301 2.949174,3.00602 -0.0865,0.10261 -0.174705,0.17958 -0.261482,0.2868 -0.526207,0.65014 -1.876728,2.10277 -2.560568,2.74402 -0.507642,0.47602 -0.931513,0.88064 -1.353405,1.36168 -0.421891,0.48104 -0.969659,0.95543 -1.318783,2.36523 -0.106224,0.42894 0.08671,1.00039 0.189653,1.53892 -1.723533,1.12308 -3.48751,2.23207 -5.019332,3.55482 -2.188147,1.88949 -3.97414,3.52299 -5.180046,5.84564 0.02544,-0.049 -0.92955,1.59608 -1.697054,2.82412 -3.628369,5.8055 -5.179851,11.29853 -3.753776,16.49046 l 0.214457,0.78135 a 4.0004,4.0004 0 0 0 7.820711,-0.52348 l 0.195337,-1.43196 c 0.394311,-2.91208 1.180195,-4.63376 2.652035,-6.17585 1.47184,-1.5421 3.893572,-2.9872 7.816577,-4.33772 0.0211,-0.007 0.05875,-0.0257 0.0801,-0.0331 -0.610874,0.66397 -1.278892,1.28513 -1.734261,2.06448 -1.443139,2.46987 -1.775158,5.5386 -1.049031,8.29458 0.156828,0.59523 0.322576,1.12092 0.611332,1.71514 0.288757,0.59422 0.205028,1.62172 2.640666,2.43913 1.217819,0.4087 3.225833,-0.0698 4.097424,-0.86507 0.87159,-0.79526 1.06123,-1.44363 1.211296,-1.90789 0.300133,-0.92853 0.283186,-1.4586 0.283186,-2.07274 0,-0.43677 1.21034,-2.62771 3.109371,-3.8592 0.949516,-0.61575 1.958835,-0.98669 2.529045,-1.07022 0.151736,-0.0222 0.252169,-0.0302 0.313676,-0.0336 0.598926,0.72406 1.779854,3.18273 2.159041,6.20531 0.409112,3.26111 0.117795,7.08962 -0.843876,9.92601 l -0.792716,2.34146 a 4.0004,4.0004 0 0 0 1.345654,4.45347 l 0.611332,0.47233 c 3.001081,2.31254 5.6913,4.7048 7.566463,6.69364 1.664858,1.76578 3.194463,3.19697 5.349545,3.99408 2.155083,0.7971 4.431529,0.56745 6.4394,0.0429 2.212388,-0.57806 3.388185,-1.90728 5.388818,-4.02921 0.77181,-0.8186 1.679159,-1.7042 2.688208,-2.62362 l -2.934188,-2.73885 c -0.978824,0.90075 -1.874546,1.78012 -2.664953,2.61845 -1.918356,2.03466 -2.721746,2.70293 -3.488159,2.90318 -3.318324,0.86697 -4.836307,0.30584 -7.868254,-2.9099 -2.078738,-2.20476 -4.896099,-4.70099 -8.034652,-7.11946 l -0.611849,-0.47181 0.794267,-2.34197 c 2.425393,-7.15355 1.162124,-17.2216 -2.57762,-20.545 -3.483132,-3.09536 -12.479342,2.73842 -12.479342,8.09253 0,1.54822 -0.527132,1.37127 -0.974617,-0.32712 -1.010359,-3.83476 0.828072,-6.9811 5.619812,-9.61801 3.710751,-2.04203 4.958305,-3.88725 4.351155,-6.43527 -0.495107,-2.0778 -0.600097,-2.13471 -2.336808,-1.27537 -2.429388,1.20207 -7.678546,3.40467 -10.100676,4.2385 -8.526555,2.93533 -12.185551,6.76898 -13.132015,13.75885 l -0.194303,1.43298 -0.214457,-0.78186 c -1.060483,-3.86091 -0.04289,-7.9802 3.288688,-13.31082 0.797144,-1.27547 1.632025,-2.67076 1.855184,-3.10058 1.251357,-2.4102 6.489855,-6.93323 10.726477,-9.26197 1.363736,-0.74961 2.132267,-1.30949 1.899626,-1.38389 -0.214917,-0.0687 -0.837385,-0.26004 -1.383378,-0.4253 -1.345942,-0.40741 -1.26018,-0.75423 0.624251,-2.52129 0.88936,-0.83397 2.209946,-2.24905 2.934704,-3.14451 0.724758,-0.89546 1.489724,-1.62781 1.700155,-1.62781 1.744371,0 -2.406054,-5.80359 -5.447729,-7.61763 -3.188022,-1.90132 -9.508784,-7.42974 -9.149313,-8.00209 0.196524,-0.31291 0.649475,-0.14033 2.480469,0.94464 2.832637,1.67849 6.777604,2.66875 9.20564,2.31046 1.45707,-0.21501 1.801436,0.29893 -2.907833,-4.33927 -6.227361,-6.13338 -9.818657,-11.56844 -11.166244,-16.90026 -0.235375,-0.93128 -0.65632,-2.43809 -0.93586,-3.34864 -0.519105,-1.69087 -0.720359,-5.86966 -0.295072,-6.1283 0.117332,-0.0714 1.206856,2.29543 2.421041,5.25962 4.066325,9.92706 4.972088,11.31551 9.433016,14.45752 3.620342,2.54996 11.589074,4.77901 10.242268,2.86494 -6.697626,-9.51861 -8.311468,-20.44373 -4.199227,-28.42927 0.444999,-0.86415 1.001897,-1.40504 1.274341,-1.40198 0.163467,0.002 0.22493,0.19935 0.09767,0.64027 -2.877944,9.97116 0.04803,18.24977 8.313704,23.52001 1.528621,0.97465 3.535473,2.48489 4.459676,3.35587 l 1.680518,1.58336 -0.181901,-1.19734 -0.182418,-1.19786 1.757516,-1.23403 c 3.810177,-2.67548 6.388624,-7.56181 6.711218,-12.71706 0.14156,-2.26222 0.488374,-2.26222 0.629935,0 0.322594,5.15525 2.901558,10.04158 6.711735,12.71706 l 1.757516,1.23403 -0.182418,1.19786 -0.181901,1.19734 1.680001,-1.58336 c 0.924202,-0.87098 2.931055,-2.38122 4.459676,-3.35587 8.265673,-5.27024 11.192165,-13.54885 8.314221,-23.52001 -0.339363,-1.17579 0.660012,-0.62092 1.37201,0.76171 4.11224,7.98554 2.498398,18.91066 -4.199227,28.42927 -1.346806,1.91407 6.62141,-0.31498 10.241752,-2.86494 4.460927,-3.14201 5.367217,-4.53046 9.433537,-14.45752 1.21419,-2.96419 2.30371,-5.33102 2.42104,-5.25962 0.42529,0.25864 0.22402,4.43743 -0.29508,6.1283 -0.27954,0.91055 -0.701,2.41736 -0.93637,3.34864 -1.34759,5.33182 -4.93836,10.76688 -11.16573,16.90026 -4.709268,4.6382 -4.364904,4.12426 -2.907833,4.33927 2.428035,0.35829 6.373013,-0.63197 9.205643,-2.31046 1.831,-1.08497 2.28395,-1.25755 2.48047,-0.94464 0.35948,0.57235 -5.9618,6.10077 -9.149833,8.00209 -3.041675,1.81404 -7.192101,7.61763 -5.44773,7.61763 0.210432,0 0.975914,0.73235 1.700672,1.62781 0.724757,0.89546 2.045344,2.31054 2.934704,3.14451 1.884431,1.76706 1.970192,2.11388 0.624251,2.52129 -0.545995,0.16526 -1.168462,0.3566 -1.383378,0.4253 -0.23264,0.0744 0.53589,0.63428 1.899626,1.38389 4.236628,2.32874 9.475128,6.85177 10.726478,9.26197 0.22187,0.42733 1.04776,1.80893 1.84071,3.07836 l 7.27346,6.78977 c -0.62965,-2.87744 -1.96201,-5.83926 -3.86695,-8.88731 -0.7675,-1.22802 -1.72248,-2.87309 -1.69705,-2.82412 -1.20591,-2.32266 -2.99189,-3.95614 -5.18004,-5.84564 -1.53182,-1.32275 -3.29581,-2.43174 -5.01934,-3.55482 0.10292,-0.5385 0.2938,-1.11 0.18759,-1.53892 -0.34913,-1.40979 -0.89483,-1.88419 -1.31672,-2.36523 -0.421889,-0.48104 -0.845761,-0.88514 -1.353403,-1.36116 -0.68384,-0.64125 -2.034364,-2.0944 -2.560568,-2.74454 -0.08678,-0.10722 -0.174979,-0.18419 -0.261482,-0.2868 0.975116,-1.22301 2.418439,-2.68949 2.949174,-3.00602 2.059849,-1.22849 4.423739,-3.11848 6.487979,-4.92373 1.03212,-0.90262 1.94919,-1.75696 2.69337,-2.54713 0.37209,-0.39509 0.69427,-0.74846 1.0511,-1.26556 0.17841,-0.25855 0.37853,-0.53429 0.60152,-1.12499 0.223,-0.5907 0.76237,-1.93559 -0.34779,-3.70314 -0.50586,-0.80444 -1.98387,-1.8566 -3.16208,-1.98644 -0.52516,-0.0579 -0.67294,0.0865 -1.01389,0.1447 3.52411,-4.35049 5.93709,-8.6123 7.05487,-13.03487 a 4.0004,4.0004 0 0 0 0,-0.002 c 0.2087,-0.82576 0.63555,-2.34954 0.88263,-3.15433 0.48832,-1.59063 0.59944,-3.06809 0.67231,-4.58215 0.0364,-0.75703 0.0456,-1.46439 -0.006,-2.17971 -0.0258,-0.35765 -0.055,-0.70497 -0.1757,-1.20717 -0.12061,-0.50205 0.21421,-1.4393 -1.93942,-2.7497 h -0.002 c -1.34489,-0.8173 -3.01892,-0.55 -3.72484,-0.23461 -0.70622,0.31553 -0.95948,0.59063 -1.15807,0.78135 -0.39718,0.38144 -0.48761,0.55152 -0.58963,0.70125 -0.20406,0.29946 -0.28917,0.46766 -0.39274,0.66197 -0.20714,0.38862 -0.40895,0.81 -0.64647,1.32602 -0.47503,1.03205 -1.0647,2.39896 -1.6893,3.92379 -2.01846,4.92764 -3.23539,7.59972 -4.216801,9.10384 -0.981405,1.50413 -1.710476,2.11459 -3.818372,3.59926 -0.01304,0.009 -0.05319,0.0202 -0.06666,0.0295 3.357447,-8.27662 3.582447,-16.96954 -0.117306,-24.15408 -0.604998,-1.17484 -0.912407,-2.01743 -2.693375,-3.00602 -0.445242,-0.24714 -1.056284,-0.57692 -2.181263,-0.56431 -1.124978,0.0126 -2.804103,0.87021 -3.478857,1.95492 -1.34951,2.16943 -0.622619,3.07923 -0.415995,3.79512 2.514023,8.71029 0.402588,14.55762 -6.622852,19.03708 -0.85913,0.54778 -1.602143,1.21918 -2.45308,1.85363 L 76.793,173.5921 c -2.630393,-1.84705 -4.767815,-5.70711 -5.017265,-9.69347 -0.04175,-0.66719 -0.09078,-1.19738 -0.203605,-1.78128 -0.05641,-0.29195 -0.101718,-0.57799 -0.326079,-1.11156 -0.112181,-0.26678 -0.245139,-0.60839 -0.695048,-1.13275 -0.449909,-0.52437 -1.522933,-1.42162 -3.081982,-1.42162 -1.559049,0 -2.632073,0.89725 -3.081982,1.42162 -0.449909,0.52436 -0.583384,0.86597 -0.695565,1.13275 -0.224361,0.53357 -0.269664,0.81961 -0.326078,1.11156 -0.112826,0.5839 -0.161339,1.11409 -0.203089,1.78128 -0.24945,3.98636 -2.389456,7.84642 -5.019849,9.69347 l -0.630452,0.44338 c -0.850739,-0.63427 -1.592624,-1.30599 -2.45153,-1.85363 -7.025437,-4.47946 -9.136874,-10.32679 -6.622851,-19.03708 0.206623,-0.71589 0.931445,-1.6257 -0.418063,-3.79512 -0.674753,-1.08471 -2.351293,-1.94231 -3.476273,-1.95492 z m -3.790983,3.53105 c -0.07915,0.27423 -0.103309,0.54294 -0.17415,0.81649 -0.0016,-0.48366 0.153965,-0.74655 0.17415,-0.81649 z m 53.43343,0 c 0.02018,0.0699 0.175723,0.33285 0.17415,0.81649 -0.07084,-0.27355 -0.095,-0.54226 -0.17415,-0.81649 z m -6.157763,66.40473 c -0.498276,-0.0105 -0.655357,0.49868 -0.964799,1.79731 -0.607151,2.54802 0.640403,4.39324 4.351155,6.43527 0.603057,0.33186 1.15944,0.67173 1.669149,1.02009 l 4.973857,-5.02088 c -2.672814,-1.02116 -6.638635,-2.71098 -8.657353,-3.70985 -0.651267,-0.32226 -1.073044,-0.51563 -1.372009,-0.52194 z m -1.18339,9.54257 c -1.933747,-0.0224 -3.672673,0.75525 -4.61729,2.59468 -1.791732,3.48898 -2.664148,7.04742 -2.620512,10.71976 l 4.492233,-4.53461 c 0.369619,-1.44627 0.93161,-2.88848 1.686202,-4.35787 0.190973,-0.37187 0.134893,-0.3103 0.56844,-0.38861 0.404714,-0.0731 1.231397,-0.0116 2.115117,0.33538 l 2.959509,-2.98742 c -1.457541,-0.86216 -3.079674,-1.36385 -4.583699,-1.38131 z"
       style="baseline-shift:baseline;display:inline;overflow:visible;vector-effect:none;stroke:none;stroke-linecap:round;stroke-linejoin:round;paint-order:stroke fill markers;enable-background:accumulate;stop-color:#000000;stop-opacity:1"
       id="path219" /><path
       d="m 44.497542,151.39438 c -0.272444,-0.003 -0.829342,0.53783 -1.274341,1.40198 -4.112241,7.98554 -2.498399,18.91066 4.199227,28.42927 1.346806,1.91407 -6.621926,-0.31498 -10.242268,-2.86494 -4.460928,-3.14201 -5.366691,-4.53046 -9.433016,-14.45752 -1.214185,-2.96419 -2.303709,-5.33098 -2.421041,-5.25962 -0.425287,0.25864 -0.224033,4.43743 0.295072,6.1283 0.27954,0.91055 0.700485,2.41736 0.93586,3.34864 1.347587,5.33182 4.938883,10.76688 11.166244,16.90026 4.709269,4.6382 4.364903,4.12426 2.907833,4.33927 -2.428036,0.35829 -6.373003,-0.63197 -9.20564,-2.31046 -1.830994,-1.08497 -2.283945,-1.25755 -2.480469,-0.94464 -0.359471,0.57235 5.961291,6.10077 9.149313,8.00209 3.041675,1.81404 7.1921,7.61763 5.447729,7.61763 -0.210431,0 -0.975397,0.73235 -1.700155,1.62781 -0.724758,0.89546 -2.045344,2.31054 -2.934704,3.14451 -1.884431,1.76706 -1.970193,2.11388 -0.624251,2.52129 0.545993,0.16526 1.168461,0.35661 1.383378,0.4253 0.232641,0.0744 -0.53589,0.63428 -1.899626,1.38389 -4.236622,2.32874 -9.47512,6.85177 -10.726477,9.26197 -0.223159,0.42982 -1.05804,1.82511 -1.855184,3.10058 -3.331573,5.33062 -4.349171,9.44991 -3.288688,13.31082 l 0.214457,0.78186 0.194303,-1.43298 c 0.946464,-6.98987 4.60546,-10.82352 13.132015,-13.75885 2.42213,-0.83383 7.671288,-3.03643 10.100676,-4.2385 1.736711,-0.85934 1.841701,-0.80243 2.336808,1.27537 0.60715,2.54802 -0.640404,4.39324 -4.351155,6.43527 -4.79174,2.63691 -6.630171,5.78325 -5.619812,9.61801 0.447485,1.69839 0.974617,1.87534 0.974617,0.32712 0,-5.35411 8.99621,-11.18789 12.479342,-8.09253 3.739744,3.3234 5.003013,13.39145 2.57762,20.545 l -0.794267,2.34197 0.611849,0.47181 c 3.138553,2.41847 5.955914,4.9147 8.034652,7.11946 3.031947,3.21574 4.54993,3.77687 7.868254,2.9099 0.766413,-0.20025 1.569803,-0.86852 3.488159,-2.90318 0.790407,-0.83833 1.686129,-1.7177 2.664953,-2.61845 l -2.783292,-2.59829 a 4.0004,4.0004 0 0 1 -0.72347,-0.90537 c -0.115207,0.0118 -0.226914,0.0117 -0.333313,-0.003 -0.0028,-0.096 0.04707,-0.22792 0.135909,-0.38086 a 4.0004,4.0004 0 0 1 0.809253,-4.45141 l 6.692614,-6.75566 c -2e-6,-1.7e-4 2e-6,-3.4e-4 0,-5.1e-4 -0.04364,-3.67234 0.82878,-7.23078 2.620512,-10.71976 1.679319,-3.27009 5.869468,-3.18403 9.200989,-1.21337 l 1.655196,-1.67121 c -0.509709,-0.34836 -1.066092,-0.68823 -1.669149,-1.02009 -3.710752,-2.04203 -4.958306,-3.88725 -4.351155,-6.43527 0.495107,-2.0778 0.600097,-2.13471 2.336808,-1.27537 2.018718,0.99887 5.984539,2.68869 8.657353,3.70985 l 2.052066,-2.07171 a 4.0004,4.0004 0 0 1 2.76418,-1.18598 4.0004,4.0004 0 0 1 2.80809,1.07642 l 4.0566,3.78685 c -0.79295,-1.26943 -1.61884,-2.65103 -1.84071,-3.07836 -1.25135,-2.4102 -6.48985,-6.93323 -10.726477,-9.26197 -1.363736,-0.74961 -2.132266,-1.30954 -1.899626,-1.38389 0.214916,-0.0687 0.837383,-0.26004 1.383378,-0.4253 1.345941,-0.40741 1.26018,-0.75423 -0.624251,-2.52129 -0.88936,-0.83397 -2.209947,-2.24905 -2.934704,-3.14451 -0.724758,-0.89546 -1.49024,-1.62781 -1.700672,-1.62781 -1.744371,0 2.406055,-5.80359 5.44773,-7.61763 3.188032,-1.90132 9.509312,-7.42974 9.149832,-8.00209 -0.19652,-0.31291 -0.64947,-0.14033 -2.48047,0.94464 -2.83263,1.67849 -6.777607,2.66875 -9.205642,2.31046 -1.457071,-0.21501 -1.801435,0.29893 2.907833,-4.33927 6.227369,-6.13338 9.818139,-11.56844 11.165729,-16.90026 0.23537,-0.93128 0.65683,-2.43809 0.93637,-3.34864 0.5191,-1.69087 0.72037,-5.86966 0.29508,-6.1283 -0.11733,-0.0714 -1.20685,2.29543 -2.42104,5.25962 -4.06632,9.92706 -4.97261,11.31551 -9.433536,14.45752 -3.620342,2.54996 -11.588558,4.77901 -10.241752,2.86494 6.697625,-9.51861 8.311467,-20.44373 4.199227,-28.42927 -0.711998,-1.38263 -1.711373,-1.9375 -1.37201,-0.76171 2.877944,9.97116 -0.04855,18.24977 -8.314221,23.52001 -1.528621,0.97465 -3.535474,2.48489 -4.459676,3.35587 l -1.680001,1.58336 0.181901,-1.19734 0.182418,-1.19786 -1.757516,-1.23403 c -3.810177,-2.67548 -6.389141,-7.56181 -6.711735,-12.71706 -0.141561,-2.26222 -0.488375,-2.26222 -0.629935,0 -0.322594,5.15525 -2.901041,10.04158 -6.711218,12.71706 l -1.757516,1.23403 0.182418,1.19786 0.181901,1.19734 -1.680518,-1.58336 c -0.924203,-0.87098 -2.931055,-2.38122 -4.459676,-3.35587 -8.26567,-5.27024 -11.191648,-13.54885 -8.313704,-23.52001 0.127261,-0.44092 0.0658,-0.63844 -0.09767,-0.64027 z m 22.971208,36.00297 c 1.586795,0.007 2.298125,1.18362 2.356445,1.93993 0.05832,0.75632 -0.69161,2.2197 -2.356445,2.2257 -1.664835,0.006 -2.232137,-1.41435 -2.209167,-2.17712 0.02297,-0.76277 0.622371,-1.99551 2.209167,-1.98851 z m 0,8.58552 c 1.343528,0.01 1.693515,0.90641 2.056722,1.91048 0.363209,1.00407 -0.397486,2.06361 -2.056722,2.00401 -1.659237,-0.0596 -2.095496,-1.33264 -2.024166,-1.99678 0.07133,-0.66413 0.680637,-1.92771 2.024166,-1.91771 z m 0.14366,8.96948 c 0.941457,0.0259 1.844207,1.00984 1.833997,1.83709 -0.01022,0.82726 -1.132747,1.43846 -1.977657,1.44746 -0.844911,0.009 -1.906463,-0.4608 -1.884123,-1.30948 0.02234,-0.84867 1.086326,-2.00097 2.027783,-1.97507 z m -16.72301,3.58376 c 0.276399,-0.0145 0.808805,0.46191 1.679484,1.30276 2.935151,2.83457 4.648758,5.59479 6.573242,10.58592 1.600599,4.15114 1.3892,4.10717 -3.345015,-0.69298 l -4.169255,-4.22713 -0.572574,-3.36362 c -0.427918,-2.51393 -0.569849,-3.58375 -0.165882,-3.60495 z m 33.131828,0 c 0.0091,-5.1e-4 0.01823,-4.5e-4 0.02687,0 0.404035,0.0209 0.262176,1.0896 -0.165365,3.60133 l -0.572058,3.36 -4.12688,4.19354 c -4.735859,4.81177 -4.981936,4.86547 -3.394625,0.74879 1.930739,-5.00735 3.641859,-7.76348 6.57996,-10.6009 0.84338,-0.81448 1.36875,-1.28705 1.652096,-1.30276 z m -23.599076,40.80268 c 0.271913,-0.01 0.5173,0.0752 0.752925,0.22892 0.693476,0.45229 2.006503,2.20249 1.832963,2.38332 -1.266176,-0.36541 -2.424833,-1.47503 -3.496944,-2.26808 0.341162,-0.22867 0.639143,-0.33416 0.911056,-0.34416 z"
       style="baseline-shift:baseline;display:inline;overflow:visible;vector-effect:none;fill:#ffffff;stroke:none;stroke-linecap:round;stroke-linejoin:round;paint-order:stroke fill markers;enable-background:accumulate;stop-color:#000000;stop-opacity:1"
       id="path218" /><path
       d="m 67.46875,187.39735 c -1.586796,-0.007 -2.186195,1.22574 -2.209167,1.98851 -0.02297,0.76277 0.544332,2.18313 2.209167,2.17712 1.664835,-0.006 2.414766,-1.46938 2.356445,-2.2257 -0.05832,-0.75631 -0.76965,-1.93333 -2.356445,-1.93993 z m 0,8.58552 c -1.343529,-0.01 -1.952838,1.25358 -2.024166,1.91771 -0.07133,0.66414 0.364929,1.93721 2.024166,1.99678 1.659236,0.0596 2.419931,-0.99994 2.056722,-2.00401 -0.363207,-1.00407 -0.713194,-1.90064 -2.056722,-1.91048 z m 0.14366,8.96948 c -0.941457,-0.0259 -2.005442,1.1264 -2.027783,1.97507 -0.02234,0.84868 1.039212,1.31864 1.884123,1.30948 0.84491,-0.009 1.967441,-0.6202 1.977657,-1.44746 0.01021,-0.82725 -0.89254,-1.81116 -1.833997,-1.83709 z m -16.72301,3.58376 c -0.403967,0.0212 -0.262036,1.09102 0.165882,3.60495 l 0.572574,3.36362 4.169255,4.22713 c 4.734215,4.80015 4.945614,4.84412 3.345015,0.69298 -1.924484,-4.99113 -3.638091,-7.75135 -6.573242,-10.58592 -0.870679,-0.84085 -1.403085,-1.31724 -1.679484,-1.30276 z m 33.131828,0 c -0.283346,0.0157 -0.808716,0.48828 -1.652096,1.30276 -2.938101,2.83742 -4.649221,5.59355 -6.57996,10.6009 -1.587311,4.11668 -1.341234,4.06298 3.394625,-0.74879 l 4.12688,-4.19354 0.572058,-3.36 c 0.427541,-2.51173 0.5694,-3.58047 0.165365,-3.60133 -0.0086,-4.5e-4 -0.01773,-5.1e-4 -0.02687,0 z m -23.599076,40.80268 c -0.271913,0.01 -0.569894,0.11549 -0.911056,0.34416 1.072111,0.79305 2.230768,1.90267 3.496944,2.26808 0.17354,-0.18083 -1.139487,-1.93103 -1.832963,-2.38332 -0.235625,-0.15368 -0.481012,-0.23897 -0.752925,-0.22892 z m 11.682491,2.0562 c -0.08884,0.15294 -0.138698,0.28482 -0.135909,0.38086 0.106399,0.0143 0.218106,0.0144 0.333313,0.003 a 4.0004,4.0004 0 0 1 -0.197404,-0.38344 z"
       style="display:inline;stroke:none;stroke-width:8.83336;stroke-linecap:round;stroke-linejoin:round;paint-order:stroke fill markers"
       id="path216" /><path
       d="m 102.87331,218.3045 a 4.0004,4.0004 0 0 0 -2.76418,1.18598 l -27.195234,27.4531 a 4.0004,4.0004 0 0 0 0.111621,5.74022 l 28.345553,26.46092 a 4.0004,4.0004 0 0 0 5.57227,-0.10956 l 27.19524,-27.4531 a 4.0004,4.0004 0 0 0 -0.1111,-5.74022 L 105.6814,219.38092 a 4.0004,4.0004 0 0 0 -2.80809,-1.07642 z m 0.078,4.00028 28.34659,26.46143 -27.19627,27.45466 -28.346594,-26.46195 z"
       style="baseline-shift:baseline;display:inline;overflow:visible;vector-effect:none;fill-rule:evenodd;stroke:none;stroke-linecap:round;stroke-linejoin:round;stroke-miterlimit:2;paint-order:stroke fill markers;enable-background:accumulate;stop-color:#000000;stop-opacity:1"
       id="path209" /><path
       d="m 102.95134,222.30478 -27.196274,27.45414 28.346594,26.46195 27.19627,-27.45466 z"
       style="baseline-shift:baseline;display:inline;overflow:visible;vector-effect:none;fill:#f4900c;fill-rule:evenodd;stroke:none;stroke-linecap:round;stroke-linejoin:round;stroke-miterlimit:2;paint-order:stroke fill markers;enable-background:accumulate;stop-color:#000000;stop-opacity:1"
       id="path208" /></g></svg>
