<?xml version="1.0" encoding="UTF-8" standalone="no"?>
<!-- Created with Inkscape (http://www.inkscape.org/) -->

<svg
   width="512"
   height="512"
   viewBox="0 0 135.46666 135.46667"
   version="1.1"
   id="svg1"
   xml:space="preserve"
   xmlns="http://www.w3.org/2000/svg"
   xmlns:svg="http://www.w3.org/2000/svg"><defs
     id="defs1" /><g
     id="layer2"
     transform="translate(-145.46665,-442.12975)"><path
       id="path24-5-3-6-5"
       style="fill:#ffffff;fill-opacity:1;stroke:#000000;stroke-width:8;stroke-linecap:round;stroke-linejoin:round;stroke-dasharray:none;stroke-opacity:1;paint-order:stroke fill markers"
       d="m 211.71547,448.64868 c -14.4814,0.17226 -20.01898,14.3872 -20.01898,22.9167 h 38.75691 c 0,-8.5295 -4.2565,-23.08896 -18.73793,-22.9167 z m -42.5715,27.27948 -0.0644,8.7043 h 83.33876 l 0.0644,-8.7043 z m -15.81645,13.54261 -0.17958,13.96755 h 116.41551 l 0.1808,-13.96755 z m 10.06075,18.63663 -0.0972,7.15123 h 9.09942 l 0.0972,-7.15123 z m 86.49034,-0.34453 -0.0972,7.15123 h 9.09941 l 0.0972,-7.15123 z m -96.73078,11.9367 v 6.80317 h 116.41551 v -6.80317 z m 2.23442,11.52917 -0.10574,16.8329 h 9.10049 l 0.10473,-16.8329 z m 22.86911,0.1218 -0.10471,16.8329 h 9.09838 l 0.10575,-16.8329 z m 56.93863,-0.1218 -0.10574,16.8329 h 9.09947 l 0.10573,-16.8329 z m 23.76985,0 -0.10575,16.8329 h 9.09942 l 0.10473,-16.8329 z m -104.58806,21.4719 v 5.74686 l 30.68062,0.12143 v 13.67413 h 6.78466 v -19.42001 z m 115.19156,0 -32.53876,0.12242 h -6.53208 v 5.74587 13.67414 h 6.53208 v -13.67414 l 32.53876,-0.12142 z" /><path
       d="m 23.741374,4.8144095 c 0.169635,1.0370774 0.300694,2.487663 -0.135432,5.1090336 -0.339483,2.0404869 -0.712892,4.0759669 -1.043629,6.1178069 0.577653,0.152829 1.635133,-2.283135 2.196433,-3.514424 0.461698,-1.012799 1.03797,-2.8324075 1.510915,-3.4418416 0.35237,-0.422535 1.438727,-0.3415269 1.532158,0.6768551 0.122851,1.3390855 -0.32314,2.8629275 -0.632333,4.1725405 -0.261912,1.109341 -1.263936,2.961848 -2.301204,4.673637 -0.759229,1.293993 -1.626827,2.529171 -2.553875,3.722195 -0.842007,1.163298 -1.689273,2.431763 -1.768758,3.876148 -0.05322,0.923441 0.233524,1.823427 0.566026,2.681051 0.15239,0.561781 -0.230373,1.090945 -0.727652,1.419816 C 19.235754,31.066625 11.866652,31.626553 7.8044414,30.071405 6.7919776,29.683802 7.1669305,28.970558 7.5004538,28.072305 7.8338839,27.1743 7.5903385,25.995606 7.4078193,25.275883 7.0138563,23.722379 3.4236254,20.844299 2.7300489,20.250747 1.6959967,19.387938 0.58342063,18.485085 0.13549486,17.211921 -0.53504116,15.43425 1.0860535,14.711496 2.8675183,15.750463 3.9578157,16.352115 4.7138923,17.326408 5.598946,18.14763 6.3932794,18.829119 7.288231,19.121928 7.696209,17.575707 7.9242074,16.65734 7.8022911,15.709172 7.8473171,14.776451 7.8221588,13.074805 7.5848007,11.382981 7.4260663,9.6884045 7.2535077,7.8505692 7.0629486,6.0138621 6.950759,4.171912 6.8265647,2.1328639 8.4030417,1.1224304 9.3991938,2.5427892 c 0.5712611,0.7531594 1.1096402,1.6254415 1.8070902,5.9974321 0.29731,1.9067777 0.581762,3.8294807 1.279378,5.6486027 1.185945,-1.373019 1.142973,-4.2765435 1.482457,-6.0521766 0.181878,-0.9424634 0.837775,-4.1188542 1.310795,-5.75347 0.706606,-1.80187031 2.263579,-1.99507468 2.830266,-0.1745686 0.406386,1.5178506 0.240679,3.9909129 0.04429,5.8553799 -0.01598,1.9508543 -1.057684,5.1953213 -0.394767,6.9707643 0.89034,-0.220034 1.798682,-4.773656 2.095382,-5.8644668 0.473036,-1.6749185 0.788787,-3.3993578 1.438661,-5.019952 0.285454,-0.7118396 2.112815,-1.3889387 2.448628,0.6640753 z"
       fill="#feb4b4"
       fill-rule="evenodd"
       stroke="none"
       id="path1-8-9"
       style="fill:#f7caaa;fill-opacity:1;stroke:#000000;stroke-width:4.20403;stroke-linecap:round;stroke-dasharray:none;stroke-opacity:1;paint-order:stroke markers fill"
       transform="matrix(1.9951355,0,0,1.8150013,221.22095,517.40316)" /></g></svg>
