<?xml version="1.0" encoding="UTF-8" standalone="no"?>
<!-- Created with Inkscape (http://www.inkscape.org/) -->

<svg
   width="512"
   height="512"
   viewBox="0 0 135.46666 135.46667"
   version="1.1"
   id="svg1"
   xml:space="preserve"
   inkscape:version="1.4.3 (0d15f75, 2025-12-25)"
   sodipodi:docname="quicklooticons.svg"
   inkscape:export-batch-name=""
   inkscape:export-batch-path="Completionist Addons Dev\docs"
   xmlns:inkscape="http://www.inkscape.org/namespaces/inkscape"
   xmlns:sodipodi="http://sodipodi.sourceforge.net/DTD/sodipodi-0.dtd"
   xmlns="http://www.w3.org/2000/svg"
   xmlns:svg="http://www.w3.org/2000/svg"><sodipodi:namedview
     id="namedview1"
     pagecolor="#818181"
     bordercolor="#000000"
     borderopacity="0.25"
     inkscape:showpageshadow="2"
     inkscape:pageopacity="0.0"
     inkscape:pagecheckerboard="0"
     inkscape:deskcolor="#d1d1d1"
     inkscape:document-units="mm"
     inkscape:zoom="0.29028319"
     inkscape:cx="887.06479"
     inkscape:cy="456.45081"
     inkscape:window-width="2560"
     inkscape:window-height="1369"
     inkscape:window-x="1912"
     inkscape:window-y="-8"
     inkscape:window-maximized="1"
     inkscape:current-layer="layer5"
     inkscape:clip-to-page="true"
     showguides="true"><sodipodi:guide
       position="-476.70524,132.96556"
       orientation="0,-1"
       id="guide12"
       inkscape:locked="false" /><sodipodi:guide
       position="-507.17959,1.3368203"
       orientation="0,-1"
       id="guide13"
       inkscape:locked="false" /><sodipodi:guide
       position="-300.9334,135.46667"
       orientation="0,-1"
       id="guide14"
       inkscape:locked="false" /><sodipodi:guide
       position="-300.9334,-9.7104556e-06"
       orientation="0,-1"
       id="guide15"
       inkscape:locked="false" /><sodipodi:guide
       position="-446.40006,135.46667"
       orientation="1,0"
       id="guide16"
       inkscape:locked="false" /><sodipodi:guide
       position="-436.40006,135.46667"
       orientation="1,0"
       id="guide17"
       inkscape:locked="false" /><sodipodi:guide
       position="-300.93341,135.46668"
       orientation="1,0"
       id="guide18"
       inkscape:locked="false" /><sodipodi:guide
       position="-581.86671,135.46667"
       orientation="1,0"
       id="guide19"
       inkscape:locked="false" /><sodipodi:guide
       position="-290.9334,135.46667"
       orientation="1,0"
       id="guide20"
       inkscape:locked="false" /><sodipodi:guide
       position="-155.46673,135.46667"
       orientation="1,0"
       id="guide21"
       inkscape:locked="false" /><sodipodi:guide
       position="-512.59529,-9.4564697"
       orientation="0,-1"
       id="guide22"
       inkscape:locked="false" /><sodipodi:guide
       position="-436.40008,-144.92315"
       orientation="0,-1"
       id="guide25"
       inkscape:locked="false" /><sodipodi:guide
       position="-436.40007,-155.7468"
       orientation="0,-1"
       id="guide26"
       inkscape:locked="false" /><sodipodi:guide
       position="-145.46672,-9.7104556e-06"
       orientation="1,0"
       id="guide28"
       inkscape:locked="false" /><sodipodi:guide
       position="-510.28062,-240.6014"
       orientation="1,0"
       id="guide29"
       inkscape:locked="false" /><sodipodi:guide
       position="-462.31124,-228.95925"
       orientation="0,-1"
       id="guide30"
       inkscape:locked="false" /><inkscape:page
       x="0"
       y="0"
       width="135.46666"
       height="135.46667"
       id="page30"
       margin="0"
       bleed="0" /><sodipodi:guide
       position="-581.86671,-291.21348"
       orientation="0,-1"
       id="guide31"
       inkscape:locked="false" /><sodipodi:guide
       position="-581.86671,-291.21349"
       orientation="0,-1"
       id="guide32"
       inkscape:locked="false" /><sodipodi:guide
       position="-643.09459,-306.66306"
       orientation="0,-1"
       id="guide33"
       inkscape:locked="false" /><sodipodi:guide
       position="-478.90722,-379.87551"
       orientation="0,-1"
       id="guide35"
       inkscape:locked="false" /><sodipodi:guide
       position="-43.004851,81.65058"
       orientation="1,0"
       id="guide37"
       inkscape:locked="false" /><sodipodi:guide
       position="-114.19943,43.9471"
       orientation="1,0"
       id="guide38"
       inkscape:locked="false" /><sodipodi:guide
       position="-192.26409,132.91732"
       orientation="0,-1"
       id="guide39"
       inkscape:locked="false" /><sodipodi:guide
       position="-258.00349,1.3851203"
       orientation="0,-1"
       id="guide40"
       inkscape:locked="false" /><sodipodi:guide
       position="-195.48661,-12.00584"
       orientation="0,-1"
       id="guide41"
       inkscape:locked="false" /><sodipodi:guide
       position="-259.937,-143.53802"
       orientation="0,-1"
       id="guide42"
       inkscape:locked="false" /><sodipodi:guide
       position="-189.02478,-158.29616"
       orientation="0,-1"
       id="guide43"
       inkscape:locked="false" /><sodipodi:guide
       position="-7.0865144e-05,135.46667"
       orientation="1,0"
       id="guide45"
       inkscape:locked="false" /><sodipodi:guide
       position="-187.75255,-309.21242"
       orientation="0,-1"
       id="guide46"
       inkscape:locked="false" /><sodipodi:guide
       position="-260.58151,-440.7446"
       orientation="0,-1"
       id="guide47"
       inkscape:locked="false" /></sodipodi:namedview><defs
     id="defs1" /><g
     inkscape:groupmode="layer"
     id="layer4"
     inkscape:label="Grap"
     transform="translate(-581.86673)"><path
       d="m 23.741374,4.8144095 c 0.169635,1.0370774 0.300694,2.487663 -0.135432,5.1090336 -0.339483,2.0404869 -0.712892,4.0759669 -1.043629,6.1178069 0.577653,0.152829 1.635133,-2.283135 2.196433,-3.514424 0.461698,-1.012799 1.03797,-2.8324075 1.510915,-3.4418416 0.35237,-0.422535 1.438727,-0.3415269 1.532158,0.6768551 0.122851,1.3390855 -0.32314,2.8629275 -0.632333,4.1725405 -0.261912,1.109341 -1.263936,2.961848 -2.301204,4.673637 -0.759229,1.293993 -1.626827,2.529171 -2.553875,3.722195 -0.842007,1.163298 -1.689273,2.431763 -1.768758,3.876148 -0.05322,0.923441 0.233524,1.823427 0.566026,2.681051 0.15239,0.561781 -0.230373,1.090945 -0.727652,1.419816 C 19.235754,31.066625 11.866652,31.626553 7.8044414,30.071405 6.7919776,29.683802 7.1669305,28.970558 7.5004538,28.072305 7.8338839,27.1743 7.5903385,25.995606 7.4078193,25.275883 7.0138563,23.722379 3.4236254,20.844299 2.7300489,20.250747 1.6959967,19.387938 0.58342063,18.485085 0.13549486,17.211921 -0.53504116,15.43425 1.0860535,14.711496 2.8675183,15.750463 3.9578157,16.352115 4.7138923,17.326408 5.598946,18.14763 6.3932794,18.829119 7.288231,19.121928 7.696209,17.575707 7.9242074,16.65734 7.8022911,15.709172 7.8473171,14.776451 7.8221588,13.074805 7.5848007,11.382981 7.4260663,9.6884045 7.2535077,7.8505692 7.0629486,6.0138621 6.950759,4.171912 6.8265647,2.1328639 8.4030417,1.1224304 9.3991938,2.5427892 c 0.5712611,0.7531594 1.1096402,1.6254415 1.8070902,5.9974321 0.29731,1.9067777 0.581762,3.8294807 1.279378,5.6486027 1.185945,-1.373019 1.142973,-4.2765435 1.482457,-6.0521766 0.181878,-0.9424634 0.837775,-4.1188542 1.310795,-5.75347 0.706606,-1.80187031 2.263579,-1.99507468 2.830266,-0.1745686 0.406386,1.5178506 0.240679,3.9909129 0.04429,5.8553799 -0.01598,1.9508543 -1.057684,5.1953213 -0.394767,6.9707643 0.89034,-0.220034 1.798682,-4.773656 2.095382,-5.8644668 0.473036,-1.6749185 0.788787,-3.3993578 1.438661,-5.019952 0.285454,-0.7118396 2.112815,-1.3889387 2.448628,0.6640753 z"
       fill="#feb4b4"
       fill-rule="evenodd"
       stroke="none"
       id="path1"
       sodipodi:nodetypes="ssssssssssssssssssssssssssssssssss"
       style="stroke:#000000;stroke-width:1.93314;stroke-linecap:round;stroke-dasharray:none;stroke-opacity:1;paint-order:stroke markers fill"
       inkscape:label="Grab Stroke"
       transform="matrix(4.1638874,0,0,4.1129389,592.28355,2.5157941)" /></g></svg>
