<?xml version="1.0" encoding="UTF-8" standalone="no"?>
<!-- Created with Inkscape (http://www.inkscape.org/) -->

<svg
   width="512"
   height="512"
   viewBox="0 0 135.46666 135.46667"
   version="1.1"
   id="svg1"
   xml:space="preserve"
   xmlns="http://www.w3.org/2000/svg"
   xmlns:svg="http://www.w3.org/2000/svg"><defs
     id="defs1" /><g
     id="layer2"
     transform="translate(-145.46667)"><path
       id="path24-5"
       style="fill:#ffffff;fill-opacity:1;stroke:#000000;stroke-width:8;stroke-linecap:round;stroke-linejoin:round;stroke-dasharray:none;stroke-opacity:1;paint-order:stroke fill markers"
       d="M 211.71548,6.5189622 C 197.23407,6.6912227 191.6965,20.906161 191.6965,29.435664 h 38.7569 c 0,-8.529503 -4.2565,-23.0889626 -18.73792,-22.9167018 z m -42.5715,27.2794758 -0.0644,8.704301 h 83.33877 l 0.0644,-8.704301 z m -15.81646,13.54261 -0.17958,13.967551 h 116.41551 l 0.18081,-13.967551 z m 10.06076,18.636634 -0.0972,7.151225 h 9.09943 l 0.0972,-7.151225 z m 86.49034,-0.344527 -0.0972,7.151225 h 9.09942 l 0.0972,-7.151225 z m -96.73078,11.936692 v 6.803174 h 116.41551 v -6.803174 z m 2.23442,11.529173 -0.10574,16.8329 h 9.10049 l 0.10472,-16.8329 z m 22.86911,0.121802 -0.10472,16.832898 h 9.09839 l 0.10574,-16.832898 z M 235.19,89.09902 l -0.10575,16.8329 h 9.09947 l 0.10573,-16.8329 z m 23.76984,0 -0.10574,16.8329 h 9.09942 l 0.10473,-16.8329 z m -104.58805,21.4719 v 5.74686 l 30.68062,0.12143 v 13.67413 h 6.78466 v -19.42001 z m 115.19156,0 -32.53876,0.12242 h -6.53208 v 5.74587 13.67414 h 6.53208 v -13.67414 l 32.53876,-0.12142 z" /><path
       id="path15-4-1"
       style="display:inline;fill:#08af50;fill-opacity:1;fill-rule:evenodd;stroke:#000000;stroke-width:8.46027;stroke-linecap:round;stroke-linejoin:round;stroke-miterlimit:2;stroke-dasharray:none;stroke-opacity:1;paint-order:stroke fill markers"
       d="m 243.9722,113.42429 21.84156,-35.981979 10.88954,12.602679 -31.31903,41.19169 -24.10161,-15.43073 10.66233,-12.81274 z" /></g></svg>
