<?xml version="1.0" encoding="UTF-8" standalone="no"?>
<!-- Created with Inkscape (http://www.inkscape.org/) -->

<svg
   width="512"
   height="512"
   viewBox="0 0 135.46666 135.46667"
   version="1.1"
   id="svg1"
   xml:space="preserve"
   xmlns="http://www.w3.org/2000/svg"
   xmlns:svg="http://www.w3.org/2000/svg"><defs
     id="defs1" /><g
     id="layer3"
     transform="translate(-290.93334,-291.21346)"><path
       id="path11-7-9"
       style="display:inline;fill:#ffffff;fill-rule:evenodd;stroke:#000000;stroke-width:8;stroke-linecap:round;stroke-linejoin:round;stroke-miterlimit:2;stroke-dasharray:none;stroke-opacity:1;paint-order:stroke fill markers"
       d="m 326.18704,297.76282 c -2.38005,0 -4.27189,1.87211 -4.30964,4.18058 -0.34504,21.08804 -1.00928,44.69302 17.93762,58.11221 7.13337,5.05223 11.12647,7.79437 11.21862,16.12023 h 7.63336 7.63334 c 0.0921,-8.32586 4.08525,-11.068 11.21864,-16.12023 18.9469,-13.41919 18.28266,-37.02417 17.93764,-58.11221 -0.0377,-2.30847 -1.92961,-4.18058 -4.30967,-4.18058 H 358.667 Z m -13.30219,4.59715 c -8.78601,0.0177 -17.82901,3.92083 -16.38222,15.62347 2.39381,19.36253 19.36074,26.83577 26.79937,28.41599 l -3.62972,-10.1124 c -5.27545,-2.84773 -10.72257,-6.23459 -13.20348,-15.47324 -1.99233,-7.41917 1.50475,-10.75227 8.6563,-9.65515 0.47679,0.0731 0.97021,0.16627 1.47893,0.27891 v -8.85793 c -1.2133,-0.14463 -2.46405,-0.22217 -3.71918,-0.21965 z m 91.56432,0 c -1.25513,-0.003 -2.5059,0.075 -3.71918,0.21964 v 8.85793 c 8.13937,-1.80195 12.26036,1.46247 10.13521,9.37624 -2.48094,9.23865 -7.92803,12.62551 -13.2035,15.47324 l -1.81485,5.0562 -1.81484,5.05621 c 7.43862,-1.58023 24.40555,-9.05346 26.79936,-28.416 1.44681,-11.70264 -7.59619,-15.60585 -16.3822,-15.62347 z m -53.30013,79.84106 c -2.11659,8.40322 -7.35864,12.57937 -16.68083,12.52976 -0.6548,-0.004 -1.18521,0.48757 -1.18521,1.12282 v 9.3391 3.7772 h -8.59275 c -0.86892,0 -1.56778,0.67795 -1.56778,1.52084 v 9.28286 c 0,0.84286 0.69886,1.52139 1.56778,1.52139 h 33.97675 33.97675 c 0.86894,0 1.56778,-0.67853 1.56778,-1.52139 v -9.28286 c 0,-0.84289 -0.69884,-1.52084 -1.56778,-1.52084 H 384.051 v -3.7772 -9.3391 c 0,-0.63525 -0.53041,-1.12653 -1.18521,-1.12282 -9.32217,0.0496 -14.56426,-4.12654 -16.68081,-12.52976 H 358.667 Z" /><path
       id="path17"
       style="display:inline;fill:#6ac5fe;fill-opacity:1;fill-rule:evenodd;stroke:#000000;stroke-width:8;stroke-linecap:round;stroke-linejoin:round;stroke-miterlimit:2;stroke-dasharray:none;stroke-opacity:1;paint-order:stroke fill markers"
       d="m 384.34986,368.42591 v 17.31148 h -17.83042 v 19.63125 h 17.83042 v 17.31149 h 20.21971 V 405.36864 H 422.4 v -19.63125 h -17.83043 v -17.31148 z" /></g></svg>
