<?xml version="1.0" encoding="UTF-8" standalone="no"?>
<!-- Created with Inkscape (http://www.inkscape.org/) -->

<svg
   width="512"
   height="512"
   viewBox="0 0 135.46666 135.46667"
   version="1.1"
   id="svg1"
   xml:space="preserve"
   inkscape:version="1.4.3 (0d15f75, 2025-12-25)"
   sodipodi:docname="quicklooticons.svg"
   inkscape:export-batch-name=""
   inkscape:export-batch-path="Completionist Addons Dev\docs"
   xmlns:inkscape="http://www.inkscape.org/namespaces/inkscape"
   xmlns:sodipodi="http://sodipodi.sourceforge.net/DTD/sodipodi-0.dtd"
   xmlns="http://www.w3.org/2000/svg"
   xmlns:svg="http://www.w3.org/2000/svg"><sodipodi:namedview
     id="namedview1"
     pagecolor="#818181"
     bordercolor="#000000"
     borderopacity="0.25"
     inkscape:showpageshadow="2"
     inkscape:pageopacity="0.0"
     inkscape:pagecheckerboard="0"
     inkscape:deskcolor="#d1d1d1"
     inkscape:document-units="mm"
     inkscape:zoom="0.29028319"
     inkscape:cx="887.06479"
     inkscape:cy="456.45081"
     inkscape:window-width="2560"
     inkscape:window-height="1369"
     inkscape:window-x="1912"
     inkscape:window-y="-8"
     inkscape:window-maximized="1"
     inkscape:current-layer="layer5"
     inkscape:clip-to-page="true"
     showguides="true"><sodipodi:guide
       position="-185.77185,575.0953"
       orientation="0,-1"
       id="guide12"
       inkscape:locked="false" /><sodipodi:guide
       position="-216.2462,443.46656"
       orientation="0,-1"
       id="guide13"
       inkscape:locked="false" /><sodipodi:guide
       position="-10.00001,577.59641"
       orientation="0,-1"
       id="guide14"
       inkscape:locked="false" /><sodipodi:guide
       position="-10.00001,442.12973"
       orientation="0,-1"
       id="guide15"
       inkscape:locked="false" /><sodipodi:guide
       position="-155.46667,577.59641"
       orientation="1,0"
       id="guide16"
       inkscape:locked="false" /><sodipodi:guide
       position="-145.46667,577.59641"
       orientation="1,0"
       id="guide17"
       inkscape:locked="false" /><sodipodi:guide
       position="-10.00002,577.59642"
       orientation="1,0"
       id="guide18"
       inkscape:locked="false" /><sodipodi:guide
       position="-290.93332,577.59641"
       orientation="1,0"
       id="guide19"
       inkscape:locked="false" /><sodipodi:guide
       position="-1.0173782e-05,577.59641"
       orientation="1,0"
       id="guide20"
       inkscape:locked="false" /><sodipodi:guide
       position="135.46666,577.59641"
       orientation="1,0"
       id="guide21"
       inkscape:locked="false" /><sodipodi:guide
       position="-221.6619,432.67327"
       orientation="0,-1"
       id="guide22"
       inkscape:locked="false" /><sodipodi:guide
       position="-145.46669,297.20659"
       orientation="0,-1"
       id="guide25"
       inkscape:locked="false" /><sodipodi:guide
       position="-145.46668,286.38294"
       orientation="0,-1"
       id="guide26"
       inkscape:locked="false" /><sodipodi:guide
       position="145.46667,442.12973"
       orientation="1,0"
       id="guide28"
       inkscape:locked="false" /><sodipodi:guide
       position="-219.34723,201.52834"
       orientation="1,0"
       id="guide29"
       inkscape:locked="false" /><sodipodi:guide
       position="-171.37785,213.17049"
       orientation="0,-1"
       id="guide30"
       inkscape:locked="false" /><sodipodi:guide
       position="-290.93332,150.91626"
       orientation="0,-1"
       id="guide31"
       inkscape:locked="false" /><sodipodi:guide
       position="-290.93332,150.91625"
       orientation="0,-1"
       id="guide32"
       inkscape:locked="false" /><sodipodi:guide
       position="-352.1612,135.46668"
       orientation="0,-1"
       id="guide33"
       inkscape:locked="false" /><inkscape:page
       x="0"
       y="0"
       width="135.46666"
       height="135.46667"
       id="page35"
       margin="0"
       bleed="0" /><sodipodi:guide
       position="-187.97383,62.254234"
       orientation="0,-1"
       id="guide35"
       inkscape:locked="false" /><sodipodi:guide
       position="247.92854,523.78032"
       orientation="1,0"
       id="guide37"
       inkscape:locked="false" /><sodipodi:guide
       position="176.73396,486.07684"
       orientation="1,0"
       id="guide38"
       inkscape:locked="false" /><sodipodi:guide
       position="98.6693,575.04706"
       orientation="0,-1"
       id="guide39"
       inkscape:locked="false" /><sodipodi:guide
       position="32.9299,443.51486"
       orientation="0,-1"
       id="guide40"
       inkscape:locked="false" /><sodipodi:guide
       position="95.44678,430.1239"
       orientation="0,-1"
       id="guide41"
       inkscape:locked="false" /><sodipodi:guide
       position="30.99639,298.59172"
       orientation="0,-1"
       id="guide42"
       inkscape:locked="false" /><sodipodi:guide
       position="101.90861,283.83358"
       orientation="0,-1"
       id="guide43"
       inkscape:locked="false" /><sodipodi:guide
       position="290.93332,577.59641"
       orientation="1,0"
       id="guide45"
       inkscape:locked="false" /><sodipodi:guide
       position="103.18084,132.91732"
       orientation="0,-1"
       id="guide46"
       inkscape:locked="false" /><sodipodi:guide
       position="30.35188,1.3851444"
       orientation="0,-1"
       id="guide47"
       inkscape:locked="false" /></sodipodi:namedview><defs
     id="defs1" /><g
     inkscape:groupmode="layer"
     id="layer3"
     inkscape:label="Completionist"
     transform="translate(-290.93333,-442.12975)"><path
       id="path11-7-9-8"
       style="display:inline;fill:#ffffff;fill-rule:evenodd;stroke:#000000;stroke-width:8;stroke-linecap:round;stroke-linejoin:round;stroke-miterlimit:2;stroke-dasharray:none;stroke-opacity:1;paint-order:stroke fill markers"
       d="m 326.18705,448.67908 c -2.38005,0 -4.27189,1.87211 -4.30965,4.18058 -0.34503,21.08804 -1.00928,44.69302 17.93763,58.11221 7.13337,5.05223 11.12646,7.79437 11.21862,16.12023 h 7.63335 7.63334 c 0.0921,-8.32586 4.08525,-11.068 11.21864,-16.12023 18.9469,-13.41919 18.28266,-37.02417 17.93764,-58.11221 -0.0377,-2.30847 -1.92961,-4.18058 -4.30967,-4.18058 H 358.667 Z m -13.30219,4.59715 c -8.78601,0.0177 -17.82901,3.92083 -16.38223,15.62347 2.39381,19.36253 19.36075,26.83577 26.79938,28.41599 l -3.62972,-10.1124 c -5.27545,-2.84773 -10.72258,-6.23459 -13.20348,-15.47324 -1.99234,-7.41917 1.50474,-10.75227 8.65629,-9.65515 0.47679,0.0731 0.97021,0.16627 1.47893,0.27891 v -8.85793 c -1.2133,-0.14463 -2.46405,-0.22217 -3.71917,-0.21965 z m 91.56431,0 c -1.25513,-0.003 -2.5059,0.075 -3.71917,0.21964 v 8.85793 c 8.13937,-1.80195 12.26036,1.46247 10.13521,9.37624 -2.48094,9.23865 -7.92803,12.62551 -13.2035,15.47324 l -1.81485,5.0562 -1.81484,5.05621 c 7.43862,-1.58023 24.40555,-9.05346 26.79936,-28.416 1.44681,-11.70264 -7.59619,-15.60585 -16.38221,-15.62347 z m -53.30012,79.84106 c -2.11659,8.40322 -7.35865,12.57937 -16.68083,12.52976 -0.65481,-0.004 -1.18521,0.48757 -1.18521,1.12282 v 9.3391 3.7772 h -8.59275 c -0.86892,0 -1.56779,0.67795 -1.56779,1.52084 v 9.28286 c 0,0.84286 0.69887,1.52139 1.56779,1.52139 h 33.97674 33.97675 c 0.86894,0 1.56778,-0.67853 1.56778,-1.52139 v -9.28286 c 0,-0.84289 -0.69884,-1.52084 -1.56778,-1.52084 H 384.051 v -3.7772 -9.3391 c 0,-0.63525 -0.53041,-1.12653 -1.18521,-1.12282 -9.32216,0.0496 -14.56426,-4.12654 -16.6808,-12.52976 H 358.667 Z"
       sodipodi:nodetypes="scscccssscsssccssccssccscccssccsccsssscssssccscccccs"
       inkscape:label="Trophy Stroke" /><path
       d="m 23.741374,4.8144095 c 0.169635,1.0370774 0.300694,2.487663 -0.135432,5.1090336 -0.339483,2.0404869 -0.712892,4.0759669 -1.043629,6.1178069 0.577653,0.152829 1.635133,-2.283135 2.196433,-3.514424 0.461698,-1.012799 1.03797,-2.8324075 1.510915,-3.4418416 0.35237,-0.422535 1.438727,-0.3415269 1.532158,0.6768551 0.122851,1.3390855 -0.32314,2.8629275 -0.632333,4.1725405 -0.261912,1.109341 -1.263936,2.961848 -2.301204,4.673637 -0.759229,1.293993 -1.626827,2.529171 -2.553875,3.722195 -0.842007,1.163298 -1.689273,2.431763 -1.768758,3.876148 -0.05322,0.923441 0.233524,1.823427 0.566026,2.681051 0.15239,0.561781 -0.230373,1.090945 -0.727652,1.419816 C 19.235754,31.066625 11.866652,31.626553 7.8044414,30.071405 6.7919776,29.683802 7.1669305,28.970558 7.5004538,28.072305 7.8338839,27.1743 7.5903385,25.995606 7.4078193,25.275883 7.0138563,23.722379 3.4236254,20.844299 2.7300489,20.250747 1.6959967,19.387938 0.58342063,18.485085 0.13549486,17.211921 -0.53504116,15.43425 1.0860535,14.711496 2.8675183,15.750463 3.9578157,16.352115 4.7138923,17.326408 5.598946,18.14763 6.3932794,18.829119 7.288231,19.121928 7.696209,17.575707 7.9242074,16.65734 7.8022911,15.709172 7.8473171,14.776451 7.8221588,13.074805 7.5848007,11.382981 7.4260663,9.6884045 7.2535077,7.8505692 7.0629486,6.0138621 6.950759,4.171912 6.8265647,2.1328639 8.4030417,1.1224304 9.3991938,2.5427892 c 0.5712611,0.7531594 1.1096402,1.6254415 1.8070902,5.9974321 0.29731,1.9067777 0.581762,3.8294807 1.279378,5.6486027 1.185945,-1.373019 1.142973,-4.2765435 1.482457,-6.0521766 0.181878,-0.9424634 0.837775,-4.1188542 1.310795,-5.75347 0.706606,-1.80187031 2.263579,-1.99507468 2.830266,-0.1745686 0.406386,1.5178506 0.240679,3.9909129 0.04429,5.8553799 -0.01598,1.9508543 -1.057684,5.1953213 -0.394767,6.9707643 0.89034,-0.220034 1.798682,-4.773656 2.095382,-5.8644668 0.473036,-1.6749185 0.788787,-3.3993578 1.438661,-5.019952 0.285454,-0.7118396 2.112815,-1.3889387 2.448628,0.6640753 z"
       fill="#feb4b4"
       fill-rule="evenodd"
       stroke="none"
       id="path1-8-1"
       sodipodi:nodetypes="ssssssssssssssssssssssssssssssssss"
       style="fill:#f7caaa;fill-opacity:1;stroke:#000000;stroke-width:4.20403;stroke-linecap:round;stroke-dasharray:none;stroke-opacity:1;paint-order:stroke markers fill"
       transform="matrix(1.9951355,0,0,1.8150013,366.68763,517.45965)"
       inkscape:label="Grab Icon" /></g></svg>
