<?xml version="1.0" encoding="UTF-8" standalone="no"?>
<!-- Created with Inkscape (http://www.inkscape.org/) -->

<svg
   width="512"
   height="512"
   viewBox="0 0 135.46666 135.46667"
   version="1.1"
   id="svg1"
   xml:space="preserve"
   xmlns="http://www.w3.org/2000/svg"
   xmlns:svg="http://www.w3.org/2000/svg"><defs
     id="defs1" /><g
     id="layer4"
     transform="translate(-581.86673)"><path
       d="m 662.51977,2.3884847 c -0.28075,-0.00771 -0.56149,-3.88e-4 -0.84078,0.022738 -4.46861,0.3700107 -7.70338,3.8744587 -9.52345,8.4589153 l -0.0651,0.168981 -0.0568,0.176734 c -2.08045,7.101435 -4.75853,20.019893 -5.53817,24.010421 v 0.0083 c -0.65459,3.381886 -0.99725,7.243134 -1.48828,10.940934 -0.59152,-3.097116 -1.57553,-5.940602 -2.08204,-9.149312 l -0.008,-0.0083 c -1.47066,-9.107397 -2.77658,-14.677927 -4.12275,-18.57251 -1.33091,-3.850456 -2.85031,-6.129432 -4.11551,-7.784021 -1.44905,-2.0230854 -3.39165,-3.5599405 -5.67614,-4.137215 -2.30133,-0.5815327 -4.77139,-0.067029 -6.63628,1.1410156 -3.7298,2.4160894 -5.48012,6.9985434 -5.15628,12.2504144 0.47409,7.688423 1.26831,15.288728 1.98438,22.821863 0.67145,7.080474 1.63813,13.922252 1.74046,20.580656 1.6e-4,0.01028 -1.6e-4,0.02176 0,0.03204 -0.17847,4.172729 0.17898,7.716196 -0.51263,10.483081 -0.24214,0.879997 -0.42879,1.148605 -0.57723,1.390096 -0.0528,-0.09291 -0.55374,-0.175802 -1.62625,-1.084688 -3.31627,-3.063823 -6.63594,-7.343683 -12.01219,-10.290328 -4.50668,-2.584817 -9.26994,-3.445568 -13.30462,-1.445906 -2.02341,1.002841 -3.71495,2.926261 -4.36717,5.197615 -0.64782,2.256038 -0.3594,4.670891 0.54467,7.061068 2.36738,6.601571 7.72864,10.677677 11.99565,14.194482 1.62332,1.370732 5.86856,4.771767 10.00301,8.67544 2.07529,1.959466 4.08823,4.025881 5.595,5.864241 1.50678,1.83836 2.429,3.5703 2.55385,4.0566 0.71232,2.77449 1.27837,7.10447 0.51263,9.14156 -0.64406,1.71338 -1.64478,3.48213 -1.71617,6.1774 -0.0357,1.34764 0.35604,3.0426 1.37459,4.37803 1.01856,1.33543 2.42764,2.19027 3.94395,2.76365 9.3668,3.54205 21.54553,4.48568 32.24609,4.31395 5.35028,-0.0859 10.30374,-0.4731 14.33763,-1.0604 4.03389,-0.5873 6.80077,-0.94699 9.45833,-2.68304 1.46744,-0.9586 2.82549,-2.20428 3.80597,-3.90415 0.98049,-1.69987 1.51001,-4.01873 0.88625,-6.29006 l -0.0568,-0.20102 -0.0734,-0.2005 c -1.32337,-3.3716 -2.26324,-6.52756 -2.09806,-9.35861 v -0.008 h 0.008 c 0.25184,-4.52056 3.1606,-9.13451 6.60374,-13.833267 3.90769,-4.97446 7.5915,-10.153883 10.84068,-15.623853 4.37968,-7.141353 8.64278,-14.531395 10.02729,-20.323824 1.249,-5.225509 3.34278,-11.783599 2.7249,-18.436084 -0.32328,-3.480662 -2.92878,-6.28561 -5.66839,-7.068819 -2.73961,-0.783209 -5.6902,-0.403912 -7.80779,2.104264 l -0.0486,0.04858 -0.0408,0.05581 c -1.68867,2.149388 -2.61066,4.656267 -3.72484,7.430554 -0.23721,0.590655 -0.41778,1.007642 -0.6506,1.598869 0.14303,-0.83422 0.29026,-1.654748 0.43098,-2.490288 1.8768,-11.142678 1.31902,-17.781352 0.56947,-22.307682 -0.44913,-2.712185 -1.49681,-5.007516 -3.20445,-6.626986 -1.70764,-1.61947 -3.97284,-2.343799 -5.95313,-2.337841 -1.98029,0.006 -3.72173,0.59392 -5.19658,1.477945 -1.47484,0.884027 -2.77828,2.030321 -3.54552,3.920175 -2.58943,6.378273 -3.86082,12.725174 -5.4653,18.757511 0.0134,-0.325066 0.11741,-0.701007 0.14159,-1.031978 l -0.0114,0.268717 c 0.83187,-7.800965 1.74456,-17.98346 -0.30076,-25.529191 l -0.0248,-0.0801 -0.0248,-0.07235 c -0.75104,-2.384223 -1.90093,-4.4065486 -3.5941,-5.8885295 -1.48151,-1.2967333 -3.44784,-2.0895435 -5.4131,-2.1435384 z m -0.0785,3.9697835 c 2.12873,0.041743 4.14063,1.7317139 5.24671,5.2415408 1.69214,6.242827 1.00222,16.414329 0.18448,24.082767 -0.0665,8.023745 -4.40414,21.367797 -1.64383,28.670085 3.70728,-0.904986 7.48963,-19.633536 8.72505,-24.119975 1.96967,-6.888837 3.28433,-13.981396 5.99034,-20.646801 1.18859,-2.927753 8.79747,-5.712822 10.19576,2.731099 0.70634,4.265436 1.25219,10.231651 -0.56379,21.013188 -1.41357,8.392398 -2.96832,16.764325 -4.34548,25.162288 2.40529,0.628576 6.80851,-9.390198 9.1457,-14.454415 1.92246,-4.16558 4.3218,-11.649676 6.29109,-14.156242 1.46723,-1.73786 5.99093,-1.404733 6.37997,2.78381 0.51154,5.507577 -1.34547,11.774868 -2.63291,17.161226 -1.09058,4.562652 -5.26278,12.182116 -9.58185,19.222599 -3.16134,5.322115 -6.77385,10.402309 -10.63397,15.309144 -3.50603,4.784573 -7.03396,10.001508 -7.36493,15.942178 -0.2216,3.79806 0.97195,7.49988 2.35645,11.02723 0.63453,2.31058 -0.95918,4.48682 -3.02979,5.83944 -4.78127,3.12336 -35.46516,5.42626 -52.37975,-0.96996 -4.21579,-1.59419 -2.65483,-4.52778 -1.26607,-8.22224 1.38836,-3.69344 0.37448,-8.54093 -0.38551,-11.50111 -1.64042,-6.38947 -16.58991,-18.226745 -19.47788,-20.667988 -4.30568,-3.548681 -8.93836,-7.262533 -10.80348,-12.498979 -2.79203,-7.311452 3.95824,-10.283693 11.37605,-6.010486 4.53988,2.474558 7.68821,6.481711 11.37347,9.859347 3.30751,2.802923 7.03403,4.007201 8.7328,-2.352311 0.94936,-3.777188 0.44142,-7.677285 0.6289,-11.513509 -0.10475,-6.998766 -1.09294,-13.956682 -1.7539,-20.926372 -0.71851,-7.558904 -1.51206,-15.113226 -1.9792,-22.689054 -0.51713,-8.38648 6.04738,-12.5427319 10.19524,-6.700883 2.37867,3.097699 4.6205,6.685498 7.52461,24.667228 1.23796,7.84246 2.42201,15.750753 5.3268,23.232691 4.93814,-5.647144 4.75918,-17.589467 6.17275,-24.892538 0.75732,-3.876294 3.48846,-16.940597 5.45807,-23.663672 1.56306,-3.937084 4.12553,-6.0066344 6.5381,-5.9593258 z"
       style="baseline-shift:baseline;display:inline;overflow:visible;vector-effect:none;fill-rule:evenodd;stroke:none;stroke-linecap:round;paint-order:stroke markers fill;enable-background:accumulate;stop-color:#000000;stop-opacity:1"
       id="path173" /><path
       d="m 662.44122,6.3582682 c -2.41257,-0.047309 -4.97504,2.0222418 -6.5381,5.9593258 -1.96961,6.723075 -4.70075,19.787378 -5.45807,23.663672 -1.41357,7.303071 -1.23461,19.245394 -6.17275,24.892538 -2.90479,-7.481938 -4.08884,-15.390231 -5.3268,-23.232691 -2.90411,-17.98173 -5.14594,-21.569529 -7.52461,-24.667228 -4.14786,-5.8418489 -10.71237,-1.685597 -10.19524,6.700883 0.46714,7.575828 1.26069,15.13015 1.9792,22.689054 0.66096,6.96969 1.64915,13.927606 1.7539,20.926372 -0.18748,3.836224 0.32046,7.736321 -0.6289,11.513509 -1.69877,6.359512 -5.42529,5.155234 -8.7328,2.352311 -3.68526,-3.377636 -6.83359,-7.384789 -11.37347,-9.859347 -7.41781,-4.273207 -14.16808,-1.300966 -11.37605,6.010486 1.86512,5.236446 6.4978,8.950298 10.80348,12.498979 2.88797,2.441243 17.83746,14.278518 19.47788,20.667988 0.75999,2.96018 1.77387,7.80767 0.38551,11.50111 -1.38876,3.69446 -2.94972,6.62805 1.26607,8.22224 16.91459,6.39622 47.59848,4.09332 52.37975,0.96996 2.07061,-1.35262 3.66432,-3.52886 3.02979,-5.83944 -1.3845,-3.52735 -2.57805,-7.22917 -2.35645,-11.02723 0.33097,-5.94067 3.8589,-11.157605 7.36493,-15.942178 3.86012,-4.906835 7.47263,-9.987029 10.63397,-15.309144 4.31907,-7.040483 8.49127,-14.659947 9.58185,-19.222599 1.28744,-5.386358 3.14445,-11.653649 2.63291,-17.161226 -0.38904,-4.188543 -4.91274,-4.52167 -6.37997,-2.78381 -1.96929,2.506566 -4.36863,9.990662 -6.29109,14.156242 -2.33719,5.064217 -6.74041,15.082991 -9.1457,14.454415 1.37716,-8.397963 2.93191,-16.76989 4.34548,-25.162288 1.81598,-10.781537 1.27013,-16.747752 0.56379,-21.013188 -1.39829,-8.443921 -9.00717,-5.658852 -10.19576,-2.731099 -2.70601,6.665405 -4.02067,13.757964 -5.99034,20.646801 -1.23542,4.486439 -5.01777,23.214989 -8.72505,24.119975 -2.76031,-7.302288 1.57729,-20.64634 1.64383,-28.670085 0.81774,-7.668438 1.50766,-17.83994 -0.18448,-24.082767 -1.10608,-3.5098269 -3.11798,-5.1997978 -5.24671,-5.2415408 z"
       style="baseline-shift:baseline;display:inline;overflow:visible;vector-effect:none;fill:#feb4b4;fill-rule:evenodd;stroke:none;stroke-linecap:round;paint-order:stroke markers fill;enable-background:accumulate;stop-color:#000000;stop-opacity:1"
       id="path172" /></g></svg>
