<?xml version="1.0" encoding="UTF-8" standalone="no"?>
<!-- Created with Inkscape (http://www.inkscape.org/) -->

<svg
   width="512"
   height="512"
   viewBox="0 0 135.46666 135.46667"
   version="1.1"
   id="svg1"
   xml:space="preserve"
   inkscape:version="1.4.3 (0d15f75, 2025-12-25)"
   sodipodi:docname="quicklooticons.svg"
   inkscape:export-batch-name=""
   inkscape:export-batch-path="Completionist Addons Dev\docs"
   xmlns:inkscape="http://www.inkscape.org/namespaces/inkscape"
   xmlns:sodipodi="http://sodipodi.sourceforge.net/DTD/sodipodi-0.dtd"
   xmlns="http://www.w3.org/2000/svg"
   xmlns:svg="http://www.w3.org/2000/svg"><sodipodi:namedview
     id="namedview1"
     pagecolor="#818181"
     bordercolor="#000000"
     borderopacity="0.25"
     inkscape:showpageshadow="2"
     inkscape:pageopacity="0.0"
     inkscape:pagecheckerboard="0"
     inkscape:deskcolor="#d1d1d1"
     inkscape:document-units="mm"
     inkscape:zoom="0.29028319"
     inkscape:cx="888.78726"
     inkscape:cy="456.45082"
     inkscape:window-width="2560"
     inkscape:window-height="1369"
     inkscape:window-x="1912"
     inkscape:window-y="-8"
     inkscape:window-maximized="1"
     inkscape:current-layer="layer5"
     inkscape:clip-to-page="true"
     showguides="true"><inkscape:page
       x="0"
       y="0"
       width="135.46666"
       height="135.46667"
       id="page11"
       margin="0"
       bleed="0" /><inkscape:page
       x="145.46666"
       y="0"
       width="135.46666"
       height="135.46667"
       id="page12"
       margin="0"
       bleed="0" /><sodipodi:guide
       position="105.16148,132.96556"
       orientation="0,-1"
       id="guide12"
       inkscape:locked="false" /><sodipodi:guide
       position="74.687128,1.3368269"
       orientation="0,-1"
       id="guide13"
       inkscape:locked="false" /><sodipodi:guide
       position="280.93332,135.46667"
       orientation="0,-1"
       id="guide14"
       inkscape:locked="false" /><sodipodi:guide
       position="280.93332,-4.8046875e-06"
       orientation="0,-1"
       id="guide15"
       inkscape:locked="false" /><sodipodi:guide
       position="135.46666,135.46667"
       orientation="1,0"
       id="guide16"
       inkscape:locked="false" /><sodipodi:guide
       position="145.46666,135.46667"
       orientation="1,0"
       id="guide17"
       inkscape:locked="false" /><sodipodi:guide
       position="280.93331,135.46668"
       orientation="1,0"
       id="guide18"
       inkscape:locked="false" /><inkscape:page
       x="290.93332"
       y="0"
       width="135.46666"
       height="135.46667"
       id="page18"
       margin="0"
       bleed="0" /><sodipodi:guide
       position="0,135.46667"
       orientation="1,0"
       id="guide19"
       inkscape:locked="false" /><sodipodi:guide
       position="290.93332,135.46667"
       orientation="1,0"
       id="guide20"
       inkscape:locked="false" /><sodipodi:guide
       position="426.39998,135.46667"
       orientation="1,0"
       id="guide21"
       inkscape:locked="false" /><sodipodi:guide
       position="69.271432,-9.4564672"
       orientation="0,-1"
       id="guide22"
       inkscape:locked="false" /><inkscape:page
       x="0"
       y="144.92314"
       width="135.46666"
       height="135.46667"
       id="page22"
       margin="0"
       bleed="0" /><inkscape:page
       x="145.46664"
       y="144.92314"
       width="135.46666"
       height="135.46667"
       id="page23"
       margin="0"
       bleed="0" /><inkscape:page
       x="290.93332"
       y="144.92314"
       width="135.46666"
       height="135.46667"
       id="page24"
       margin="0"
       bleed="0" /><inkscape:page
       x="436.39999"
       y="0"
       width="135.46666"
       height="135.46667"
       id="page25"
       margin="0"
       bleed="0" /><sodipodi:guide
       position="145.46664,-144.92315"
       orientation="0,-1"
       id="guide25"
       inkscape:locked="false" /><sodipodi:guide
       position="145.46665,-155.7468"
       orientation="0,-1"
       id="guide26"
       inkscape:locked="false" /><inkscape:page
       x="0"
       y="291.21347"
       width="135.46666"
       height="135.46667"
       id="page26"
       margin="0"
       bleed="0" /><inkscape:page
       x="145.46664"
       y="291.21347"
       width="135.46666"
       height="135.46667"
       id="page27"
       margin="0"
       bleed="0" /><inkscape:page
       x="290.93332"
       y="291.21347"
       width="135.46666"
       height="135.46667"
       id="page28"
       margin="0"
       bleed="0" /><sodipodi:guide
       position="436.39999,-4.8046875e-06"
       orientation="1,0"
       id="guide28"
       inkscape:locked="false" /><sodipodi:guide
       position="71.586102,-240.6014"
       orientation="1,0"
       id="guide29"
       inkscape:locked="false" /><sodipodi:guide
       position="119.55548,-228.95925"
       orientation="0,-1"
       id="guide30"
       inkscape:locked="false" /><inkscape:page
       x="581.86664"
       y="0"
       width="135.46666"
       height="135.46667"
       id="page30"
       margin="0"
       bleed="0" /><sodipodi:guide
       position="0,-291.21348"
       orientation="0,-1"
       id="guide31"
       inkscape:locked="false" /><sodipodi:guide
       position="0,-291.21349"
       orientation="0,-1"
       id="guide32"
       inkscape:locked="false" /><sodipodi:guide
       position="-61.227874,-306.66306"
       orientation="0,-1"
       id="guide33"
       inkscape:locked="false" /><inkscape:page
       x="0"
       y="442.12973"
       width="135.46666"
       height="135.46667"
       id="page33"
       margin="0"
       bleed="0" /><inkscape:page
       x="145.46664"
       y="442.12973"
       width="135.46666"
       height="135.46667"
       id="page34"
       margin="0"
       bleed="0" /><inkscape:page
       x="290.93332"
       y="442.12973"
       width="135.46666"
       height="135.46667"
       id="page35"
       margin="0"
       bleed="0" /><sodipodi:guide
       position="102.9595,-379.87551"
       orientation="0,-1"
       id="guide35"
       inkscape:locked="false" /><inkscape:page
       x="436.39996"
       y="144.92314"
       width="135.46666"
       height="135.46667"
       id="page37"
       margin="0"
       bleed="0" /><sodipodi:guide
       position="538.86186,81.650588"
       orientation="1,0"
       id="guide37"
       inkscape:locked="false" /><sodipodi:guide
       position="467.66728,43.947105"
       orientation="1,0"
       id="guide38"
       inkscape:locked="false" /><sodipodi:guide
       position="389.60263,132.91732"
       orientation="0,-1"
       id="guide39"
       inkscape:locked="false" /><sodipodi:guide
       position="323.86323,1.3851267"
       orientation="0,-1"
       id="guide40"
       inkscape:locked="false" /><sodipodi:guide
       position="386.38011,-12.005834"
       orientation="0,-1"
       id="guide41"
       inkscape:locked="false" /><sodipodi:guide
       position="321.92972,-143.53802"
       orientation="0,-1"
       id="guide42"
       inkscape:locked="false" /><inkscape:page
       x="436.39996"
       y="291.21347"
       width="135.46666"
       height="135.46667"
       id="page43"
       margin="0"
       bleed="0" /><sodipodi:guide
       position="392.84193,-158.29616"
       orientation="0,-1"
       id="guide43"
       inkscape:locked="false" /><inkscape:page
       x="581.86664"
       y="291.21347"
       width="135.46666"
       height="135.46667"
       id="page44"
       margin="0"
       bleed="0" /><inkscape:page
       x="581.86664"
       y="144.92314"
       width="135.46666"
       height="135.46667"
       id="page45"
       margin="0"
       bleed="0" /><sodipodi:guide
       position="581.86664,135.46667"
       orientation="1,0"
       id="guide45"
       inkscape:locked="false" /><sodipodi:guide
       position="394.11416,-309.21242"
       orientation="0,-1"
       id="guide46"
       inkscape:locked="false" /><sodipodi:guide
       position="321.28521,-440.7446"
       orientation="0,-1"
       id="guide47"
       inkscape:locked="false" /></sodipodi:namedview><defs
     id="defs1"><inkscape:path-effect
       effect="fillet_chamfer"
       id="path-effect10"
       is_visible="true"
       lpeversion="1"
       nodesatellites_param="F,0,0,1,0,0.65283759,0,1 @ F,0,0,1,0,0.57318386,0,1 @ F,0,0,1,0,1.0515356,0,1 @ F,0,0,1,0,1.4900256,0,1 @ F,0,0,1,0,1.8135224,0,1 @ F,0,0,1,0,0.7823008,0,1"
       radius="0"
       unit="px"
       method="auto"
       mode="F"
       chamfer_steps="1"
       flexible="false"
       use_knot_distance="true"
       apply_no_radius="true"
       apply_with_radius="true"
       only_selected="false"
       hide_knots="false" /><inkscape:path-effect
       effect="fillet_chamfer"
       id="path-effect7"
       is_visible="true"
       lpeversion="1"
       nodesatellites_param="F,0,0,1,0,0.69638098,0,1 @ F,0,0,1,0,0,0,1 @ F,0,0,1,0,0,0,1 @ F,0,0,1,0,0,0,1 @ F,0,0,1,0,0.84502429,0,1"
       radius="0"
       unit="px"
       method="auto"
       mode="F"
       chamfer_steps="1"
       flexible="false"
       use_knot_distance="true"
       apply_no_radius="true"
       apply_with_radius="true"
       only_selected="false"
       hide_knots="false" /><inkscape:path-effect
       effect="fillet_chamfer"
       id="path-effect5"
       is_visible="true"
       lpeversion="1"
       nodesatellites_param="F,0,0,1,0,2.5309276,0,1 @ F,0,0,1,0,0,0,1 @ F,0,0,1,0,0,0,1 @ F,0,0,1,0,0,0,1"
       radius="0"
       unit="px"
       method="auto"
       mode="F"
       chamfer_steps="1"
       flexible="false"
       use_knot_distance="true"
       apply_no_radius="true"
       apply_with_radius="true"
       only_selected="false"
       hide_knots="false" /><inkscape:path-effect
       effect="fillet_chamfer"
       id="path-effect10-1"
       is_visible="true"
       lpeversion="1"
       nodesatellites_param="F,0,0,1,0,0.65283759,0,1 @ F,0,0,1,0,0.57318386,0,1 @ F,0,0,1,0,1.0515356,0,1 @ F,0,0,1,0,1.4900256,0,1 @ F,0,0,1,0,1.8135224,0,1 @ F,0,0,1,0,0.7823008,0,1"
       radius="0"
       unit="px"
       method="auto"
       mode="F"
       chamfer_steps="1"
       flexible="false"
       use_knot_distance="true"
       apply_no_radius="true"
       apply_with_radius="true"
       only_selected="false"
       hide_knots="false" /><inkscape:path-effect
       effect="fillet_chamfer"
       id="path-effect7-6"
       is_visible="true"
       lpeversion="1"
       nodesatellites_param="F,0,0,1,0,0.69638098,0,1 @ F,0,0,1,0,0,0,1 @ F,0,0,1,0,0,0,1 @ F,0,0,1,0,0,0,1 @ F,0,0,1,0,0.84502429,0,1"
       radius="0"
       unit="px"
       method="auto"
       mode="F"
       chamfer_steps="1"
       flexible="false"
       use_knot_distance="true"
       apply_no_radius="true"
       apply_with_radius="true"
       only_selected="false"
       hide_knots="false" /><inkscape:path-effect
       effect="fillet_chamfer"
       id="path-effect5-8"
       is_visible="true"
       lpeversion="1"
       nodesatellites_param="F,0,0,1,0,2.5309276,0,1 @ F,0,0,1,0,0,0,1 @ F,0,0,1,0,0,0,1 @ F,0,0,1,0,0,0,1"
       radius="0"
       unit="px"
       method="auto"
       mode="F"
       chamfer_steps="1"
       flexible="false"
       use_knot_distance="true"
       apply_no_radius="true"
       apply_with_radius="true"
       only_selected="false"
       hide_knots="false" /><inkscape:path-effect
       effect="fillet_chamfer"
       id="path-effect10-8"
       is_visible="true"
       lpeversion="1"
       nodesatellites_param="F,0,0,1,0,0.65283759,0,1 @ F,0,0,1,0,0.57318386,0,1 @ F,0,0,1,0,1.0515356,0,1 @ F,0,0,1,0,1.4900256,0,1 @ F,0,0,1,0,1.8135224,0,1 @ F,0,0,1,0,0.7823008,0,1"
       radius="0"
       unit="px"
       method="auto"
       mode="F"
       chamfer_steps="1"
       flexible="false"
       use_knot_distance="true"
       apply_no_radius="true"
       apply_with_radius="true"
       only_selected="false"
       hide_knots="false" /><inkscape:path-effect
       effect="fillet_chamfer"
       id="path-effect7-65"
       is_visible="true"
       lpeversion="1"
       nodesatellites_param="F,0,0,1,0,0.69638098,0,1 @ F,0,0,1,0,0,0,1 @ F,0,0,1,0,0,0,1 @ F,0,0,1,0,0,0,1 @ F,0,0,1,0,0.84502429,0,1"
       radius="0"
       unit="px"
       method="auto"
       mode="F"
       chamfer_steps="1"
       flexible="false"
       use_knot_distance="true"
       apply_no_radius="true"
       apply_with_radius="true"
       only_selected="false"
       hide_knots="false" /><inkscape:path-effect
       effect="fillet_chamfer"
       id="path-effect5-0"
       is_visible="true"
       lpeversion="1"
       nodesatellites_param="F,0,0,1,0,2.5309276,0,1 @ F,0,0,1,0,0,0,1 @ F,0,0,1,0,0,0,1 @ F,0,0,1,0,0,0,1"
       radius="0"
       unit="px"
       method="auto"
       mode="F"
       chamfer_steps="1"
       flexible="false"
       use_knot_distance="true"
       apply_no_radius="true"
       apply_with_radius="true"
       only_selected="false"
       hide_knots="false" /><inkscape:path-effect
       effect="fillet_chamfer"
       id="path-effect10-84"
       is_visible="true"
       lpeversion="1"
       nodesatellites_param="F,0,0,1,0,0.65283759,0,1 @ F,0,0,1,0,0.57318386,0,1 @ F,0,0,1,0,1.0515356,0,1 @ F,0,0,1,0,1.4900256,0,1 @ F,0,0,1,0,1.8135224,0,1 @ F,0,0,1,0,0.7823008,0,1"
       radius="0"
       unit="px"
       method="auto"
       mode="F"
       chamfer_steps="1"
       flexible="false"
       use_knot_distance="true"
       apply_no_radius="true"
       apply_with_radius="true"
       only_selected="false"
       hide_knots="false" /><inkscape:path-effect
       effect="fillet_chamfer"
       id="path-effect7-0"
       is_visible="true"
       lpeversion="1"
       nodesatellites_param="F,0,0,1,0,0.69638098,0,1 @ F,0,0,1,0,0,0,1 @ F,0,0,1,0,0,0,1 @ F,0,0,1,0,0,0,1 @ F,0,0,1,0,0.84502429,0,1"
       radius="0"
       unit="px"
       method="auto"
       mode="F"
       chamfer_steps="1"
       flexible="false"
       use_knot_distance="true"
       apply_no_radius="true"
       apply_with_radius="true"
       only_selected="false"
       hide_knots="false" /><inkscape:path-effect
       effect="fillet_chamfer"
       id="path-effect5-7"
       is_visible="true"
       lpeversion="1"
       nodesatellites_param="F,0,0,1,0,2.5309276,0,1 @ F,0,0,1,0,0,0,1 @ F,0,0,1,0,0,0,1 @ F,0,0,1,0,0,0,1"
       radius="0"
       unit="px"
       method="auto"
       mode="F"
       chamfer_steps="1"
       flexible="false"
       use_knot_distance="true"
       apply_no_radius="true"
       apply_with_radius="true"
       only_selected="false"
       hide_knots="false" /></defs><g
     inkscape:label="Legacy of the Dragonborn"
     inkscape:groupmode="layer"
     id="layer1"><path
       style="fill:#ffffff;fill-opacity:1;stroke:#000000;stroke-width:8;stroke-linecap:round;stroke-linejoin:round;stroke-dasharray:none;stroke-opacity:1;paint-order:stroke fill markers"
       d="m 11.333193,41.702804 c 33.169523,-10.251643 69.942465,-13.949005 112.550507,0 C 113.47049,102.82389 76.398524,129.84949 67.443187,130.15979 57.480512,129.8644 15.827471,100.63118 11.333193,41.702804 Z m 106.020397,4.132415 c 0.0604,-0.737046 -46.658006,-14.888227 -99.358701,-0.351154 1.486505,10.120052 4.91879,28.891466 12.876803,42.12629 11.526025,19.168725 31.21042,36.320315 36.44214,37.426265 5.166117,-0.34112 30.270932,-20.92513 39.026128,-44.648444 6.69608,-18.143928 10.29466,-25.789864 11.01363,-34.552957 z"
       id="path10"
       sodipodi:nodetypes="ccscscscss"
       inkscape:label="Shield Stroke" /><path
       style="fill:#ffffff;fill-opacity:1;stroke:#000000;stroke-width:8;stroke-linecap:round;stroke-linejoin:round;stroke-dasharray:none;stroke-opacity:1;paint-order:stroke fill markers"
       d="m 11.333185,483.83252 c 33.16953,-10.25164 69.94247,-13.949 112.550515,0 -10.41321,61.12109 -47.485175,88.14669 -56.440515,88.45699 -9.96268,-0.29539 -51.61572,-29.52861 -56.11,-88.45699 z m 106.020405,4.13242 c 0.0604,-0.73705 -46.658015,-14.88823 -99.358705,-0.35116 1.4865,10.12005 4.91879,28.89147 12.8768,42.12629 11.52603,19.16873 31.21042,36.32032 36.44214,37.42627 5.16612,-0.34112 30.270941,-20.92513 39.026135,-44.64845 6.69608,-18.14393 10.29466,-25.78986 11.01363,-34.55295 z"
       id="path10-4-6-7"
       sodipodi:nodetypes="ccscscscss"
       inkscape:label="Shield Stroke" /><path
       style="fill:#ffffff;fill-opacity:1;stroke:#000000;stroke-width:8;stroke-linecap:round;stroke-linejoin:round;stroke-dasharray:none;stroke-opacity:1;paint-order:stroke fill markers"
       d="m 11.333189,186.62594 c 33.169523,-10.25164 69.942465,-13.949 112.550511,0 -10.41321,61.12109 -47.48518,88.14669 -56.440517,88.45699 -9.962675,-0.29539 -51.615716,-29.52861 -56.109994,-88.45699 z m 106.020401,4.13242 c 0.0604,-0.73705 -46.65801,-14.88823 -99.358705,-0.35116 1.486505,10.12005 4.91879,28.89147 12.876803,42.12629 11.526025,19.16873 31.21042,36.32032 36.44214,37.42627 5.166117,-0.34112 30.270932,-20.92513 39.026132,-44.64845 6.69608,-18.14393 10.29466,-25.78986 11.01363,-34.55295 z"
       id="path10-4"
       sodipodi:nodetypes="ccscscscss"
       inkscape:label="Shield Stroke" /><path
       style="fill:#ffffff;fill-opacity:1;stroke:#000000;stroke-width:8;stroke-linecap:round;stroke-linejoin:round;stroke-dasharray:none;stroke-opacity:1;paint-order:stroke fill markers"
       d="m 11.333188,332.91626 c 33.169523,-10.25164 69.942463,-13.949 112.550512,0 -10.41321,61.12109 -47.485179,88.14669 -56.440518,88.45699 -9.962675,-0.29539 -51.615716,-29.52861 -56.109994,-88.45699 z m 106.020402,4.13242 c 0.0604,-0.73705 -46.658011,-14.88823 -99.358706,-0.35116 1.486505,10.12005 4.91879,28.89147 12.876803,42.12629 11.526025,19.16873 31.21042,36.32032 36.44214,37.42627 5.166117,-0.34112 30.270934,-20.92513 39.026133,-44.64845 6.69608,-18.14393 10.29466,-25.78986 11.01363,-34.55295 z"
       id="path10-4-6"
       sodipodi:nodetypes="ccscscscss"
       inkscape:label="Shield Stroke" /><path
       style="display:inline;fill:#ffffff;fill-opacity:1;stroke:#000000;stroke-width:8;stroke-linecap:round;stroke-linejoin:round;stroke-dasharray:none;stroke-opacity:1;paint-order:stroke fill markers"
       d="m 69.655691,407.09428 c 0.766413,-0.20025 1.569816,-0.86902 3.488172,-2.90368 2.084038,-2.21038 4.900188,-4.70625 8.040608,-7.12615 l 0.61194,-0.47156 -0.79408,-2.34209 c -2.20595,-6.5063 -1.80255,-12.5984 1.22453,-18.49294 2.97533,-5.79379 13.83203,-1.05256 13.83203,6.04058 0,1.54822 0.52737,1.37123 0.97485,-0.32716 1.01036,-3.83476 -0.82799,-6.98102 -5.61973,-9.61793 -3.71076,-2.04203 -4.95832,-3.88711 -4.35117,-6.43513 0.49511,-2.0778 0.60012,-2.13514 2.33683,-1.2758 2.42939,1.20207 7.6785,3.40483 10.10063,4.23866 8.526559,2.93533 12.185659,6.76909 13.132139,13.75896 l 0.19399,1.43274 0.21465,-0.78149 c 1.06049,-3.86092 0.0426,-7.98019 -3.28888,-13.31081 -0.79716,-1.27547 -1.63195,-2.6707 -1.85511,-3.10052 -1.25135,-2.4102 -6.48958,-6.93348 -10.726209,-9.26222 -1.36373,-0.74961 -2.13248,-1.30961 -1.89984,-1.38396 0.21492,-0.0687 0.83748,-0.26011 1.38348,-0.42537 1.34594,-0.40741 1.26012,-0.75393 -0.62431,-2.52099 -0.88936,-0.83397 -2.21,-2.24895 -2.93476,-3.14441 -0.72475,-0.89546 -1.48991,-1.62811 -1.70034,-1.62811 -1.74437,0 2.40609,-5.80366 5.44777,-7.6177 3.188029,-1.90132 9.509179,-7.42938 9.149699,-8.00173 -0.19652,-0.31291 -0.64954,-0.14041 -2.48054,0.94456 -2.83263,1.67849 -6.777519,2.66848 -9.205549,2.31019 -1.45707,-0.21501 -1.80164,0.29917 2.90763,-4.33903 6.227369,-6.13338 9.818369,-11.56862 11.165959,-16.90044 0.23537,-0.93128 0.65667,-2.43823 0.93621,-3.34878 0.5191,-1.69087 0.72021,-5.86947 0.29492,-6.12811 -0.11733,-0.0714 -1.20676,2.2955 -2.42095,5.25969 -4.06632,9.92706 -4.9723,11.3156 -9.433229,14.45761 -3.62034,2.54996 -11.58872,4.77865 -10.24191,2.86458 6.69762,-9.51861 8.31127,-20.4437 4.19903,-28.42924 -0.71199,-1.38263 -1.71114,-1.93724 -1.37178,-0.76145 2.87795,9.97116 -0.0485,18.24978 -8.31416,23.52002 -1.52862,0.97465 -3.53548,2.48472 -4.45968,3.3557 l -1.68037,1.5836 0.18221,-1.19764 0.18221,-1.19764 -1.75738,-1.23401 c -3.810175,-2.67548 -6.388926,-7.56166 -6.71152,-12.71691 -0.141561,-2.26222 -0.488458,-2.26222 -0.630018,0 -0.322594,5.15525 -2.901346,10.04143 -6.711523,12.71691 l -1.757376,1.23401 0.182208,1.19764 0.182208,1.19764 -1.680368,-1.5836 c -0.924203,-0.87098 -2.931059,-2.38105 -4.45968,-3.3557 -8.26567,-5.27024 -11.192107,-13.54886 -8.314163,-23.52002 0.339362,-1.17579 -0.659783,-0.62118 -1.371781,0.76145 -4.112241,7.98554 -2.498591,18.91063 4.199035,28.42924 1.346806,1.91407 -6.621566,-0.31462 -10.241908,-2.86458 -4.460928,-3.14201 -5.366909,-4.53055 -9.433234,-14.45761 -1.214185,-2.96419 -2.303616,-5.33105 -2.420948,-5.25969 -0.425287,0.25864 -0.224179,4.43724 0.294926,6.12811 0.27954,0.91055 0.700834,2.4175 0.936209,3.34878 1.347587,5.33182 4.938589,10.76706 11.16595,16.90044 4.709269,4.6382 4.364706,4.12402 2.907636,4.33903 -2.428036,0.35829 -6.372918,-0.6317 -9.205555,-2.31019 -1.830994,-1.08497 -2.284016,-1.25747 -2.48054,-0.94456 -0.359471,0.57235 5.961682,6.10041 9.149704,8.00173 3.041675,1.81404 7.19214,7.6177 5.447769,7.6177 -0.210431,0 -0.975585,0.73265 -1.700343,1.62811 -0.724758,0.89546 -2.0454,2.31044 -2.93476,3.14441 -1.884431,1.76706 -1.970244,2.11358 -0.624302,2.52099 0.545993,0.16526 1.168554,0.35668 1.383471,0.42537 0.232641,0.0744 -0.536101,0.63435 -1.899837,1.38396 -4.236622,2.32874 -9.474849,6.85202 -10.726206,9.26222 -0.223159,0.42982 -1.057953,1.82505 -1.855097,3.10052 -3.331573,5.33062 -4.349374,9.44989 -3.288891,13.3108 l 0.214655,0.7815 0.194003,-1.43274 c 0.946464,-6.98987 4.605561,-10.82363 13.132116,-13.75896 2.42213,-0.83383 7.671241,-3.03659 10.100629,-4.23866 1.736711,-0.85934 1.841727,-0.802 2.336834,1.2758 0.60715,2.54802 -0.640416,4.3931 -4.351167,6.43513 -4.79174,2.63691 -6.630095,5.78317 -5.619736,9.61793 0.447485,1.69839 0.974854,1.87538 0.974854,0.32716 0,-5.35411 8.996033,-11.18788 12.479165,-8.09252 3.739744,3.3234 5.002786,13.39133 2.577393,20.54488 l -0.794085,2.34209 0.611948,0.47156 c 3.138553,2.41847 5.955605,4.91475 8.034343,7.11951 3.031947,3.21574 4.550148,3.77729 7.868472,2.91032 z"
       id="path9-3-0"
       inkscape:label="Dragon Stroke" /><path
       style="display:inline;fill:#ffffff;fill-opacity:1;stroke:#000000;stroke-width:8;stroke-linecap:round;stroke-linejoin:round;stroke-dasharray:none;stroke-opacity:1;paint-order:stroke fill markers"
       d="m 69.655696,115.88082 c 0.766413,-0.20025 1.569816,-0.86902 3.488172,-2.90368 2.084034,-2.21038 4.900192,-4.70625 8.040604,-7.12615 l 0.611948,-0.47156 -0.794085,-2.34209 c -2.205945,-6.5063 -1.802552,-12.598395 1.224526,-18.492937 2.975336,-5.79379 13.832032,-1.052564 13.832032,6.040585 0,1.548215 0.52737,1.371226 0.974854,-0.327169 1.010359,-3.834755 -0.827996,-6.981018 -5.619735,-9.617922 -3.710752,-2.042036 -4.958319,-3.887115 -4.351168,-6.435131 0.495107,-2.077807 0.600123,-2.13514 2.336834,-1.275805 2.429387,1.202076 7.678499,3.404833 10.10063,4.238667 8.526552,2.935322 12.185652,6.769084 13.132132,13.758957 l 0.19399,1.432735 0.21465,-0.781491 c 1.06049,-3.860915 0.0426,-7.980188 -3.28888,-13.310809 -0.79716,-1.275464 -1.63195,-2.670699 -1.85511,-3.10052 -1.25135,-2.410197 -6.48958,-6.933478 -10.726202,-9.26222 -1.363736,-0.749605 -2.132478,-1.309603 -1.899838,-1.383956 0.214916,-0.06869 0.837478,-0.260106 1.383473,-0.425373 1.345941,-0.407404 1.260127,-0.753925 -0.624304,-2.520987 -0.88936,-0.833968 -2.210002,-2.248954 -2.934759,-3.144413 -0.724758,-0.895459 -1.489912,-1.628108 -1.700344,-1.628108 -1.744371,0 2.406094,-5.803661 5.447769,-7.617701 3.188025,-1.90132 9.509175,-7.429381 9.149695,-8.001726 -0.19652,-0.31291 -0.64954,-0.140408 -2.48054,0.944555 -2.83263,1.678492 -6.77751,2.668484 -9.205545,2.310192 -1.457071,-0.215013 -1.801634,0.299175 2.907634,-4.339028 6.227361,-6.13338 9.818361,-11.568622 11.165951,-16.90044 0.23537,-0.931277 0.65667,-2.438228 0.93621,-3.34878 0.5191,-1.690869 0.72021,-5.869475 0.29492,-6.128115 -0.11733,-0.07136 -1.20676,2.295504 -2.42095,5.259695 -4.06632,9.927058 -4.9723,11.315596 -9.433226,14.457612 -3.620342,2.549957 -11.588714,4.778643 -10.241908,2.864573 6.697625,-9.518611 8.311275,-20.4437 4.199035,-28.4292376 -0.711998,-1.382626 -1.711145,-1.9372354 -1.371782,-0.7614538 2.877944,9.9711604 -0.04849,18.2497864 -8.314163,23.5200204 -1.528621,0.974657 -3.535477,2.484725 -4.459679,3.355706 l -1.680368,1.583601 0.182207,-1.197641 0.182209,-1.19764 -1.757377,-1.234014 c -3.810177,-2.675473 -6.388928,-7.561659 -6.711522,-12.716909 -0.141561,-2.262216 -0.488458,-2.262216 -0.630018,0 -0.322594,5.15525 -2.901346,10.041436 -6.711523,12.716909 l -1.757376,1.234014 0.182208,1.19764 0.182208,1.197641 -1.680368,-1.583601 C 56.444614,33.116334 54.437758,31.606266 52.909137,30.631609 44.643467,25.361375 41.71703,17.082749 44.594974,7.1115886 44.934336,5.935807 43.935191,6.4904164 43.223193,7.8730424 39.110952,15.85858 40.724602,26.783669 47.422228,36.30228 48.769034,38.21635 40.800662,35.987664 37.18032,33.437707 32.719392,30.295691 31.813411,28.907153 27.747086,18.980095 26.532901,16.015904 25.44347,13.649041 25.326138,13.7204 c -0.425287,0.25864 -0.224179,4.437246 0.294926,6.128115 0.27954,0.910552 0.700834,2.417503 0.936209,3.34878 1.347587,5.331818 4.938589,10.76706 11.16595,16.90044 4.709269,4.638203 4.364706,4.124015 2.907636,4.339028 -2.428036,0.358292 -6.372918,-0.6317 -9.205555,-2.310192 -1.830994,-1.084963 -2.284016,-1.257465 -2.48054,-0.944555 -0.359471,0.572345 5.961682,6.100406 9.149704,8.001726 3.041675,1.81404 7.19214,7.617701 5.447769,7.617701 -0.210431,0 -0.975585,0.732649 -1.700343,1.628108 -0.724758,0.895459 -2.0454,2.310445 -2.93476,3.144413 -1.884431,1.767062 -1.970244,2.113583 -0.624302,2.520987 0.545993,0.165267 1.168554,0.356685 1.383471,0.425373 0.232641,0.07436 -0.536101,0.634351 -1.899837,1.383956 -4.236622,2.328742 -9.474849,6.852023 -10.726206,9.26222 -0.223159,0.429821 -1.057953,1.825056 -1.855097,3.10052 -3.331573,5.330621 -4.349374,9.449894 -3.288891,13.310809 l 0.214655,0.781491 0.194003,-1.432735 c 0.946464,-6.989873 4.605561,-10.823635 13.132116,-13.758957 2.42213,-0.833834 7.671241,-3.036591 10.100629,-4.238667 1.736711,-0.859335 1.841727,-0.802002 2.336834,1.275805 0.60715,2.548016 -0.640416,4.393095 -4.351167,6.435131 -4.79174,2.636904 -6.630095,5.783167 -5.619736,9.617922 0.447485,1.698395 0.974854,1.875384 0.974854,0.327169 0,-5.35411 8.996033,-11.187886 12.479165,-8.092529 3.739744,3.323403 5.002786,13.391334 2.577393,20.544881 l -0.794085,2.34209 0.611948,0.47156 c 3.138553,2.41847 5.955605,4.91475 8.034343,7.11951 3.031947,3.21574 4.550148,3.77729 7.868472,2.91032 z"
       id="path9"
       inkscape:label="Dragon Stroke" /><path
       style="display:inline;fill:#ffffff;fill-opacity:1;stroke:#000000;stroke-width:8;stroke-linecap:round;stroke-linejoin:round;stroke-dasharray:none;stroke-opacity:1;paint-order:stroke fill markers"
       d="m 69.655695,558.01054 c 0.76641,-0.20025 1.56981,-0.86902 3.48817,-2.90368 2.08404,-2.21038 4.90019,-4.70625 8.04061,-7.12615 l 0.61194,-0.47156 -0.79408,-2.34209 c -2.20595,-6.5063 -1.80255,-12.5984 1.22453,-18.49294 2.97533,-5.79379 13.832031,-1.05256 13.832031,6.04058 0,1.54822 0.52737,1.37123 0.97485,-0.32716 1.01036,-3.83476 -0.82799,-6.98102 -5.619731,-9.61793 -3.71076,-2.04203 -4.95832,-3.88711 -4.35117,-6.43513 0.49511,-2.0778 0.60012,-2.13514 2.33683,-1.2758 2.42939,1.20207 7.678501,3.40483 10.100631,4.23866 8.526564,2.93533 12.185664,6.76909 13.132144,13.75896 l 0.19399,1.43274 0.21465,-0.78149 c 1.06049,-3.86092 0.0426,-7.98019 -3.28888,-13.31081 -0.79716,-1.27547 -1.63195,-2.6707 -1.85511,-3.10052 -1.25135,-2.4102 -6.48958,-6.93348 -10.726214,-9.26222 -1.36373,-0.74961 -2.13248,-1.30961 -1.89984,-1.38396 0.21492,-0.0687 0.83748,-0.26011 1.38348,-0.42537 1.34594,-0.40741 1.26012,-0.75393 -0.62431,-2.52099 -0.88936,-0.83397 -2.21,-2.24895 -2.93476,-3.14441 -0.724751,-0.89546 -1.489911,-1.62811 -1.700341,-1.62811 -1.74437,0 2.406091,-5.80366 5.447771,-7.6177 3.188034,-1.90132 9.509184,-7.42938 9.149704,-8.00173 -0.19652,-0.31291 -0.64954,-0.14041 -2.48054,0.94456 -2.83263,1.67849 -6.777524,2.66848 -9.205554,2.31019 -1.45707,-0.21501 -1.801641,0.29917 2.90763,-4.33903 6.227374,-6.13338 9.818374,-11.56862 11.165964,-16.90044 0.23537,-0.93128 0.65667,-2.43823 0.93621,-3.34878 0.5191,-1.69087 0.72021,-5.86947 0.29492,-6.12811 -0.11733,-0.0714 -1.20676,2.2955 -2.42095,5.25969 -4.06632,9.92706 -4.9723,11.3156 -9.433234,14.45761 -3.62034,2.54996 -11.588721,4.77865 -10.241911,2.86458 6.697621,-9.51861 8.311271,-20.4437 4.19903,-28.42924 -0.71199,-1.38263 -1.71114,-1.93724 -1.37178,-0.76145 2.877951,9.97116 -0.0485,18.24978 -8.31416,23.52002 -1.52862,0.97465 -3.53548,2.48472 -4.45968,3.3557 l -1.68037,1.5836 0.18221,-1.19764 0.18221,-1.19764 -1.75738,-1.23401 c -3.81018,-2.67548 -6.38893,-7.56166 -6.71152,-12.71691 -0.14156,-2.26222 -0.48846,-2.26222 -0.63002,0 -0.3226,5.15525 -2.90135,10.04143 -6.71152,12.71691 l -1.75738,1.23401 0.18221,1.19764 0.18221,1.19764 -1.68037,-1.5836 c -0.92421,-0.87098 -2.93106,-2.38105 -4.45968,-3.3557 -8.26567,-5.27024 -11.19211,-13.54886 -8.31417,-23.52002 0.33937,-1.17579 -0.65978,-0.62118 -1.37178,0.76145 -4.11224,7.98554 -2.49859,18.91063 4.19904,28.42924 1.3468,1.91407 -6.62157,-0.31462 -10.24191,-2.86458 -4.46093,-3.14201 -5.36691,-4.53055 -9.43323,-14.45761 -1.21419,-2.96419 -2.30362,-5.33105 -2.42095,-5.25969 -0.42529,0.25864 -0.22418,4.43724 0.29492,6.12811 0.27954,0.91055 0.70084,2.4175 0.93621,3.34878 1.34759,5.33182 4.93859,10.76706 11.16595,16.90044 4.70927,4.6382 4.36471,4.12402 2.90764,4.33903 -2.42804,0.35829 -6.37292,-0.6317 -9.20556,-2.31019 -1.83099,-1.08497 -2.28401,-1.25747 -2.48054,-0.94456 -0.35947,0.57235 5.96169,6.10041 9.14971,8.00173 3.04167,1.81404 7.19214,7.6177 5.44777,7.6177 -0.21043,0 -0.97559,0.73265 -1.70035,1.62811 -0.72475,0.89546 -2.0454,2.31044 -2.93476,3.14441 -1.88443,1.76706 -1.97024,2.11358 -0.6243,2.52099 0.546,0.16526 1.16856,0.35668 1.38347,0.42537 0.23264,0.0744 -0.5361,0.63435 -1.89983,1.38396 -4.23663,2.32874 -9.47485,6.85202 -10.72621,9.26222 -0.22316,0.42982 -1.05795,1.82505 -1.8551,3.10052 -3.33157,5.33062 -4.34937,9.44989 -3.28889,13.3108 l 0.21466,0.7815 0.194,-1.43274 c 0.94646,-6.98987 4.60556,-10.82363 13.13212,-13.75896 2.42213,-0.83383 7.67124,-3.03659 10.10063,-4.23866 1.73671,-0.85934 1.84172,-0.802 2.33683,1.2758 0.60715,2.54802 -0.64042,4.3931 -4.35117,6.43513 -4.79174,2.63691 -6.63009,5.78317 -5.61973,9.61793 0.44748,1.69839 0.97485,1.87538 0.97485,0.32716 0,-5.35411 8.99603,-11.18788 12.47917,-8.09252 3.73974,3.3234 5.00278,13.39133 2.57739,20.54488 l -0.79409,2.34209 0.61195,0.47156 c 3.13855,2.41847 5.95561,4.91475 8.03434,7.11951 3.03195,3.21574 4.55015,3.77729 7.86848,2.91032 z"
       id="path9-3-0-3"
       inkscape:label="Dragon Stroke" /><path
       style="display:inline;fill:#ffffff;fill-opacity:1;stroke:#000000;stroke-width:8;stroke-linecap:round;stroke-linejoin:round;stroke-dasharray:none;stroke-opacity:1;paint-order:stroke fill markers"
       d="m 69.655692,260.80396 c 0.766413,-0.20025 1.569816,-0.86902 3.488172,-2.90368 2.084034,-2.21038 4.900192,-4.70625 8.040604,-7.12615 l 0.611948,-0.47156 -0.794085,-2.34209 c -2.205945,-6.5063 -1.802552,-12.5984 1.224526,-18.49294 2.975336,-5.79379 13.832032,-1.05256 13.832032,6.04058 0,1.54822 0.52737,1.37123 0.974854,-0.32716 1.010359,-3.83476 -0.827996,-6.98102 -5.619735,-9.61793 -3.710752,-2.04203 -4.958319,-3.88711 -4.351168,-6.43513 0.495107,-2.0778 0.600123,-2.13514 2.336834,-1.2758 2.429387,1.20207 7.678499,3.40483 10.100631,4.23866 8.526555,2.93533 12.185655,6.76909 13.132135,13.75896 l 0.19399,1.43274 0.21465,-0.78149 c 1.06049,-3.86092 0.0426,-7.98019 -3.28888,-13.31081 -0.79716,-1.27547 -1.63195,-2.6707 -1.85511,-3.10052 -1.25135,-2.4102 -6.48958,-6.93348 -10.726206,-9.26222 -1.363736,-0.74961 -2.132478,-1.30961 -1.899838,-1.38396 0.214916,-0.0687 0.837478,-0.26011 1.383473,-0.42537 1.345941,-0.40741 1.260127,-0.75393 -0.624304,-2.52099 -0.88936,-0.83397 -2.210002,-2.24895 -2.934759,-3.14441 -0.724758,-0.89546 -1.489912,-1.62811 -1.700344,-1.62811 -1.744371,0 2.406094,-5.80366 5.447769,-7.6177 3.188029,-1.90132 9.509179,-7.42938 9.149699,-8.00173 -0.19652,-0.31291 -0.64954,-0.14041 -2.48054,0.94456 -2.83263,1.67849 -6.777514,2.66848 -9.205549,2.31019 -1.457071,-0.21501 -1.801634,0.29917 2.907634,-4.33903 6.227365,-6.13338 9.818365,-11.56862 11.165955,-16.90044 0.23537,-0.93128 0.65667,-2.43823 0.93621,-3.34878 0.5191,-1.69087 0.72021,-5.86947 0.29492,-6.12811 -0.11733,-0.0714 -1.20676,2.2955 -2.42095,5.25969 -4.06632,9.92706 -4.9723,11.3156 -9.43323,14.45761 -3.620342,2.54996 -11.588714,4.77865 -10.241908,2.86458 6.697625,-9.51861 8.311275,-20.4437 4.199035,-28.42924 -0.711998,-1.38263 -1.711145,-1.93724 -1.371782,-0.76145 2.877944,9.97116 -0.04849,18.24978 -8.314163,23.52002 -1.528621,0.97465 -3.535477,2.48472 -4.459679,3.3557 l -1.680368,1.5836 0.182207,-1.19764 0.182209,-1.19764 -1.757377,-1.23401 c -3.810177,-2.67548 -6.388928,-7.56166 -6.711522,-12.71691 -0.141561,-2.26222 -0.488458,-2.26222 -0.630018,0 -0.322594,5.15525 -2.901346,10.04143 -6.711523,12.71691 l -1.757376,1.23401 0.182208,1.19764 0.182208,1.19764 -1.680368,-1.5836 c -0.924203,-0.87098 -2.931059,-2.38105 -4.45968,-3.3557 -8.26567,-5.27024 -11.192107,-13.54886 -8.314163,-23.52002 0.339362,-1.17579 -0.659783,-0.62118 -1.371781,0.76145 -4.112241,7.98554 -2.498591,18.91063 4.199035,28.42924 1.346806,1.91407 -6.621566,-0.31462 -10.241908,-2.86458 -4.460928,-3.14201 -5.366909,-4.53055 -9.433234,-14.45761 -1.214185,-2.96419 -2.303616,-5.33105 -2.420948,-5.25969 -0.425287,0.25864 -0.224179,4.43724 0.294926,6.12811 0.27954,0.91055 0.700834,2.4175 0.936209,3.34878 1.347587,5.33182 4.938589,10.76706 11.16595,16.90044 4.709269,4.6382 4.364706,4.12402 2.907636,4.33903 -2.428036,0.35829 -6.372918,-0.6317 -9.205555,-2.31019 -1.830994,-1.08497 -2.284016,-1.25747 -2.48054,-0.94456 -0.359471,0.57235 5.961682,6.10041 9.149704,8.00173 3.041675,1.81404 7.19214,7.6177 5.447769,7.6177 -0.210431,0 -0.975585,0.73265 -1.700343,1.62811 -0.724758,0.89546 -2.0454,2.31044 -2.93476,3.14441 -1.884431,1.76706 -1.970244,2.11358 -0.624302,2.52099 0.545993,0.16526 1.168554,0.35668 1.383471,0.42537 0.232641,0.0744 -0.536101,0.63435 -1.899837,1.38396 -4.236622,2.32874 -9.474849,6.85202 -10.726206,9.26222 -0.223159,0.42982 -1.057953,1.82505 -1.855097,3.10052 -3.331573,5.33062 -4.349374,9.44989 -3.288891,13.3108 l 0.214655,0.7815 0.194003,-1.43274 c 0.946464,-6.98987 4.605561,-10.82363 13.132116,-13.75896 2.42213,-0.83383 7.671241,-3.03659 10.100629,-4.23866 1.736711,-0.85934 1.841727,-0.802 2.336834,1.2758 0.60715,2.54802 -0.640416,4.3931 -4.351167,6.43513 -4.79174,2.63691 -6.630095,5.78317 -5.619736,9.61793 0.447485,1.69839 0.974854,1.87538 0.974854,0.32716 0,-5.35411 8.996033,-11.18788 12.479165,-8.09252 3.739744,3.3234 5.002786,13.39133 2.577393,20.54488 l -0.794085,2.34209 0.611948,0.47156 c 3.138553,2.41847 5.955605,4.91475 8.034343,7.11951 3.031947,3.21574 4.550148,3.77729 7.868472,2.91032 z"
       id="path9-3"
       inkscape:label="Dragon Stroke" /><path
       id="path8"
       style="display:inline;fill:#000000;fill-opacity:1;stroke:none;stroke-width:8.83336;stroke-linecap:round;stroke-linejoin:round;stroke-dasharray:none;stroke-opacity:1;paint-order:stroke fill markers"
       d="m 67.468676,42.474095 c -1.586796,-0.0066 -2.186338,1.226065 -2.20931,1.988837 -0.02297,0.76277 0.544475,2.18309 2.20931,2.177084 1.664835,-0.0061 2.414987,-1.469611 2.356666,-2.225928 -0.05832,-0.756318 -0.769871,-1.933396 -2.356666,-1.939993 z m 0,8.585726 c -1.343529,-0.0098 -1.952882,1.253473 -2.02421,1.917607 -0.07133,0.664135 0.364973,1.93741 2.02421,1.996976 1.659236,0.05956 2.419991,-1.000027 2.056782,-2.0041 -0.363207,-1.004071 -0.713254,-1.900637 -2.056782,-1.910483 z m 0.143736,8.969349 c -0.941457,-0.02593 -2.005487,1.126423 -2.027828,1.975098 -0.02234,0.848676 1.039181,1.318766 1.884092,1.30961 0.84491,-0.0091 1.96746,-0.620232 1.977676,-1.44749 0.01021,-0.827258 -0.892483,-1.811285 -1.83394,-1.837218 z m -16.723125,3.583873 c -0.403967,0.02116 -0.261948,1.090802 0.16597,3.604733 l 0.572363,3.363569 4.169406,4.227484 c 4.734215,4.800156 4.945845,4.844106 3.345246,0.692964 -1.924484,-4.991134 -3.638489,-7.751686 -6.57364,-10.586263 -0.870679,-0.840845 -1.402946,-1.316971 -1.679345,-1.302487 z m 33.158777,0 c -0.276445,-0.01427 -0.808242,0.461731 -1.678827,1.302487 -2.938101,2.837425 -4.649106,5.593661 -6.579845,10.601018 -1.587311,4.116677 -1.341495,4.062832 3.394364,-0.74893 l 4.12701,-4.193395 0.571845,-3.360008 c 0.427541,-2.511727 0.569488,-3.580315 0.165453,-3.601172 z m -23.62612,40.802427 c -0.271913,0.01 -0.569861,0.11577 -0.911023,0.34444 1.072111,0.79305 2.231078,1.90274 3.497254,2.26815 0.17354,-0.18083 -1.139427,-1.93135 -1.832903,-2.38364 -0.235625,-0.15368 -0.481415,-0.239 -0.753328,-0.22895 z m 14.202041,0.0351 c -0.159104,-0.006 -0.3273,0.0366 -0.521692,0.15315 -0.9249,0.47535 -2.146833,1.78303 -2.133305,2.24882 1.164933,0.15663 2.94348,-1.36486 3.45434,-2.09466 -0.293885,-0.1548 -0.534169,-0.29769 -0.799343,-0.30731 z"
       inkscape:label="Detail Stroke" /><path
       id="path8-1"
       style="display:inline;fill:#000000;fill-opacity:1;stroke:none;stroke-width:8.83336;stroke-linecap:round;stroke-linejoin:round;stroke-dasharray:none;stroke-opacity:1;paint-order:stroke fill markers"
       d="m 67.468672,187.39723 c -1.586796,-0.007 -2.186338,1.22607 -2.20931,1.98884 -0.02297,0.76277 0.544475,2.18309 2.20931,2.17708 1.664835,-0.006 2.414987,-1.46961 2.356666,-2.22593 -0.05832,-0.75631 -0.769871,-1.93339 -2.356666,-1.93999 z m 0,8.58573 c -1.343529,-0.01 -1.952882,1.25347 -2.02421,1.9176 -0.07133,0.66414 0.364973,1.93741 2.02421,1.99698 1.659236,0.0596 2.419991,-1.00003 2.056782,-2.0041 -0.363207,-1.00407 -0.713254,-1.90064 -2.056782,-1.91048 z m 0.143736,8.96935 c -0.941457,-0.0259 -2.005487,1.12642 -2.027828,1.97509 -0.02234,0.84868 1.039181,1.31877 1.884092,1.30961 0.84491,-0.009 1.96746,-0.62023 1.977676,-1.44749 0.01021,-0.82725 -0.892483,-1.81128 -1.83394,-1.83721 z m -16.723125,3.58387 c -0.403967,0.0212 -0.261948,1.0908 0.16597,3.60473 l 0.572363,3.36357 4.169406,4.22749 c 4.734215,4.80015 4.945845,4.8441 3.345246,0.69296 -1.924484,-4.99113 -3.638489,-7.75169 -6.57364,-10.58626 -0.870679,-0.84085 -1.402946,-1.31697 -1.679345,-1.30249 z m 33.158777,0 c -0.276445,-0.0143 -0.808242,0.46173 -1.678827,1.30249 -2.938101,2.83742 -4.649106,5.59366 -6.579845,10.60101 -1.587311,4.11668 -1.341495,4.06284 3.394364,-0.74893 l 4.12701,-4.19339 0.571845,-3.36001 c 0.427541,-2.51173 0.569488,-3.58031 0.165453,-3.60117 z m -23.62612,40.80243 c -0.271913,0.01 -0.569861,0.11577 -0.911023,0.34444 1.072111,0.79305 2.231078,1.90274 3.497254,2.26815 0.17354,-0.18083 -1.139427,-1.93135 -1.832903,-2.38364 -0.235625,-0.15368 -0.481415,-0.239 -0.753328,-0.22895 z m 14.202041,0.0351 c -0.159104,-0.006 -0.3273,0.0366 -0.521692,0.15315 -0.9249,0.47535 -2.146833,1.78303 -2.133305,2.24882 1.164933,0.15663 2.94348,-1.36486 3.45434,-2.09466 -0.293885,-0.1548 -0.534169,-0.29769 -0.799343,-0.30731 z"
       inkscape:label="Detail Stroke" /><path
       id="path8-1-6"
       style="display:inline;fill:#000000;fill-opacity:1;stroke:none;stroke-width:8.83336;stroke-linecap:round;stroke-linejoin:round;stroke-dasharray:none;stroke-opacity:1;paint-order:stroke fill markers"
       d="m 67.468671,333.68755 c -1.586796,-0.007 -2.186338,1.22607 -2.20931,1.98884 -0.02297,0.76277 0.544475,2.18309 2.20931,2.17708 1.664835,-0.006 2.414987,-1.46961 2.356666,-2.22593 -0.05832,-0.75631 -0.769871,-1.93339 -2.356666,-1.93999 z m 0,8.58573 c -1.343529,-0.01 -1.952882,1.25347 -2.02421,1.9176 -0.07133,0.66414 0.364973,1.93741 2.02421,1.99698 1.659236,0.0596 2.419991,-1.00003 2.056782,-2.0041 -0.363207,-1.00407 -0.713254,-1.90064 -2.056782,-1.91048 z m 0.143736,8.96935 c -0.941457,-0.0259 -2.005487,1.12642 -2.027828,1.97509 -0.02234,0.84868 1.039181,1.31877 1.884092,1.30961 0.84491,-0.009 1.96746,-0.62023 1.977676,-1.44749 0.01021,-0.82725 -0.892483,-1.81128 -1.83394,-1.83721 z m -16.723125,3.58387 c -0.403967,0.0212 -0.261948,1.0908 0.16597,3.60473 l 0.572363,3.36357 4.169406,4.22749 c 4.734215,4.80015 4.945845,4.8441 3.345246,0.69296 -1.924484,-4.99113 -3.638489,-7.75169 -6.57364,-10.58626 -0.870679,-0.84085 -1.402946,-1.31697 -1.679345,-1.30249 z m 33.158779,0 c -0.27645,-0.0143 -0.80824,0.46173 -1.67883,1.30249 -2.9381,2.83742 -4.6491,5.59366 -6.57984,10.60101 -1.58731,4.11668 -1.3415,4.06284 3.39436,-0.74893 l 4.12701,-4.19339 0.57184,-3.36001 c 0.42755,-2.51173 0.56949,-3.58031 0.16546,-3.60117 z m -23.626122,40.80243 c -0.271913,0.01 -0.569861,0.11577 -0.911023,0.34444 1.072111,0.79305 2.231078,1.90274 3.497254,2.26815 0.17354,-0.18083 -1.139427,-1.93135 -1.832903,-2.38364 -0.235625,-0.15368 -0.481415,-0.239 -0.753328,-0.22895 z m 14.202042,0.0351 c -0.1591,-0.006 -0.3273,0.0366 -0.52169,0.15315 -0.924903,0.47535 -2.146836,1.78303 -2.133308,2.24882 1.164933,0.15663 2.943478,-1.36486 3.454338,-2.09466 -0.29388,-0.1548 -0.53417,-0.29769 -0.79934,-0.30731 z"
       inkscape:label="Detail Stroke" /><path
       id="path8-1-6-3"
       style="display:inline;fill:#000000;fill-opacity:1;stroke:none;stroke-width:8.83336;stroke-linecap:round;stroke-linejoin:round;stroke-dasharray:none;stroke-opacity:1;paint-order:stroke fill markers"
       d="m 67.468675,484.60381 c -1.5868,-0.007 -2.18634,1.22607 -2.20931,1.98884 -0.023,0.76277 0.54447,2.18309 2.20931,2.17708 1.66483,-0.006 2.41498,-1.46961 2.35666,-2.22593 -0.0583,-0.75631 -0.76987,-1.93339 -2.35666,-1.93999 z m 0,8.58573 c -1.34353,-0.01 -1.95289,1.25347 -2.02421,1.9176 -0.0713,0.66414 0.36497,1.93741 2.02421,1.99698 1.65923,0.0596 2.41999,-1.00003 2.05678,-2.0041 -0.36321,-1.00407 -0.71326,-1.90064 -2.05678,-1.91048 z m 0.14373,8.96935 c -0.94146,-0.0259 -2.00549,1.12642 -2.02783,1.97509 -0.0223,0.84868 1.03918,1.31877 1.8841,1.30961 0.84491,-0.009 1.96746,-0.62023 1.97767,-1.44749 0.0102,-0.82725 -0.89248,-1.81128 -1.83394,-1.83721 z m -16.72312,3.58387 c -0.40397,0.0212 -0.26195,1.0908 0.16597,3.60473 l 0.57236,3.36357 4.16941,4.22749 c 4.73421,4.80015 4.94584,4.8441 3.34524,0.69296 -1.92448,-4.99113 -3.63849,-7.75169 -6.57364,-10.58626 -0.87068,-0.84085 -1.40294,-1.31697 -1.67934,-1.30249 z m 33.15878,0 c -0.27645,-0.0143 -0.80824,0.46173 -1.67883,1.30249 -2.9381,2.83742 -4.6491,5.59366 -6.57984,10.60101 -1.58731,4.11668 -1.3415,4.06284 3.39436,-0.74893 l 4.12701,-4.19339 0.57184,-3.36001 c 0.42755,-2.51173 0.56949,-3.58031 0.16546,-3.60117 z m -23.62613,40.80243 c -0.27191,0.01 -0.56986,0.11577 -0.91102,0.34444 1.07211,0.79305 2.23108,1.90274 3.49726,2.26815 0.17354,-0.18083 -1.13943,-1.93135 -1.83291,-2.38364 -0.23562,-0.15368 -0.48141,-0.239 -0.75333,-0.22895 z m 14.20205,0.0351 c -0.1591,-0.006 -0.3273,0.0366 -0.52169,0.15315 -0.92491,0.47535 -2.14684,1.78303 -2.13331,2.24882 1.16493,0.15663 2.94348,-1.36486 3.45434,-2.09466 -0.29388,-0.1548 -0.53417,-0.29769 -0.79934,-0.30731 z"
       inkscape:label="Detail Stroke" /><path
       d="m 23.741374,4.8144095 c 0.169635,1.0370774 0.300694,2.487663 -0.135432,5.1090336 -0.339483,2.0404869 -0.712892,4.0759669 -1.043629,6.1178069 0.577653,0.152829 1.635133,-2.283135 2.196433,-3.514424 0.461698,-1.012799 1.03797,-2.8324075 1.510915,-3.4418416 0.35237,-0.422535 1.438727,-0.3415269 1.532158,0.6768551 0.122851,1.3390855 -0.32314,2.8629275 -0.632333,4.1725405 -0.261912,1.109341 -1.263936,2.961848 -2.301204,4.673637 -0.759229,1.293993 -1.626827,2.529171 -2.553875,3.722195 -0.842007,1.163298 -1.689273,2.431763 -1.768758,3.876148 -0.05322,0.923441 0.233524,1.823427 0.566026,2.681051 0.15239,0.561781 -0.230373,1.090945 -0.727652,1.419816 C 19.235754,31.066625 11.866652,31.626553 7.8044414,30.071405 6.7919776,29.683802 7.1669305,28.970558 7.5004538,28.072305 7.8338839,27.1743 7.5903385,25.995606 7.4078193,25.275883 7.0138563,23.722379 3.4236254,20.844299 2.7300489,20.250747 1.6959967,19.387938 0.58342063,18.485085 0.13549486,17.211921 -0.53504116,15.43425 1.0860535,14.711496 2.8675183,15.750463 3.9578157,16.352115 4.7138923,17.326408 5.598946,18.14763 6.3932794,18.829119 7.288231,19.121928 7.696209,17.575707 7.9242074,16.65734 7.8022911,15.709172 7.8473171,14.776451 7.8221588,13.074805 7.5848007,11.382981 7.4260663,9.6884045 7.2535077,7.8505692 7.0629486,6.0138621 6.950759,4.171912 6.8265647,2.1328639 8.4030417,1.1224304 9.3991938,2.5427892 c 0.5712611,0.7531594 1.1096402,1.6254415 1.8070902,5.9974321 0.29731,1.9067777 0.581762,3.8294807 1.279378,5.6486027 1.185945,-1.373019 1.142973,-4.2765435 1.482457,-6.0521766 0.181878,-0.9424634 0.837775,-4.1188542 1.310795,-5.75347 0.706606,-1.80187031 2.263579,-1.99507468 2.830266,-0.1745686 0.406386,1.5178506 0.240679,3.9909129 0.04429,5.8553799 -0.01598,1.9508543 -1.057684,5.1953213 -0.394767,6.9707643 0.89034,-0.220034 1.798682,-4.773656 2.095382,-5.8644668 0.473036,-1.6749185 0.788787,-3.3993578 1.438661,-5.019952 0.285454,-0.7118396 2.112815,-1.3889387 2.448628,0.6640753 z"
       fill="#feb4b4"
       fill-rule="evenodd"
       stroke="none"
       id="path1-8"
       sodipodi:nodetypes="ssssssssssssssssssssssssssssssssss"
       style="stroke-width:4.20402528;stroke-dasharray:none;stroke:#000000;stroke-linecap:round;stroke-opacity:1;paint-order:stroke markers fill;fill:#f7caaa;fill-opacity:1"
       transform="matrix(1.9951355,0,0,1.8150013,75.787237,517.43142)"
       inkscape:label="Grab Icon" /><path
       id="path17-9"
       style="display:inline;fill:#6ac5fe;fill-opacity:1;fill-rule:evenodd;stroke:#000000;stroke-width:8;stroke-linecap:round;stroke-linejoin:round;stroke-miterlimit:2;stroke-dasharray:none;stroke-opacity:1;paint-order:stroke fill markers"
       d="m 93.416522,368.42591 v 17.31148 h -17.83042 v 19.63125 h 17.83042 v 17.31149 h 20.219718 v -17.31149 h 17.83043 v -19.63125 h -17.83043 v -17.31148 z"
       inkscape:label="Plus Icon"
       sodipodi:nodetypes="ccccccccccccc" /><path
       id="path5-5"
       style="display:inline;fill:#f4900c;fill-opacity:1;fill-rule:evenodd;stroke:#000000;stroke-width:8;stroke-linecap:round;stroke-linejoin:round;stroke-miterlimit:2;stroke-dasharray:none;stroke-opacity:1;paint-order:stroke fill markers"
       d="m 131.2977,248.76626 -27.19621,27.45458 -28.346438,-26.46167 27.196228,-27.4546 z"
       inkscape:label="Diamond Icon"
       sodipodi:nodetypes="ccccc" /><path
       id="path15-4"
       style="display:inline;fill:#08af50;fill-opacity:1;fill-rule:evenodd;stroke:#000000;stroke-width:8.46027;stroke-linecap:round;stroke-linejoin:round;stroke-miterlimit:2;stroke-dasharray:none;stroke-opacity:1;paint-order:stroke fill markers"
       d="M 98.505558,113.42429 120.34711,77.442306 131.23665,90.044986 99.917618,131.23668 75.816017,115.80595 86.478347,102.9932 Z"
       sodipodi:nodetypes="ccccccc"
       inkscape:label="Check Icon" /></g><g
     inkscape:groupmode="layer"
     id="layer2"
     inkscape:label="Museum Mode"><path
       id="path24-5"
       style="fill:#ffffff;fill-opacity:1;stroke:#000000;stroke-width:8;stroke-linecap:round;stroke-linejoin:round;stroke-dasharray:none;stroke-opacity:1;paint-order:stroke fill markers"
       d="M 211.71548,6.5189622 C 197.23407,6.6912227 191.6965,20.906161 191.6965,29.435664 h 38.7569 c 0,-8.529503 -4.2565,-23.0889626 -18.73792,-22.9167018 z m -42.5715,27.2794758 -0.0644,8.704301 h 83.33877 l 0.0644,-8.704301 z m -15.81646,13.54261 -0.17958,13.967551 h 116.41551 l 0.18081,-13.967551 z m 10.06076,18.636634 -0.0972,7.151225 h 9.09943 l 0.0972,-7.151225 z m 86.49034,-0.344527 -0.0972,7.151225 h 9.09942 l 0.0972,-7.151225 z m -96.73078,11.936692 v 6.803174 h 116.41551 v -6.803174 z m 2.23442,11.529173 -0.10574,16.8329 h 9.10049 l 0.10472,-16.8329 z m 22.86911,0.121802 -0.10472,16.832898 h 9.09839 l 0.10574,-16.832898 z M 235.19,89.09902 l -0.10575,16.8329 h 9.09947 l 0.10573,-16.8329 z m 23.76984,0 -0.10574,16.8329 h 9.09942 l 0.10473,-16.8329 z m -104.58805,21.4719 v 5.74686 l 30.68062,0.12143 v 13.67413 h 6.78466 v -19.42001 z m 115.19156,0 -32.53876,0.12242 h -6.53208 v 5.74587 13.67414 h 6.53208 v -13.67414 l 32.53876,-0.12142 z"
       sodipodi:nodetypes="sccsccccccccccccccccccccccccccccccccccccccccccccccccccccccccccccc"
       inkscape:label="Museum Stroke" /><path
       id="path24-5-3"
       style="fill:#ffffff;fill-opacity:1;stroke:#000000;stroke-width:8;stroke-linecap:round;stroke-linejoin:round;stroke-dasharray:none;stroke-opacity:1;paint-order:stroke fill markers"
       d="m 211.71547,151.4421 c -14.48141,0.17226 -20.01898,14.3872 -20.01898,22.9167 h 38.7569 c 0,-8.5295 -4.2565,-23.08896 -18.73792,-22.9167 z m -42.5715,27.27948 -0.0644,8.7043 h 83.33877 l 0.0644,-8.7043 z m -15.81646,13.54261 -0.17958,13.96755 h 116.41551 l 0.18081,-13.96755 z m 10.06076,18.63663 -0.0972,7.15123 h 9.09943 l 0.0972,-7.15123 z m 86.49034,-0.34453 -0.0972,7.15123 h 9.09942 l 0.0972,-7.15123 z m -96.73078,11.9367 v 6.80317 h 116.41551 v -6.80317 z m 2.23442,11.52917 -0.10574,16.8329 h 9.10049 l 0.10472,-16.8329 z m 22.86911,0.1218 -0.10472,16.8329 h 9.09839 l 0.10574,-16.8329 z m 56.93863,-0.1218 -0.10575,16.8329 h 9.09947 l 0.10573,-16.8329 z m 23.76984,0 -0.10574,16.8329 h 9.09942 l 0.10473,-16.8329 z m -104.58805,21.4719 v 5.74686 l 30.68062,0.12143 v 13.67413 h 6.78466 v -19.42001 z m 115.19156,0 -32.53876,0.12242 h -6.53208 v 5.74587 13.67414 h 6.53208 v -13.67414 l 32.53876,-0.12142 z"
       sodipodi:nodetypes="sccsccccccccccccccccccccccccccccccccccccccccccccccccccccccccccccc"
       inkscape:label="Museum Stroke" /><path
       id="path24-5-3-6-5"
       style="fill:#ffffff;fill-opacity:1;stroke:#000000;stroke-width:8;stroke-linecap:round;stroke-linejoin:round;stroke-dasharray:none;stroke-opacity:1;paint-order:stroke fill markers"
       d="m 211.71547,448.64868 c -14.4814,0.17226 -20.01898,14.3872 -20.01898,22.9167 h 38.75691 c 0,-8.5295 -4.2565,-23.08896 -18.73793,-22.9167 z m -42.5715,27.27948 -0.0644,8.7043 h 83.33876 l 0.0644,-8.7043 z m -15.81645,13.54261 -0.17958,13.96755 h 116.41551 l 0.1808,-13.96755 z m 10.06075,18.63663 -0.0972,7.15123 h 9.09942 l 0.0972,-7.15123 z m 86.49034,-0.34453 -0.0972,7.15123 h 9.09941 l 0.0972,-7.15123 z m -96.73078,11.9367 v 6.80317 h 116.41551 v -6.80317 z m 2.23442,11.52917 -0.10574,16.8329 h 9.10049 l 0.10473,-16.8329 z m 22.86911,0.1218 -0.10471,16.8329 h 9.09838 l 0.10575,-16.8329 z m 56.93863,-0.1218 -0.10574,16.8329 h 9.09947 l 0.10573,-16.8329 z m 23.76985,0 -0.10575,16.8329 h 9.09942 l 0.10473,-16.8329 z m -104.58806,21.4719 v 5.74686 l 30.68062,0.12143 v 13.67413 h 6.78466 v -19.42001 z m 115.19156,0 -32.53876,0.12242 h -6.53208 v 5.74587 13.67414 h 6.53208 v -13.67414 l 32.53876,-0.12142 z"
       sodipodi:nodetypes="sccsccccccccccccccccccccccccccccccccccccccccccccccccccccccccccccc"
       inkscape:label="Museum Stroke" /><path
       id="path24-5-3-6"
       style="fill:#ffffff;fill-opacity:1;stroke:#000000;stroke-width:8;stroke-linecap:round;stroke-linejoin:round;stroke-dasharray:none;stroke-opacity:1;paint-order:stroke fill markers"
       d="m 211.71547,297.73242 c -14.48141,0.17226 -20.01898,14.3872 -20.01898,22.9167 h 38.7569 c 0,-8.5295 -4.2565,-23.08896 -18.73792,-22.9167 z m -42.5715,27.27948 -0.0644,8.7043 h 83.33877 l 0.0644,-8.7043 z m -15.81646,13.54261 -0.17958,13.96755 h 116.41551 l 0.18081,-13.96755 z m 10.06076,18.63663 -0.0972,7.15123 h 9.09943 l 0.0972,-7.15123 z m 86.49034,-0.34453 -0.0972,7.15123 h 9.09942 l 0.0972,-7.15123 z m -96.73078,11.9367 v 6.80317 h 116.41551 v -6.80317 z m 2.23442,11.52917 -0.10574,16.8329 h 9.10049 l 0.10472,-16.8329 z m 22.86911,0.1218 -0.10472,16.8329 h 9.09839 l 0.10574,-16.8329 z m 56.93863,-0.1218 -0.10575,16.8329 h 9.09947 l 0.10573,-16.8329 z m 23.76984,0 -0.10574,16.8329 h 9.09942 l 0.10473,-16.8329 z m -104.58805,21.4719 v 5.74686 l 30.68062,0.12143 v 13.67413 h 6.78466 v -19.42001 z m 115.19156,0 -32.53876,0.12242 h -6.53208 v 5.74587 13.67414 h 6.53208 v -13.67414 l 32.53876,-0.12142 z"
       sodipodi:nodetypes="sccsccccccccccccccccccccccccccccccccccccccccccccccccccccccccccccc"
       inkscape:label="Museum Stroke" /><path
       d="m 23.741374,4.8144095 c 0.169635,1.0370774 0.300694,2.487663 -0.135432,5.1090336 -0.339483,2.0404869 -0.712892,4.0759669 -1.043629,6.1178069 0.577653,0.152829 1.635133,-2.283135 2.196433,-3.514424 0.461698,-1.012799 1.03797,-2.8324075 1.510915,-3.4418416 0.35237,-0.422535 1.438727,-0.3415269 1.532158,0.6768551 0.122851,1.3390855 -0.32314,2.8629275 -0.632333,4.1725405 -0.261912,1.109341 -1.263936,2.961848 -2.301204,4.673637 -0.759229,1.293993 -1.626827,2.529171 -2.553875,3.722195 -0.842007,1.163298 -1.689273,2.431763 -1.768758,3.876148 -0.05322,0.923441 0.233524,1.823427 0.566026,2.681051 0.15239,0.561781 -0.230373,1.090945 -0.727652,1.419816 C 19.235754,31.066625 11.866652,31.626553 7.8044414,30.071405 6.7919776,29.683802 7.1669305,28.970558 7.5004538,28.072305 7.8338839,27.1743 7.5903385,25.995606 7.4078193,25.275883 7.0138563,23.722379 3.4236254,20.844299 2.7300489,20.250747 1.6959967,19.387938 0.58342063,18.485085 0.13549486,17.211921 -0.53504116,15.43425 1.0860535,14.711496 2.8675183,15.750463 3.9578157,16.352115 4.7138923,17.326408 5.598946,18.14763 6.3932794,18.829119 7.288231,19.121928 7.696209,17.575707 7.9242074,16.65734 7.8022911,15.709172 7.8473171,14.776451 7.8221588,13.074805 7.5848007,11.382981 7.4260663,9.6884045 7.2535077,7.8505692 7.0629486,6.0138621 6.950759,4.171912 6.8265647,2.1328639 8.4030417,1.1224304 9.3991938,2.5427892 c 0.5712611,0.7531594 1.1096402,1.6254415 1.8070902,5.9974321 0.29731,1.9067777 0.581762,3.8294807 1.279378,5.6486027 1.185945,-1.373019 1.142973,-4.2765435 1.482457,-6.0521766 0.181878,-0.9424634 0.837775,-4.1188542 1.310795,-5.75347 0.706606,-1.80187031 2.263579,-1.99507468 2.830266,-0.1745686 0.406386,1.5178506 0.240679,3.9909129 0.04429,5.8553799 -0.01598,1.9508543 -1.057684,5.1953213 -0.394767,6.9707643 0.89034,-0.220034 1.798682,-4.773656 2.095382,-5.8644668 0.473036,-1.6749185 0.788787,-3.3993578 1.438661,-5.019952 0.285454,-0.7118396 2.112815,-1.3889387 2.448628,0.6640753 z"
       fill="#feb4b4"
       fill-rule="evenodd"
       stroke="none"
       id="path1-8-9"
       sodipodi:nodetypes="ssssssssssssssssssssssssssssssssss"
       style="stroke-width:4.20403;stroke-dasharray:none;stroke:#000000;stroke-linecap:round;stroke-opacity:1;paint-order:stroke markers fill;fill:#f7caaa;fill-opacity:1"
       transform="matrix(1.9951355,0,0,1.8150013,221.22095,517.40316)"
       inkscape:label="Grab Icon" /><path
       id="path17-5"
       style="display:inline;fill:#6ac5fe;fill-opacity:1;fill-rule:evenodd;stroke:#000000;stroke-width:8;stroke-linecap:round;stroke-linejoin:round;stroke-miterlimit:2;stroke-dasharray:none;stroke-opacity:1;paint-order:stroke fill markers"
       d="m 238.88318,368.42591 v 17.31148 h -17.83042 v 19.63125 h 17.83042 v 17.31149 h 20.21971 v -17.31149 h 17.83043 v -19.63125 h -17.83043 v -17.31148 z"
       inkscape:label="Plus Icon"
       sodipodi:nodetypes="ccccccccccccc" /><path
       id="path5-5-2"
       style="display:inline;fill:#f4900c;fill-opacity:1;fill-rule:evenodd;stroke:#000000;stroke-width:8;stroke-linecap:round;stroke-linejoin:round;stroke-miterlimit:2;stroke-dasharray:none;stroke-opacity:1;paint-order:stroke fill markers"
       d="m 276.93349,248.9354 -27.19621,27.45458 -28.34644,-26.46167 27.19623,-27.4546 z"
       inkscape:label="Diamond Icon"
       sodipodi:nodetypes="ccccc" /><path
       id="path15-4-1"
       style="display:inline;fill:#08af50;fill-opacity:1;fill-rule:evenodd;stroke:#000000;stroke-width:8.46027;stroke-linecap:round;stroke-linejoin:round;stroke-miterlimit:2;stroke-dasharray:none;stroke-opacity:1;paint-order:stroke fill markers"
       d="m 243.9722,113.42429 21.84156,-35.981979 10.88954,12.602679 -31.31903,41.19169 -24.10161,-15.43073 10.66233,-12.81274 z"
       sodipodi:nodetypes="ccccccc"
       inkscape:label="Check Icon" /></g><g
     inkscape:groupmode="layer"
     id="layer3"
     inkscape:label="Completionist"><path
       id="path11"
       style="display:inline;fill:#ffffff;fill-rule:evenodd;stroke:#000000;stroke-width:8;stroke-linecap:round;stroke-linejoin:round;stroke-miterlimit:2;stroke-dasharray:none;stroke-opacity:1;paint-order:stroke fill markers"
       d="m 326.18704,6.5493504 c -2.38005,0 -4.27189,1.8721074 -4.30964,4.1805826 -0.34504,21.088036 -1.00928,44.693018 17.93762,58.112205 7.13337,5.052237 11.12647,7.794373 11.21862,16.120231 h 7.63336 7.63334 c 0.0921,-8.325858 4.08525,-11.067994 11.21864,-16.120231 18.9469,-13.419187 18.28266,-37.024169 17.93764,-58.112205 -0.0377,-2.3084752 -1.92961,-4.1805826 -4.30967,-4.1805826 H 358.667 Z m -13.30219,4.5971466 c -8.78601,0.01767 -17.82901,3.920835 -16.38222,15.62347 2.39381,19.362536 19.36074,26.835778 26.79937,28.415998 l -3.62972,-10.112407 c -5.27545,-2.847728 -10.72257,-6.234586 -13.20348,-15.473241 -1.99233,-7.419163 1.50475,-10.75227 8.6563,-9.655146 0.47679,0.07312 0.97021,0.166267 1.47893,0.278906 v -8.85793 c -1.2133,-0.144628 -2.46405,-0.22217 -3.71918,-0.219644 z m 91.56432,0 c -1.25513,-0.0027 -2.5059,0.075 -3.71918,0.219642 v 8.857931 c 8.13937,-1.801944 12.26036,1.46247 10.13521,9.376238 -2.48094,9.238658 -7.92803,12.625514 -13.2035,15.473244 l -1.81485,5.056203 -1.81484,5.056205 c 7.43862,-1.580224 24.40555,-9.053463 26.79936,-28.415999 1.44681,-11.702635 -7.59619,-15.605846 -16.3822,-15.62347 z m -53.30013,79.841064 c -2.11659,8.403219 -7.35864,12.579369 -16.68083,12.529759 -0.6548,-0.004 -1.18521,0.48757 -1.18521,1.12282 v 9.3391 3.77721 h -8.59275 c -0.86892,0 -1.56778,0.67795 -1.56778,1.52084 v 9.28286 c 0,0.84286 0.69886,1.52139 1.56778,1.52139 h 33.97675 33.97675 c 0.86894,0 1.56778,-0.67853 1.56778,-1.52139 v -9.28286 c 0,-0.84289 -0.69884,-1.52084 -1.56778,-1.52084 H 384.051 v -3.77721 -9.3391 c 0,-0.63525 -0.53041,-1.12653 -1.18521,-1.12282 -9.32217,0.0496 -14.56426,-4.12654 -16.68081,-12.529759 H 358.667 Z"
       sodipodi:nodetypes="scscccssscsssccssccssccscccssccsccsssscssssccscccccs"
       inkscape:label="Trophy Stroke" /><path
       id="path11-7"
       style="display:inline;fill:#ffffff;fill-rule:evenodd;stroke:#000000;stroke-width:8;stroke-linecap:round;stroke-linejoin:round;stroke-miterlimit:2;stroke-dasharray:none;stroke-opacity:1;paint-order:stroke fill markers"
       d="m 326.18704,151.4725 c -2.38005,0 -4.27189,1.87211 -4.30964,4.18058 -0.34504,21.08804 -1.00928,44.69302 17.93762,58.11221 7.13337,5.05223 11.12647,7.79437 11.21862,16.12023 h 7.63336 7.63334 c 0.0921,-8.32586 4.08525,-11.068 11.21864,-16.12023 18.9469,-13.41919 18.28266,-37.02417 17.93764,-58.11221 -0.0377,-2.30847 -1.92961,-4.18058 -4.30967,-4.18058 H 358.667 Z m -13.30219,4.59715 c -8.78601,0.0177 -17.82901,3.92083 -16.38222,15.62347 2.39381,19.36253 19.36074,26.83577 26.79937,28.41599 l -3.62972,-10.1124 c -5.27545,-2.84773 -10.72257,-6.23459 -13.20348,-15.47324 -1.99233,-7.41917 1.50475,-10.75227 8.6563,-9.65515 0.47679,0.0731 0.97021,0.16627 1.47893,0.27891 v -8.85793 c -1.2133,-0.14463 -2.46405,-0.22217 -3.71918,-0.21965 z m 91.56432,0 c -1.25513,-0.003 -2.5059,0.075 -3.71918,0.21964 v 8.85793 c 8.13937,-1.80195 12.26036,1.46247 10.13521,9.37624 -2.48094,9.23865 -7.92803,12.62551 -13.2035,15.47324 l -1.81485,5.0562 -1.81484,5.05621 c 7.43862,-1.58023 24.40555,-9.05346 26.79936,-28.416 1.44681,-11.70264 -7.59619,-15.60585 -16.3822,-15.62347 z m -53.30013,79.84106 c -2.11659,8.40322 -7.35864,12.57937 -16.68083,12.52976 -0.6548,-0.004 -1.18521,0.48757 -1.18521,1.12282 v 9.3391 3.7772 h -8.59275 c -0.86892,0 -1.56778,0.67795 -1.56778,1.52084 v 9.28286 c 0,0.84286 0.69886,1.52139 1.56778,1.52139 h 33.97675 33.97675 c 0.86894,0 1.56778,-0.67853 1.56778,-1.52139 v -9.28286 c 0,-0.84289 -0.69884,-1.52084 -1.56778,-1.52084 H 384.051 v -3.7772 -9.3391 c 0,-0.63525 -0.53041,-1.12653 -1.18521,-1.12282 -9.32217,0.0496 -14.56426,-4.12654 -16.68081,-12.52976 H 358.667 Z"
       sodipodi:nodetypes="scscccssscsssccssccssccscccssccsccsssscssssccscccccs"
       inkscape:label="Trophy Stroke" /><path
       id="path11-7-9"
       style="display:inline;fill:#ffffff;fill-rule:evenodd;stroke:#000000;stroke-width:8;stroke-linecap:round;stroke-linejoin:round;stroke-miterlimit:2;stroke-dasharray:none;stroke-opacity:1;paint-order:stroke fill markers"
       d="m 326.18704,297.76282 c -2.38005,0 -4.27189,1.87211 -4.30964,4.18058 -0.34504,21.08804 -1.00928,44.69302 17.93762,58.11221 7.13337,5.05223 11.12647,7.79437 11.21862,16.12023 h 7.63336 7.63334 c 0.0921,-8.32586 4.08525,-11.068 11.21864,-16.12023 18.9469,-13.41919 18.28266,-37.02417 17.93764,-58.11221 -0.0377,-2.30847 -1.92961,-4.18058 -4.30967,-4.18058 H 358.667 Z m -13.30219,4.59715 c -8.78601,0.0177 -17.82901,3.92083 -16.38222,15.62347 2.39381,19.36253 19.36074,26.83577 26.79937,28.41599 l -3.62972,-10.1124 c -5.27545,-2.84773 -10.72257,-6.23459 -13.20348,-15.47324 -1.99233,-7.41917 1.50475,-10.75227 8.6563,-9.65515 0.47679,0.0731 0.97021,0.16627 1.47893,0.27891 v -8.85793 c -1.2133,-0.14463 -2.46405,-0.22217 -3.71918,-0.21965 z m 91.56432,0 c -1.25513,-0.003 -2.5059,0.075 -3.71918,0.21964 v 8.85793 c 8.13937,-1.80195 12.26036,1.46247 10.13521,9.37624 -2.48094,9.23865 -7.92803,12.62551 -13.2035,15.47324 l -1.81485,5.0562 -1.81484,5.05621 c 7.43862,-1.58023 24.40555,-9.05346 26.79936,-28.416 1.44681,-11.70264 -7.59619,-15.60585 -16.3822,-15.62347 z m -53.30013,79.84106 c -2.11659,8.40322 -7.35864,12.57937 -16.68083,12.52976 -0.6548,-0.004 -1.18521,0.48757 -1.18521,1.12282 v 9.3391 3.7772 h -8.59275 c -0.86892,0 -1.56778,0.67795 -1.56778,1.52084 v 9.28286 c 0,0.84286 0.69886,1.52139 1.56778,1.52139 h 33.97675 33.97675 c 0.86894,0 1.56778,-0.67853 1.56778,-1.52139 v -9.28286 c 0,-0.84289 -0.69884,-1.52084 -1.56778,-1.52084 H 384.051 v -3.7772 -9.3391 c 0,-0.63525 -0.53041,-1.12653 -1.18521,-1.12282 -9.32217,0.0496 -14.56426,-4.12654 -16.68081,-12.52976 H 358.667 Z"
       sodipodi:nodetypes="scscccssscsssccssccssccscccssccsccsssscssssccscccccs"
       inkscape:label="Trophy Stroke" /><path
       id="path11-7-9-8"
       style="display:inline;fill:#ffffff;fill-rule:evenodd;stroke:#000000;stroke-width:8;stroke-linecap:round;stroke-linejoin:round;stroke-miterlimit:2;stroke-dasharray:none;stroke-opacity:1;paint-order:stroke fill markers"
       d="m 326.18705,448.67908 c -2.38005,0 -4.27189,1.87211 -4.30965,4.18058 -0.34503,21.08804 -1.00928,44.69302 17.93763,58.11221 7.13337,5.05223 11.12646,7.79437 11.21862,16.12023 h 7.63335 7.63334 c 0.0921,-8.32586 4.08525,-11.068 11.21864,-16.12023 18.9469,-13.41919 18.28266,-37.02417 17.93764,-58.11221 -0.0377,-2.30847 -1.92961,-4.18058 -4.30967,-4.18058 H 358.667 Z m -13.30219,4.59715 c -8.78601,0.0177 -17.82901,3.92083 -16.38223,15.62347 2.39381,19.36253 19.36075,26.83577 26.79938,28.41599 l -3.62972,-10.1124 c -5.27545,-2.84773 -10.72258,-6.23459 -13.20348,-15.47324 -1.99234,-7.41917 1.50474,-10.75227 8.65629,-9.65515 0.47679,0.0731 0.97021,0.16627 1.47893,0.27891 v -8.85793 c -1.2133,-0.14463 -2.46405,-0.22217 -3.71917,-0.21965 z m 91.56431,0 c -1.25513,-0.003 -2.5059,0.075 -3.71917,0.21964 v 8.85793 c 8.13937,-1.80195 12.26036,1.46247 10.13521,9.37624 -2.48094,9.23865 -7.92803,12.62551 -13.2035,15.47324 l -1.81485,5.0562 -1.81484,5.05621 c 7.43862,-1.58023 24.40555,-9.05346 26.79936,-28.416 1.44681,-11.70264 -7.59619,-15.60585 -16.38221,-15.62347 z m -53.30012,79.84106 c -2.11659,8.40322 -7.35865,12.57937 -16.68083,12.52976 -0.65481,-0.004 -1.18521,0.48757 -1.18521,1.12282 v 9.3391 3.7772 h -8.59275 c -0.86892,0 -1.56779,0.67795 -1.56779,1.52084 v 9.28286 c 0,0.84286 0.69887,1.52139 1.56779,1.52139 h 33.97674 33.97675 c 0.86894,0 1.56778,-0.67853 1.56778,-1.52139 v -9.28286 c 0,-0.84289 -0.69884,-1.52084 -1.56778,-1.52084 H 384.051 v -3.7772 -9.3391 c 0,-0.63525 -0.53041,-1.12653 -1.18521,-1.12282 -9.32216,0.0496 -14.56426,-4.12654 -16.6808,-12.52976 H 358.667 Z"
       sodipodi:nodetypes="scscccssscsssccssccssccscccssccsccsssscssssccscccccs"
       inkscape:label="Trophy Stroke" /><path
       d="m 23.741374,4.8144095 c 0.169635,1.0370774 0.300694,2.487663 -0.135432,5.1090336 -0.339483,2.0404869 -0.712892,4.0759669 -1.043629,6.1178069 0.577653,0.152829 1.635133,-2.283135 2.196433,-3.514424 0.461698,-1.012799 1.03797,-2.8324075 1.510915,-3.4418416 0.35237,-0.422535 1.438727,-0.3415269 1.532158,0.6768551 0.122851,1.3390855 -0.32314,2.8629275 -0.632333,4.1725405 -0.261912,1.109341 -1.263936,2.961848 -2.301204,4.673637 -0.759229,1.293993 -1.626827,2.529171 -2.553875,3.722195 -0.842007,1.163298 -1.689273,2.431763 -1.768758,3.876148 -0.05322,0.923441 0.233524,1.823427 0.566026,2.681051 0.15239,0.561781 -0.230373,1.090945 -0.727652,1.419816 C 19.235754,31.066625 11.866652,31.626553 7.8044414,30.071405 6.7919776,29.683802 7.1669305,28.970558 7.5004538,28.072305 7.8338839,27.1743 7.5903385,25.995606 7.4078193,25.275883 7.0138563,23.722379 3.4236254,20.844299 2.7300489,20.250747 1.6959967,19.387938 0.58342063,18.485085 0.13549486,17.211921 -0.53504116,15.43425 1.0860535,14.711496 2.8675183,15.750463 3.9578157,16.352115 4.7138923,17.326408 5.598946,18.14763 6.3932794,18.829119 7.288231,19.121928 7.696209,17.575707 7.9242074,16.65734 7.8022911,15.709172 7.8473171,14.776451 7.8221588,13.074805 7.5848007,11.382981 7.4260663,9.6884045 7.2535077,7.8505692 7.0629486,6.0138621 6.950759,4.171912 6.8265647,2.1328639 8.4030417,1.1224304 9.3991938,2.5427892 c 0.5712611,0.7531594 1.1096402,1.6254415 1.8070902,5.9974321 0.29731,1.9067777 0.581762,3.8294807 1.279378,5.6486027 1.185945,-1.373019 1.142973,-4.2765435 1.482457,-6.0521766 0.181878,-0.9424634 0.837775,-4.1188542 1.310795,-5.75347 0.706606,-1.80187031 2.263579,-1.99507468 2.830266,-0.1745686 0.406386,1.5178506 0.240679,3.9909129 0.04429,5.8553799 -0.01598,1.9508543 -1.057684,5.1953213 -0.394767,6.9707643 0.89034,-0.220034 1.798682,-4.773656 2.095382,-5.8644668 0.473036,-1.6749185 0.788787,-3.3993578 1.438661,-5.019952 0.285454,-0.7118396 2.112815,-1.3889387 2.448628,0.6640753 z"
       fill="#feb4b4"
       fill-rule="evenodd"
       stroke="none"
       id="path1-8-1"
       sodipodi:nodetypes="ssssssssssssssssssssssssssssssssss"
       style="stroke-width:4.20403;stroke-dasharray:none;stroke:#000000;stroke-linecap:round;stroke-opacity:1;paint-order:stroke markers fill;fill:#f7caaa;fill-opacity:1"
       transform="matrix(1.9951355,0,0,1.8150013,366.68763,517.45965)"
       inkscape:label="Grab Icon" /><path
       id="path17"
       style="display:inline;fill:#6ac5fe;fill-opacity:1;fill-rule:evenodd;stroke:#000000;stroke-width:8;stroke-linecap:round;stroke-linejoin:round;stroke-miterlimit:2;stroke-dasharray:none;stroke-opacity:1;paint-order:stroke fill markers"
       d="m 384.34986,368.42591 v 17.31148 h -17.83042 v 19.63125 h 17.83042 v 17.31149 h 20.21971 V 405.36864 H 422.4 v -19.63125 h -17.83043 v -17.31148 z"
       inkscape:label="Plus Icon"
       sodipodi:nodetypes="ccccccccccccc" /><path
       id="path5-5-6"
       style="display:inline;fill:#f4900c;fill-opacity:1;fill-rule:evenodd;stroke:#000000;stroke-width:8;stroke-linecap:round;stroke-linejoin:round;stroke-miterlimit:2;stroke-dasharray:none;stroke-opacity:1;paint-order:stroke fill markers"
       d="m 422.40016,248.9354 -27.19621,27.45458 -28.34644,-26.46167 27.19623,-27.4546 z"
       inkscape:label="Diamond Icon"
       sodipodi:nodetypes="ccccc" /><path
       id="path15-4-4"
       style="display:inline;fill:#08af50;fill-opacity:1;fill-rule:evenodd;stroke:#000000;stroke-width:8.46027;stroke-linecap:round;stroke-linejoin:round;stroke-miterlimit:2;stroke-dasharray:none;stroke-opacity:1;paint-order:stroke fill markers"
       d="m 389.43888,113.42429 21.84155,-35.98199 10.88954,12.60268 -31.31903,41.1917 -24.1016,-15.43073 10.66233,-12.81275 z"
       sodipodi:nodetypes="ccccccc"
       inkscape:label="Check Icon" /></g><g
     inkscape:groupmode="layer"
     id="layer4"
     inkscape:label="Grap"><path
       d="m 23.741374,4.8144095 c 0.169635,1.0370774 0.300694,2.487663 -0.135432,5.1090336 -0.339483,2.0404869 -0.712892,4.0759669 -1.043629,6.1178069 0.577653,0.152829 1.635133,-2.283135 2.196433,-3.514424 0.461698,-1.012799 1.03797,-2.8324075 1.510915,-3.4418416 0.35237,-0.422535 1.438727,-0.3415269 1.532158,0.6768551 0.122851,1.3390855 -0.32314,2.8629275 -0.632333,4.1725405 -0.261912,1.109341 -1.263936,2.961848 -2.301204,4.673637 -0.759229,1.293993 -1.626827,2.529171 -2.553875,3.722195 -0.842007,1.163298 -1.689273,2.431763 -1.768758,3.876148 -0.05322,0.923441 0.233524,1.823427 0.566026,2.681051 0.15239,0.561781 -0.230373,1.090945 -0.727652,1.419816 C 19.235754,31.066625 11.866652,31.626553 7.8044414,30.071405 6.7919776,29.683802 7.1669305,28.970558 7.5004538,28.072305 7.8338839,27.1743 7.5903385,25.995606 7.4078193,25.275883 7.0138563,23.722379 3.4236254,20.844299 2.7300489,20.250747 1.6959967,19.387938 0.58342063,18.485085 0.13549486,17.211921 -0.53504116,15.43425 1.0860535,14.711496 2.8675183,15.750463 3.9578157,16.352115 4.7138923,17.326408 5.598946,18.14763 6.3932794,18.829119 7.288231,19.121928 7.696209,17.575707 7.9242074,16.65734 7.8022911,15.709172 7.8473171,14.776451 7.8221588,13.074805 7.5848007,11.382981 7.4260663,9.6884045 7.2535077,7.8505692 7.0629486,6.0138621 6.950759,4.171912 6.8265647,2.1328639 8.4030417,1.1224304 9.3991938,2.5427892 c 0.5712611,0.7531594 1.1096402,1.6254415 1.8070902,5.9974321 0.29731,1.9067777 0.581762,3.8294807 1.279378,5.6486027 1.185945,-1.373019 1.142973,-4.2765435 1.482457,-6.0521766 0.181878,-0.9424634 0.837775,-4.1188542 1.310795,-5.75347 0.706606,-1.80187031 2.263579,-1.99507468 2.830266,-0.1745686 0.406386,1.5178506 0.240679,3.9909129 0.04429,5.8553799 -0.01598,1.9508543 -1.057684,5.1953213 -0.394767,6.9707643 0.89034,-0.220034 1.798682,-4.773656 2.095382,-5.8644668 0.473036,-1.6749185 0.788787,-3.3993578 1.438661,-5.019952 0.285454,-0.7118396 2.112815,-1.3889387 2.448628,0.6640753 z"
       fill="#feb4b4"
       fill-rule="evenodd"
       stroke="none"
       id="path1"
       sodipodi:nodetypes="ssssssssssssssssssssssssssssssssss"
       style="stroke:#000000;stroke-width:1.93314473;stroke-linecap:round;stroke-dasharray:none;stroke-opacity:1;paint-order:stroke markers fill"
       inkscape:label="Grab Stroke"
       transform="matrix(4.1638874,0,0,4.1129389,592.28355,2.5157941)" /></g><g
     inkscape:groupmode="layer"
     id="layer5"
     inkscape:label="Enchantment"><path
       d="M 497.68476,53.433586 534.42432,48.697 462.99465,129.69171 461.91536,129.26855 489.34168,72.891021 457.1998,77.151665 489.25284,7.1769507 C 508.60863,7.3588821 504.59267,6.9875651 523.9537,6.9875651 Z"
       fill="#ff0035"
       fill-rule="evenodd"
       stroke="none"
       id="path3-8"
       style="fill:#a2beff;fill-opacity:1;stroke:#000000;stroke-width:8.87644;stroke-linecap:round;stroke-linejoin:round;stroke-dasharray:none;stroke-opacity:1;paint-order:stroke fill markers"
       sodipodi:nodetypes="ccccccccc"
       inkscape:label="Enchantment Stroke" /><path
       d="m 506.00621,197.75046 36.73956,-4.73658 -71.42967,80.99471 -1.07929,-0.42316 27.42632,-56.37753 -32.14188,4.26064 32.05304,-69.97471 c 19.35579,0.18193 15.33983,-0.18939 34.70086,-0.18939 z"
       fill="#ff0035"
       fill-rule="evenodd"
       stroke="none"
       id="path3-8-8"
       style="fill:#a2beff;fill-opacity:1;stroke:#000000;stroke-width:8.87644;stroke-linecap:round;stroke-linejoin:round;stroke-dasharray:none;stroke-opacity:1;paint-order:stroke fill markers"
       sodipodi:nodetypes="ccccccccc"
       inkscape:label="Enchantment Stroke" /><path
       d="m 506.00621,344.04079 36.73956,-4.73658 -71.42967,80.99471 -1.07929,-0.42316 27.42632,-56.37753 -32.14188,4.26064 32.05304,-69.97471 c 19.35579,0.18193 15.33983,-0.18939 34.70086,-0.18939 z"
       fill="#ff0035"
       fill-rule="evenodd"
       stroke="none"
       id="path3-8-8-5"
       style="fill:#ff0035;fill-opacity:1;stroke:#000000;stroke-width:8.87644;stroke-linecap:round;stroke-linejoin:round;stroke-dasharray:none;stroke-opacity:1;paint-order:stroke fill markers"
       sodipodi:nodetypes="ccccccccc"
       inkscape:label="Enchantment Stroke" /><path
       id="path15-4-1-3"
       style="display:inline;fill:#ffffff;fill-opacity:1;fill-rule:evenodd;stroke:#000000;stroke-width:8.46027;stroke-linecap:round;stroke-linejoin:round;stroke-miterlimit:2;stroke-dasharray:none;stroke-opacity:1;paint-order:stroke fill markers"
       d="m 513.5957,114.03055 21.84156,-35.981979 10.88954,12.60268 -31.31903,41.191689 -24.10161,-15.43073 10.66233,-12.81274 z"
       sodipodi:nodetypes="ccccccc"
       inkscape:label="Check Icon" /></g><g
     transform="matrix(0.26458332,0,0,0.26458334,581.45478,291.25272)"
     id="g1"
     style="paint-order:stroke fill markers;stroke:#000000;stroke-opacity:1;stroke-width:30.23622085;stroke-dasharray:none;stroke-linecap:round;stroke-linejoin:round"><path
       d="m 302.56655,256.35528 c 0,22.91277 -19.37744,42.44472 -45.87103,42.44472 -25.40571,0 -44.14857,-18.23759 -44.14857,-43.45201 0,-24.07317 20.89721,-43.23292 44.57919,-43.23292 22.42986,0 45.44041,17.77804 45.44041,44.24021 M 94.958838,255.85163 c 55.512092,73.19651 109.523852,90.03419 162.035292,90.70572 54.01176,0.67152 108.21106,-16.16616 162.59791,-90.70572 -54.76193,-74.53957 -108.35225,-91.98622 -161.98893,-91.31469 -52.51144,0.67153 -107.13218,18.11818 -162.644272,91.31469 m -59.637989,0 C 111.46243,156.12978 185.9625,125.25258 257.60311,124.24528 331.11912,123.238 404.77632,154.1152 479.79265,255.85163 405.1514,357.58806 330.88522,387.85629 256.99413,386.849 185.35352,385.84171 111.46243,355.57348 35.320849,255.85163"
       fill="#ffffcc"
       fill-rule="evenodd"
       stroke="none"
       id="path1-9"
       style="stroke:#000000;stroke-width:30.2362;stroke-linecap:round;stroke-linejoin:round;stroke-dasharray:none;stroke-opacity:1;paint-order:stroke fill markers;fill:#ffffa2;fill-opacity:1"
       sodipodi:nodetypes="csssccccccccccc" /></g><g
     transform="matrix(1.41015,0,0,1.5516375,618.26936,151.77663)"
     id="g1-0"
     style="stroke:#000000;stroke-width:5.40832;stroke-linecap:round;stroke-linejoin:round;stroke-dasharray:none;stroke-opacity:1;paint-order:stroke fill markers"><path
       d="M 21.5,79.3 -1.1,39.5 21.55,-0.35 44.15,39.45 21.5,79.3"
       fill="#cccccc"
       fill-rule="evenodd"
       stroke="none"
       id="path1-99"
       style="stroke:#000000;stroke-width:5.40832;stroke-linecap:round;stroke-linejoin:round;stroke-dasharray:none;stroke-opacity:1;paint-order:stroke fill markers" /></g></svg>
