<?xml version="1.0" encoding="UTF-8" standalone="no"?>
<!-- Created with Inkscape (http://www.inkscape.org/) -->

<svg
   width="1920"
   height="1080"
   viewBox="0 0 507.99998 285.75"
   version="1.1"
   id="svg1"
   inkscape:version="1.4.3 (0d15f75, 2025-12-25)"
   sodipodi:docname="futura.svg"
   xml:space="preserve"
   inkscape:export-filename="futura.png"
   inkscape:export-xdpi="96"
   inkscape:export-ydpi="96"
   xmlns:inkscape="http://www.inkscape.org/namespaces/inkscape"
   xmlns:sodipodi="http://sodipodi.sourceforge.net/DTD/sodipodi-0.dtd"
   xmlns="http://www.w3.org/2000/svg"
   xmlns:svg="http://www.w3.org/2000/svg"><sodipodi:namedview
     id="namedview1"
     pagecolor="#ffffff"
     bordercolor="#000000"
     borderopacity="0.25"
     inkscape:showpageshadow="2"
     inkscape:pageopacity="0.0"
     inkscape:pagecheckerboard="0"
     inkscape:deskcolor="#d1d1d1"
     inkscape:document-units="mm"
     showguides="true"
     inkscape:zoom="0.47663984"
     inkscape:cx="951.45215"
     inkscape:cy="339.87927"
     inkscape:window-width="933"
     inkscape:window-height="1186"
     inkscape:window-x="2160"
     inkscape:window-y="206"
     inkscape:window-maximized="0"
     inkscape:current-layer="layer1"><sodipodi:guide
       position="533.76985,62.845441"
       orientation="0,-1"
       id="guide2"
       inkscape:locked="false" /><sodipodi:guide
       position="-243.2952,62.845442"
       orientation="1,0"
       id="guide3"
       inkscape:locked="false" /><sodipodi:guide
       position="253.10675,198.13251"
       orientation="1,0"
       id="guide1"
       inkscape:locked="false" /></sodipodi:namedview><defs
     id="defs1" /><g
     inkscape:label="Layer 1"
     inkscape:groupmode="layer"
     id="layer1"><path
       id="rect1"
       style="fill:#4d4d4d;fill-opacity:1;stroke:#00af4d;stroke-width:19.2892;stroke-linecap:round;stroke-linejoin:miter;stroke-dasharray:none;stroke-opacity:1;paint-order:markers fill stroke"
       d="M 9.3709078,9.3708878 H 498.35538 V 276.10536 H 9.3709078 v -52.21841 -81.14882 z"
       sodipodi:nodetypes="ccccccc" /><text
       xml:space="preserve"
       style="font-style:normal;font-variant:normal;font-weight:normal;font-stretch:normal;font-size:67.444px;font-family:Sanguis;-inkscape-font-specification:Sanguis;writing-mode:lr-tb;direction:ltr;fill:#ffffff;stroke:none;stroke-width:3.51641;stroke-linecap:round;stroke-linejoin:round;stroke-dasharray:none;stroke-opacity:1;paint-order:stroke fill markers"
       x="65.710304"
       y="152.66904"
       id="text1"
       transform="scale(1.0282082,0.97256567)"><tspan
         sodipodi:role="line"
         id="tspan1"
         style="font-style:normal;font-variant:normal;font-weight:normal;font-stretch:normal;font-size:67.444px;font-family:'Futura LT';-inkscape-font-specification:'Futura LT';stroke:none;stroke-width:3.51641;stroke-dasharray:none;stroke-opacity:1;paint-order:stroke fill markers"
         x="65.710304"
         y="152.66904">QuickLoot IE</tspan></text><path
       style="fill:#ffffff;stroke-width:4.03384;stroke-linecap:round;stroke-linejoin:round;paint-order:stroke markers fill"
       d="M 53.389382,157.21485 H 452.82413 l -7.70779,5.1901 H 60.502224 Z"
       id="path1" /><path
       style="fill:#ffffff;stroke-width:4.03384;stroke-linecap:round;stroke-linejoin:round;paint-order:stroke markers fill"
       d="M 53.389382,87.617486 H 452.82413 l -7.70778,-5.1901 H 60.502224 Z"
       id="rect2" /><path
       d="m 206.26276,198.02582 c 0,2.08587 -1.72849,3.86398 -4.09173,3.86398 -2.26619,0 -3.93808,-1.66029 -3.93808,-3.9557 0,-2.1915 1.86404,-3.93574 3.9765,-3.93574 2.00075,0 4.05331,1.61847 4.05331,4.02746 m -18.51877,-0.0458 c 4.95174,6.66349 9.76963,8.19631 14.45367,8.25747 4.81789,0.0613 9.65252,-1.47172 14.50387,-8.25747 -4.8848,-6.78576 -9.66511,-8.37402 -14.44954,-8.31288 -4.68406,0.0613 -9.55626,1.6494 -14.508,8.31288 m -5.31974,0 c 6.79188,-9.07824 13.43734,-11.88916 19.82774,-11.98086 6.55766,-0.0915 13.12794,2.71923 19.81946,11.98086 -6.65804,9.26164 -13.28265,12.01711 -19.87379,11.92543 -6.39039,-0.0915 -12.98153,-2.84719 -19.77341,-11.92543"
       fill="#ffffcc"
       fill-rule="evenodd"
       stroke="none"
       id="path1-9"
       style="fill:#ffffff;fill-opacity:1;stroke:none;stroke-width:2.7247;stroke-linecap:round;stroke-linejoin:round;stroke-dasharray:none;stroke-opacity:1;paint-order:stroke fill markers"
       sodipodi:nodetypes="csssccccccccccc" /><path
       d="m 165.64818,179.76718 c 0.23813,1.46764 0.42211,3.52042 -0.19017,7.23004 -0.47655,2.88758 -1.00076,5.7681 -1.46504,8.65758 0.81093,0.21629 2.29541,-3.23097 3.08337,-4.9734 0.64814,-1.43327 1.45707,-4.00829 2.121,-4.87073 0.49464,-0.59794 2.01969,-0.48331 2.15084,0.95785 0.17245,1.89501 -0.45361,4.05144 -0.88766,5.90478 -0.36767,1.56986 -1.7743,4.19142 -3.23043,6.61385 -1.06581,1.83118 -2.28375,3.57915 -3.58512,5.26746 -1.18201,1.64622 -2.37141,3.44131 -2.48297,5.4853 -0.0746,1.30682 0.32782,2.5804 0.79456,3.7941 0.21394,0.79499 -0.32338,1.54384 -1.02145,2.00925 -1.61196,1.07466 -11.95668,1.86702 -17.65922,-0.33373 -1.4213,-0.54852 -0.89495,-1.55786 -0.42673,-2.82903 0.46807,-1.27082 0.12613,-2.93883 -0.13003,-3.95734 -0.55303,-2.19846 -5.59299,-6.27133 -6.56666,-7.11131 -1.45158,-1.22098 -3.01342,-2.49867 -3.6422,-4.3004 -0.94131,-2.51564 1.33437,-3.53845 3.83519,-2.06816 1.53059,0.85144 2.59195,2.23021 3.83437,3.39233 1.11509,0.96444 2.37143,1.37879 2.94415,-0.80933 0.32005,-1.29963 0.14892,-2.64146 0.21212,-3.96137 -0.0351,-2.40808 -0.36853,-4.80223 -0.59136,-7.20034 -0.24224,-2.60079 -0.50974,-5.19998 -0.66723,-7.80661 -0.17425,-2.88557 2.03873,-4.31544 3.43712,-2.30544 0.80194,1.06584 1.5577,2.30021 2.53677,8.48724 0.41737,2.69837 0.81669,5.41928 1.796,7.9936 1.66482,-1.94304 1.60452,-6.05196 2.08107,-8.56471 0.25532,-1.33374 1.17607,-5.82878 1.84011,-8.142 0.99193,-2.54994 3.17759,-2.82337 3.97312,-0.24707 0.57047,2.14799 0.33786,5.64773 0.0621,8.28623 -0.0223,2.76073 -1.48475,7.35215 -0.55416,9.86465 1.24988,-0.31138 2.52499,-6.75544 2.94149,-8.29907 0.66407,-2.37026 1.10728,-4.81061 2.01961,-7.10396 0.4007,-1.00736 2.96596,-1.96557 3.43739,0.93974 z"
       fill="#feb4b4"
       fill-rule="evenodd"
       stroke="none"
       id="path1-8"
       sodipodi:nodetypes="ssssssssssssssssssssssssssssssssss"
       style="fill:#ffffff;fill-opacity:1;stroke:none;stroke-width:2.7247;stroke-linecap:round;stroke-dasharray:none;stroke-opacity:1;paint-order:stroke markers fill"
       inkscape:label="Grab Stroke" /><path
       id="path11"
       style="display:inline;fill:#ffffff;fill-rule:evenodd;stroke:none;stroke-width:2.7247;stroke-linecap:round;stroke-linejoin:round;stroke-miterlimit:2;stroke-dasharray:none;stroke-opacity:1;paint-order:stroke fill markers"
       d="m 241.7916,174.34125 c -0.80239,0 -1.44021,0.64415 -1.45294,1.43842 -0.11636,7.25579 -0.34026,15.37759 6.04744,19.99478 2.40491,1.7383 3.75114,2.68182 3.78223,5.54651 h 2.57345 2.57348 c 0.031,-2.86469 1.37729,-3.80821 3.78221,-5.54651 6.3877,-4.61719 6.16377,-12.73899 6.04744,-19.99478 -0.0113,-0.79427 -0.65055,-1.43842 -1.45293,-1.43842 h -10.9502 z m -4.48464,1.58175 c -2.96209,0.006 -6.01084,1.34904 -5.52306,5.37561 0.80707,6.66207 6.52721,9.23341 9.03505,9.77713 l -1.22369,-3.4794 c -1.77856,-0.97983 -3.61498,-2.14513 -4.4514,-5.32391 -0.67167,-2.55271 0.50731,-3.69954 2.91836,-3.32206 0.1607,0.0252 0.32709,0.0572 0.49861,0.0959 v -3.04774 c -0.40906,-0.0497 -0.83072,-0.0763 -1.25387,-0.0756 z m 30.86968,0 c -0.42314,-7.7e-4 -0.84484,0.026 -1.25388,0.0757 v 3.04776 c 2.7441,-0.62 4.13343,0.50321 3.41695,3.22608 -0.8364,3.17879 -2.67282,4.34408 -4.4514,5.32389 l -0.61182,1.73975 -0.61188,1.73969 c 2.50783,-0.54374 8.22802,-3.11506 9.03505,-9.77715 0.48777,-4.02656 -2.56093,-5.36954 -5.52302,-5.37561 z m -17.96942,27.47107 c -0.7136,2.8913 -2.48087,4.32818 -5.62372,4.31109 -0.22076,-9.7e-4 -0.3996,0.16778 -0.3996,0.38636 v 3.21332 1.29964 h -2.8969 c -0.29297,0 -0.52858,0.23324 -0.52858,0.52328 v 3.19396 c 0,0.28998 0.23561,0.52347 0.52858,0.52347 h 11.45478 11.45481 c 0.29298,0 0.52856,-0.23349 0.52856,-0.52347 v -3.19396 c 0,-0.29004 -0.23558,-0.52328 -0.52856,-0.52328 h -2.89692 v -1.29964 -3.21332 c 0,-0.21855 -0.17887,-0.38759 -0.39958,-0.38636 -3.14284,0.0172 -4.91013,-1.41979 -5.62372,-4.31109 h -2.53459 z"
       sodipodi:nodetypes="scscccssscsssccssccssccscccssccsccsssscssssccscccccs"
       inkscape:label="Trophy Stroke" /><path
       style="fill:#ffffff;fill-opacity:1;stroke:none;stroke-width:2.7247;stroke-linecap:round;stroke-linejoin:round;stroke-dasharray:none;stroke-opacity:1;paint-order:stroke fill markers"
       d="m 283.41215,186.58129 c 11.18269,-3.52732 23.58018,-4.79947 37.94491,0 -3.51068,21.03002 -16.00901,30.32877 -19.02818,30.43553 -3.35878,-0.10168 -17.40153,-10.15995 -18.91673,-30.43553 z m 35.74336,1.42183 c 0.0203,-0.25359 -15.73011,-5.1226 -33.49747,-0.12075 0.50118,3.48204 1.65834,9.94073 4.34126,14.49447 3.88586,6.59541 10.52218,12.49679 12.28599,12.87735 1.74168,-0.11749 10.20544,-7.19978 13.15713,-15.3623 2.25748,-6.24283 3.47071,-8.87356 3.71309,-11.88869 z"
       id="path10"
       sodipodi:nodetypes="ccscscscss"
       inkscape:label="Shield Stroke" /><path
       style="display:inline;fill:#ffffff;fill-opacity:1;stroke:#4d4d4d;stroke-width:2.7247;stroke-linecap:round;stroke-linejoin:round;stroke-dasharray:none;stroke-opacity:1;paint-order:stroke fill markers"
       d="m 303.07483,212.10383 c 0.25838,-0.0688 0.52922,-0.29901 1.17596,-0.99905 0.70261,-0.76055 1.65203,-1.61929 2.71081,-2.45194 l 0.20629,-0.16229 -0.26772,-0.80583 c -0.74371,-2.23864 -0.60771,-4.33474 0.41284,-6.36287 1.00309,-1.99351 4.66329,-0.36216 4.66329,2.07838 0,0.53271 0.17787,0.47178 0.32865,-0.11247 0.34065,-1.31943 -0.27915,-2.40195 -1.8946,-3.30926 -1.25104,-0.70261 -1.67165,-1.33744 -1.46695,-2.21413 0.16708,-0.71493 0.20232,-0.73465 0.78784,-0.43899 0.81901,0.41362 2.58871,1.17153 3.40529,1.45843 2.8746,1.00993 4.10821,2.32903 4.42733,4.73405 l 0.0655,0.49297 0.0724,-0.26888 c 0.35752,-1.32845 0.0144,-2.74578 -1.10882,-4.57989 -0.26872,-0.43883 -0.55016,-0.9189 -0.62542,-1.06681 -0.42186,-0.82928 -2.18788,-2.38561 -3.61616,-3.18687 -0.45978,-0.25789 -0.71897,-0.45056 -0.64052,-0.47617 0.0726,-0.0237 0.28233,-0.0895 0.46641,-0.14648 0.45378,-0.14027 0.42484,-0.25943 -0.21049,-0.86743 -0.29983,-0.28694 -0.74505,-0.77379 -0.98941,-1.0819 -0.24432,-0.30811 -0.50229,-0.56019 -0.57325,-0.56019 -0.58809,0 0.81118,-1.99687 1.83666,-2.62102 1.07479,-0.6542 3.20587,-2.55624 3.08468,-2.75317 -0.0664,-0.10758 -0.21895,-0.0482 -0.83627,0.32499 -0.95501,0.57753 -2.28495,0.91814 -3.10353,0.79488 -0.49122,-0.0739 -0.60741,0.10293 0.98027,-1.49294 2.09948,-2.11034 3.31012,-3.98043 3.76446,-5.81498 0.0795,-0.32041 0.22137,-0.83889 0.31563,-1.1522 0.17507,-0.58178 0.2428,-2.01951 0.0993,-2.10852 -0.0397,-0.0246 -0.40685,0.78983 -0.81619,1.80973 -1.3709,3.41559 -1.67633,3.89338 -3.18028,4.97444 -1.22054,0.87739 -3.90697,1.64419 -3.45291,0.98563 2.25801,-3.27509 2.80203,-7.03412 1.41563,-9.78171 -0.24003,-0.47571 -0.57687,-0.66655 -0.46246,-0.26199 0.97026,3.43082 -0.0168,6.27924 -2.80302,8.09258 -0.51535,0.33534 -1.19192,0.85491 -1.50352,1.1546 l -0.56649,0.54485 0.0613,-0.41206 0.0613,-0.41207 -0.59245,-0.4246 c -1.28459,-0.92055 -2.15396,-2.60175 -2.2627,-4.37553 -0.0477,-0.77835 -0.16457,-0.77835 -0.21242,0 -0.10858,1.77378 -0.97813,3.45498 -2.26271,4.37553 l -0.59247,0.4246 0.0613,0.41207 0.0612,0.41206 -0.5665,-0.54485 c -0.31158,-0.29969 -0.98815,-0.81926 -1.50351,-1.1546 -2.78667,-1.81334 -3.77325,-4.66176 -2.80302,-8.09258 0.11448,-0.40456 -0.22243,-0.21372 -0.46246,0.26199 -1.3864,2.74759 -0.84238,6.50662 1.41562,9.78171 0.45406,0.65856 -2.23236,-0.1082 -3.45291,-0.98563 -1.50394,-1.08106 -1.80937,-1.55885 -3.18027,-4.97444 -0.40934,-1.0199 -0.77665,-1.83428 -0.81619,-1.80973 -0.1433,0.0888 -0.0754,1.52674 0.0993,2.10852 0.0941,0.31331 0.2363,0.83179 0.31563,1.1522 0.45434,1.83455 1.665,3.70464 3.76445,5.81498 1.58768,1.59589 1.47152,1.41897 0.98031,1.49294 -0.81859,0.12314 -2.14855,-0.21735 -3.10352,-0.79488 -0.61733,-0.37329 -0.77006,-0.43265 -0.83632,-0.32499 -0.12126,0.19693 2.00994,2.09897 3.08471,2.75317 1.02545,0.62415 2.42473,2.62102 1.83664,2.62102 -0.0708,0 -0.3289,0.25208 -0.57325,0.56019 -0.24433,0.30811 -0.68957,0.79496 -0.9894,1.0819 -0.63533,0.608 -0.66425,0.72721 -0.21049,0.86743 0.18412,0.0569 0.39397,0.12276 0.46641,0.14648 0.0786,0.0256 -0.18068,0.21828 -0.64049,0.47617 -1.42832,0.80126 -3.19433,2.35759 -3.61622,3.18687 -0.0752,0.14786 -0.35664,0.62798 -0.62541,1.06681 -1.1232,1.83411 -1.46631,3.25144 -1.10881,4.57989 l 0.0724,0.26888 0.0655,-0.49297 c 0.31905,-2.40502 1.55268,-3.72412 4.42731,-4.73405 0.8166,-0.2869 2.58624,-1.04481 3.40529,-1.45843 0.58549,-0.29566 0.6209,-0.27594 0.78781,0.43899 0.2047,0.87669 -0.2159,1.51152 -1.46692,2.21413 -1.61547,0.90731 -2.23525,1.98983 -1.89463,3.30926 0.15094,0.58437 0.32867,0.64527 0.32867,0.11247 0,-1.8422 3.03287,-3.84943 4.20719,-2.78443 1.2608,1.14348 1.68662,4.60761 0.86894,7.06892 l -0.26775,0.80583 0.20631,0.16229 c 1.05814,0.83217 2.00787,1.69103 2.70869,2.44965 1.02216,1.10644 1.53403,1.29965 2.65274,1.00134 z"
       id="path9"
       inkscape:label="Dragon Stroke" /><path
       id="path8"
       style="display:inline;fill:#4d4d4d;fill-opacity:1;stroke:none;stroke-width:3.00851;stroke-linecap:round;stroke-linejoin:round;stroke-dasharray:none;stroke-opacity:1;paint-order:stroke fill markers"
       d="m 302.33747,186.84665 c -0.53495,-9.7e-4 -0.73708,0.42187 -0.74483,0.68431 -0.009,0.26244 0.18351,0.75113 0.74483,0.74907 0.56128,-9.7e-4 0.81419,-0.50565 0.79453,-0.76588 -0.0202,-0.26022 -0.25957,-0.66523 -0.79453,-0.6675 z m 0,2.9541 c -0.45293,-9.7e-4 -0.65837,0.43129 -0.68242,0.6598 -0.0242,0.22851 0.12302,0.66665 0.68242,0.68712 0.55941,0.0206 0.81588,-0.34409 0.69342,-0.68956 -0.12239,-0.34547 -0.24047,-0.65396 -0.69342,-0.65736 z m 0.0486,3.08612 c -0.31743,-0.009 -0.67614,0.38755 -0.6837,0.67955 -0.009,0.29203 0.35036,0.45378 0.63522,0.45061 0.28486,-9.8e-4 0.66331,-0.21341 0.66676,-0.49805 9.8e-4,-0.28462 -0.30091,-0.62319 -0.61828,-0.63211 z m -5.638,1.2331 c -0.13637,0.009 -0.0885,0.37531 0.056,1.24029 l 0.19297,1.15728 1.40568,1.4546 c 1.59605,1.65156 1.66742,1.66672 1.12779,0.23843 -0.64881,-1.71733 -1.22667,-2.66715 -2.2162,-3.64245 -0.29357,-0.28932 -0.47298,-0.45312 -0.56617,-0.44815 z m 11.17905,0 c -0.0931,-0.003 -0.27249,0.15902 -0.56598,0.44815 -0.99058,0.97629 -1.56739,1.92462 -2.21834,3.64751 -0.53515,1.41642 -0.45225,1.39791 1.14435,-0.2577 l 1.39138,-1.44282 0.19278,-1.15611 c 0.14401,-0.86419 0.19196,-1.23185 0.0559,-1.23903 z m -7.96525,14.03898 c -0.0918,9.7e-4 -0.19217,0.0398 -0.30712,0.11849 0.36143,0.27287 0.75217,0.65467 1.17903,0.78042 0.0585,-0.0623 -0.38415,-0.66456 -0.61794,-0.82016 -0.0796,-0.0527 -0.1622,-0.0821 -0.25397,-0.0788 z m 4.78804,0.0113 c -0.0539,-9.8e-4 -0.11008,0.0113 -0.17588,0.0527 -0.31183,0.16348 -0.72378,0.61349 -0.71921,0.77376 0.39274,0.0541 0.99235,-0.4696 1.16459,-0.72073 -0.099,-0.0532 -0.18011,-0.1023 -0.2695,-0.10569 z"
       inkscape:label="Detail Stroke" /><path
       d="m 351.10291,190.46449 15.42438,-1.62973 -29.98842,27.86798 -0.4531,-0.14566 11.51445,-19.3979 -13.49417,1.46599 13.45686,-24.07632 c 8.12615,0.0625 6.44015,-0.0651 14.56852,-0.0651 z"
       fill="#ff0035"
       fill-rule="evenodd"
       stroke="none"
       id="path3-8-8"
       style="fill:#ffffff;fill-opacity:1;stroke:none;stroke-width:3.37387;stroke-linecap:round;stroke-linejoin:round;stroke-dasharray:none;stroke-opacity:1;paint-order:stroke fill markers"
       sodipodi:nodetypes="ccccccccc"
       inkscape:label="Enchantment Stroke" /></g><g
     inkscape:groupmode="layer"
     id="layer2"
     inkscape:label="Layer 2" /></svg>
