<?xml version="1.0" encoding="UTF-8" standalone="no"?>
<!-- Created with Inkscape (http://www.inkscape.org/) -->

<svg
   width="1920"
   height="1080"
   viewBox="0 0 1920 1080"
   version="1.1"
   id="svg1"
   xml:space="preserve"
   inkscape:version="1.4.2 (f4327f4, 2025-05-13)"
   sodipodi:docname="QuickLootThumbnail2_3.svg"
   inkscape:export-filename="QuickLootThumbnail2_3.png"
   inkscape:export-xdpi="96"
   inkscape:export-ydpi="96"
   xmlns:inkscape="http://www.inkscape.org/namespaces/inkscape"
   xmlns:sodipodi="http://sodipodi.sourceforge.net/DTD/sodipodi-0.dtd"
   xmlns="http://www.w3.org/2000/svg"
   xmlns:svg="http://www.w3.org/2000/svg"><sodipodi:namedview
     id="namedview1"
     pagecolor="#ffffff"
     bordercolor="#000000"
     borderopacity="0.25"
     inkscape:showpageshadow="2"
     inkscape:pageopacity="0.0"
     inkscape:pagecheckerboard="0"
     inkscape:deskcolor="#d1d1d1"
     inkscape:document-units="px"
     inkscape:zoom="0.1767767"
     inkscape:cx="661.85195"
     inkscape:cy="653.36667"
     inkscape:window-width="1920"
     inkscape:window-height="1009"
     inkscape:window-x="1072"
     inkscape:window-y="421"
     inkscape:window-maximized="1"
     inkscape:current-layer="svg1" /><defs
     id="defs1"><linearGradient
       id="swatch1407"
       inkscape:swatch="solid"><stop
         style="stop-color:#ffffff;stop-opacity:1;"
         offset="0"
         id="stop1407" /></linearGradient></defs><rect
     style="display:inline;fill:#333333;fill-opacity:1"
     id="rect5"
     width="1920"
     height="1080"
     x="0"
     y="0"
     inkscape:label="Background" /><path
     id="rect1-6"
     style="display:inline;fill:#19a654;fill-opacity:1;fill-rule:evenodd;stroke:none;stroke-width:8.54501;stroke-linecap:round;stroke-linejoin:round;stroke-miterlimit:10;stroke-opacity:1;paint-order:stroke fill markers"
     d="M 0 0 L 0 59.820312 L 0 65.138672 L 0 1020.1797 L 0 1080 L 57.900391 1080 L 59.820312 1080 L 960 1080 L 1860.1797 1080 L 1862.0996 1080 L 1920 1080 L 1920 1020.1797 L 1920 65.138672 L 1920 59.820312 L 1920 0 L 1860.1797 0 L 960 0 L 59.820312 0 L 0 0 z M 59.820312 59.820312 L 960 59.820312 L 1860.1797 59.820312 L 1860.1797 65.138672 L 1860.1797 1020.1797 L 960 1020.1797 L 59.820312 1020.1797 L 59.820312 65.138672 L 59.820312 59.820312 z "
     inkscape:label="Background Stroke" /><g
     id="g4"
     transform="matrix(10.413862,0,0,10.413862,-1685.1211,-945.40905)"
     style="display:inline;fill:#e5e5e5;fill-opacity:1"
     inkscape:label="Lines"><path
       id="rect1-9-7"
       style="fill:#e5e5e5;fill-opacity:1;fill-rule:evenodd;stroke-width:0.598209;stroke-linecap:round;stroke-linejoin:round;stroke-miterlimit:10;paint-order:stroke fill markers"
       d="m 174.666,150.0196 c -0.11784,1e-5 -0.15677,0.20203 -0.0522,0.27143 l 2.33785,1.5513 h 76.51935 1.05834 76.51884 l 2.33784,-1.5513 c 0.10458,-0.0694 0.0662,-0.27142 -0.0517,-0.27143 H 254.52934 253.471 Z" /><path
       id="rect1-2-1-4"
       style="fill:#e5e5e5;fill-opacity:1;fill-rule:evenodd;stroke-width:0.598209;stroke-linecap:round;stroke-linejoin:round;stroke-miterlimit:10;paint-order:stroke fill markers"
       d="m 174.66599,127.10853 c -0.11783,-1e-5 -0.15677,-0.20203 -0.0522,-0.27143 l 2.33784,-1.5513 h 76.51937 1.05833 76.51884 l 2.33784,1.5513 c 0.10458,0.0694 0.0662,0.27142 -0.0517,0.27143 H 254.52933 253.471 Z" /></g><g
     id="g2"
     style="display:inline;fill:#e5e5e5;fill-opacity:1"
     transform="matrix(10.413862,0,0,10.413862,-1685.1211,-945.40905)"
     inkscape:label="Text"><text
       xml:space="preserve"
       style="font-style:normal;font-variant:normal;font-weight:normal;font-stretch:normal;font-size:24.926px;font-family:'Futura Lt BT';-inkscape-font-specification:'Futura Lt BT, Normal';font-variant-ligatures:normal;font-variant-caps:normal;font-variant-numeric:normal;font-variant-east-asian:normal;text-align:start;writing-mode:lr-tb;direction:ltr;text-anchor:start;fill:#e5e5e5;fill-opacity:1;fill-rule:evenodd;stroke:none;stroke-width:0.668552;stroke-linecap:round;stroke-linejoin:round;stroke-miterlimit:10;paint-order:stroke fill markers"
       x="278.04456"
       y="166.93434"
       id="text3-3"
       transform="scale(1.136322,0.88003225)"><tspan
         sodipodi:role="line"
         id="tspan3-5"
         style="fill:#e5e5e5;fill-opacity:1;stroke-width:0.668552"
         x="278.04456"
         y="166.93434">E</tspan></text><text
       xml:space="preserve"
       style="font-style:normal;font-variant:normal;font-weight:normal;font-stretch:normal;font-size:24.926px;font-family:'Futura Lt BT';-inkscape-font-specification:'Futura Lt BT, Normal';font-variant-ligatures:normal;font-variant-caps:normal;font-variant-numeric:normal;font-variant-east-asian:normal;text-align:start;writing-mode:lr-tb;direction:ltr;text-anchor:start;fill:#e5e5e5;fill-opacity:1;fill-rule:evenodd;stroke:none;stroke-width:0.668552;stroke-linecap:round;stroke-linejoin:round;stroke-miterlimit:10;paint-order:stroke fill markers"
       x="270.60455"
       y="166.93434"
       id="text3-1-9"
       transform="scale(1.136322,0.88003225)"><tspan
         sodipodi:role="line"
         id="tspan3-6-8"
         style="fill:#e5e5e5;fill-opacity:1;stroke-width:0.668552"
         x="270.60455"
         y="166.93434">I</tspan></text><text
       xml:space="preserve"
       style="font-style:normal;font-variant:normal;font-weight:normal;font-stretch:normal;font-size:21.7058px;font-family:'Futura Lt BT';-inkscape-font-specification:'Futura Lt BT, Normal';font-variant-ligatures:normal;font-variant-caps:normal;font-variant-numeric:normal;font-variant-east-asian:normal;text-align:start;writing-mode:lr-tb;direction:ltr;text-anchor:start;fill:#e5e5e5;fill-opacity:1;fill-rule:evenodd;stroke:none;stroke-width:0.582181;stroke-linecap:round;stroke-linejoin:round;stroke-miterlimit:10;paint-order:stroke fill markers"
       x="170.24107"
       y="152.571"
       id="text3-6-4"
       transform="scale(1.0476458,0.95452107)"><tspan
         sodipodi:role="line"
         id="tspan3-1-0"
         style="fill:#e5e5e5;fill-opacity:1;stroke-width:0.582181"
         x="170.24107"
         y="152.571">Q</tspan></text><text
       xml:space="preserve"
       style="font-style:normal;font-variant:normal;font-weight:normal;font-stretch:normal;font-size:21.7058px;font-family:'Futura Lt BT';-inkscape-font-specification:'Futura Lt BT, Normal';font-variant-ligatures:normal;font-variant-caps:normal;font-variant-numeric:normal;font-variant-east-asian:normal;text-align:start;writing-mode:lr-tb;direction:ltr;text-anchor:start;fill:#e5e5e5;fill-opacity:1;fill-rule:evenodd;stroke:none;stroke-width:0.582181;stroke-linecap:round;stroke-linejoin:round;stroke-miterlimit:10;paint-order:stroke fill markers"
       x="191.28868"
       y="153.23869"
       id="text3-6-7-7"
       transform="scale(1.0476458,0.95452107)"><tspan
         sodipodi:role="line"
         id="tspan3-1-9-6"
         style="fill:#e5e5e5;fill-opacity:1;stroke-width:0.582181"
         x="191.28868"
         y="153.23869">u</tspan></text><text
       xml:space="preserve"
       style="font-style:normal;font-variant:normal;font-weight:normal;font-stretch:normal;font-size:21.7058px;font-family:'Futura Lt BT';-inkscape-font-specification:'Futura Lt BT, Normal';font-variant-ligatures:normal;font-variant-caps:normal;font-variant-numeric:normal;font-variant-east-asian:normal;text-align:start;writing-mode:lr-tb;direction:ltr;text-anchor:start;fill:#e5e5e5;fill-opacity:1;fill-rule:evenodd;stroke:none;stroke-width:0.582181;stroke-linecap:round;stroke-linejoin:round;stroke-miterlimit:10;paint-order:stroke fill markers"
       x="204.17064"
       y="153.65205"
       id="text3-6-7-1-3"
       transform="scale(1.0476458,0.95452107)"><tspan
         sodipodi:role="line"
         id="tspan3-1-9-2-6"
         style="fill:#e5e5e5;fill-opacity:1;stroke-width:0.582181"
         x="204.17064"
         y="153.65205">i</tspan></text><text
       xml:space="preserve"
       style="font-style:normal;font-variant:normal;font-weight:normal;font-stretch:normal;font-size:21.7058px;font-family:'Futura Lt BT';-inkscape-font-specification:'Futura Lt BT, Normal';font-variant-ligatures:normal;font-variant-caps:normal;font-variant-numeric:normal;font-variant-east-asian:normal;text-align:start;writing-mode:lr-tb;direction:ltr;text-anchor:start;fill:#e5e5e5;fill-opacity:1;fill-rule:evenodd;stroke:none;stroke-width:0.582181;stroke-linecap:round;stroke-linejoin:round;stroke-miterlimit:10;paint-order:stroke fill markers"
       x="211.49788"
       y="153.45134"
       id="text3-6-7-1-1-1"
       transform="scale(1.0476458,0.95452107)"><tspan
         sodipodi:role="line"
         id="tspan3-1-9-2-1-5"
         style="fill:#e5e5e5;fill-opacity:1;stroke-width:0.582181"
         x="211.49788"
         y="153.45134">c</tspan></text><text
       xml:space="preserve"
       style="font-style:normal;font-variant:normal;font-weight:normal;font-stretch:normal;font-size:21.7058px;font-family:'Futura Lt BT';-inkscape-font-specification:'Futura Lt BT, Normal';font-variant-ligatures:normal;font-variant-caps:normal;font-variant-numeric:normal;font-variant-east-asian:normal;text-align:start;writing-mode:lr-tb;direction:ltr;text-anchor:start;fill:#e5e5e5;fill-opacity:1;fill-rule:evenodd;stroke:none;stroke-width:0.582181;stroke-linecap:round;stroke-linejoin:round;stroke-miterlimit:10;paint-order:stroke fill markers"
       x="223.96776"
       y="153.90709"
       id="text3-6-7-1-4-4"
       transform="scale(1.0476458,0.95452107)"><tspan
         sodipodi:role="line"
         id="tspan3-1-9-2-2-2"
         style="fill:#e5e5e5;fill-opacity:1;stroke-width:0.582181"
         x="223.96776"
         y="153.90709">k</tspan></text><text
       xml:space="preserve"
       style="font-style:normal;font-variant:normal;font-weight:normal;font-stretch:normal;font-size:21.7058px;font-family:'Futura Lt BT';-inkscape-font-specification:'Futura Lt BT, Normal';font-variant-ligatures:normal;font-variant-caps:normal;font-variant-numeric:normal;font-variant-east-asian:normal;text-align:start;writing-mode:lr-tb;direction:ltr;text-anchor:start;fill:#e5e5e5;fill-opacity:1;fill-rule:evenodd;stroke:none;stroke-width:0.582181;stroke-linecap:round;stroke-linejoin:round;stroke-miterlimit:10;paint-order:stroke fill markers"
       x="236.67897"
       y="153.90709"
       id="text3-6-7-1-1-3-0"
       transform="scale(1.0476458,0.95452107)"><tspan
         sodipodi:role="line"
         id="tspan3-1-9-2-1-1-9"
         style="fill:#e5e5e5;fill-opacity:1;stroke-width:0.582181"
         x="236.67897"
         y="153.90709">L</tspan></text><text
       xml:space="preserve"
       style="font-style:normal;font-variant:normal;font-weight:normal;font-stretch:normal;font-size:21.7058px;font-family:'Futura Lt BT';-inkscape-font-specification:'Futura Lt BT, Normal';font-variant-ligatures:normal;font-variant-caps:normal;font-variant-numeric:normal;font-variant-east-asian:normal;text-align:start;writing-mode:lr-tb;direction:ltr;text-anchor:start;fill:#e5e5e5;fill-opacity:1;fill-rule:evenodd;stroke:none;stroke-width:0.582181;stroke-linecap:round;stroke-linejoin:round;stroke-miterlimit:10;paint-order:stroke fill markers"
       x="249.56154"
       y="153.49376"
       id="text3-6-7-1-1-3-5-7"
       transform="scale(1.0476458,0.95452107)"><tspan
         sodipodi:role="line"
         id="tspan3-1-9-2-1-1-0-3"
         style="fill:#e5e5e5;fill-opacity:1;stroke-width:0.582181"
         x="249.56154"
         y="153.49376">o</tspan></text><text
       xml:space="preserve"
       style="font-style:normal;font-variant:normal;font-weight:normal;font-stretch:normal;font-size:21.7058px;font-family:'Futura Lt BT';-inkscape-font-specification:'Futura Lt BT, Normal';font-variant-ligatures:normal;font-variant-caps:normal;font-variant-numeric:normal;font-variant-east-asian:normal;text-align:start;writing-mode:lr-tb;direction:ltr;text-anchor:start;fill:#e5e5e5;fill-opacity:1;fill-rule:evenodd;stroke:none;stroke-width:0.582181;stroke-linecap:round;stroke-linejoin:round;stroke-miterlimit:10;paint-order:stroke fill markers"
       x="264.89902"
       y="153.49376"
       id="text3-6-7-1-1-3-5-0-7"
       transform="scale(1.0476458,0.95452107)"><tspan
         sodipodi:role="line"
         id="tspan3-1-9-2-1-1-0-2-2"
         style="fill:#e5e5e5;fill-opacity:1;stroke-width:0.582181"
         x="264.89902"
         y="153.49376">o</tspan></text><text
       xml:space="preserve"
       style="font-style:normal;font-variant:normal;font-weight:normal;font-stretch:normal;font-size:21.7058px;font-family:'Futura Lt BT';-inkscape-font-specification:'Futura Lt BT, Normal';font-variant-ligatures:normal;font-variant-caps:normal;font-variant-numeric:normal;font-variant-east-asian:normal;text-align:start;writing-mode:lr-tb;direction:ltr;text-anchor:start;fill:#e5e5e5;fill-opacity:1;fill-rule:evenodd;stroke:none;stroke-width:0.582181;stroke-linecap:round;stroke-linejoin:round;stroke-miterlimit:10;paint-order:stroke fill markers"
       x="280.93451"
       y="153.90712"
       id="text3-6-7-1-1-3-5-0-0-6"
       transform="scale(1.0476458,0.95452107)"><tspan
         sodipodi:role="line"
         id="tspan3-1-9-2-1-1-0-2-6-0"
         style="fill:#e5e5e5;fill-opacity:1;stroke-width:0.582181"
         x="280.93451"
         y="153.90712">t</tspan></text></g><g
     id="g1"
     inkscape:label="Icons"
     style="display:inline;fill:#e5e5e5;fill-opacity:1"
     transform="matrix(1.3997937,0,0,1.3997937,-388.17233,-365.1665)"><path
       d="m 660.79295,757.48949 c -19.432,-0.15383 -37.1843,10.94661 -51.7992,23.93529 -6.853,6.33835 -13.4983,13.1006 -19.0473,20.79712 -3.5252,5.67133 0.7386,11.73555 4.8994,15.21025 16.5752,17.17641 37.2068,31.70998 60.5071,34.22389 14.0624,1.46033 28.1509,-2.34924 40.6331,-9.26487 13.7292,-7.47764 26.1285,-17.84398 36.5743,-30.00729 4.3401,-5.67236 -0.4426,-12.15478 -4.4207,-16.10642 -15.1568,-17.52272 -33.9173,-33.11547 -56.1089,-37.88058 -3.7022,-0.72851 -7.4756,-1.06696 -11.2378,-0.90739 z m 1.4415,16.05056 c 15.9095,-0.29292 29.4673,16.41698 27.9302,33.39828 -0.8205,16.37798 -15.1261,30.20621 -30.2895,28.96162 -15.9653,-0.3481 -29.518,-17.4189 -27.2051,-34.59863 1.2068,-15.60843 15.0342,-28.9268 29.5644,-27.76127 z m 29.0065,6.70492 c 10.8961,6.80859 20.5337,15.84529 29.003,25.86508 -2.2152,5.79281 -9.8793,9.97576 -14.558,14.54884 -5.6494,4.35968 -11.6707,8.53493 -18.007,11.4147 12.102,-13.06654 13.7817,-35.71465 3.2011,-50.41931 -1.4382,-2.38368 -3.4317,-4.0167 0.3605,-1.40931 z m -57.9209,-0.97607 c -9.7567,12.58696 -11.3355,31.8471 -3.1871,45.83029 1.1739,3.1649 8.1652,9.72484 1.5821,5.4342 -11.0836,-6.02921 -21.0742,-14.25135 -29.8651,-23.69306 9.0465,-10.89524 19.5371,-20.58259 31.4701,-27.57143 z m 28.7656,5.69594 c -10.5195,-1.12071 -20.2138,9.8214 -18.9309,21.16558 0.2566,12.43983 13.4241,21.79113 24.1348,17.28919 10.0468,-3.28165 15.3727,-16.83542 10.7747,-26.96678 -2.8795,-6.51753 -9.194,-11.52303 -15.9786,-11.48799 z"
       fill="#931826"
       stroke-width="0.905276"
       id="path1"
       style="fill:#e5e5e5;fill-opacity:1"
       inkscape:label="Icon - Eye" /><path
       id="rect5-5"
       style="fill:#e5e5e5;fill-opacity:1;fill-rule:evenodd;stroke-width:3.97761;stroke-linecap:round;stroke-linejoin:round;stroke-miterlimit:10;paint-order:stroke fill markers"
       d="m 829.00605,752.79104 c -2.7182,-0.11225 -5.6899,1.72865 -6.4971,5.86077 -3.2614,16.69383 -3.0808,21.51556 -5.5139,32.9249 -0.8793,4.12324 -6.6076,4.88644 -7.1545,0.85602 l -3.944,-29.06309 c -1.6421,-12.1005 -14.5112,-10.85019 -12.8663,1.45773 2.034,15.2203 4.7676,28.9556 5.3567,46.09081 0.078,2.25033 -3.428,3.66327 -5.0265,1.49665 l -12.21,-10.99321 c -6.9516,-6.25882 -15.0493,4.24135 -8.8323,10.12948 l 19.897,18.84438 c 3.3616,3.18376 4.8341,16.36414 0.5833,25.13847 18.5735,6.24748 41.9681,6.79283 59.9121,-1.93376 -1.7077,-8.70999 -5.0852,-21.54247 4.6617,-34.83367 2.275,-3.10228 3.7775,-10.02615 5.4602,-14.359 2.4444,-6.29397 6.3702,-16.02674 7.1524,-18.93845 1.5488,-5.76511 -5.9499,-8.17009 -9.1809,-0.58231 l -5.2037,12.22061 c -1.9763,4.64137 -6.3713,3.25523 -5.137,-1.93089 0.1614,-0.67854 0.322,-1.45572 0.4838,-2.31477 1.1304,-6.01308 2.2981,-16.01926 4.0192,-24.01036 1.9669,-9.13273 -8.5343,-12.62997 -11.2066,-0.59501 l -5.9774,26.92014 c -0.7318,3.29556 -6.8536,3.0748 -6.8889,0 -0.1262,-10.99978 2.4824,-25.66662 3.0899,-36.52467 0.2059,-3.68247 -2.2589,-5.74836 -4.9772,-5.86077 z"
       sodipodi:nodetypes="ssssssscsssccsssssssssssss"
       inkscape:label="Icon - Hand" /><path
       id="path275"
       style="fill:#e5e5e5;fill-opacity:1;stroke-width:1.13054"
       d="m 1101.4758,747.63989 c -0.9944,6.37625 -1.6507,14.53557 7.4381,20.98439 -11.6716,-0.91147 -19.5946,-10.05778 -24.0895,-17.90321 1.3016,8.66276 6.468,20.46456 17.9585,25.07577 -6.5269,0.70159 -11.3521,-0.45793 -15.7777,-6.15141 l 1.751,5.37241 c 2.5878,7.94064 14.8533,7.75287 15.5499,14.60897 0.492,4.84101 -3.9853,6.82726 -8.0305,7.37405 1.7219,0.92421 6.3267,1.34075 3.6144,2.98443 -17.1,10.36263 -23.6407,20.12659 -18.7768,31.42329 -1.9076,-13.50149 18.5002,-19.69073 20.3625,-20.45476 1.5309,-0.62816 4.9818,-4.99132 6.142,-2.5954 0.5758,1.18907 0.3885,3.40758 -0.1504,3.95516 -6.1899,6.28955 -15.3052,10.0995 -9.4297,19.095 0.2778,-7.02803 3.3987,-12.50555 13.383,-13.38043 3.4314,7.78337 5.1188,16.22895 3.1237,24.27076 5.4094,2.76163 9.3326,6.42766 11.7706,10.99809 h 2.6674 2.6674 c 2.4378,-4.57043 6.3611,-8.23646 11.7704,-10.99809 -1.9951,-8.04181 -0.3073,-16.48739 3.1236,-24.27076 9.9844,0.87488 13.1049,6.3524 13.3832,13.38043 5.8754,-8.99546 -3.24,-12.80545 -9.4298,-19.095 -0.5389,-0.54758 -0.7261,-2.76609 -0.1504,-3.95516 1.1602,-2.39592 4.611,1.96724 6.142,2.5954 1.8623,0.76399 22.27,6.95327 20.3625,20.45476 4.8639,-11.2967 -1.6768,-21.06066 -18.7768,-31.42329 -2.7122,-1.64364 1.8925,-2.06019 3.6143,-2.98443 -4.0451,-0.54679 -8.5225,-2.53304 -8.0305,-7.37405 0.6967,-6.8561 12.9622,-6.66833 15.55,-14.60897 l 1.751,-5.37241 c -4.4256,5.69348 -9.2509,6.85297 -15.7778,6.15141 11.4907,-4.61121 16.6569,-16.41301 17.9585,-25.07577 -4.4948,7.84543 -12.4179,16.99174 -24.0895,17.90321 9.0889,-6.44882 8.4325,-14.60814 7.4382,-20.98439 -3.7984,4.6679 -6.2697,11.7648 -12.5891,14.31144 -3.2967,1.32847 -4.0332,4.23651 -4.9481,5.47408 -1.2879,1.74233 -2.4922,-2.18729 -0.8717,-4.21111 -8.4926,-1.72297 -7.6586,-8.80006 -9.0977,-15.57441 -1.439,6.77435 -0.6051,13.85144 -9.0977,15.57441 1.6205,2.02382 0.4161,5.95344 -0.8717,4.21111 -0.9148,-1.23757 -1.6513,-4.14561 -4.9481,-5.47408 -6.3194,-2.54664 -8.7907,-9.64354 -12.5891,-14.31144 z m -15.8698,20.32705 c -6.2544,1.33788 -9.5406,2.04019 -14.3101,3.06036 0.019,3.81948 0.1739,7.60354 0.5031,11.4 1.2477,10.60124 3.784,21.95063 7.878,32.89762 0.2313,-0.43336 0.4643,-0.86601 0.7237,-1.28062 1.1751,-1.80329 2.5354,-3.45479 4.0038,-5.00644 -4.2854,-12.33162 -6.068,-24.2397 -6.0683,-33.16112 2.8711,-0.60964 5.1171,-1.07486 7.7857,-1.63737 -0.3454,-1.06507 -0.6736,-2.13558 -1.0415,-3.16875 -0.6104,-0.99568 -0.3458,-2.36134 0.5256,-3.10368 z m 86.7691,0.004 c 0.3932,0.29215 0.6947,0.69399 0.7873,1.21477 0.039,1.4956 -0.6482,2.89444 -1.0844,4.2991 -0.066,0.25361 -0.1527,0.504 -0.2267,0.75682 2.666,0.56201 4.9093,1.02663 7.7772,1.63574 -2e-4,8.91515 -1.7804,20.81284 -6.0593,33.13538 1.7506,1.8415 3.3218,3.84246 4.5771,6.0762 0.05,0.0835 0.084,0.17385 0.133,0.25776 4.0988,-10.9536 6.6379,-22.31104 7.8865,-32.91923 0.3288,-3.79654 0.4877,-7.58052 0.503,-11.4 -4.7641,-1.01896 -8.0471,-1.72067 -14.2937,-3.05688 z m -62.8117,27.99817 c 0.116,-0.004 0.277,0.0488 0.4774,0.16479 1.6923,0.97882 3.2313,2.37139 4.6447,3.66421 0.8673,0.79325 2.0602,1.33969 2.4694,2.14677 0.5604,1.10518 0.7944,2.29236 1.2807,3.25977 1.8472,3.67431 3.3114,6.62649 3.7111,11.48262 0.091,1.10245 -0.288,1.19429 -0.8351,0.23773 -2.0981,-3.66954 -4.9706,-7.05346 -7.4854,-8.99331 -2.445,-1.88602 -1.9666,-3.34114 -2.0565,-4.84947 -0.175,-2.92989 -1.0789,-4.48932 -2.2303,-6.39542 -0.2642,-0.43812 -0.2305,-0.71062 0.026,-0.71746 z m 38.838,0 c 0.2548,0.004 0.2888,0.27931 0.027,0.71751 -1.1513,1.90605 -2.0556,3.46552 -2.2303,6.39541 -0.09,1.5083 0.3886,2.96341 -2.0564,4.84944 -2.5149,1.93984 -5.3874,5.32376 -7.4855,8.99334 -0.5469,0.95656 -0.9258,0.86465 -0.8351,-0.23811 0.3997,-4.8562 1.864,-7.80831 3.7112,-11.48265 0.4863,-0.9673 0.7202,-2.15452 1.2807,-3.25973 0.4091,-0.80705 1.602,-1.35345 2.4693,-2.14674 1.4135,-1.29282 2.9524,-2.68543 4.6448,-3.66425 0.1995,-0.11603 0.3613,-0.16743 0.4774,-0.16479 z m -59.5351,24.00155 c -0.7834,0.6353 -1.5406,1.30008 -2.2303,2.02998 -1.0407,1.06534 -1.9072,2.34274 -2.5095,3.7239 9.1435,18.82567 23.5447,35.19178 44.8554,42.55551 l 9e-4,-8.7e-4 v 8.7e-4 c 21.315,-7.36528 35.7179,-23.73656 44.8612,-42.56693 -0.626,-1.43134 -1.5441,-2.74696 -2.64,-3.84642 -0.6635,-0.67824 -1.3757,-1.2968 -2.1078,-1.89022 -7.844,16.64084 -20.6128,32.68524 -40.1134,41.87898 l -9e-4,8.7e-4 v -8.7e-4 c -19.5028,-9.19472 -32.2718,-25.24188 -40.1156,-41.8848 z m 33.3459,19.04466 c 0.1417,-0.004 0.2827,0.0491 0.4031,0.17726 1.1337,1.2014 2.6777,2.67111 3.1249,4.5789 0.4883,2.08267 -0.034,2.62416 -1.213,1.36293 -1.3657,-1.45595 -3.1401,-2.53666 -4.5179,-3.73632 -0.234,-0.2041 -0.2124,-0.50899 0.039,-0.68878 0,0 1.2003,-0.84586 1.6565,-1.40705 0.1425,-0.17574 0.3262,-0.28082 0.5084,-0.28686 z m 13.5404,0 c 0.1822,0.004 0.3655,0.1115 0.5084,0.28687 0.4562,0.5613 1.6564,1.40712 1.6564,1.40712 0.2506,0.17952 0.2714,0.48514 0.039,0.68866 -1.3778,1.19974 -3.1522,2.28038 -4.5179,3.73641 -1.1829,1.26119 -1.7013,0.71969 -1.213,-1.36294 0.4474,-1.90779 1.9912,-3.37757 3.125,-4.57893 0.1206,-0.12737 0.2616,-0.18218 0.4031,-0.17726 z"
       inkscape:label="Icon - LOTD" /><path
       id="path10"
       style="display:inline;fill:#e5e5e5;fill-opacity:1;fill-rule:evenodd;stroke-width:0.261431;paint-order:stroke fill markers"
       inkscape:label="Icon - Trophy"
       d="m 934.80745,805.67847 v -6.73618 c -18.1755,0.92099 -31.5856,-41.0228 -0.5095,-35.39479 l -0.015,-8.04597 c -38.7958,-6.50804 -31.2012,50.43685 0.5246,50.17694 z m 79.87175,-50.17694 -0.015,8.04597 c 31.0761,-5.62801 17.6661,36.31578 -0.5095,35.39479 v 6.73618 c 31.7257,0.26003 39.3204,-56.68498 0.5246,-50.17694 z m -76.79655,-0.004 c -0.05,17.58388 -0.03,33.16781 -0.03,50.75169 7.2612,4.03544 15.7928,5.42479 24.1073,5.43095 -1.6487,18.40778 -3.0136,31.92446 -21.3403,37.75631 -6.9883,2.22384 -9.4041,8.40046 -5.3455,10.88519 7.747,4.74282 21.1612,7.12245 36.9561,7.14841 0.7652,-9e-4 1.4961,-0.034 2.2498,-0.0465 0.7536,0.0113 1.4846,0.0457 2.2497,0.0465 15.7948,-0.0265 29.20915,-2.40559 36.95615,-7.14841 4.0586,-2.48473 1.6429,-8.66135 -5.3456,-10.88519 -18.32655,-5.83185 -19.69155,-19.34853 -21.34025,-37.75631 8.3145,-0.004 16.84615,-1.39551 24.10735,-5.43095 0,-17.58388 0.019,-33.16781 -0.03,-50.75169 -24.39815,-1.33334 -48.79625,-1.33334 -73.19435,0 z"
       sodipodi:nodetypes="cccccccccccccsscccsscccc" /><path
       d="m 1319.7094,752.7859 -37.8101,42.9744 h 35.0093 l -99.8934,72.51927 50.8803,-57.07536 h -40.6109 l 51.8139,-58.41831 h 40.6109"
       fill="#ffd054"
       fill-rule="evenodd"
       stroke="none"
       id="path2"
       style="fill:#e5e5e5;fill-opacity:1;stroke-width:7.91754"
       inkscape:label="Icon - Lightning" /></g></svg>
